<?xml version="1.0" encoding="utf-8"?>
<!-- Generator: Adobe Illustrator 21.1.0, SVG Export Plug-In . SVG Version: 6.00 Build 0)  -->
<svg version="1.1" id="Layer_1" xmlns="http://www.w3.org/2000/svg" xmlns:xlink="http://www.w3.org/1999/xlink" x="0px" y="0px"
	 viewBox="0 0 1170 167" style="enable-background:new 0 0 1170 167;" xml:space="preserve">
<style type="text/css">
	.st0{stroke:#000000;stroke-miterlimit:10;}
</style>
<title>1-processes-large3</title>
<path class="st0" d="M94.4,85.1c0-4.5,0.6-8.9,1.8-13.2c2.6-8.8,6.8-17,12.4-24.3c1.7-2.2,3.1-4.7,4.2-7.3c3-7,8.6-11,16-12
	c11.9-1.7,22.2,3.3,28.5,14.1c4.5,7.8,5,16.1,2.8,24.6c-3.2,12.5-9.6,23.3-18,33c-3.8,4.5-8.1,8.5-12.9,11.8
	c-3,2.1-6.5,3.4-10.1,3.9c-4.9,0.6-9.1-0.9-13.1-3.7c-7.3-5.3-10.2-12.9-11.3-21.4C94.5,88.8,94.4,86.9,94.4,85.1z M126.3,40.9
	c-3.2-1.3-4.9,0.6-6.6,2.5c-1.1,1.2-2.4,2.2-2.7,4c-0.2,0.8-0.7,1.5-1.4,1.9c-2.5,1.6-4,4-5.5,6.3c-3.9,6.2-6.8,12.9-8.8,20
	c-2.6,9.2-1.6,19.1,3,27.6c1.2,2.2,2.7,4.2,4.5,5.9c2.2,2.4,5.6,3.3,8.7,2.2c1.4-0.5,2.9-0.9,4.2-1.4c4.4-2,8.4-4.8,11.7-8.3
	c8-7.7,14.5-17,18.9-27.2c2.8-6.6,5.2-13.4,4.5-20.7c-0.7-7.9-4.1-14.3-10.6-18.9c-5.7-4-13.4-4.1-19.2-0.2L126.3,40.9z M397,107.2
	c-0.2,6.4-0.4,12.6-0.7,18.7c-0.5,9.6-1.1,19.3-1.6,28.9c0,2.5,0.1,5,0.5,7.4c0.2,2.4-0.3,3.4-1.8,3.4c-1.8-0.1-2.9-1.2-2.9-3.3
	c0.1-3,0.2-6,0.5-9c1.7-14.1,2.5-28.2,2.8-42.3c0.1-2.8-1.3-5.1-2.1-7.9c2-2,2.1-4.6,2.1-7.3c0-8.8,0-17.6,0.1-26.4
	c0.1-0.8,0.2-1.6,0.4-2.5c2.6,0.5,1.7,3.4,3.9,4.2c0.6-0.2,1.2-0.5,1.8-0.8c6.1-5.1,12.9-9.4,20.1-12.8c7.3-3.6,15-6.2,23-7.7
	c2.6-0.5,5.3-0.6,7.9-0.4c4.4,0.5,6.6,3.8,5.9,8.2s-3.1,8-5.8,11.5c-5.5,7-12.4,12.5-19.5,17.8C424,92.4,416,97.5,407.7,102
	C404.2,104,400.7,105.7,397,107.2z M397.4,100.9c0.7,0.2,1.5,0.2,2.2,0.1c3.8-2,7.6-4,11.4-6.1c2-1.1,4-2.4,6-3.5
	c0.9-0.4,1.8-0.8,2.6-1.2c5.4-4.2,10.6-8.5,16-12.7c5.2-4.2,9.7-9.1,13.4-14.7c1.1-1.8,2-3.8,2.6-5.9c0.5-1.1,0.1-2.4-1-2.9
	c0,0,0,0,0,0l0,0c-0.3-0.2-0.7-0.2-1.1-0.2c-2.3,0-4.6,0.2-6.9,0.6c-12.3,2.2-23.4,7.6-33.7,14.4c-2.5,1.6-4.8,3.6-6.7,5.9
	c-1.3,1.7-2.6,3.2-4.6,3.8C396.4,85,396.4,95.6,397.4,100.9L397.4,100.9z M936.4,80.3c-0.3,4.1,0.4,5.1,3.5,5.9
	c5.8,1.3,11.6,1,17.4,0.7c9-0.5,17.9-1.2,26.9-1.7c1.2-0.1,2.3,0,3.5-0.1c3-0.1,6,0.1,8.5-2c0.6,0.4,1.2,0.9,1.7,1.5
	c2.1,3.1,1.1,5.5-2.6,6c-0.7,0.1-1.3,0.1-2,0.1c-13.1,0.5-26.3,1-39.4,1.4c-3.2,0.2-6.3,0.1-9.5-0.1c-6.3-0.6-11-3.4-12.9-10
	c-0.4-1.5-1.6-2.9-2.3-4.3c-0.7-1.4-1.8-2.5-0.9-4.5c3.3,0.6,5.8-1.4,8.2-3.5c3-2.6,6.8-3.4,10.3-5c6.5-3,13.6-4.4,20.5-6.1
	c3.8-0.9,7.7-0.6,11,2c1.3,1,2.4,2.3,3.1,3.8c1.6,3.3,0.6,5.8-2.7,7.3c-1.6,0.8-3.3,1.4-5.1,1.8c-10.6,2.4-21.2,4.1-32,5.3
	C939.8,79,937.9,79.1,936.4,80.3z M946,71.3c0.9,1.8,2.1,1.4,3.2,1.3c7.2-0.8,14.3-2.1,21.4-3.7c1.3-0.3,2.5-0.7,3.7-1.3
	c0.7-0.4,1.2-1.3,1.9-2c-3.3-1.6-3.4-1.8-9.3-0.9C959.6,65.6,952.4,67.5,946,71.3z M695.9,82.2c0.3,0.8,0.8,1.6,1.4,2.3
	c1.8,1.5,4.1,2.3,6.5,2.4c7.6,0.7,15.2,1.5,22.9,0.8c8.1-0.8,16.1-2.1,24-4c3.8-1,7.6-2.3,11.3-3.8c1.5-0.5,2.9-1,4.3-0.2
	c0.8,0.5,1.5,1.3,1.8,2.2c0.3,1.1-0.7,1.8-1.7,2.1s-2.2,0.7-3.3,1c-18.4,6.1-37.8,8.4-57.1,6.8c-3.5-0.3-6.9-1.4-9.9-3.2
	c-3-1.8-5.2-4.8-6.1-8.2c-0.7-2.9,0.3-5.9,2.7-7.7c3.4-2.9,6.8-6.1,10.7-8.1c7.2-3.9,15.1-6.3,23.2-7.2c4.7-0.5,9.4,0.9,13,4
	c1,0.9,1.8,1.9,2.4,3.1c0.8,1.4,0.4,3.1-0.8,4.1c-1,0.9-2.1,1.6-3.3,2.2c-7.1,3.8-14.5,6.6-22.3,8.6c-5.3,1.3-10.8,1.7-16.2,2.5
	L695.9,82.2z M698.5,76.2c1,0.3,2,0.4,3,0.5c2.8-0.3,5.6-0.8,8.4-1.1c8.9-1,16.8-5,24.8-8.4c0.7-0.3,1.2-1.4,1.7-2
	c-1.2-2-3.5-3.1-5.8-2.7c-3.3,0.3-6.6,0.7-9.8,1.4c-6.3,1.4-12.4,3.9-17.8,7.5C701.1,72.4,699.3,73.5,698.5,76.2z M1018.2,64.1
	c0.7-0.3,1.5-0.5,2.2-0.7c8.7-1.1,17.3-3.1,25.7-5.9c3.5-1.2,7.1-1.7,10.8-1.6c1.9,0.1,3.5,1.2,4.4,2.8c0.7,0.9,0.5,2.3-0.4,3
	c-0.3,0.2-0.6,0.4-1,0.4c-0.3,0.1-0.7,0.1-1,0.1c-4.8-1.5-9.2,0.3-13.7,1.4c-2.9,0.7-5.8,1.3-8.8,2c-0.8,0.3-1.7,0.7-2.4,1.2
	c2,1.5,3.9,1.3,5.6,1.2c6.5,0,13,0.7,19.3,2.3c3.1,0.7,6,1.8,9.1,2.7c2.2,0.8,4.2,2.2,5.7,4c2.8,3,2.4,6.8-1.1,8.8
	c-2.1,1.3-4.5,2.2-6.9,2.7c-9.5,1.9-19.1,3-28.7,3.3c-3.8,0-7.6-0.3-11.4-1.1c-3-0.6-4.4-2.7-4.5-5.8c0-0.5,0.6-1,1.2-1.8
	c3.5,3.4,7.7,3.2,11.9,3.2c10,0,19.9-1.4,29.5-4c1.5-0.4,3.3-0.6,4.4-2.6c-0.6-0.7-1.3-1.3-2.1-1.7c-3.1-1.2-6.3-2.2-9.6-2.9
	c-5.1-1-10.2-1.6-15.4-1.6c-5.8,0-11.7-0.2-17.5-0.7C1018.3,72.4,1016.9,70,1018.2,64.1z M216.4,23.4c1,0,2,0.1,3,0.2
	c1.9,0.3,3.3,2.1,3.1,4c0,1.8-0.2,3.7-0.4,5.5c-2.1,12.3-4.5,24.5-6.3,36.8c-1.4,9.4-2.2,18.8-3.2,28.2c-0.1,0.5-0.1,1,0,1.5
	c0.3,2.4,1.4,3.6,3.9,3.4s4.3,0.2,5.4,2.6c0.6,0.9,0.3,2.2-0.6,2.8h-0.1c-0.2,0.1-0.5,0.2-0.7,0.3c-0.5,0.1-1,0.1-1.5,0.2
	c-2.7,0.4-4.6,1.4-5.4,4.3c-0.8,2.6-1.6,3-4.1,2.3c-1.9-0.5-3.9-0.3-5.7,0.6c-1.9,0.8-3.2,0.4-3.9-0.9c-1.1-1.7-0.6-3.9,1-5h0.2
	l0.2-0.1c0.7-0.4,1.5-0.7,2.3-1c1.7-0.7,2.9-2.4,2.9-4.3c0.2-3,0.6-6,0.8-9c0.6-11.7,2.7-23.1,4.6-34.6c0.6-3,1-6.1,1.3-9.2
	c0.2-3.1,1-5.9,1.3-8.9c0.1-1.9,0.1-3.7,0-5.6c-0.8,0.6-1.5,1.3-2.2,2.1c-1.7,2.3-3.2,4.7-4.9,6.9c-0.9,1.5-2.6,2.3-4.3,2.1
	c-2.1-0.4-3.6-1.5-3.9-3.8C206,38.6,210.6,30.9,216.4,23.4z M579.4,66c1.7,0.9,3.7,0.8,5.6,1.2c5.2,1,8.9,5.3,8.3,10.2
	c-0.3,2-1,3.8-2.2,5.4c-4.9,6.3-11,11.6-18,15.6c-4.5,2.5-8.9,5.3-14,6.4c-2.4,0.6-4.8,0.9-7.3,0.8c-2.1-0.2-4.2-1-5.9-2.2
	c-4.8-3.4-7.3-11.2-4.9-16.5c1.7-3.4,3.9-6.5,6.5-9.3c3.2-3.4,6.6-6.5,10.3-9.3c3.6-2.8,7.6-5.2,11.5-7.8c1.6-1,3.5-1.3,5.3-0.8
	C577.6,60.4,578.5,61.6,579.4,66z M552.8,78.6c-2.3,2.8-4.3,5-6,7.4c-1.8,2.7-2.5,5.9-1.9,9.1c0.5,3.7,3.1,6.1,6.8,5.9
	c2.3-0.2,4.7-0.6,6.9-1.3c5-1.4,9.5-4,14-6.5s9-5.1,12-9.5c0.5-0.7,1.1-1.3,1.8-1.7c2.2-1.2,2.6-3.3,2.9-5.5
	c0.4-2.5-0.3-3.9-2.7-4.5c-2.1-0.5-4.2-0.8-6.4-0.7c-7,0.4-13.2,3.4-19.1,6.9C558.4,79.9,556,80.7,552.8,78.6z M863,62.4
	c7.2-1.6,14.1-3.2,21.1-4.5c2.5-0.4,5-0.3,7.4,0.3c1.6,0.5,3,1.3,4.2,2.5c0.5,0.6,0.6,1.5,0.3,2.2c-0.5,0.7-1.2,1.1-2,1.2
	c-0.6,0.1-1.3,0-1.9-0.3c-6.1-1.8-11.7,0.4-17.4,2.2c-0.1,0-0.1,0.3-0.2,0.7c2,1.2,4.4,1.1,6.6,1.2c6.9,0.4,13.4,2.2,20,4.2
	c3,0.9,5.8,2.6,8.1,4.8c2.6,2.3,3,6.1,1,8.9c-1.3,1.7-2.9,3.2-4.8,4.3c-10.2,5.2-21.7,6.9-33,5c-2.5-0.3-4.9-0.8-7.3-1.5
	c-2.5-0.8-5.2-1.3-6.5-4.2s-0.6-3.9,2.5-4.3c0.6,0,1.2,0.1,1.8,0.2c1,3.3,4,3.9,6.9,4.7c9.1,2.4,17.8,0.6,26.4-2.6
	c2-0.8,4-1.7,5.8-2.9c1.1-0.7,2.1-1.7,2.9-2.7c0.7-0.9,0.6-2.2-0.3-3c-0.2-0.1-0.4-0.3-0.6-0.3c-1.3-0.7-2.7-1.3-4.1-1.7
	c-6.3-2.2-12.9-3.4-19.5-3.7c-2.3,0-4.7-0.1-7-0.4c-2-0.2-3.9-0.6-5.8-1.3C863.6,69.8,862.6,67.7,863,62.4z M809.4,66.1
	c1.6,0.3,3.2,0.7,4.8,1c6.9,1,13.6,3.2,19.9,6.3c1.3,0.7,2.6,1.4,3.8,2.3c3,2.3,3.5,5.4,1.8,8.9c-2,3.9-5.6,5.9-9.4,6.9
	c-9.7,2.5-19.6,3.7-29.6,1.4c-2.4-0.5-4.8-1.4-7-2.5c-2.5-1.3-4.8-3.1-4.2-7c1.2,0.4,2.4,0.4,3.2,1c6.6,5.4,14.2,6.2,22.2,4.9
	c4.4-0.7,8.8-1.8,13-3.2c3.2-0.9,5.8-3.3,6.8-6.5c-0.6-0.9-1.4-1.6-2.3-2.2c-2.1-1.1-4.2-2-6.4-2.7c-6.5-2.2-13.3-2.9-20.1-3.4
	c-1-0.1-2-0.1-3-0.2c-4.6-0.7-5.8-2-6.7-7.1c0.2-0.2,0.4-0.6,0.7-0.7c7.1-2.2,14.2-4.6,21.4-6.6c1.8-0.3,3.6-0.2,5.3,0.3
	c2,0.5,2.9,1.8,2.6,3c-0.5,1.6-1.8,1.9-3.2,1.8c-4.1-0.3-7.9,1.1-11.7,2.2c-0.7,0.3-1.4,0.7-2,1.1L809.4,66.1z M631.8,94.2
	c4.2-0.7,8.8-1.4,13.4-2.3c2.8-0.5,5.5-1.3,8.3-1.8c3.9-0.8,7.8-1.6,11.4-3.4c0.9-0.5,1.8-0.6,2.8-0.4c0.9,0.4,1.5,1.1,1.9,2
	c0,0.8-0.3,1.6-0.9,2.1c-0.8,0.6-1.7,1-2.7,1.2c-7.9,1.9-15.8,4-23.8,5.7c-3.7,0.8-7.6,1.2-11.4,1.2c-2.8-0.1-5.6-0.6-8.2-1.5
	c-6.6-1.8-9.5-10.8-7.5-15.9c1.4-3.9,3.8-7.4,6.9-10.2c4.8-3.9,10.2-7,16-9c3.2-1.2,6.2-0.4,9.1,1c0.7,0.4,1.3,1,1.7,1.8
	c0.7,0.9,0.5,2.1-0.4,2.8c0,0,0,0,0,0c-0.1,0.1-0.2,0.1-0.3,0.2c-1.5,0.9-3.2,1-4.8,0.3c-1-0.6-2.1-0.8-3.2-0.8
	c-8.9,2.7-16.4,7.3-20,16.5c-0.4,0.9-0.6,1.9-0.8,2.9c-0.3,3.7,1.3,6,5,6.8C626.7,93.7,629,93.9,631.8,94.2z M476.8,68.7
	c2-1.6,4.1-3.1,6.3-4.5c2-1.1,3.7-2.2,4.5-4.4c0.1-0.4,0.7-0.7,1.3-1.2c5.2,3,10.6,0.5,15.9,0c2.9-0.3,5.8-1.4,8.7-2.1
	c1.1-0.4,2.3-0.2,3.2,0.6c0.8,0.6,1.1,1.7,0.5,2.6c-0.2,0.3-0.5,0.5-0.8,0.7c-0.9,0.4-1.9,0.6-2.9,0.8c-5.4,1.1-10.8,2.2-16.1,3.3
	c-6.9,1.5-6.9,1.6-8.2,8.6c-1.1,5-1.4,10.2-0.9,15.3c0.5,4.1-0.1,8.3-0.4,12.4c-0.2,0.8-0.7,1.4-1.5,1.7c-0.8,0-1.5-0.3-2.1-0.8
	c-1.3-1.4-1.8-3.3-1.4-5.1c0.5-2.8,0.8-5.6,1.1-8.4c0.3-2.5-0.2-5-1.4-7.2c-1.5-2.8-2.9-5.6-4.3-8.5C477.7,71.3,477.2,70,476.8,68.7
	z"/>
</svg>
