<?xml version="1.0" encoding="utf-8"?>
<!-- Generator: Adobe Illustrator 21.1.0, SVG Export Plug-In . SVG Version: 6.00 Build 0)  -->
<svg version="1.1" id="Layer_1" xmlns="http://www.w3.org/2000/svg" xmlns:xlink="http://www.w3.org/1999/xlink" x="0px" y="0px"
	 viewBox="0 0 915 363" style="enable-background:new 0 0 915 363;" xml:space="preserve">
<style type="text/css">
	.st0{fill:#FAEDE7;}
</style>
<path class="st0" d="M330.5,165.4c2.9-2.2,5.8-4.4,8.6-6.6c0.6-0.5,1.4-0.6,1.9-1.1c0.8-0.9,1.4-1.8,1.9-2.6c-0.9-0.5-1.8-1-2.5-1.5
	c-0.9-0.5-1.5-1-1.6-1.6c-0.4-2.4-2-2.9-4-3.1c-4.7-0.5-9.5-1-14.2-1.5c-1-0.1-2-0.5-2.9-1c-3.1-2-3.4-3.8-0.8-6.5
	c5.9-6.1,13-10.8,20.9-13.6c0.5-0.2,1.1-0.5,1.6-0.9c-0.6-0.2-1.4-0.4-2.1-0.4c-10.1,2.1-19.6,6.2-28.2,12
	c-11.1,7.4-21.2,16.1-30.3,26c-2.6,3.1-5.1,6.5-7.5,9.9c-0.6,0.9-1.2,2-1.5,3c-1.4,4.2,0.5,6.5,5,6c2.2-0.4,4.6-0.5,6.9-0.4
	c-0.5,0.4-1.1,0.6-1.6,0.8c-3.4,0.4-6.7,0.5-10.1,0.4c-3.1-0.4-4.1-3-2.6-5.9c4-7.2,9.2-13.9,15.5-19.4c3.5-3,6.5-6.6,10.1-9.6
	c6.1-5.1,12.5-9.9,19.1-14.2c10.5-6.5,21.8-11.4,34.6-10.8c3,0.1,6.1-1,9.7-1.8l-3.4,2.1c0.9,0.5,1.4,0.9,2,1.1c1.9,1,4.2,1.6,5.8,3
	c2.5,2.3,4.5,2.5,7.2,0.4c3.1-2.5,6.5-4.6,10.2-7.1c-3.2-1.2-6.2-0.1-9.2-0.1s-6.1,0.4-9.4,0.1c1.5-0.4,2.9-0.8,4.5-1
	c6.2-0.2,12.4-1.5,18.6-0.2c1.4,0.1,2.8,0,4-0.2c8.1-0.2,12,5.4,13.5,11.9c1.1,4.4,1.7,9,2.8,14.1c1-1.4,2-2.4,2.8-3.5
	c5-7.5,10.5-14.9,17.2-20.8c10.3-9,19.5-3.2,24,5.9c3.8,7.5,4,15.8,4,24.4c3.8-1.5,6.5,0,9,2.7c1.7,1.6,2.6,4,2.5,6.5
	c-0.4,5.2-1.1,10.5-1.4,15.9c-0.1,3.8-0.1,7.5,0.3,11.2c0,0.6,1,1.5,1.8,1.7c2.4,1,4.9,1.9,7.9,3c3-2,6.1-3.8,9.4-5.2
	c3.9-1.9,7.5-4.2,11-6.9c1.5-1,2.6-0.8,3.2,0.9c0.6,1.9,1.1,3.6,1.5,5.6c0.6,3.4,2.4,5,5.8,5.6c3.6,0.6,7.2,2.1,11,0.8
	c1.4-0.5,1.8,0.8,1.5,1.9c-0.4,1.1-0.8,2.1-1.1,3.3c2.9,1.2,4.8-0.2,6.4-1.8c4-3.6,4-3.6,8.2-0.5c2.9,2.1,6.1,2,9.3,1.4
	c5.6-1,11.2-2.2,16.9-3.1c3.5-0.6,7-0.9,10.5-0.9c3.9,0.1,6.9,3.4,6.6,7.2c0,0.1,0,0.2,0,0.4c-0.5,4.4,2.4,6.2,6.9,5.1
	c4.9-1.2,9.4-3.5,13.1-6.8c0.9-0.8,1.9-1.4,2.8-2.1c1.2-1.4,3.4-1.4,4.8,0l0,0c3,2.3,6.6,3.3,10.2,2.9c7.1-0.4,14.3-1.2,21.5-1.6
	c3.8-0.2,7.5,0.1,11.2,0c2.8,0,5.6,0,8.4-0.4c3.5-0.5,6.8-0.8,10.4,0.6c3.6,1.4,6.9-0.9,10-2.2c0.8-0.4,1.5-1.1,2.1-1.1
	c0.9,0.1,1.8,0.4,2.5,0.8c-0.5,0.9-0.8,2.1-1.4,2.4c-3.4,1.2-6.9,2.4-10.4,3.3c-1.6,0.4-3.5-0.2-5.2-0.4c-2.4-0.2-4.8-1.1-7-0.6
	c-4.8,1-9.5,0.2-14.3,0.4c-8.5,0.1-17,0.8-25.5,1.6c-4.3,0.6-8.6-0.1-12.4-2.2c-2-1.4-4.8-1.1-6.5,0.6c-4.1,3.2-8.8,5.6-13.8,7.1
	c-6,2-10-0.6-9.6-6.9c0-3.4-2.6-6.2-6.1-6.2c-0.5,0-1,0-1.4,0.1c-7.9,1.5-15.8,3-23.8,4.5c-4.1,0.8-8,1-11.6-1.9
	c-1.1-1-2.9-1-3.9,0.1c0,0,0,0-0.1,0.1c-0.6,0.6-1.2,1.4-2,2c-4.2,3.5-8.6,2-9.7-3.5c-6.5-1.1-14-0.4-17.1-8.8
	c-3.6,2.8-7.1,4.8-9.2,8.2c-1.9,3.1-4.4,3.5-7.4,1.2c-4.2,3.4-8.6,6.5-11.5,11.5c-2.1,3.8-5.5,6.8-8.1,10.2c-1,1.2-1.8,2.8-1.9,4.2
	c-0.1,5.9,0.1,11.8,0.4,17.8c0,1.5-0.5,2.4-2.1,2.2c-3.1,0-4.8-1.5-5-4.8c-0.3-3.2-0.3-6.6-0.3-10c0-1.1-0.1-2.2-0.1-3.5
	c-2.6,0.9-5.2,1.6-8,2.2c-7,1.2-14.1,1.2-21,0.1c-3.4-0.5-6.8,0.1-9.6,1.7c-7.8,4.1-15.2,8.8-23.1,12.6c-5.5,2.9-11.4,5.1-17.1,7.5
	c-2.1,1-4.2,1.6-6.5,2.2c-2.8,0.5-5.6-0.1-7.9-1.9c-3.4-2.4-7.1-4.1-10.8-6.2c-6.6-3.9-11.8-9.1-13.5-16.8
	c-1.4-4.8-1.5-9.6-0.6-14.5c1.1-5,1.8-10.4,3.1-15.4c0.9-3.1,2.8-5.9,4-9c1.6-4.1,3.4-8.3,4.7-12.5c1-3,0.1-4.2-3-4.8
	c-0.2,0-0.5-0.1-0.8-0.4c-2-3.1-5.1-2.2-7.9-2.2c-2.1,0-3.4,1.8-3.8,3.8c-1.8,8.8-7.2,15-13.3,21c-0.5,0.5-0.9,1.1-1.7,2.3
	c4.1-0.4,7.8,1.1,10.8-1.8c1.4,3.4,4.7,1.1,6.5,2.5l-10.4,1.6c0,0-0.4-0.9-0.6-0.8c-3.9,0.4-8.1-1.6-11.8,1.4
	c-1.6,1.4-3.9,1.9-5.9,1.2c-1.8-0.5-2.4-1.5-1.6-3c1.2-2.5,0.1-3.3-1.9-4.5c-2.6-1.7-5-3.9-7-6.4c-0.9-1.1-0.6-3.1-1-5l-4.1,0.8
	c0.1-0.4,0.1-0.5,0.2-0.5c3.3-1.2,6.1-3.3,8.6-5.8c5.8-5.6,13.1-9.4,21-10.9c3.1-0.6,6.4-0.5,8.9,1.6c1.8,1.8,4.5,1.9,6.4,0.4
	C329.5,165.5,330.1,165.4,330.5,165.4c0.6,2.2,2.2,1.6,3.8,1.6c1.9,0,3.9-0.4,5.5,0.2c3.1,1.2,4.6,5.2,3.4,8.8
	c-2.5,7.1-5,14.2-8.1,21.1c-4.2,9.4-5.5,19-3,28.9s9.5,15.6,18.4,19.1c0.4-5.9,0.8-11.5,1.2-17.1c0.5-4.9,1.5-9.6,2.1-14.5
	c0.2-1,0-2-0.5-2.9c-2.9-3.3-4.7-7.4-9-9.2c-1.5-0.9-2.9-1.9-4.1-3l0.4-0.5c6,1.9,9.5,7.2,14.1,11.4c0.3-0.8,0.5-1.1,0.6-1.5
	c2.2-7.8,4.6-15.5,6.5-23.4c2.2-8.9,4.4-17.8,6.2-26.8c1.1-5,0.8-5-4.4-5.8c-0.3,0-0.5-0.1-0.8-0.2l0.1-0.2l5.5,0.2v-6.3l-10,3.8
	l1.5,1.9c-3.2,0.9-6.6,1.2-9.6,2.6c-3.5,1.5-7.2,3.4-8,8c-0.4,1.1-0.9,2.2-1.6,3.2l-0.5-0.2l1.4-4.9l-0.6-0.4
	c-1.9,1.1-3.6,2.2-5.5,3.4C333.9,163.7,332.3,164.5,330.5,165.4z M389,170.1c4.4-6.4,6.6-13,5-20.5c-0.8-3.8-5-7.4-8.8-7.1
	c-4.4,0.4-8.6,1-13,2c-0.9,0.1-2.1,1.5-2,2.1c0.3,2.5-0.6,5.6,2.8,7.1l-2.6-0.1c-0.1,0.9-0.2,1.6-0.4,2.3
	c-1.4,6.8-2.5,13.5-4.1,20.1c-2.8,11.1-5.9,22-8.9,33c-0.6,1.6-0.1,3.4,1.1,4.5c2.2,2.3,4.2,4.9,6.5,7.1c1.1,1.2,2.5,2.2,3.9,3
	c2.6,1.4,4.1,0.6,5.1-2.1c1.4-3.9,3.1-7.6,4.5-11.6c1.6-4.4,3.8-8.8,4.4-13.3c1-7.5,2.2-14.8,5-21.7c0.5-0.9,0.6-2,0.4-3
	c-2.5-6.1-5.6-11.8-11.1-15.9c-0.6-0.5-1.4-1.1-2-1.6c0.8-0.2,1.5-0.1,2.2,0.2C382.6,158.3,385.4,164.4,389,170.1L389,170.1z
	 M438.6,153.2c3.3-0.6,5.6-1.2,8-1.5c1.2,0,2.4-1,2.4-2.4c0-0.1,0-0.2,0-0.4c0-7.5-0.5-15-4-21.9c-4.5-9-10.6-10.1-18-6.6
	c-4.2,2.1-7.9,6.1-11.1,9.9c-4,4.6-7.1,9.9-11,14.8c-1.5,1.9-1.5,3.1-0.1,4.9c3.5,4.8,5,10.6,4.1,16.5c-0.1,0.9,0,1.8,0,3.1
	c2.6-1.5,4.7-2.6,6.6-4c2.2-1.6,4.5-3.1,5.8-5.9c3.3-6.8,7.8-12.8,13.1-18c0.8-0.9,1.6-1.6,2.5-2.4c1.2-0.9,2.2-0.4,2.4,1.1
	c0,0.9,0,1.9-0.1,2.8C439,146.5,438.9,149.5,438.6,153.2z M362.8,131.4c-2.8-3-6.4-5.1-10.4-6c-5-1.1-9.6,0-14.2,1.8
	c-6.9,2.5-13,6.5-18.2,11.6c-3.4,3.2-2.5,6.6,2.1,7.6c3.1,0.6,6.4,0.9,9.5,1.4c2.6,0.2,5.1,0.8,7.6,1.2c1.4,0.5,2.9,0.1,3.9-0.9
	c3.5-3.1,7-6.1,10.6-9.2C356.5,136.5,359.5,134.1,362.8,131.4z M423.9,199.2c-2.2-0.2-4.2,0.1-4.9-2.6c1.2-0.5,2.5-0.9,3.8-1.1
	c2.1-0.2,3.9-1.8,4.5-3.8c2.5-8.1,5.1-16.2,7.5-24.4c0.6-2.9,1.1-5.8,1.4-8.8c-0.9,0-1.6,0.1-2.5,0.2c-3.6,1.6-7.1,3.2-10.6,5.1
	c-2.5,1.2-4.4,3.8-4.9,6.5c-0.5,2.5-1.4,5-2.1,7.5c-2.5,8.9-1.9,17.6,0.3,26.5c0.1,0.9,1.5,1.6,2.5,1.9c0.6,0.1,1.8-0.5,2.1-1.1
	C421.9,203.3,422.6,201.4,423.9,199.2z M356.4,214.4c-0.5,0.6-0.8,1.4-1,2.1c-1,7.8-1.9,15.5-2.6,23.3c-0.1,1.6,0.3,3.4,0.9,4.9
	c0.5,1.2,1.6,2.3,3,2.8c4.4,0.8,8.9,1,13.1-1.1c2.6-1.2,5.3-2.5,7.8-4c3.6-2.1,7-4.5,10.5-6.8l-0.4-0.5c-3.2,0.4-6.5,1-9.7,1.1
	c-3.3,0.1-5-1.6-5.3-4.9c0-0.9,0-1.9-0.1-2.8c-0.3-0.6-0.9-1.5-1.5-1.6c-4-0.4-6.4-3-8.8-5.9C360.3,218.8,358.4,216.7,356.4,214.4
	L356.4,214.4z M455.1,200.7c3.2,1.2,3.4,1.9,1.4,3.6c-0.8,0.8-1.5,1.4-2.4,2c-8.8,5.2-17.6,10.5-26.4,15.8c-2.4,1.4-3.4,1-3.5-1.9
	c-0.1-1.7,0-3.5,0-5.1c-4-0.8-12.6,3.1-15.1,7l4.5,1.6c1,0.4,1.9,0.6,2.8,1c1.1,0.6,2.4,1.1,3.5,1.6c8.2,1.7,16.9,0.9,24.7-2.4
	c1.8-0.8,3-1.2,2.9-3.6c-0.1-2.4,0.9-2.8,3.1-2.5c1.4,0.1,3.4,0.5,4-0.2c3.6-4.1,7-8.5,10.3-12.9c0.9-1.2,0.5-3-0.8-3.8
	c-0.2-0.1-0.6-0.2-0.9-0.4c-2.2-0.6-2.9-2.3-3.1-4.1c-0.3-1.6-0.5-3.4-0.8-5.1l-0.9-0.1C455.9,193.7,457.1,197.7,455.1,200.7
	L455.1,200.7z M396.9,154.1l0.6,0.2c0.9-1.4,1.6-2.8,2.6-4c1.1-1.1,1.1-3-0.1-4.1l0,0c-4.9-5.9-8.8-12.5-11.6-19.5
	c-2-5-5-6.2-9.2-4.1c-4,2-7.9,4.6-11.6,7c-1.6,0.9-1.9,2.1-0.9,4c1.1,2.1,2.1,4.2,2.8,6.6c0.9,3,1.1,3.2,4.2,2.4
	c2.9-0.9,5.8-1.5,8.8-1.8c7.8-0.5,13,2.4,14,11.4C396.4,152.8,396.6,153.4,396.9,154.1z M315.5,165.9c-4.7,0-8.8,1.8-12.5,4.1
	s-8.2,4.4-10.8,8.6c-1.4,2.5-1.6,5.5,0.4,7.6c1.6,1.5,3.5,2.9,5.2,4.2c1.5,1.1,2.5,0.6,3.6-0.8c2.4-2.9,5-5.5,7.8-8
	c3.6-3.2,7.5-6.2,11.2-9.4c1.6-1.4,1.8-1.5,0.8-4.4c-0.5-0.9-1.4-1.6-2.4-2C317.8,165.9,316.6,165.9,315.5,165.9L315.5,165.9z
	 M433,192.7c0.5,0.1,1.1,0.2,1.6,0.2c3.9-0.5,7.9-1,11.8-1.6s4.1-0.6,4.7-4.8c0.3-2.4,1.6-2.7,3.5-2.5c2.5,0.1,4.4,2.1,4.4,4.6v-14
	c-0.9-0.4-1.8-0.5-2.8-0.8c-2.9-0.1-3.9-1.6-3.9-4.5c0.1-3.8-0.1-7.5-0.3-11.2c0-1.2-0.4-2.6-0.5-3.9h-1c-0.3,1-0.5,1.9-0.8,2.9
	c-0.9,3.2-1.5,6.5-2.5,9.6c-2.9,8.3-7.1,16-12.8,22.8C434,190.5,433.5,191.5,433,192.7L433,192.7z M381,233.5c0.8-0.1,2-0.2,3.4-0.5
	c6.4-1.1,12.2-4.1,17.1-8.4c3.1-2.6,2.8-4.8-1-6.4c-0.6-0.2-1.4-0.4-2.1-0.6c-2.4-0.9-4.7-1.9-7.1-3c-1.1-0.8-2.6-0.6-3.5,0.5
	c-3.6,3.1-7.4,6-11,9.1c-1,0.8-1.8,1.9-2.1,3.1C373.8,231.7,375.6,233.5,381,233.5z M398.9,196.7c2.5-3.6,2.8-7.6,3.6-11.4
	c0.9-3.8,2.6-7.4,4.1-11.1c-5.4-0.2-6.2-1.5-5.8-6c0.6-5.4,0.8-10.9,1.1-16.8c-1,0.5-1.2,0.6-1.4,0.9c-2.8,4.8-5.4,9.5-6.1,15.2
	c-0.4,2.5-1.2,5-1.9,7.5c-0.4,1.2-0.4,2.5-0.1,3.6C394.4,184.5,396.6,190.4,398.9,196.7z M402.6,194.3c-0.4,0.1-0.6,0.2-0.8,0.4
	c-3.6,5.4-3.5,15.8,0.2,20.9c0.4,0.5,0.9,0.9,1.5,1c3.8,0.9,7.8,0.1,11-2c0.6-0.4,1-1,1.1-1.6c-0.4-3-0.3-6.1-3.8-7.9
	c-3.6-1.6-6.5-4.6-7.9-8.4C403.6,195.9,403.1,195.2,402.6,194.3L402.6,194.3z M392,180.8h-1.1c-0.4,0.5-0.6,1-0.9,1.5
	c-1.8,4.8-3.5,9.5-5.1,14.2c-1.4,4,0.9,10.9,4.8,14c1.2-1.5,3-2.8,3.9-4.6c1.2-2.6,4.1-4.8,3.2-8C395.4,192.3,393.8,186.5,392,180.8
	z M416.6,169.1c-4.2,3.9-8.9,7-10.4,12.9c-0.4,1.6-0.9,3.2-1.5,4.8c-3,6.1,3.2,16,9.5,17C411.8,192.2,412.6,180.2,416.6,169.1
	L416.6,169.1z M344,151.1c4.1,0.6,10.3-0.4,12.8-1.8c2-1.1,4-2.1,6-3.1c6.1-2.5,6.5-3.4,3.6-9.5c-0.3-0.5-0.5-1-0.6-1.4
	c-1.4-2.6-1.9-2.7-4.1-0.9c-4.2,3.5-8.5,7-12.5,10.6C347.3,146.9,345.5,148.9,344,151.1z M429.8,190.7l1,0.6
	c0.4-0.6,0.8-1.2,1.1-1.8c3.5-6.7,7.1-13.4,10.4-20.2c1.1-2.6,1.8-5.2,2.1-8.1c0.5-2.7-2-2.6-3.8-3c-1.7-0.4-2.8,0.5-3.1,2.5
	c-1.4,6.2-2.9,12.5-4.4,18.8C432,183.2,430.9,186.9,429.8,190.7z M427.8,206.4l0.9,0.6c3-2.4,6-4.8,9-7c1.8-1.4,3.8-2.6,5.8-3.6
	c0.9-0.4,2.2,0.2,3.5,0.4c-0.3,1.1-0.6,2.1-1.1,3.1c-1.8,2.1-3.8,4-5.6,6l0.3,0.6c2.6-0.8,6.4-0.5,7.6-2.9c1.8-3.4,2.4-7.1,1.8-10.9
	c-0.8,0-1.2,0.1-1.8,0.1c-4,0.5-8,0.9-11.9,1.8c-1.6,0.2-3.8,1-4.5,2.2C430.1,199.8,428.8,203.1,427.8,206.4z M323.3,172.7
	c-0.6,0.1-1.1,0.4-1.6,0.8c-5.5,5-11,10-16.4,15.2c-1,1-1.1,2.9-1.6,4.2c1.7,0.2,3.6,0.5,5.4,0.6c0.6,0,1.4-0.6,1.8-1.1
	c2.8-2.6,5.4-5.5,7.8-8.5C321.1,180.7,322.8,176.7,323.3,172.7L323.3,172.7z M375.4,221.9l0.9,0.8c3.6-3,7.2-6,10.8-9.1
	c0.5-0.8,0.6-1.8,0.2-2.6c-1.2-2.6-2.9-5.1-4.7-8.4L375.4,221.9z M436.6,143.4L436,143c-5.1,5.1-10,10.6-13.6,17.8
	c0.5,0,1.1-0.1,1.6-0.2c3.8-1.9,7.6-3.8,11.2-5.8c0.6-0.5,1.1-1.1,1.1-2C436.6,149.5,436.6,146.4,436.6,143.4z M387.3,121.5
	c4.6,7,6.5,15.4,13,20.9c-0.4-6-1.2-12-4.8-17C393.8,122.7,390.5,121.2,387.3,121.5z M426.9,219c7.2-4.1,14.6-7.1,21.1-12
	c-0.4-0.2-0.8-0.4-1.2-0.2c-5.5,1-11.1,1.4-15.5,5.5c-0.6,0.5-1.4,1-2.1,1.2C426.1,214.8,425.9,215.1,426.9,219L426.9,219z
	 M404.4,151.8l-1,0.2c0,0.9-0.1,1.8-0.2,2.6c-0.1,4.6-0.1,9.3-0.5,14c-0.1,1.5,0,2.5,1.6,2.8c1.6,0.2,2.9-0.4,2.9-2.4
	c0.1-3.6,0-7.2-0.4-10.9C406.8,155.9,405.4,153.9,404.4,151.8L404.4,151.8z M397.1,204.2l-6.4,8.5c2.9,1.9,5.4,3.1,8.5,3.1
	L397.1,204.2z M462.1,191.4c-0.8,4-0.1,6.1,1.6,6.4c1.7,0.1,4.1-2.1,4.1-3.5C467.8,192.8,465,191.3,462.1,191.4L462.1,191.4z
	 M428.6,197.4c-0.8,0-1.2-0.1-1.4,0c-1.5,2.8-2.9,5.4-4.1,8.1c-0.1,0.2,0.6,1.2,1.1,1.4c0.6,0.1,1.2-0.2,1.8-0.8
	C426.9,203.4,427.8,200.5,428.6,197.4z M448.4,153.7c-2.8,0.1-4.9,0-6.9,1.4l6.2,4.1L448.4,153.7z M432.5,206.9c3,0.2,7.5-3.3,9.1-7
	C438.4,201.8,435.3,204.2,432.5,206.9z M390,176.7l-1.2-0.2l-3.4,11.8l0.9,0.2C387.8,184.5,389.6,180.9,390,176.7z M389.3,236.8
	l0.4,0.8l9.4-5.6l-0.5-0.8C394.4,231.4,392,234.4,389.3,236.8L389.3,236.8z M459.3,168.5c1.9-6.5,1.8-9.6,0-11.9V168.5z M498.8,20.1
	c0.8,0.4,1.4,0.8,2.1,1.2c9.1,7.2,18.3,14.4,27.4,21.7c6.1,4.9,12.1,9.8,18.2,14.6c5.7,4.5,11.5,8.8,17.2,13.2
	c6.5,5,12.8,10.2,19.3,15.2c7.1,5.5,14.4,10.8,21.6,16.3c10,7.4,19.9,14.9,30,22.2c9,6.5,18,12.9,27,19.4
	c10.4,7.4,20.9,14.8,31.2,22c5.8,4,11.5,8.1,17.2,12.2c1,0.6,2,1.1,3,1.6c2.4,1.1,2.6,2.3,1,6c-0.7,1.7-2.2,2.2-4.4,1
	c-2.6-1.6-5.1-3.4-7.8-5.2c-6.5-4.8-13.1-9.5-19.6-14.2c-5.4-3.9-10.6-7.9-16.1-11.6c-8.6-6-17.4-11.9-26-17.9
	c-7.8-5.6-15.2-11.4-22.9-17.1c-8.9-6.5-17.8-12.9-26.5-19.5c-8.8-6.6-17.2-13.2-25.9-19.9c-8.1-6.2-16.2-12.5-24.4-18.9
	c-6.8-5.2-13.2-10.8-20-15.9c-7.9-6-15.9-11.8-23.9-17.5c-1.8-1.5-2-4.2-0.5-6.1C497.1,21.8,497.9,21.1,498.8,20.1z M720.6,225.4
	c2.2,0.4,4.1,2,4.8,4.1c0.2,2.2-1.2,3-3.1,3.5c-9.9,2.6-19.9,5.2-29.8,8c-2.1,0.5-4.1,1.2-6.2,2c-8.4,2.5-16.8,5-25,7.6
	c-8.8,2.9-17.4,6-26,9c-9.5,3.4-19,6.7-28.4,10.2c-9.7,3.6-19.4,7.6-29,11.1c-10.6,3.9-21.2,7.6-32,11.1
	c-11.5,3.8-23.3,7.1-34.8,10.9c-7.6,2.5-15.1,5-22.6,7.9c-4,1.6-8,3.5-11.7,5.6c-1.5,0.8-3.3,1.4-4.2,0c-1-1.9-1.9-3.9-2.4-5.9
	c-0.1-0.1,0.6-0.8,1-1c5.8-2.2,11.4-4.5,17.1-6.5c11.8-4,23.6-8,35.5-11.8c7.8-2.5,15.8-4.6,23.5-7.1c8.1-2.6,16.2-5.6,24.4-8.6
	c9.8-3.6,19.4-7.4,29.1-11c9.8-3.6,19.6-7.3,29.5-10.8c14.6-5.1,29.2-10.2,44-15c9.4-3,19-5.2,28.5-8c5.4-1.5,10.6-3.4,15.9-5.1
	C719.1,225.8,720,225.5,720.6,225.4z M441.6,33.8c-0.8,1-1.2,2-2,2.5c-6.4,3.9-12.9,7.5-19.1,11.6c-7.5,5-14.9,10.2-22.1,15.5
	c-7.4,5.3-14.4,10.3-21.5,15.4c-6.4,4.6-12.6,9.5-19,14.1c-7.5,5.5-15.3,10.9-22.8,16.2c-8.9,6.5-17.8,13.1-26.6,19.6
	c-6.5,4.8-13.1,9.5-19.6,14.3c-7,5-14,10-20.9,15.1s-13.6,10-20.4,15c-4,2.9-8,5.6-12,8.2c-2.5,1.5-7-1.1-7-4.1
	c0.1-0.9,0.8-1.6,1.5-2c8.2-4.6,16-9.8,23.4-15.6c3.6-2.7,7.6-5,11.4-7.6c4.8-3.5,9.4-7.1,14.2-10.6c11.5-8.4,23.1-16.8,34.9-25.1
	c9.7-7,19.5-13.8,29.1-20.9c7.4-5.4,14.5-11,21.9-16.4c6.8-4.9,13.6-9.5,20.3-14.4c8-5.7,15.8-11.8,23.8-17.4s16.1-10.9,24.4-16.4
	c2.6-1.8,4.1-1.8,6.5,0.1C440.5,31.8,441.1,32.8,441.6,33.8z M435.6,312.4c-1,1.5-1.4,3.1-2.4,3.6c-1.4,0.5-2.8,0.5-4.1-0.1
	c-4.2-2-8.4-4.5-12.6-6.6c-8-3.8-16-7.4-24-11c-11.6-5.2-23.4-10.4-35-15.6c-10.6-4.8-21.1-9.6-31.9-14.1c-13-5.5-26-11-39.1-16.2
	c-12.2-5-24.5-9.6-36.9-14.5c-2.4-1-4.6-2.1-7.1-3c-1.6-0.6-3.4-1-5-1.1c-1.6,0-3-1.4-3-3c-0.4-2.5,1.4-4.9,3.9-5.2
	c0.8-0.1,1.5,0,2.1,0.2c13.9,5.6,27.6,11.4,41.5,17c7.1,2.9,14.4,5.5,21.4,8.5c7.5,3.1,14.9,6.6,22.4,9.9c5.8,2.5,11.5,4.6,17.1,7.1
	c6.6,2.9,13.2,6.1,19.7,9.1c7.4,3.4,14.8,6.5,22.1,9.9c7.3,3.4,14.5,6.6,21.7,9.9c6.2,2.9,12.6,5.6,19,8.4c2.4,0.9,4.6,1.9,6.8,3.1
	C433.9,309.4,434.5,311.1,435.6,312.4z M204.1,233.2c-3.9-0.2-7.3-0.6-10.6-0.5c-6.8,0.1-13.5,0.4-20.2,0.9
	c-2.6,0.4-5.1,0.9-7.6,1.6c-1.6,0.4-1.5,1.6-1.5,3c0,1.5,1.2,3.8-1.8,4.1c-2.4,0.1-4.5-1.5-4.9-3.9c-0.2-2-0.4-4.1-0.5-6.2
	c-1-13.8-2-27.6-3-41.4c0-1,0.4-1.9,0.9-2.8c1-1.1,2-2.2,3.1-3.2l-0.4-0.5c4.2,0,8.5,0,12.8,0c10.1,0.1,20.1,0.4,30.2,0.4
	c3.8,0,7.5-0.8,11.1-1c2.1-0.4,4.2,1.1,4.6,3.3c0.1,0.6,0,1.2-0.1,1.9c-0.4,0.9-1.1,1.6-2,2c-2,0.9-3.2,2-3.1,4.4
	c0.3,7,0.4,14.1,0.5,21.1c0,1.7,0.1,3.5,0.3,5.2c0.3,2.3,0.6,4.4,1.4,6.5c0.9,2.4,0.5,3.9-1.2,5.8c-1.2,1.5-1.7,4-2,6.2
	c-0.4,3.2-0.6,3.9-2.8,3.6c-2.5-0.2-4.8-3-4.4-5.1C203.1,236.9,203.6,235.3,204.1,233.2z M163.1,227.3c13.1-2.2,25.9-2.1,38.8-1.6
	c2.4,0.1,3.3-1,3.3-3.5c-0.2-8.5-0.5-17-0.8-25.5c0-1.4,0-2.9,0-4.6c-1.4-0.1-2.6-0.2-3.8-0.2c-10.9-0.2-21.7-0.4-32.7-0.5
	c-1.1,0-2.3,0.1-3.4,0.1c-2.4,0.2-3.4,1.2-3.3,3.9c0.5,6.9,0.6,13.8,1,20.5C162.3,219.4,162.8,223.1,163.1,227.3L163.1,227.3z
	 M756.3,220.4c-1.2,0.6-2.4,1.4-3.4,2.2c-0.9,1.1-2.6,1.4-3.8,0.5c-0.1-0.1-0.2-0.2-0.4-0.4c-2.8-3.1-6.2-3.1-10-3.1
	c-3.4,0-6.9-0.8-10.2-0.9c-2.2,0-4.5,0.4-6.6,1.1c-1.8,0.8-3.8,0.4-5.2-0.9c-1.6-1.2-0.7-2.5-0.5-3.9c0.1-1.8,1.1-3.3,2.6-4.1
	c1.6-1.2,2.5-3.8,3.6-5.6c3.1-5.8,6.2-11.6,9.5-17.5c1-1.9,2.1-3.8,3.1-5.8c0.6-1.2,1.2-2.5,3-2.1s3.5,0.6,4,2.8
	c0.7,3.5,1.5,7.1,2.4,10.6c1.5,6,3,11.9,4.8,17.8c0.8,2.5,2.9,3.2,5.1,1.9c2.2-1.4,3.9-0.2,5.4,1.2c1.5,1.5,1.9,4.6,0.5,6
	c-0.8,0.8-2.1,0.8-3.2,1L756.3,220.4z M737.6,191.9c-4.3,6.1-7.9,12.6-10.5,19.6l16,0.8L737.6,191.9z M461.4,29.2
	c0.5-5.2,1-10.5,1.4-15.9c0.1-1.7,0.5-3,2.6-3c2.5,0.1,4.8,1.6,4.6,3.6s-0.4,4.4-0.6,6.5c-0.6,5.4-2.2,10.8-0.5,16.2
	c0.1,0.4-1.2,1.6-1.9,1.6c-3,0-5.5-2.4-5.5-5.4l0,0c0-1.2,0-2.5,0-3.8h-0.1V29.2z M450.5,320.7c-5.2-0.6-5.2-0.6-5.1-5.5
	c0.3-6.5,0.5-12.9,0.8-19.4c0.1-2.9,1.1-3.8,3.5-3.5c2.8,0.2,3.8,1.6,3.5,4.4c-0.8,7.5-1.5,15.1-2.4,22.6
	C450.6,319.8,450.6,320.2,450.5,320.7z M459.1,77.1c3.6,0.5,5.8,1.8,4.9,5.2c-1.4,5.5-1.6,11.1-0.5,16.6c0.5,2.3-1.1,4.9-2.8,5
	c-2.5,0.1-5-1.8-4.9-4.1c0.2-6.8,0.6-13.5,1.1-20.2C457.3,78.5,458.8,77.7,459.1,77.1z M446.3,267.8c0-3.3,0.1-6.4,0-9.6
	c-0.1-2.4,1.2-3.1,3.4-3c2.5,0.1,3.8,1.2,3.8,3.4c-0.1,6.9-0.4,13.6-0.5,20.5c0,1.4,0.1,2.9-1.7,3.1s-4.6-1.1-4.8-2.5
	c-0.2-2.2-0.2-4.6-0.2-6.9C446.3,271.2,446.3,269.4,446.3,267.8L446.3,267.8z M460.1,43.4c1.2-0.1,2.5-0.1,3.6,0
	c2.8,0.4,3.8,1.6,3.6,4.4c-0.1,5.2-0.1,10.5-0.5,15.8c-0.1,1.2-0.8,2.4-1.8,3.1c-1.5,0.7-4.9-1.1-5.5-2.6c-0.2-0.5-0.4-1-0.4-1.5
	C459.6,56.3,460,49.9,460.1,43.4z M444.8,340.4c0-3.1,0-6.2,0-9.4c0-2.6,1.8-2.2,3.5-2.1c1.6,0.1,3.4,0.2,3.2,2.6
	c-0.4,6.4-0.6,12.9-0.9,19.2c0,1.2-0.4,2-1.7,1.9c-2.4,0-4.2-1.2-4.4-3.1c-0.1-3.1,0-6.2,0-9.4L444.8,340.4z M452.8,127.8
	c0.1-2.2,0.3-4.5,0.4-6.9s1-3.2,3.2-3.1c2.8,0.2,4.4,1.6,4.2,3.8c-0.3,4.4-0.6,8.6-0.9,13c-0.1,1.6-0.5,3.2-2.5,3.4
	c-1.6,0.1-4.5-2.4-4.6-3.8c0-0.2,0-0.4,0-0.6c0-2,0-3.9,0-5.9L452.8,127.8z M305,209.9l10.5-9.5c-0.5,4.8-5.9,10.2-9.9,10.1
	L305,209.9z"/>
</svg>
