<?xml version="1.0" encoding="utf-8"?>
<!-- Generator: Adobe Illustrator 21.1.0, SVG Export Plug-In . SVG Version: 6.00 Build 0)  -->
<svg version="1.1" id="Layer_1" xmlns="http://www.w3.org/2000/svg" xmlns:xlink="http://www.w3.org/1999/xlink" x="0px" y="0px"
	 viewBox="0 0 1170 555" style="enable-background:new 0 0 1170 555;" xml:space="preserve">
<style type="text/css">
	.st0{fill:#FAEDE7;}
	.st1{stroke:#000000;stroke-miterlimit:10;}
</style>
<title>1-processes-stroke</title>
<path class="st0" d="M390.7,252.9c4.5-3.4,8.9-6.8,13.2-10.1c0.9-0.8,2.1-0.9,2.9-1.7c1.1-1.2,2.1-2.6,2.9-4
	c-1.3-0.7-2.6-1.5-3.8-2.3c-1.4-0.8-2.3-1.5-2.5-2.4c-0.6-3.7-3.1-4.4-6.1-4.8l-21.8-2.3c-1.6-0.2-3.1-0.7-4.5-1.5
	c-4.8-3.1-5.2-5.8-1.2-10c8.9-9.3,19.9-16.5,32-20.9c0.9-0.3,1.7-0.8,2.5-1.4c-1-0.4-2.1-0.6-3.2-0.6c-15.5,3.3-30.2,9.5-43.2,18.4
	c-17,11.4-32.6,24.8-46.5,39.9c-4,4.8-7.8,10-11.5,15.2c-1,1.4-1.8,3-2.3,4.6c-2.1,6.4,0.8,10,7.7,9.2c3.5-0.6,7-0.8,10.6-0.6
	c-0.8,0.5-1.6,0.9-2.5,1.2c-5.1,0.6-10.3,0.8-15.5,0.6c-4.8-0.6-6.3-4.6-4-9c6.2-11.2,14.2-21.3,23.8-29.8
	c5.4-4.6,10-10.1,15.5-14.7c9.3-7.8,19.1-15.1,29.3-21.8c16.1-10,33.4-17.5,53.1-16.6c4.6,0.1,9.4-1.5,14.9-2.8l-5.2,3.2
	c1,0.6,2,1.2,3.1,1.7c2.9,1.5,6.4,2.4,8.9,4.6c3.8,3.5,6.9,3.8,11,0.6c4.8-3.8,10-7.1,15.6-10.9c-4.9-1.8-9.5-0.1-14.1-0.1
	s-9.4,0.6-14.4,0.1c2.3-0.7,4.6-1.2,6.9-1.5c9.5-0.3,19-2.3,28.5-0.3c2,0.1,4.1,0,6.1-0.3c12.4-0.3,18.4,8.3,20.7,18.2
	c1.7,6.8,2.6,13.8,4.3,21.6c1.5-2.1,3.1-3.7,4.3-5.4c7.7-11.5,16.1-22.9,26.4-31.9c15.8-13.8,29.9-4.9,36.8,9
	c5.8,11.5,6.1,24.2,6.1,37.4c5.8-2.3,10,0,13.8,4.1c2.7,2.6,4,6.3,3.8,10c-0.6,8-1.7,16.1-2.2,24.4c-0.2,5.7-0.1,11.5,0.5,17.2
	c0,0.9,1.5,2.3,2.8,2.6c3.7,1.5,7.5,2.9,12.1,4.6c4.5-3.1,9.4-5.8,14.4-8c6-2.9,11.6-6.5,16.9-10.6c2.3-1.5,4-1.2,4.9,1.4
	c0.9,2.8,1.7,5.7,2.3,8.6c0.9,5.2,3.7,7.7,8.9,8.6c5.5,0.9,11,3.2,16.9,1.2c2.2-0.8,2.8,1.2,2.3,2.9c-0.7,1.7-1.2,3.3-1.7,5.1
	c4.5,1.8,7.4-0.3,9.8-2.8c6.1-5.5,6.1-5.5,12.6-0.8c4.5,3.2,9.4,3.1,14.3,2.1c8.6-1.5,17.2-3.4,25.9-4.8c5.3-0.9,10.7-1.4,16.1-1.4
	c5.7,0.1,10.2,4.8,10.1,10.5c0,0.2,0,0.3,0,0.5v0.6c-0.8,6.8,3.7,9.5,10.6,7.8c7.4-1.8,14.3-5.4,20.1-10.4c1.4-1.2,2.9-2.1,4.3-3.2
	c1.9-2,5-2.2,7.1-0.3c0.1,0.1,0.2,0.2,0.3,0.3l0,0c4.4,3.5,10,5.1,15.6,4.5c10.9-0.6,21.9-1.8,33-2.5c5.8-0.3,11.5,0.1,17.2,0
	c4.3,0.1,8.6-0.1,12.9-0.6c5.4-0.8,10.4-1.2,16,0.9s10.6-1.4,15.3-3.4c1.2-0.6,2.3-1.7,3.2-1.7c1.3,0.2,2.6,0.6,3.8,1.2
	c-0.8,1.4-1.2,3.2-2.2,3.7c-5.2,1.8-10.6,3.7-16,5.1c-2.5,0.6-5.4-0.3-8-0.6c-3.7-0.3-7.4-1.7-10.7-0.9c-7.4,1.5-14.6,0.3-21.9,0.6
	c-13,0.1-26.1,1.2-39.1,2.5c-6.5,1-13.2-0.2-19-3.4c-3.1-2.1-7.3-1.7-10,0.9c-6.3,4.9-13.5,8.6-21.2,10.9
	c-9.2,3.1-15.3-0.9-14.7-10.6c0.1-5.2-4-9.4-9.1-9.5c-0.1,0-0.1,0-0.2,0c-0.7,0-1.4,0-2.2,0.1c-12.1,2.3-24.2,4.6-36.5,6.9
	c-6.3,1.2-12.3,1.5-17.8-2.9c-1.7-1.6-4.4-1.5-6,0.1l-0.2,0.1c-0.9,1.1-2,2.1-3.1,3.1c-6.4,5.4-13.2,3.1-14.9-5.4
	c-10-1.7-21.5-0.6-26.2-13.5c-5.5,4.3-10.9,7.4-14.1,12.6c-2.9,4.8-6.8,5.4-11.3,1.8c-6.4,5.2-13.2,10-17.6,17.6
	c-3.1,5.9-8.3,10.5-12.3,15.7c-1.6,1.8-2.6,4.1-2.9,6.4c-0.2,9,0.2,18.1,0.6,27.3c0,2.3-0.8,3.7-3.2,3.4c-4.8,0-7.4-2.3-7.7-7.4
	c-0.5-4.9-0.5-10.1-0.5-15.3c0-1.7-0.2-3.4-0.2-5.4c-4,1.4-8.1,2.5-12.3,3.4c-10.7,1.8-21.5,1.9-32.2,0.1
	c-5.1-0.8-10.2,0.2-14.7,2.7c-12,6.3-23.3,13.5-35.4,19.3c-8.4,4.5-17.5,7.8-26.2,11.5c-3.2,1.4-6.6,2.6-10,3.4
	c-4.3,0.8-8.7-0.2-12.1-2.9c-5.2-3.7-10.9-6.3-16.6-9.5c-10.1-6-18.1-14-20.7-25.8c-2.1-7.2-2.4-14.9-0.9-22.2
	c1.7-7.7,2.8-16,4.8-23.6c1.4-4.8,4.3-9,6.1-13.8c2.5-6.3,5.2-12.7,7.2-19.2c1.5-4.6,0.1-6.4-4.6-7.4c-0.5,0-0.9-0.3-1.2-0.6
	c-3.1-4.8-7.8-3.4-12.1-3.4c-3.2,0-5.2,2.8-5.8,5.8c-2.8,13.5-11,23-20.4,32.2c-1,1.1-1.9,2.3-2.6,3.5c6.3-0.6,12,1.7,16.6-2.8
	c2.1,5.2,7.2,1.7,10,3.8l-15.9,2.4c0,0-0.6-1.4-0.9-1.2c-6,0.6-12.4-2.5-18.1,2.1c-2.5,2.2-5.9,2.9-9,1.8c-2.8-0.8-3.7-2.3-2.5-4.6
	c1.8-3.8,0.1-5.1-2.9-6.9c-4.1-2.7-7.7-6-10.7-9.8c-1.4-1.7-0.9-4.8-1.5-7.7l-6.3,1.2c0.1-0.6,0.1-0.8,0.3-0.8c5-2,9.5-5,13.2-8.9
	c8.9-8.6,20.1-14.4,32.2-16.7c4.8-0.9,9.8-0.8,13.6,2.4c2.6,2.7,6.9,3,9.8,0.6C389.2,253,390.1,252.9,390.7,252.9
	c1,3.4,3.4,2.4,5.9,2.4c2.9,0,6-0.6,8.4,0.3c4.8,1.8,7,8,5.2,13.5c-3.8,10.9-7.7,21.8-12.4,32.4c-6.4,14.4-8.4,29.1-4.6,44.3
	s14.6,23.9,28.2,29.3c0.6-9,1.2-17.6,1.8-26.2c0.8-7.5,2.3-14.7,3.2-22.2c0.3-1.5,0-3.1-0.8-4.5c-4.5-5.1-7.2-11.4-13.8-14.1
	c-2.2-1.3-4.4-2.9-6.3-4.6l0.6-0.8c9.2,2.9,14.6,11,21.6,17.5c0.5-1.2,0.8-1.7,0.9-2.3c3.4-12,7-23.8,10-35.9
	c3.4-13.6,6.8-27.3,9.5-41.1c1.7-7.7,1.2-7.7-6.8-8.9c-0.4,0-0.8-0.1-1.2-0.3l0.1-0.3l8.4,0.3V222l-15.3,5.8l2.3,2.9
	c-4.9,1.4-10.1,1.8-14.7,4c-5.4,2.3-11,5.2-12.3,12.3c-0.6,1.7-1.4,3.4-2.5,4.9l-0.8-0.3l2.1-7.5l-0.9-0.6c-2.9,1.7-5.5,3.4-8.4,5.2
	C395.9,250.3,393.4,251.5,390.7,252.9z M480.4,260.1c6.8-9.8,10.1-19.9,7.7-31.4c-1.2-5.8-7.7-11.4-13.5-10.9
	c-6.7,0.6-13.4,1.6-19.9,3.1c-1.4,0.1-3.2,2.3-3.1,3.2c0.5,3.8-0.9,8.6,4.3,10.9l-4-0.1c-0.1,1.2-0.3,2.4-0.6,3.5
	c-2.1,10.4-3.8,20.7-6.3,30.8c-4.3,17-9,33.7-13.6,50.6c-0.9,2.4-0.2,5.2,1.7,6.9c3.4,3.5,6.4,7.5,10,10.9c1.8,1.8,3.8,3.4,6,4.6
	c4,2.1,6.3,0.9,7.8-3.2c2.1-6,4.8-11.7,6.9-17.8c2.5-6.8,5.8-13.5,6.8-20.4c1.5-11.5,3.4-22.7,7.7-33.3c0.7-1.4,0.9-3,0.6-4.6
	c-3.8-9.4-8.6-18.1-17-24.4c-0.9-0.8-2.1-1.7-3.1-2.4c1.1-0.3,2.3-0.2,3.4,0.3C470.6,242,474.9,251.3,480.4,260.1L480.4,260.1z
	 M556.5,234.2c5.1-0.9,8.6-1.8,12.3-2.3c2,0,3.7-1.7,3.7-3.7v-0.6c0-11.5-0.8-23-6.1-33.6c-6.9-13.8-16.3-15.5-27.6-10.1
	c-6.4,3.2-12.1,9.4-17,15.2c-6.1,7.1-10.9,15.2-16.9,22.7c-2.3,2.9-2.3,4.8-0.1,7.5c5.4,7.3,7.7,16.4,6.3,25.3c-0.1,1.4,0,2.8,0,4.8
	c3.5-1.9,6.8-3.9,10-6.2c3.4-2.4,6.9-4.8,8.9-9c5.1-10.3,11.9-19.7,20.1-27.6c1.2-1.3,2.5-2.5,3.8-3.7c1.8-1.4,3.4-0.6,3.7,1.7
	c0,1.4,0,2.9-0.2,4.3C557.1,223.9,556.9,228.5,556.5,234.2L556.5,234.2z M440.2,200.7c-4.3-4.6-9.8-7.8-16-9.2
	c-7.7-1.7-14.7,0-21.8,2.8c-10.5,3.9-20,9.9-27.9,17.8c-5.2,4.9-3.8,10.1,3.2,11.7c4.8,0.9,9.8,1.4,14.6,2.1c4,0.3,7.8,1.2,11.7,1.8
	c2.1,0.7,4.4,0.2,6-1.4c5.4-4.8,10.7-9.4,16.3-14.1C430.6,208.6,435.2,204.9,440.2,200.7z M533.9,304.7c-3.4-0.3-6.4,0.1-7.5-4
	c1.9-0.8,3.8-1.4,5.8-1.7c3.3-0.4,6-2.7,6.9-5.8c3.8-12.4,7.8-24.9,11.5-37.4c1-4.5,1.7-9,2.2-13.5c-1.3,0-2.6,0.1-3.8,0.3
	c-5.5,2.4-10.9,4.9-16.3,7.8c-3.9,2-6.7,5.7-7.5,10c-0.8,3.8-2.2,7.7-3.2,11.5c-3.8,13.6-2.9,27,0.5,40.6c0.2,1.4,2.3,2.5,3.8,2.9
	c1.3,0,2.5-0.6,3.2-1.7C530.8,311,531.9,308.1,533.9,304.7L533.9,304.7z M430.4,328c-0.7,1-1.2,2.1-1.5,3.2c-1.5,12-2.9,23.8-4,35.7
	c-0.1,2.6,0.4,5.1,1.4,7.5c0.9,2,2.5,3.5,4.6,4.3c6.8,1.2,13.6,1.5,20.1-1.7c4.1-1.8,8.1-3.9,12-6.1c5.5-3.2,10.7-6.9,16.1-10.4
	l-0.6-0.8c-4.9,0.6-10,1.5-14.9,1.7c-5.1,0.1-7.7-2.5-8.1-7.5c0-1.4,0-2.9-0.1-4.3c-0.5-0.9-1.4-2.3-2.3-2.5
	c-6.1-0.6-9.8-4.6-13.5-9C436.4,334.8,433.5,331.6,430.4,328L430.4,328z M581.8,307c4.9,1.8,5.2,2.9,2.2,5.5
	c-1.1,1.1-2.3,2.2-3.7,3.1c-13.5,8-27,16.1-40.5,24.2c-3.7,2.1-5.2,1.5-5.4-2.9c-0.2-2.6,0-5.4,0-7.8c-6.1-1.2-19.3,4.8-23.2,10.7
	l6.9,2.5c1.5,0.6,2.9,0.9,4.3,1.5c1.7,0.9,3.7,1.7,5.4,2.5c12.7,2.6,25.9,1.3,37.9-3.7c2.8-1.2,4.6-1.8,4.5-5.5s1.4-4.3,4.8-3.8
	c2.2,0.1,5.2,0.8,6.1-0.3c5.5-6.3,10.7-13,15.8-19.8c1.3-1.9,0.8-4.4-1-5.7c-0.1,0-0.1-0.1-0.2-0.1c-0.5-0.2-0.9-0.4-1.4-0.6
	c-3.4-0.9-4.5-3.5-4.8-6.3c-0.5-2.5-0.8-5.2-1.2-7.8l-1.4-0.1C583,296.3,584.8,302.4,581.8,307L581.8,307z M492.5,235.5l0.9,0.3
	c1.2-2.1,2.5-4.2,4-6.1c1.7-1.7,1.7-4.5-0.1-6.2c0,0,0,0-0.1-0.1l0,0c-7.5-9-13.5-19.1-17.8-29.9c-3.1-7.7-7.7-9.5-14.1-6.3
	c-6.1,3.3-12.1,6.9-17.8,10.8c-2.5,1.4-2.9,3.2-1.4,6.1c1.8,3.2,3.2,6.6,4.3,10.1c1.4,4.6,1.7,4.9,6.4,3.7c4.4-1.4,8.9-2.3,13.5-2.8
	c12-0.8,19.9,3.7,21.5,17.5C491.8,233.7,492,234.7,492.5,235.5L492.5,235.5z M367.7,253.6c-7.2,0-13.5,2.8-19.2,6.3
	s-12.6,6.8-16.6,13.2c-2.1,3.8-2.5,8.4,0.6,11.7c2.5,2.3,5.4,4.5,8,6.4c2.3,1.7,3.8,0.9,5.5-1.2c3.7-4.4,7.7-8.5,12-12.3
	c5.5-4.9,11.5-9.5,17.2-14.4c2.5-2.1,2.8-2.3,1.2-6.8c-0.8-1.4-2.1-2.5-3.7-3.1C371.3,253.6,369.4,253.6,367.7,253.6L367.7,253.6z
	 M547.9,294.7c0.8,0.2,1.6,0.3,2.5,0.3c6-0.8,12.1-1.5,18.1-2.5s6.3-0.9,7.2-7.4c0.5-3.7,2.5-4.1,5.4-3.8c3.8,0.1,6.8,3.3,6.8,7.1
	V267c-1.4-0.5-2.8-0.9-4.3-1.2c-4.5-0.1-6-2.4-6-6.9c0.2-5.8-0.2-11.5-0.5-17.2c0-1.8-0.6-4-0.8-6h-1.5c-0.5,1.5-0.8,2.9-1.2,4.4
	c-1.4,4.9-2.3,10-3.8,14.7c-4.4,12.8-11,24.6-19.6,35C549.4,291.4,548.6,292.9,547.9,294.7L547.9,294.7z M468.1,357.3
	c1.2-0.1,3.1-0.3,5.2-0.8c9.8-1.8,18.8-6.2,26.2-12.9c4.8-4,4.3-7.4-1.5-9.8c-0.9-0.3-2.1-0.6-3.2-0.9c-3.7-1.4-7.2-2.9-10.9-4.6
	c-1.7-1.2-4.1-0.9-5.4,0.8c-5.5,4.8-11.4,9.2-16.9,14c-1.6,1.2-2.7,2.9-3.2,4.8C457.1,354.6,459.9,357.3,468.1,357.3L468.1,357.3z
	 M495.6,300.9c3.8-5.5,4.3-11.7,5.5-17.5c1.4-5.8,4-11.4,6.3-17c-8.3-0.3-9.5-2.3-8.9-9.2c0.9-8.3,1.2-16.7,1.7-25.8
	c-1.5,0.8-1.8,0.9-2.1,1.4c-4.3,7.4-8.3,14.6-9.4,23.3c-0.8,3.9-1.7,7.7-2.9,11.5c-0.6,1.8-0.6,3.7-0.1,5.5
	C488.7,282.2,492,291.2,495.6,300.9L495.6,300.9z M501.2,297.2c-0.5,0.1-0.9,0.3-1.2,0.6c-5.5,8.3-5.4,24.2,0.3,32
	c0.6,0.8,1.4,1.3,2.3,1.5c5.8,1.3,11.9,0.2,16.9-3.1c0.9-0.6,1.5-1.4,1.7-2.5c-0.6-4.6-0.5-9.4-5.8-12.1c-5.6-2.5-10-7.1-12.1-12.9
	C502.7,299.6,502,298.4,501.2,297.2L501.2,297.2z M485,276.5h-1.7c-0.5,0.7-1,1.5-1.4,2.3c-2.8,7.4-5.4,14.6-7.8,21.8
	c-2.1,6.1,1.4,16.7,7.4,21.5c1.8-2.3,4.6-4.3,6-7.1c1.8-4,6.3-7.4,4.9-12.3C490.2,294.1,487.8,285.2,485,276.5z M522.7,258.6
	c-6.4,6-13.6,10.7-16,19.8c-0.6,2.5-1.4,5-2.3,7.4c-4.6,9.4,4.9,24.5,14.6,26.1C515.3,294,516.6,275.6,522.7,258.6L522.7,258.6z
	 M411.4,230.9c6.3,0.9,15.8-0.6,19.6-2.8c3.1-1.7,6.1-3.2,9.2-4.8c9.4-3.8,10-5.2,5.5-14.6c-0.4-0.7-0.7-1.4-0.9-2.1
	c-2.1-4-2.9-4.1-6.3-1.4c-6.4,5.4-13,10.7-19.2,16.3C416.4,224.5,413.8,227.6,411.4,230.9z M543,291.7l1.5,0.9
	c0.6-0.9,1.2-1.8,1.7-2.8c5.4-10.3,10.9-20.6,16-31c1.7-4,2.8-8.1,3.2-12.4c0.8-4.1-3.1-4-5.8-4.6c-2.6-0.6-4.3,0.8-4.8,3.8
	c-2.2,9.5-4.5,19.2-6.8,28.8C546.3,280.2,544.7,285.9,543,291.7z M539.9,315.8l1.4,0.9c4.6-3.7,9.2-7.4,13.8-10.7
	c2.8-2.1,5.8-4,8.9-5.5c1.4-0.6,3.4,0.3,5.4,0.6c-0.4,1.6-1,3.2-1.7,4.8c-2.8,3.2-5.8,6.1-8.6,9.2l0.5,0.9c4-1.2,9.8-0.8,11.7-4.5
	c2.7-5.1,3.7-11,2.8-16.7c-1.2,0-1.8,0.1-2.8,0.1c-6.1,0.6-12.2,1.5-18.2,2.8c-2.5,0.3-5.8,1.5-6.9,3.4
	C543.5,305.7,541.4,310.6,539.9,315.8L539.9,315.8z M379.6,264.1c-0.9,0.2-1.8,0.6-2.5,1.2c-8.4,7.7-16.9,15.3-25.1,23.3
	c-1.5,1.5-1.7,4.5-2.5,6.4c2.6,0.3,5.5,0.8,8.3,0.9c1.1-0.2,2.1-0.8,2.8-1.7c4.3-4,8.3-8.4,12-13
	C376.4,276.2,378.8,270.3,379.6,264.1L379.6,264.1z M459.5,339.5l1.4,1.2c5.5-4.6,11-9.2,16.6-14c0.8-1.2,0.9-2.7,0.3-4
	c-1.8-4-4.5-7.8-7.2-12.9L459.5,339.5z M553.4,219.1l-0.9-0.6c-7.8,7.8-15.3,16.3-20.9,27.3c0.8,0,1.6-0.1,2.5-0.3
	c5.8-2.9,11.7-5.8,17.2-8.9c1-0.7,1.6-1.8,1.7-3.1C553.4,228.5,553.4,223.7,553.4,219.1L553.4,219.1z M477.8,185.5
	c7,10.7,10,23.6,19.9,32.1c-0.6-9.2-1.8-18.4-7.4-26.1C487.6,187.4,482.8,185.1,477.8,185.5L477.8,185.5z M538.5,335.1
	c11-6.3,22.4-10.9,32.4-18.4c-0.5-0.4-1.2-0.5-1.8-0.3c-8.4,1.5-17,2.1-23.8,8.4c-0.9,0.8-2,1.4-3.2,1.8
	C537.3,328.7,537,329.1,538.5,335.1L538.5,335.1z M504,232l-1.5,0.3c0,1.3-0.1,2.7-0.3,4c-0.1,7.1-0.1,14.3-0.8,21.5
	c-0.1,2.3,0,3.8,2.5,4.3c2.5,0.3,4.5-0.6,4.5-3.7c0.2-5.6,0-11.2-0.6-16.7C507.7,238.3,505.5,235.2,504,232L504,232z M492.8,312.4
	l-9.8,13c4.5,2.9,8.3,4.8,13,4.8L492.8,312.4z M592.5,292.7c-1.2,6.1-0.2,9.4,2.5,9.8c2.6,0.1,6.3-3.2,6.3-5.4
	C601.2,294.9,596.9,292.6,592.5,292.7z M541.1,302c-0.7-0.1-1.4-0.1-2.2,0c-2.3,4.3-4.5,8.3-6.3,12.4c-0.2,0.3,0.9,1.8,1.7,2.1
	c1.1,0.1,2.1-0.4,2.8-1.2C538.5,311.2,539.9,306.7,541.1,302z M571.5,235c-4.3,0.1-7.5,0-10.6,2.1l9.5,6.3L571.5,235z M547.1,316.6
	c4.6,0.3,11.5-5.1,14-10.7C556.1,308.9,551.4,312.4,547.1,316.6L547.1,316.6z M481.9,270.3l-1.8-0.3l-5.2,18l1.4,0.3
	C478.6,282.2,481.3,276.6,481.9,270.3L481.9,270.3z M480.9,362.4l0.6,1.2l14.4-8.7l-0.8-1.2C488.7,354.1,485,358.7,480.9,362.4
	L480.9,362.4z M588.2,257.6c2.9-10,2.8-14.7,0-18.2V257.6z M648.8,30c1.2,0.6,2.2,1.2,3.2,1.8c14,11,28.1,22.1,42,33.3
	c9.4,7.5,18.6,15,27.9,22.4c8.7,6.9,17.6,13.5,26.4,20.2c10,7.7,19.6,15.6,29.6,23.3c10.9,8.4,22.1,16.6,33.1,25
	c15.3,11.4,30.5,22.9,46,34c13.8,10,27.6,19.8,41.4,29.8c16,11.4,32,22.7,47.8,33.7c8.9,6.1,17.6,12.4,26.4,18.7
	c1.5,0.9,3.1,1.7,4.6,2.5c3.7,1.7,4,3.5,1.5,9.2c-1.1,2.6-3.4,3.4-6.8,1.5c-4-2.5-7.8-5.2-12-8c-10-7.4-20.1-14.6-30.1-21.8
	c-8.3-6-16.3-12.1-24.7-17.8c-13.2-9.2-26.7-18.2-39.9-27.4c-12-8.6-23.3-17.5-35.1-26.2c-13.7-10-27.3-19.8-40.6-29.9
	c-13.5-10.1-26.4-20.2-39.7-30.5c-12.4-9.5-24.8-19.2-37.4-29c-10.4-8-20.2-16.6-30.7-24.4c-12.1-9.2-24.4-18.1-36.7-26.8
	c-2.8-2.4-3.1-6.5-0.8-9.4C646.2,32.6,647.4,31.6,648.8,30z M988.9,344.9c3.4,0.6,6.2,3,7.4,6.3c0.3,3.4-1.8,4.6-4.8,5.4
	c-15.2,4-30.5,8-45.7,12.3c-3.2,0.8-6.4,1.8-9.5,3.1c-12.9,3.8-25.8,7.7-38.3,11.7c-13.5,4.5-26.7,9.2-39.9,13.8
	c-14.6,5.2-29.1,10.3-43.6,15.6c-14.9,5.5-29.8,11.7-44.5,17c-16.3,6-32.5,11.7-49.1,17c-17.6,5.8-35.7,10.9-53.4,16.7
	c-11.6,3.9-23.1,7.7-34.6,12.2c-6.2,2.5-12.2,5.3-17.9,8.6c-2.3,1.2-5.1,2.1-6.4,0c-1.6-2.8-2.8-5.9-3.7-9c-0.2-0.1,0.9-1.2,1.5-1.5
	c8.9-3.4,17.5-6.9,26.2-10c18.1-6.1,36.2-12.3,54.4-18.1c12-3.8,24.2-7.1,36-10.9c12.4-4,24.8-8.6,37.4-13.2
	c15-5.5,29.8-11.4,44.6-16.9c15-5.5,30.1-11.2,45.2-16.6c22.4-7.8,44.8-15.6,67.5-23c14.4-4.6,29.1-8,43.7-12.3
	c8.3-2.3,16.3-5.2,24.4-7.8C986.6,345.5,988,345,988.9,344.9z M561.1,51c-1.2,1.5-1.8,3.1-3.1,3.8c-9.8,6-19.8,11.5-29.3,17.8
	c-11.5,7.7-22.9,15.6-33.9,23.8c-11.4,8.1-22.1,15.8-33,23.6c-9.8,7.1-19.3,14.6-29.1,21.6c-11.5,8.4-23.5,16.7-35,24.9
	c-13.6,10-27.3,20.1-40.8,30.1c-10,7.4-20.1,14.6-30.1,21.9c-10.7,7.7-21.5,15.3-32,23.2s-20.8,15.4-31.2,23
	c-6.1,4.5-12.3,8.6-18.4,12.6c-3.8,2.3-10.7-1.7-10.7-6.3c0.2-1.3,1.1-2.5,2.3-3.1c12.6-7,24.6-15,35.9-23.9
	c5.5-4.1,11.7-7.7,17.5-11.7c7.4-5.4,14.4-10.9,21.8-16.3c17.6-12.9,35.4-25.8,53.5-38.5c14.9-10.7,29.9-21.2,44.6-32.1
	c11.4-8.3,22.2-16.9,33.6-25.2c10.4-7.5,20.9-14.6,31.1-22.1c12.3-8.7,24.3-18.1,36.5-26.7c12.2-8.6,24.7-16.7,37.4-25.1
	c4-2.8,6.3-2.8,10,0.1C559.4,48,560.3,49.5,561.1,51z M551.9,478.3c-1.5,2.3-2.2,4.8-3.7,5.5c-2,0.8-4.3,0.7-6.3-0.1
	c-6.4-3.1-12.9-6.9-19.3-10.1c-12.3-5.8-24.5-11.4-36.8-16.9c-17.8-8-35.9-16-53.7-23.9c-16.3-7.4-32.4-14.7-48.9-21.6
	c-19.9-8.4-39.9-16.9-60-24.9c-18.7-7.7-37.6-14.7-56.6-22.2c-3.7-1.5-7-3.2-10.9-4.6c-2.5-0.9-5-1.5-7.7-1.7
	c-2.5-0.1-4.5-2.1-4.6-4.6c-0.6-3.8,2-7.4,5.9-8h0.1c1.1-0.1,2.2,0,3.2,0.3c21.4,8.7,42.4,17.6,63.7,26.1c10.9,4.5,22.1,8.4,32.8,13
	c11.5,4.8,22.9,10.1,34.4,15.2c8.9,3.8,17.6,7.1,26.2,10.9c10.1,4.5,20.2,9.4,30.2,14c11.4,5.2,22.7,10,33.9,15.2S496,450,507.1,455
	c9.5,4.5,19.3,8.6,29.1,12.9c3.6,1.3,7.1,2.9,10.4,4.8C549.3,473.7,550.2,476.3,551.9,478.3L551.9,478.3z M196.9,356.8
	c-6-0.3-11.2-0.9-16.3-0.8c-10.4,0.1-20.7,0.6-31,1.4c-3.9,0.6-7.8,1.4-11.7,2.5c-2.4,0.6-2.3,2.5-2.3,4.6c0,2.3,1.8,5.8-2.8,6.3
	c-3.7,0.2-6.9-2.4-7.5-6c-0.3-3.1-0.6-6.3-0.8-9.5l-4.6-63.5c0.1-1.5,0.6-3,1.4-4.3c1.5-1.7,3.1-3.4,4.8-4.9l-0.6-0.8h19.6
	c15.5,0.1,30.8,0.6,46.3,0.6c5.8,0,11.5-1.2,17-1.5c3.3-0.5,6.5,1.7,7.1,5.1c0.1,1,0,2-0.1,2.9c-0.6,1.4-1.7,2.5-3.1,3.1
	c-3.1,1.4-4.9,3.1-4.8,6.8c0.5,10.7,0.6,21.6,0.8,32.4c0,2.7,0.2,5.3,0.5,8c0.3,3.4,1,6.8,2.1,10c1.4,3.7,0.8,6-1.8,8.9
	c-1.8,2.3-2.6,6.1-3.1,9.5c-0.6,4.9-0.9,6-4.3,5.5c-3.8-0.3-7.4-4.6-6.8-7.8C195.4,362.3,196.1,359.6,196.9,356.8L196.9,356.8z
	 M134,347.8c20.1-3.4,39.7-3.2,59.5-2.5c3.7,0.1,5.1-1.5,5.1-5.4c-0.3-13-0.8-26.1-1.2-39.1v-7.1c-2.1-0.1-4-0.3-5.8-0.3
	c-16.7-0.3-33.3-0.6-50.1-0.8c-1.7,0-3.5,0.1-5.2,0.1c-3.7,0.3-5.2,1.8-5.1,6c0.8,10.6,0.9,21.2,1.5,31.4
	C132.7,335.7,133.5,341.3,134,347.8L134,347.8z M1043.7,337.2c-1.8,0.9-3.6,2.1-5.2,3.4c-1.4,1.8-4,2.1-5.8,0.8l-0.6-0.6
	c-4.3-4.8-9.5-4.8-15.3-4.8c-5.2,0-10.6-1.2-15.6-1.4c-3.4,0-6.9,0.6-10.1,1.7c-2.7,1.2-5.9,0.7-8-1.4c-2.5-1.8-1.1-3.8-0.8-6
	c0.1-2.7,1.6-5,4-6.3c2.5-1.8,3.8-5.8,5.5-8.6c4.8-8.9,9.5-17.8,14.6-26.8c1.5-2.9,3.2-5.8,4.8-8.9c0.9-1.8,1.8-3.8,4.6-3.2
	s5.4,0.9,6.1,4.3c1.1,5.4,2.3,10.9,3.7,16.3c2.3,9.2,4.6,18.2,7.4,27.3c1.2,3.8,4.4,4.9,7.8,2.9c3.4-2.1,6-0.3,8.3,1.8
	c2.3,2.3,2.9,7.1,0.8,9.2c-1.2,1.2-3.2,1.2-4.9,1.5L1043.7,337.2z M1015,293.5c-6.6,9.3-12.1,19.4-16.1,30.1l24.5,1.2L1015,293.5z
	 M591.4,44c0.8-8,1.5-16.1,2.2-24.4c0.2-2.6,0.8-4.6,4-4.6c3.8,0.2,7.4,2.5,7,5.5s-0.6,6.8-0.9,10c-0.9,8.3-3.4,16.6-0.8,24.9
	c0.2,0.6-1.8,2.5-2.9,2.5c-4.6,0-8.4-3.7-8.4-8.3l0,0v-5.9h-0.2L591.4,44z M574.7,491.1c-8-0.9-8-0.9-7.8-8.4
	c0.5-10,0.8-19.8,1.2-29.8c0.2-4.5,1.7-5.8,5.4-5.4c4.3,0.3,5.8,2.5,5.4,6.8c-1.2,11.5-2.3,23.2-3.7,34.7
	C575,489.6,574.8,490.3,574.7,491.1z M587.9,117.5c5.5,0.8,8.9,2.8,7.5,8c-2.2,8.3-2.4,17-0.8,25.5c0.8,3.5-1.7,7.5-4.3,7.7
	c-3.8,0.1-7.7-2.8-7.5-6.3c0.3-10.4,0.9-20.7,1.7-31C585.1,119.6,587.5,118.4,587.9,117.5L587.9,117.5z M568.3,409.9
	c0-5.1,0.2-9.8,0-14.7c-0.2-3.7,1.8-4.8,5.2-4.6c3.8,0.1,5.8,1.8,5.8,5.2c-0.2,10.6-0.6,20.9-0.8,31.4c0,2.1,0.2,4.5-2.6,4.8
	s-7-1.7-7.4-3.8c-0.3-3.4-0.3-7.1-0.3-10.6C568.3,415.1,568.3,412.4,568.3,409.9L568.3,409.9z M589.4,65.8c1.8-0.2,3.7-0.2,5.5,0
	c4.3,0.6,5.8,2.5,5.5,6.8c-0.2,8-0.2,16.1-0.8,24.2c-0.2,1.9-1.2,3.6-2.7,4.8c-2.3,1.1-7.5-1.7-8.4-4c-0.3-0.7-0.6-1.5-0.6-2.3
	C588.7,85.6,589.3,75.7,589.4,65.8z M566,521.3v-14.4c0-4,2.8-3.4,5.4-3.2c2.5,0.1,5.2,0.3,4.9,4c-0.6,9.8-0.9,19.8-1.4,29.4
	c0,1.8-0.6,3.1-2.6,2.9c-3.7,0-6.4-1.8-6.8-4.8c-0.2-4.8,0-9.5,0-14.4L566,521.3z M578.3,195.2c0.2-3.4,0.5-6.9,0.6-10.6
	s1.5-4.9,4.9-4.8c4.3,0.3,6.8,2.4,6.4,5.8c-0.5,6.8-0.9,13.2-1.4,19.9c-0.2,2.4-0.8,4.9-3.8,5.2c-2.5,0.1-6.9-3.7-7-5.8v-10
	L578.3,195.2z M351.6,321.1l16.1-14.6c-0.8,7.4-9,15.6-15.2,15.5L351.6,321.1z"/>
<path class="st1" d="M94.5,275c0-4.5,0.6-8.9,1.8-13.2c2.6-8.8,6.8-17,12.4-24.3c1.7-2.2,3.1-4.7,4.2-7.3c3-7,8.6-11,16-12
	c11.9-1.7,22.2,3.3,28.5,14.1c4.5,7.8,5,16.1,2.8,24.6c-3.2,12.5-9.6,23.3-18,33c-3.8,4.5-8.1,8.4-12.9,11.8
	c-3,2.1-6.5,3.4-10.1,3.9c-4.9,0.6-9.1-0.9-13.1-3.7c-7.3-5.3-10.2-12.9-11.3-21.4C94.6,278.7,94.5,276.8,94.5,275z M126.4,230.9
	c-3.2-1.3-4.9,0.6-6.6,2.5c-1.1,1.2-2.4,2.2-2.7,4c-0.2,0.8-0.7,1.5-1.4,1.9c-2.5,1.6-4,4-5.5,6.3c-3.9,6.2-6.8,12.9-8.8,20
	c-2.6,9.2-1.6,19.1,3,27.6c1.2,2.2,2.7,4.2,4.5,5.9c2.2,2.4,5.6,3.3,8.7,2.2c1.4-0.5,2.9-0.9,4.2-1.4c4.4-2,8.4-4.8,11.7-8.3
	c8-7.7,14.5-16.9,18.9-27.2c2.8-6.6,5.2-13.4,4.5-20.7c-0.7-7.9-4.1-14.3-10.6-18.9c-5.7-4-13.4-4.1-19.2-0.2L126.4,230.9z M397,297
	c-0.2,6.4-0.4,12.6-0.7,18.7c-0.5,9.6-1.1,19.3-1.6,28.9c0,2.5,0.1,4.9,0.5,7.4c0.2,2.4-0.3,3.4-1.8,3.4c-1.8-0.1-2.9-1.2-2.9-3.3
	c0.1-3,0.2-6,0.5-9c1.7-14.1,2.5-28.2,2.8-42.2c0.1-2.8-1.3-5.1-2.1-7.9c2-2,2.1-4.6,2.1-7.3c0-8.8,0-17.6,0.1-26.4
	c0.1-0.8,0.2-1.6,0.4-2.5c2.6,0.5,1.7,3.4,3.9,4.2c0.6-0.2,1.2-0.5,1.8-0.8c6.1-5.1,12.9-9.4,20.1-12.8c7.3-3.6,15-6.2,23-7.7
	c2.6-0.5,5.3-0.6,7.9-0.4c4.4,0.5,6.6,3.8,5.9,8.2s-3.1,8-5.8,11.5c-5.5,7-12.4,12.5-19.5,17.8c-7.6,5.5-15.6,10.6-23.9,15.1
	C404.2,293.7,400.7,295.5,397,297z M397.4,290.7c0.7,0.2,1.5,0.2,2.2,0.1c3.8-2,7.6-4,11.4-6.1c2-1.1,4-2.4,6-3.5
	c0.9-0.4,1.8-0.8,2.6-1.2c5.4-4.2,10.6-8.5,16-12.7c5.2-4.2,9.7-9.1,13.4-14.6c1.1-1.8,2-3.8,2.6-5.9c0.5-1.1,0.1-2.4-1-2.9l0,0l0,0
	c-0.3-0.2-0.7-0.2-1.1-0.2c-2.3,0-4.6,0.2-6.9,0.6c-12.3,2.2-23.4,7.6-33.7,14.4c-2.5,1.6-4.8,3.6-6.7,5.9c-1.3,1.7-2.6,3.2-4.6,3.8
	C396.4,274.9,396.4,285.5,397.4,290.7L397.4,290.7z M936.3,270.1c-0.3,4.1,0.4,5.1,3.5,5.9c5.8,1.3,11.6,1,17.4,0.7
	c9-0.5,17.9-1.2,26.9-1.7c1.2-0.1,2.3,0,3.5-0.1c3-0.1,6,0.1,8.5-2c0.6,0.4,1.2,0.9,1.7,1.5c2.1,3.1,1.1,5.5-2.6,6
	c-0.7,0.1-1.3,0.1-2,0.1c-13.1,0.5-26.3,1-39.4,1.4c-3.2,0.2-6.3,0.1-9.5-0.1c-6.3-0.6-11-3.4-12.9-10c-0.4-1.5-1.6-2.9-2.3-4.3
	s-1.8-2.5-0.9-4.5c3.3,0.6,5.8-1.4,8.2-3.5c3-2.6,6.8-3.4,10.3-5c6.5-3,13.6-4.4,20.5-6.1c3.8-0.9,7.7-0.6,11,2
	c1.3,1,2.4,2.3,3.1,3.8c1.6,3.3,0.6,5.8-2.7,7.3c-1.6,0.8-3.3,1.4-5.1,1.8c-10.6,2.4-21.2,4.1-32,5.3
	C939.8,268.9,937.8,269,936.3,270.1L936.3,270.1z M945.9,261.1c0.9,1.8,2.1,1.4,3.2,1.3c7.2-0.8,14.3-2.1,21.4-3.7
	c1.3-0.3,2.5-0.7,3.7-1.3c0.7-0.4,1.2-1.3,1.9-2c-3.3-1.6-3.4-1.8-9.3-0.9C959.5,255.5,952.3,257.4,945.9,261.1L945.9,261.1z
	 M695.9,272.1c0.3,0.8,0.8,1.6,1.4,2.3c1.8,1.5,4.1,2.3,6.5,2.4c7.6,0.7,15.2,1.5,22.9,0.8c8.1-0.8,16.1-2.1,24-4
	c3.8-1,7.6-2.3,11.3-3.8c1.5-0.5,2.9-1,4.3-0.2c0.8,0.5,1.5,1.3,1.8,2.2c0.3,1.1-0.7,1.8-1.7,2.1s-2.2,0.7-3.3,1
	c-18.4,6.1-37.8,8.4-57.1,6.8c-3.5-0.3-6.9-1.4-9.9-3.2c-3-1.8-5.2-4.8-6.1-8.2c-0.7-2.9,0.3-5.9,2.7-7.7c3.4-2.9,6.8-6.1,10.7-8.1
	c7.2-3.9,15.1-6.3,23.2-7.2c4.7-0.5,9.4,0.9,13,4c1,0.9,1.8,1.9,2.4,3.1c0.8,1.4,0.4,3.1-0.8,4.1c-1,0.9-2.1,1.6-3.3,2.2
	c-7.1,3.8-14.5,6.6-22.3,8.6c-5.3,1.3-10.8,1.7-16.2,2.5L695.9,272.1z M698.5,266.1c1,0.3,2,0.4,3,0.5c2.8-0.3,5.6-0.8,8.4-1.1
	c8.9-1,16.8-5,24.8-8.4c0.7-0.3,1.2-1.4,1.7-2c-1.2-2-3.5-3.1-5.8-2.7c-3.3,0.3-6.6,0.7-9.8,1.4c-6.3,1.4-12.4,3.9-17.8,7.5
	C701.1,262.3,699.3,263.4,698.5,266.1L698.5,266.1z M1018.1,254c0.7-0.3,1.5-0.5,2.2-0.7c8.7-1.1,17.3-3.1,25.7-5.9
	c3.5-1.2,7.1-1.7,10.8-1.6c1.9,0.1,3.5,1.2,4.4,2.8c0.7,0.9,0.5,2.3-0.4,3c-0.3,0.2-0.6,0.4-1,0.4c-0.3,0.1-0.7,0.1-1,0.1
	c-4.8-1.5-9.2,0.3-13.7,1.4c-2.9,0.7-5.8,1.3-8.8,2c-0.8,0.3-1.7,0.7-2.4,1.2c2,1.5,3.9,1.3,5.6,1.2c6.5,0,13,0.7,19.3,2.3
	c3.1,0.7,6,1.8,9.1,2.7c2.2,0.8,4.2,2.2,5.7,4c2.8,3,2.4,6.8-1.1,8.8c-2.1,1.3-4.5,2.2-6.9,2.7c-9.5,1.9-19.1,3-28.7,3.3
	c-3.8,0-7.6-0.3-11.4-1.1c-3-0.6-4.4-2.7-4.5-5.8c0-0.5,0.6-1,1.2-1.8c3.5,3.4,7.7,3.2,11.9,3.2c10,0,19.9-1.4,29.5-4
	c1.5-0.4,3.3-0.6,4.4-2.6c-0.6-0.7-1.3-1.3-2.1-1.7c-3.1-1.2-6.3-2.2-9.6-2.9c-5.1-1-10.2-1.6-15.4-1.6c-5.8,0-11.7-0.2-17.5-0.7
	C1018.2,262.3,1016.8,259.9,1018.1,254z M216.4,213.4c1,0,2,0.1,3,0.2c1.9,0.3,3.3,2.1,3.1,4c0,1.8-0.2,3.7-0.4,5.5
	c-2.1,12.3-4.5,24.5-6.3,36.8c-1.4,9.4-2.2,18.8-3.2,28.2c-0.1,0.5-0.1,1,0,1.5c0.3,2.4,1.4,3.6,3.9,3.4s4.3,0.2,5.4,2.6
	c0.6,0.9,0.3,2.2-0.6,2.8h-0.1c-0.2,0.1-0.5,0.2-0.7,0.3c-0.5,0.1-1,0.1-1.5,0.2c-2.7,0.4-4.6,1.4-5.4,4.3c-0.8,2.6-1.6,3-4.1,2.3
	c-1.9-0.5-3.9-0.3-5.7,0.6c-1.9,0.8-3.2,0.4-3.9-0.9c-1.1-1.7-0.6-3.9,1-5h0.2l0.2-0.1c0.7-0.4,1.5-0.7,2.3-1
	c1.7-0.7,2.9-2.4,2.9-4.3c0.2-3,0.6-6,0.8-9c0.6-11.7,2.7-23.1,4.6-34.6c0.6-3,1-6.1,1.3-9.2c0.2-3.1,1-5.9,1.3-8.9
	c0.1-1.9,0.1-3.7,0-5.6c-0.8,0.6-1.5,1.3-2.2,2.1c-1.7,2.3-3.2,4.7-4.9,6.9c-0.9,1.5-2.6,2.3-4.3,2.1c-2.1-0.4-3.6-1.5-3.9-3.8
	C206.1,228.5,210.7,220.9,216.4,213.4z M579.4,255.9c1.7,0.9,3.7,0.8,5.6,1.2c5.2,1,8.9,5.3,8.3,10.2c-0.3,2-1,3.8-2.2,5.4
	c-4.9,6.3-11,11.6-18,15.6c-4.5,2.5-8.9,5.3-14,6.4c-2.4,0.6-4.8,0.9-7.3,0.8c-2.1-0.2-4.2-1-5.9-2.2c-4.8-3.4-7.3-11.2-4.9-16.5
	c1.7-3.4,3.9-6.5,6.5-9.3c3.2-3.4,6.6-6.5,10.3-9.3c3.6-2.8,7.6-5.2,11.5-7.8c1.6-1,3.5-1.3,5.3-0.8
	C577.6,250.3,578.5,251.5,579.4,255.9z M552.8,268.5c-2.3,2.8-4.3,5-6,7.4c-1.8,2.7-2.5,5.9-1.9,9.1c0.5,3.7,3.1,6.1,6.8,5.9
	c2.3-0.2,4.7-0.6,6.9-1.3c5-1.4,9.5-4,14-6.5s9-5.1,12-9.5c0.5-0.7,1.1-1.3,1.8-1.7c2.2-1.2,2.6-3.3,2.9-5.5
	c0.4-2.5-0.3-3.9-2.7-4.5c-2.1-0.5-4.2-0.8-6.4-0.7c-7,0.4-13.2,3.4-19.1,6.9C558.4,269.8,556,270.6,552.8,268.5L552.8,268.5z
	 M863,252.3c7.2-1.6,14.1-3.2,21.1-4.5c2.5-0.4,5-0.3,7.4,0.3c1.6,0.5,3,1.3,4.2,2.5c0.5,0.6,0.6,1.5,0.3,2.2
	c-0.5,0.7-1.2,1.1-2,1.2c-0.6,0.1-1.3,0-1.9-0.3c-6.1-1.8-11.7,0.4-17.4,2.2c-0.1,0-0.1,0.3-0.2,0.7c2,1.2,4.4,1.1,6.6,1.2
	c6.9,0.4,13.4,2.2,20,4.2c3,0.9,5.8,2.6,8.1,4.8c2.6,2.3,3,6.1,1,8.9c-1.3,1.7-2.9,3.2-4.8,4.3c-10.2,5.2-21.7,6.9-33,5
	c-2.5-0.3-4.9-0.8-7.3-1.5c-2.5-0.8-5.2-1.3-6.5-4.2s-0.6-3.9,2.5-4.3c0.6,0,1.2,0.1,1.8,0.2c1,3.3,4,3.9,6.9,4.7
	c9.1,2.4,17.8,0.6,26.4-2.6c2-0.8,4-1.7,5.8-2.9c1.1-0.7,2.1-1.7,2.9-2.7c0.7-0.9,0.6-2.2-0.3-3c-0.2-0.1-0.4-0.3-0.6-0.3
	c-1.3-0.7-2.7-1.3-4.1-1.7c-6.3-2.2-12.9-3.4-19.5-3.7c-2.3,0-4.7-0.1-7-0.4c-2-0.2-3.9-0.6-5.8-1.3
	C863.6,259.7,862.6,257.6,863,252.3z M809.4,256c1.6,0.3,3.2,0.7,4.8,1c6.9,1,13.6,3.2,19.9,6.3c1.3,0.7,2.6,1.4,3.8,2.3
	c3,2.3,3.5,5.4,1.8,8.9c-2,3.9-5.6,5.9-9.4,6.9c-9.7,2.5-19.6,3.7-29.6,1.4c-2.4-0.5-4.8-1.4-7-2.5c-2.5-1.3-4.8-3.1-4.2-7
	c1.2,0.4,2.4,0.4,3.2,1c6.6,5.4,14.2,6.2,22.2,4.9c4.4-0.7,8.8-1.8,13-3.2c3.2-0.9,5.8-3.3,6.8-6.5c-0.6-0.9-1.4-1.6-2.3-2.2
	c-2.1-1.1-4.2-2-6.4-2.7c-6.5-2.2-13.3-2.9-20.1-3.4c-1-0.1-2-0.1-3-0.2c-4.6-0.7-5.8-2-6.7-7.1c0.2-0.2,0.4-0.6,0.7-0.7
	c7.1-2.2,14.2-4.6,21.4-6.6c1.8-0.3,3.6-0.2,5.3,0.3c2,0.5,2.9,1.8,2.6,3c-0.5,1.6-1.8,1.9-3.2,1.8c-4.1-0.3-7.9,1.1-11.7,2.2
	c-0.7,0.3-1.4,0.7-2,1.1L809.4,256z M631.8,284.1c4.2-0.7,8.8-1.4,13.4-2.3c2.8-0.5,5.5-1.3,8.3-1.8c3.9-0.8,7.8-1.6,11.4-3.4
	c0.9-0.5,1.8-0.6,2.8-0.4c0.9,0.4,1.5,1.1,1.9,2c0,0.8-0.3,1.6-0.9,2.1c-0.8,0.6-1.7,1-2.7,1.2c-7.9,1.9-15.8,4-23.8,5.7
	c-3.7,0.8-7.6,1.2-11.4,1.2c-2.8-0.1-5.6-0.6-8.2-1.5c-6.6-1.8-9.5-10.8-7.5-15.9c1.4-3.9,3.8-7.4,6.9-10.2c4.8-3.9,10.2-7,16-9
	c3.2-1.2,6.2-0.4,9.1,1c0.7,0.4,1.3,1,1.7,1.8c0.7,0.9,0.5,2.1-0.4,2.8l0,0l0,0c-0.1,0.1-0.2,0.1-0.3,0.2c-1.5,0.9-3.2,1-4.8,0.3
	c-1-0.6-2.1-0.8-3.2-0.8c-8.9,2.7-16.4,7.3-20,16.5c-0.4,0.9-0.6,1.9-0.8,2.9c-0.3,3.7,1.3,6,5,6.8
	C626.7,283.6,629,283.8,631.8,284.1z M476.8,258.6c2-1.6,4.1-3.1,6.3-4.5c2-1.1,3.7-2.2,4.5-4.4c0.1-0.4,0.7-0.7,1.3-1.2
	c5.2,3,10.6,0.5,15.9,0c2.9-0.3,5.8-1.4,8.7-2.1c1.1-0.4,2.3-0.2,3.2,0.6c0.8,0.6,1.1,1.7,0.5,2.6c-0.2,0.3-0.5,0.5-0.8,0.7
	c-0.9,0.4-1.9,0.6-2.9,0.8c-5.4,1.1-10.8,2.2-16.1,3.3c-6.9,1.5-6.9,1.6-8.2,8.6c-1.1,5-1.4,10.2-0.9,15.3c0.5,4.1-0.1,8.3-0.4,12.4
	c-0.2,0.8-0.7,1.4-1.5,1.7c-0.8,0-1.5-0.3-2.1-0.8c-1.3-1.4-1.8-3.3-1.4-5.1c0.5-2.8,0.8-5.6,1.1-8.4c0.3-2.5-0.2-5-1.4-7.2
	c-1.5-2.8-2.9-5.6-4.3-8.5C477.7,261.2,477.2,259.9,476.8,258.6L476.8,258.6z"/>
</svg>
