<svg id="Layer_1" data-name="Layer 1" xmlns="http://www.w3.org/2000/svg" viewBox="0 0 1170 204"><defs><style>.cls-1{stroke:#000;stroke-miterlimit:10;stroke-width:2px;}</style></defs><title>2-development-3</title><path class="cls-1" d="M893.7,54.7c-.6.8-1.1,1.6-1.7,2.4-3,5.5-6.3,11-8.5,16.9-.5,1.2-1.1,2.4-1.6,3.6-1,2.4-2.5,4.3-5.3,4.4a15.89,15.89,0,0,0-2.4,6.7c-.5,3.1-1,6.2-1.7,9.3-.5,2.1-1.6,2.9-3,2.6a3.18,3.18,0,0,1-2.5-3.7c0-.2.1-.3.1-.5.8-3.2,1.6-6.4,2.5-9.6,1.8-6,1.7-12.2,2.5-18.3.4-3.3.7-6.6,1-9.9a16.28,16.28,0,0,0-.3-3.1c-1.3,1.3-2.2,1.9-2.7,2.8-4,7.1-8,14.2-11.9,21.4-.3.6-.4,1.3-.7,1.8a2,2,0,0,1-2.6,1.1c-.1-.1-.3-.1-.4-.2a20.28,20.28,0,0,1-2.6-1.8c-1.5,2.3-1.3,4.7-1.7,6.9-.7,4.6-1.2,9.2-1.7,13.9a40.08,40.08,0,0,0,.1,6c0,1.1-.4,2.1-1.6,2.2a2.81,2.81,0,0,1-2.1-1,4.88,4.88,0,0,1-1.2-4.6c.7-3.2,1.5-6.5,2-9.8.5-2.9.9-5.9,1.2-8.9.8-7.6,1.5-15.2,2.4-22.8.4-3.1,1-6.2,1.7-9.3.5-1.9,1.7-2.6,3.2-2.3a2.68,2.68,0,0,1,2,3c-.2,1.5-.5,3-.8,4.4-1.1,5.4-2.2,10.7-3.3,16.1a11.07,11.07,0,0,0,.2,1.9,15.37,15.37,0,0,0,1.9-1.7c4.6-7.7,9.1-15.5,13.7-23.2,1.5-2.6,3.3-5,5-7.5.8-1.2,1.7-2.1,3.2-1.8a4.14,4.14,0,0,1,3.5,3.7,54.57,54.57,0,0,1-.2,7c-.3,3.3-1,6.6-1.4,9.9-.3,1.9-.4,3.9-.7,6.7,1.2-.9,2-1.2,2.3-1.8a90.38,90.38,0,0,1,8.7-13.4,10.24,10.24,0,0,0,1.1-2.7,22.92,22.92,0,0,1,4.8-8.1c2.2-2.3,5.1-1.8,6.5,1a9.28,9.28,0,0,1,.7,4.3c-.8,12.8-3.3,25.4-6,37.9-1.5,7-2.8,14-4.2,21-.1.7-.2,1.3-.3,2-.5,1.9-1.3,2.7-2.5,2.6-1.8-.3-3.5-2.2-3.1-3.9.4-2.3,1.2-4.5,1.6-6.8,2.9-14.5,6.2-29,8-43.7a16.55,16.55,0,0,0-.3-3.2ZM44.2,37.7c3.6-.2,6.7-.4,9.9-.4a25.18,25.18,0,0,1,5.4.8c10.9,2.7,15.3,13.2,15.2,21.5-.1,6.2-2.7,11.6-5.4,17-7.3,14.3-17.8,26-29.9,36.3a58.73,58.73,0,0,1-13.5,8.4c-8.4,3.8-18.5.9-22.9-6.4a22,22,0,0,1-2.7-10c-.4-6.1,1.1-11.9,3-17.6A135.94,135.94,0,0,1,15.4,60a5.72,5.72,0,0,0,1-4.7,4.5,4.5,0,0,1,1.5-4.5,14.75,14.75,0,0,1,3-2.6c4.2-2.5,7.4-6.1,10.8-9.5l1.4-1.4c3.4-3.3,7.1-4.1,10.2-.1A4.05,4.05,0,0,1,44.2,37.7ZM5.5,103.2A27.43,27.43,0,0,0,7.7,113c1.9,4.3,4.9,5.9,9.6,5.4a28.45,28.45,0,0,0,14.2-5.9A117.3,117.3,0,0,0,51.3,94.4c4.7-5.6,8.6-11.8,12.8-17.8,1.2-1.7,1.8-3.9,2.7-5.9A24.3,24.3,0,0,1,68.4,67a17.14,17.14,0,0,0,2.3-9.1c.2-9.1-4.5-17.8-16.8-16.8a7.72,7.72,0,0,0-1.5.2c-7,.4-13.2,3.2-19.5,6a9.58,9.58,0,0,0-3.7,3.2A113.2,113.2,0,0,0,16.8,69.3,120.31,120.31,0,0,0,8,91C6.8,95,6.3,99.2,5.5,103.2Zm769.6-8.8a34.47,34.47,0,0,1,2.6-2.8c.9-.6,1.8-1.2,2.7-1.7l3.4-30.2c1.9-2,3.9.5,5.5.3,4.6-3.3,8.8-6.7,13.3-9.4A128.79,128.79,0,0,1,816,43.9a11.73,11.73,0,0,1,9.7,0,5.33,5.33,0,0,1,3.6,5.5,27.3,27.3,0,0,1-2.5,10.1,50.52,50.52,0,0,1-10.1,14.1c-5.5,5.8-11.4,11.2-17.3,16.5A50.41,50.41,0,0,1,786,98.5a4.21,4.21,0,0,0-2.8,3.7c-1,8.7-2.1,17.5-3.2,26.2-.7,5.3-1.3,10.6-1.9,15.8-.3,3-.4,5.9-.6,8.9-3.2,1.2-5.1.4-5.3-2.6a36.37,36.37,0,0,1,.4-7.4c1.5-9.2,3.1-18.3,4.6-27.5.6-3.8.7-7.6,1.4-11.4a8.64,8.64,0,0,0-2.2-7.8A7.69,7.69,0,0,1,775.1,94.4ZM823,49.5a4.59,4.59,0,0,0-1.6-.7,4.42,4.42,0,0,0-2,.2c-7.2,2.6-14.3,5.7-20,10.9-3.6,3.5-7,7.1-10.2,10.9a7.48,7.48,0,0,0-1.8,3.4c-1.1,5.5-2,11.1-3,16.7-.1.4.3.8.5,1.2,1.8.4,2.9-.8,4.1-1.6a111,111,0,0,0,27.2-26.2A37.79,37.79,0,0,0,823,49.5ZM346.6,70.8a5.77,5.77,0,0,1-.6,1.7c-3.1,4.2-3.2,9-3,13.8.1,2.5.3,5,.4,7.5a1.92,1.92,0,0,1-2,1.9,1.61,1.61,0,0,1-.9-.3,5.75,5.75,0,0,1-3.1-4.8c-.1-1.3-.3-2.5-.5-4.5-1.5,1.3-2.5,1.9-3.4,2.8a116.3,116.3,0,0,1-14.9,13.2,66.53,66.53,0,0,1-7.3,4.3,8.86,8.86,0,0,1-7.3.5,7,7,0,0,1-4.9-5.2,55.84,55.84,0,0,1-1-5.9,8.09,8.09,0,0,1,2.3-7.2c4.9-5.4,9.3-11.3,13.9-17,5.4-6.5,10.8-13.1,16.2-19.6,2.2-2.6,4.5-5,8.2-5.2a2.57,2.57,0,0,0,2.4-2.7c.1-2.8.2-5.7.4-8.5.3-4.8.5-9.6,1-14.4.5-5.1,1.2-10.2,1.9-15.3a3.62,3.62,0,0,1,1.5-2.3,2.53,2.53,0,0,1,3.1.9,6.2,6.2,0,0,1,1.2,2.6,10.4,10.4,0,0,1-.3,3.5c-2.8,10.9-3.3,22-3.9,33.2-.3,6.3-.8,12.6-1.2,18.9C344.3,67,344.2,67,346.6,70.8Zm-41,31.3a12.76,12.76,0,0,0,3.3-.5c4.2-2.6,8.5-5.2,12.5-8.2a75.56,75.56,0,0,0,14.2-14.6,12.83,12.83,0,0,0,3.2-7.1c.4-4.1.8-8.3,1.1-12.4.1-1.8,0-3.5,0-5.3-2.1-.6-3.3.8-4.4,1.9-3.3,3.5-6.8,6.9-9.8,10.6-6.4,7.7-12.8,15.7-19.2,23.5a8.06,8.06,0,0,0-1.8,7c.2,1.6.5,3,.9,5.1ZM925.8,77.3c4,.3,6.3-1.5,8.9-3.1,3.7-2.2,7.6-4.1,11.4-6.1,1.3-.7,2.8-1.2,4.1-1.9,5.9-3.3,12.4-4.7,19.1-5.3a14.17,14.17,0,0,1,13.2,5.5c1.8,2.4,1.5,4.2-1,5.8a11.3,11.3,0,0,1-2.2,1.1c-9.3,3-18.5,6.7-28.1,8.7a46.53,46.53,0,0,1-14.4,1.1c-3.8-.4-6,1.3-7.8,4.1-2.3,3.7-1.5,6.7,2.6,8.5a16.34,16.34,0,0,0,5.8,1.3,116.83,116.83,0,0,0,28.3-2.3c7.3-1.5,14.8-2.5,22.2-3.5,5.6-.8,11.3-.7,16.8-2.3,1.2-.3,2.8-.7,3.5.9s-.5,2.5-1.4,3.4c-1.8,1.7-4.1,2.1-6.5,2.3-2.7.3-5.3.2-8,.5-8.2,1.1-16.5,2.3-24.7,3.5-9.2,1.2-18.4,2.5-27.8,2.1-4.7-.2-9.3-1.2-12.9-4.5a22.37,22.37,0,0,1-3.4-4.2,6.62,6.62,0,0,1,.2-8.3C925.1,82.7,926.9,80.7,925.8,77.3ZM941,77l.4,1.2c2-.1,4,.2,5.8-.4,8.7-2.7,17.4-5.5,26.1-8.3a12.81,12.81,0,0,0,2.8-2.2c-1.7-.5-2.7-1.2-3.7-1.1-3.8.4-7.7.6-11.3,1.8-5.8,1.9-11.4,4.5-17.1,6.9A27.3,27.3,0,0,0,941,77ZM131.4,40.7a10.09,10.09,0,0,0-7.8,1.1c-9.5,4.8-17.9,10.9-23.2,20.6-1.1,2-2.1,2.4-3.5,1.8-1.9-.9-2.8-2.6-2-4.4a18.56,18.56,0,0,1,2.5-4.3c6.8-8.7,15.9-14.5,25.9-18.9a16.59,16.59,0,0,1,4.9-1.1c5.1-.5,9.5,3.3,8.7,8.4a41.73,41.73,0,0,1-3.5,11.9,209,209,0,0,1-11,19.6c-5.3,8.6-11,17-16.5,25.6-.9,1.4-2.1,2.6-2,4.4,1.3,1.4,2.5.5,3.7.1,6.6-2.4,13.1-5,19.7-7.2,4.1-1.4,8.3-2.4,12.5-3.5a6,6,0,0,1,5.6,1.1c.5.4,1,1.2.9,1.6a2.83,2.83,0,0,1-1.4,1.8,7.17,7.17,0,0,1-2.9.6c-4.4-.1-8.6,1.2-12.6,2.7-7.3,2.8-14.5,5.8-21.6,9.1a65.68,65.68,0,0,0-9.7,6.1c-2.1,1.4-3.1,1.7-4.4.6s-2.7-3.6-1.6-5.3c.6-1,1.1-2,1.7-3,6.3-10,12.5-20,18.9-30,5.6-8.7,11.3-17.3,15.4-26.8a75.79,75.79,0,0,0,2.8-8A26.82,26.82,0,0,0,131.4,40.7Zm257,45.7a2.78,2.78,0,0,0,1.2,3.6,16.74,16.74,0,0,0,4.4,2.3,32.29,32.29,0,0,0,14.8,1.6c8.5-1.3,17.1-2.5,25.6-3.9a61.5,61.5,0,0,0,9.6-2.5,17.1,17.1,0,0,0,8.2-5.5c2.5-2.9,4-2.8,7.6.5-2.3,4.9-6.5,7.6-11.5,9.3-6.1,2.2-12.6,2.8-19,3.9s-12.8,2.2-19.2,2.8A41.26,41.26,0,0,1,391.4,96a16.87,16.87,0,0,1-8-6.4c-1.5-2.2-2.3-4.4-1.4-7a14.16,14.16,0,0,0,.4-2c2.8-2.4,5.3-4.5,7.7-6.8a30.15,30.15,0,0,1,9.9-6.6c5.9-2.3,11.7-4.7,17.6-7.1a16.46,16.46,0,0,1,10.7-.9,7.29,7.29,0,0,1,4.5,3,2.93,2.93,0,0,1-.6,4.2h0l-.2.2a9.5,9.5,0,0,1-1.7,1c-9.1,4.8-18.3,9.5-27.4,14.3a30.46,30.46,0,0,1-12.8,4A4.8,4.8,0,0,0,388.4,86.4Zm6.7-8.2c4.9-.3,8.6-3.2,12.7-5.2,3.7-1.7,7.5-3.4,10.7-6.5-3.7-.1-9,1.7-16.5,5.7-2.6,1.5-5.4,2.9-6.9,6Zm159.6.3c2.3-.7,3.7-2.3,5.2-4.2,2.8-3.9,6.8-6.4,11.1-8.3a120.4,120.4,0,0,1,21.7-7.3,47.77,47.77,0,0,1,8.4-.8c3.6-.1,6.3,2,8.6,4.5,1.7,1.9,1.4,3.6-.8,5a36.8,36.8,0,0,1-4.4,2.3c-8.7,3.9-17.3,7.8-26,11.5-3.2,1.3-6.7,2-10,3-1.1.3-2.2.7-3.6,1.2a9.39,9.39,0,0,0,1.4,2.6c2.6,2.4,5.9,3,9.3,3.1A64.48,64.48,0,0,0,592,89.9c7.7-1.6,15.3-3,23-4.8,3.5-.8,7-2.1,10.5-3.1a20.29,20.29,0,0,1,4.8-.9,2,2,0,0,1,1.8,2.3,1.61,1.61,0,0,1-.5,1.1,6.29,6.29,0,0,1-2.8,2q-6.3,2.25-12.9,3.9c-8.1,1.7-16.4,2.9-24.5,4.5a74.15,74.15,0,0,1-14.9.9,19.83,19.83,0,0,1-14-5.7A38.19,38.19,0,0,1,554.7,78.5ZM602,63.4a9.1,9.1,0,0,0-6.3-.1,125,125,0,0,0-23,7.9,19,19,0,0,0-6.7,5.2,5.84,5.84,0,0,0-.8,2.2c4.7.3,6.7-.3,22.4-6.7,7.1-3,11.9-5.7,14.4-8.5Zm427.4,22.9c-.6,2-1,3.2-1.3,4.4-1,4.7-2.3,9.4-1.8,14.2a6.71,6.71,0,0,1,0,2c-.1,1.2-.3,2.4-1.8,2.6a2.68,2.68,0,0,1-2.7-2.9h0v-.1a14.15,14.15,0,0,1,.4-2c2.5-11.6,3.5-23.3,4.3-35.1.4-5.3.8-10.6,1.3-15.9.2-2.3,2-3.1,3.9-1.8a4,4,0,0,1,2.1,4.2c-.1.7-.3,1.3-.4,2-1.1,6.6-2.2,13.1-3.2,19.7-.2,1.6-.8,3.2.6,5.1a12.1,12.1,0,0,0,1.9-2c3.4-7.6,8.2-14.4,12.6-21.5a65.94,65.94,0,0,1,11.8-14c5.7-5.2,13.4-3.5,16.1,3.8a22.73,22.73,0,0,1,1.2,7.8c.1,7.2-1.4,14.2-3.3,21.1-1.5,5.4-3.2,10.8-4.7,16.3-1,3.8-1.7,7.8-2.5,11.7-.2,1-.2,2.1-1.3,2.5-1.4.5-2.1-.6-2.8-1.5a5,5,0,0,1-1-4.7c1.1-4.3,2-8.8,3.3-13,2.8-8.9,5.4-17.8,6.7-27.1a56.83,56.83,0,0,0,.4-10.9c-.2-3.6-2-4.6-5.4-3.5-4,1.3-6.9,4-9.4,7.2-8,10.3-14.7,21.4-18.9,33.8a14.58,14.58,0,0,1-.7,1.9,2.24,2.24,0,0,1-2.9,1.2,2.17,2.17,0,0,1-1.1-1C1030.3,89.2,1029.8,87.8,1029.4,86.3Zm90.4,25.5c-1.2-.2-2.4,0-3-.4a4.52,4.52,0,0,1-2.2-4.2c.5-3.6.7-7.4,1.9-10.8,1.9-5.2,2.6-10.6,3.8-16,1.3-5.8,1.9-11.8,2.8-17.7a7.57,7.57,0,0,0,.1-1.5,1.58,1.58,0,0,0-1.6-1.6h-.4c-1.6.5-3.1,1.2-4.6,1.8-2.8,1.2-5.4,2.5-8.2,3.5-4.3,1.5-5.7.5-6.6-4.5,2.1-1.5,4.8-2,7.3-2.9,4.1-1.5,8.1-3,12.2-4.3,2.8-.9,3.9-2.6,4.2-5.4q1.35-11.1,3-22.2c.6-3.6,1.5-7.1,2.2-10.4a3,3,0,0,1,3.9.7,4,4,0,0,1,.9,4.2c-.9,3.5-2,7-2.7,10.6-1,5.4-1.8,10.8-2.7,16.2a4.71,4.71,0,0,0,.4,1.7c1.7.9,3.1.3,4.6-.2,6.8-2.1,13.7-4.1,20.5-6.2,2.1-.6,4.1-1.4,6.1-2.1,3.9-1.4,5.8-.6,8,3.5a4.5,4.5,0,0,1-4.7,2.8c-3.8-.3-7.3.7-10.8,1.8-7.5,2.3-14.9,4.8-22.4,7-2.5.7-3.4,2.2-3.7,4.6-.8,6.1-1.6,12.2-2.6,18.3s-2.5,12-3.7,18.1c-.6,3.4-1,6.9-1.4,10.3C1120.3,108.2,1120.1,109.8,1119.8,111.8ZM751.4,75c.2,2.5-1.7,6.1-4.3,9.1-6.6,7.8-14.5,13.7-24.3,17-3.7,1.3-7.5,2.2-11.7,1-6-1.8-11.5-9.3-9.3-16.7a61.83,61.83,0,0,1,16.6-27.5c1.3-1.2,2.9-2,4.5-1.3,2.9,1.3,5.9.7,8.9.7,3.7-.1,7.2.1,10.7,1.9C748.3,62.1,751,66.8,751.4,75ZM734.7,62.1c-6,.2-11.4.8-15.3,5.6a1.56,1.56,0,0,1-.8.6c-2.5.8-3.7,2.8-4.9,4.7a89,89,0,0,0-5.2,9.6,16.83,16.83,0,0,0-1.7,8.2c.3,4.5,2.1,6.4,6.5,6.4a22.79,22.79,0,0,0,10.6-2.3,67.84,67.84,0,0,0,15.4-10,25.74,25.74,0,0,0,6.9-9.7c2.6-6.4-.7-11.8-7.4-12.8C737.3,62.3,735.8,62.2,734.7,62.1ZM482.1,58c3.4-1.8,5.7-.7,7.2,1.5a24.29,24.29,0,0,1,3.2,6.7c1.7,5,2.9,10.2,4.7,15.3,1.3,3.7,3.2,7.3,4.8,10.9a9.5,9.5,0,0,0,1,1.7c3.2,4.6,4.7,4.6,7.9-.1a144.67,144.67,0,0,0,13.3-23.3,116.43,116.43,0,0,1,10.7-20c2.9-.7,4.7.4,6.3,2.9-.9,1.3-1.9,2.6-2.8,4-2.5,3.9-5.1,7.8-7.4,11.8-4.5,7.8-8.8,15.7-13.1,23.5-2.2,4-5.3,7.7-5.2,12.7a5.47,5.47,0,0,1-5.1-1.9c-4.5-4.9-9.5-9.3-12.1-15.7-1.9-4.8-3.7-9.6-5.5-14.4C487.9,68.2,485.8,63,482.1,58ZM666.5,22.6c1.8-.7,3.2.3,4.5,1.3s1.2,2.7,1,4.1c-.2,1.8-.6,3.6-.9,5.4a181.42,181.42,0,0,0-2.4,20.8c-.4,10.3-.9,20.6-1.6,30.9-.4,5.8-.8,11.6,0,17.4.2,1.2.1,2.4-1.3,2.9a2.65,2.65,0,0,1-3.4-1.3,10.31,10.31,0,0,1-1.3-4.2c0-2.2.1-4.3.3-6.5.7-8.8,1.4-17.5,2-26.3.4-6.8.4-13.6.8-20.4.5-7.8,1.2-15.6,1.8-23.4A6.81,6.81,0,0,0,666.5,22.6Z"/></svg>