<?xml version="1.0" encoding="utf-8"?>
<!-- Generator: Adobe Illustrator 21.1.0, SVG Export Plug-In . SVG Version: 6.00 Build 0)  -->
<svg version="1.1" id="Layer_1" xmlns="http://www.w3.org/2000/svg" xmlns:xlink="http://www.w3.org/1999/xlink" x="0px" y="0px"
	 viewBox="0 0 915 363" style="enable-background:new 0 0 915 363;" xml:space="preserve">
<style type="text/css">
	.st0{fill:#FAEDE7;}
</style>
<path class="st0" d="M613.7,192.1c0,5.4,0,10.8,0,16.2c0,3.6-0.8,7.3,2.4,10.2c0.5,0.4,0.1,1.7,0,2.5c-0.1,2.1-0.4,4.1-0.8,6.6
	c-2.1,2-4.4,1.2-6-1c-2.1-2.8-4.4-2.6-7.2-1.5c-3.6,1.3-7.1,1.9-9.8,5.2c-2,2.4-4.2-0.9-5.9-2.4c-2.1-1.8-5.9-3.9-4.1-6.8
	c2.2-3.3,0.9-6.2,0.9-9c-4,0-7.9,0.2-11.9,0c-3-0.2-4.4,0.9-4,4c1.5,11.6,2.7,23.2,4.2,34.8c0.6,4.9,1.5,9.8,2.1,14.7
	c0.1,1-0.3,2.9-1,3.2c-1.2,0.4-2.6,0.4-3.6-0.3c-1.6-2.1-3.6-4.3-3.9-6.9c-1.6-12-2.9-24-4.2-36c-0.4-3.8-0.8-7.5-1-11.1
	c-0.1-1.2-0.5-2.4-0.8-3.5c-6.8-0.4-13.2-0.9-19.6-1.2c-1.2,0.2-2.2,0.6-3.2,1.5c-3.2,3.4-6.9,3.9-9.2-0.2
	c-4.5-7.5-12.3-11-18.9-15.8c-0.6-0.3-1.2-0.5-1.8-0.5c-1.9,3.9,1.3,9.5-4.1,11.7c-1.8,0.8-3.9,0.6-6.6,0.8l0.6-4.8
	c0.4-4.2,1.1-8.4,1.3-12.6c-0.1-1.3-1.1-2.7-2.1-3.4c-7.2-5.6-14.6-11.1-21.9-16.6c-1.9-1.2-3.8-2.6-5.2-4.2
	c-5.4,0.1-11.7-0.9-17.4,2.6c-2.7,1.6-5.4,0.9-8.4-0.6c-2.8-1.2-6-1.6-9.1-1.4c-9.9,0.5-19.8,1.5-29.9,2.2
	c-4.2,0.3-8.4,0.5-13.3,0.8l2.7,20.9c-4.1,1.6-5.7,1-9.2-3.5l-13.6,5l-0.6,4.2c-5.4,2.4-8.1-2.7-12.4-4.3c4.4-7.4,0.2-14.4-0.6-21.6
	c-0.3-1.5-0.9-3-1.7-4.4c-1.2-2.2-0.4-3.3,1.8-3.6c2.1-0.1,4.2-0.3,6.3-0.6c4.8-1.2,9.4-2.7,14.1-4.5c1.6-0.8,2.7-3.3,4.3-5.6
	c4.7-1.2,6.8,1.2,8.2,9.1l51.6-1.6l-1.5-20.4l1.5-2.4l-35.9-32.1c0.6-1.2,1.1-3.4,1.8-3.6c2.2-0.4,5.2-0.8,6.9,0.5
	c3.3,2.2,6,5.7,9,8.4c8.1,7.3,16.2,14.7,24.4,21.9c4.1,3.5,6,3.3,12-0.1L452,57.1c-6.8,0.8-10.8-3.9-10.5-10.5
	c0.2-3.3-0.9-6.6-1.5-9.9c-0.4-2.6-0.9-5.2-1.3-7.8s-1.1-5.1-1.8-8.9c1.8-0.8,3.8-1.8,5.8-2.7c3.6-1.4,7.4-2.3,10.9-3.6
	c5.4-1.9,10.7-4.2,15.9-6.2c2.8-1,7.3,0.8,7.8,3.7c0.1,1.2-1.5,2.9-2.4,4.3l-0.9-0.1l2.8,17.4c1.7,0.8,3.3,1.8,4.9,2.9
	c1.9,1.5,1.5,4.8-0.8,5.1c-3.1,0.3-3,2.2-2.8,4.5c0.1,1.5,0,3,0,4.3c-3,0.5-3,0.5-9-4c-5.4,3.3-12.3,4-17.9,7.3l0.4,1.3
	c1.4,0,2.6,0,3.9,0.3c2.7,0.6,5.4,1.8,4.9,5c-1.4,8.7,1.1,17.1,1.8,25.7c0.8,8.9,1.3,17.7,1.9,26.4c0.1,1.2,0.3,2.4,0.6,4.6
	c1.2-1.2,2.2-2.4,3.2-3.6c6.6-9.6,13.2-19.4,20.1-28.9c3.8-5.1,8.2-9.6,12.2-14.6c3-3.9,5.6-8,8.2-12c3-4.5,5.7-9.3,8.9-13.7
	c1.2-1.5,3.3-2.2,5.4-3.2c1.5-4.1-0.3-7.5-3-11l2.9-5.7c4.3,1.4,8.8,3.3,13.3,0.8c3.9-2.2,9.6-1.3,12.2-7.4c2.9,1.2,5.4,2.7,8.1,4.4
	c1.1,1.1,1.4,2.5,1.2,3.9c-2,6.6,1.2,12.5,2.2,18.6c0.1,1,2.2,1.6,3.3,2.7c1.1,1,2.7,2.4,2.9,3.8c0.1,0.9-1.9,2-3.6,3.5v4.8
	l-7.2-1.2l0.1-0.6c-7.2,1.9-14.4,3.8-21.6,5.9c-3.3,0.9-6.6-1.4-7.3-5.4c-0.4-2.4-0.9-4.8-1.3-7.2l-1.2-0.3
	c-3.3,4.8-6.6,9.8-10,14.5c-4.5,6.1-9.3,12-13.8,18c-5.9,7.8-11.6,15.4-16.8,23.2c-4.2,6.2-7.8,12.6-11.7,18.9
	c-0.4,1-0.8,2.1-1.1,3.1c4.9,0.2,10.6-2.1,12.4,5.7l-7.5,1.7l1.5,11.2c4.8-0.9,9.8-1.5,14.6-2.8c10.1-2.9,19.9-6,30-9.2
	c3.6-1,9.3-6,12.6-10.7c4.1-0.3,6.3,2.7,6.5,8.4c-2.1,2.1-4.5,4-6.9,5.8s-5,3.3-7.8,4.4c-12.9,4.2-25.8,8.4-38.8,12.3
	c-3.8,0.9-7.5,1.5-11.2,2c4.8,9.9,12.6,16,20.9,21.9c1.2-0.3,2.4-0.6,3.6-1c3.4-1.2,5.7,0.1,5.9,3.6c0.3,6.3,5.4,8.6,9.4,11.6
	c1.5,1.2,3.5,1.9,5.1,3c9.8,6.6,21.1,6.4,32.2,7.5c6.8,0.6,13.4,0.9,20.1,1.1c3-0.2,6.1-0.3,9.1-0.8l-1.8-6
	c4.4-1.8,8.6-3.8,12.9-5.6c3-1.2,6.1-2.1,9.1-3c0.3-0.1,0.5,0,0.8-0.1c1.6-0.9,3.9-3,5-2.6c2.5,1.2,4.5,3.6,6.8,5.6L613.7,192.1z
	 M467.6,17.1l-21.2,8.2l3,20.1l21.4-8.7L467.6,17.1z M553.1,49l-4.4-20.4L530,33.9l3.1,21.3L553.1,49z M468,137.4
	c-6.4,2.2-12.1,4-17.7,6c-0.8,0.6-1.3,1.5-1.3,2.4c-0.2,4,0,8.1,0,12.6c1.9,0.4,3.9,0.6,5.8,0.8c3.2-0.2,6.3-0.8,9.4-1.1
	c1.5-0.1,2.9,0,5.1,0L468,137.4z M382.5,164.5c-5.4,1-9.9,1.8-14.2,2.9c-1.2,0.4-1.9,1.5-2.2,2.8c0.4,4.8,1.4,9.8,2.2,15.5
	c5.2-2.1,9.9-3.9,14.4-5.7c0.6-0.3,1.1-1,1.2-1.6C383.4,173.7,383,169,382.5,164.5z M605.4,215.7v-20.1l-13.5,6.2V219L605.4,215.7z
	 M422.9,286c-4.4,1.4-4.4,1.4-9.3-3.6l-12.3,4.5l0.6,4.9c-3.8,1.5-6.6,0.5-9-2.7c-6.3,3-10.2,8.4-14.6,13.3
	c-4.2,4.7-7.8,9.8-12.1,14.1c-1.4,1.2-4.4,0.6-7.4,1c0.2,1.3,0.4,3.5,0.8,5.5c0.8,5.1,1.2,10.2,4.8,14.4c0.9,1.5,1.4,3.3,1.1,5.1
	c0.2,2-1.2,3.6-3.1,3.8c-0.8,0-1.5-0.1-2.2-0.6c-2.6-1.4-4.9-3.2-7.8-5.1l-15.6,7.4l0.8,6.9c-4.1,1.5-7.1,0.8-8.1-2.8
	c-1.7-5.2-2.4-10.7-3.8-15.9c-1.4-4.6-2.9-9.1-4.5-13.6c-1.1-2.6,0-3.9,2.1-4.8c7.9-3.6,16.1-6.6,23.7-10.8c5.2-2.8,9.8-3,14.6,1
	c5.1-5.5,9.9-10.9,14.9-16.3c2.4-2.5,4.9-4.8,7.6-7c0.9-0.5,1.8-0.8,2.7-0.9c1.8-0.5,3.6-0.9,5.9-1.6l-4.2-29
	c9.1,0.8,16.8-2.1,24-8.2c5.1-0.5,7.3,1.8,6.8,7.3c-0.2,2.5-0.2,4.9,0.1,7.5c0.3,4.1,0.4,8.2,1.1,12.3c0.3,1.9,1.5,3.9,1.9,5.8
	C422.4,280.6,422.6,283.2,422.9,286z M352.8,332.4l-3.1-17.5l-18.4,8.7l3.6,16.3L352.8,332.4z M397.7,259.8l1.2,20l14.2-4.7
	l-2.2-19.6L397.7,259.8z M350.9,143.8c-0.4,3.9-4.1,6.6-7.9,6.2c-0.9-0.2-1.8-0.5-2.6-0.9c-11.4-5.7-22.8-11.5-34.1-17.5
	c-2.2-1.2-4.2-3-6.4-4.4c-1.7-1.2-3.3-2.1-5.2-2.8c-6.4-2.2-6.4-2.2-9.9-7.2c-2.8,1-5.8,2-8.7,3.1c-2.7,1-5.1,2.5-7.5,4.2
	c-5.1,1-10.5-1-11.4-4.2l2.7-2.1c-0.3-3-0.6-6.2-1.1-9.2c-0.8-5-1.9-9.8-2.4-14.7c-0.1-1.1,1.9-3,3.3-3.4c6.8-2.2,13.5-4.1,20.2-6
	l0.6-8.1c4.3-0.1,7.5,0.3,8.2,5c0.3,1.5,1.6,3,2.8,4.9c-4.2,2.1-2.6,5.7-1.9,9.1c0.6,4.1,1.2,8.1,1.7,12.2l6.4,2.5l-4.5,5.1l0.4,5.4
	l6.1-4C316.5,127.2,331.2,140.2,350.9,143.8z M266.3,96.4c0.4,5.9,0.6,11.5,1.2,17.2c0.3,2.2,1.9,2.5,3.9,1.8
	c4.1-1.6,8.1-3.1,12.8-5.1l-2.4-18.8L266.3,96.4z M487.7,264.3l-1.7,4c-4.5,1.2-7.2-1.3-9.6-4.3c-6.2-7.8-12.2-15.8-18.2-23.7
	c-0.3-0.4-0.6-1-1.2-1.9c-4.5,2.7-8.7,4.9-12.6,7.3c-2.9,1.8-5.6,4.2-8.4,6c-1.3,0.8-3.9,1.5-4.9,0.8c-1.8-1.5-3.3-3.5-4.1-5.8
	c-0.3-0.8,1.8-2.7,3.2-3.5c6.1-3.4,12.8-6.3,18.4-10.2c4.6-3,7.5-8.2,7.5-14c-0.2-10.8-0.8-21.6-1.2-32.5c-0.2-5,0-9.9,0-15.2
	c3.1-1.9,4.2-1.8,8.8,3.2c0,13.3,0,27.4,0,41.7c0,5.4-0.1,10.8,0.3,16.1c0.2,2.4,1.1,4.8,2.4,6.9c5.1,7.2,10.5,14.2,16.1,21.2
	C484.2,261.7,485.9,263.2,487.7,264.3z M620.1,86.2l-4-6.6c5.1-1.8,9.1-3.2,13.2-4.8c5.9-2.4,11.7-4.8,17.6-7.4
	c4.8-2.2,8.1-2,10.5,1.2c1.8,2.2,1.5,4.2-1.4,4.6c-3.9,0.9-5,3.2-4.6,6.8c0.3,4.1,0.4,8.2,0.8,12.3c0.1,3,0.6,5.8,3.4,7.8
	c0.8,0.4,0.9,2.5,0.8,3.8c-0.4,1.8-1.2,3.6-1.9,5.2c-3.6,1.5-5-2-7.6-3.6c-4.4,1.2-9,2.5-13.6,4c-0.8,0.1-1.2,1-1.8,1.6
	c-2.5,3.5-3.6,3.6-6.6,0.3c-1.8-2.1-3.6-4.3-5.1-6.3c4.1-6.9,0.6-13.2,1.5-19.5L620.1,86.2z M643.4,78.1c-5.2,2.2-9.4,3.9-13.8,6
	c-0.8,0.3-1.1,2.1-1.1,3.1c-0.1,3.2,0,6.2,0.1,9.3c0,1.5,0.3,3,0.6,4.8l15.9-4.1L643.4,78.1z M291.3,245.8
	c-1.5-7.8-2.8-15.6-4.3-23.2c-0.4-2.7,0.3-4.2,3-4.9c6.6-2,13.2-4.2,19.8-6.5V207c1.3-0.3,2.8-0.5,4.3-0.3
	c7.7,1.8,10.8,3.8,10.9,6.8l-5.2,1.8c0.9,5.5,1.5,11.1,2.6,16.5s2.4,10.5,3.8,15.8c-4.1,1.9-6.6,0.3-8.7-2.7l-15.4,5.8l-0.3,5
	c-3,0.4-5.8,0.4-7.9-2c-0.4-0.4-0.9-0.9-1.5-1C287.6,249.9,287.6,249.7,291.3,245.8z M315.6,237.4l-3.6-19.5l-16.5,5.7l3.2,21
	L315.6,237.4z M598.4,305.8c-0.8,1.4-1.4,2.2-1.8,3.3c-1.8,3.6-3.6,4.4-6.8,2.1c-2-1.5-4.6-2-6.9-1c-4.4,1.3-8.7,2.4-13.1,3.9
	c-3.3,1.5-7.4,0.3-9.3-2.7c0-7.8,0.1-14.7-0.1-21.4c0-1.5-1.5-3-2.2-4.5c-0.8-1.2-1.5-2.4-2.6-3.8c5-3.2,10.2-2.7,15.1-3.6
	c5.6-0.9,11-2.1,16.5-2.5c2.2,0,4.5,0.8,6.3,2c1.9,1,1.5,3,1.2,5.2c-0.8,5.7-0.9,11.4-0.4,16.9C594.5,301.8,596.9,303.6,598.4,305.8
	z M568.5,304.8l17.9-3.3l-0.9-17.5c-5.1,0.4-9.3,0.8-13.5,1.3c-0.9,0.2-2.2,1.2-2.4,2C569.1,292.9,568.8,298.6,568.5,304.8
	L568.5,304.8z M582,141.3L550.5,153v1.4l-6.6-3.3l1.2-0.6c-1.4-10.4-2.4-20.7-3.9-30.9c-0.5-2.7,0.8-3.8,2.7-4.5
	c7.8-3.1,15.8-6.1,23.6-9.3c4-1.5,7.8,1.5,8.1,6c0.4,4.7,1.4,9.3,2.5,13.8c1.1,4.4,2.6,8.5,3.8,12.9C582,139.3,582,140.4,582,141.3z
	 M567.8,115c-5.7,2-10.8,3.5-15.9,5.4c-1.2,0.6-1.9,1.7-2.1,3c0.5,6.8,1.1,13.4,1.8,21.1l21.8-8.2L567.8,115z M473.9,280.8
	c0.1-2.4,1.3-3.8,4.5-4.5c6.9-2,14.4-2.7,19.8-8.5c2.2-2.4,9.3-1.7,11.1,1.2c0.4,1,0.4,2.2,0,3.3c-3.6,6.8-3.8,14.8-0.1,21.6
	c0.9,1.7,0.9,3.8,0.3,5.4c-0.6,1-3,1.2-4.8,1.5c-1.4,0.1-2.6,0.3-3.8,0.8c-6.6,3.6-13.4,6.8-19.8,6.6c-4.8-4.2-4.2-10-4.8-15.4
	C475.5,288.6,474.5,284.8,473.9,280.8z M484.1,299.1l1.7,1c3.9-2.1,7.9-4,11.8-6.3c0.8-0.6,1.2-1.5,1.1-2.5
	c-0.3-4.2-0.8-8.4-1.2-12.9c-4.1,1.5-7.9,2.7-11.7,4.2c-0.9,0.5-1.5,1.2-1.6,2.2C484.1,289.6,484.1,294.4,484.1,299.1L484.1,299.1z
	 M525,246.4c-1.2,0.2-1.9,0.5-2.4,0.2c-4.8-3.3-9.3-0.2-13.8,0.6c-2.2,0.3-4.4,0.9-6.6,1.2c-6.9,0.8-9.9-2.1-11.4-8.4
	c-0.8-3-0.9-6.2-1.4-9.3c-0.8-4.3-1.5-8.5-2.4-12.9l-1.2-0.3c0.9-0.8,1.9-1.2,3-1.7c6.8-1.1,13.5-2.1,20.2-3
	c3.6-0.6,7.4-1.2,11.1-1.3c3.8-0.3,6.3,3,6,6.8l-3.9,1.3c0.9,6.6-1.7,13.5,2.4,19.8C525.9,241.2,525,243.9,525,246.4z M497.3,222.7
	l1.7,18.4l15.6-3.4v-17.8L497.3,222.7z M404.1,96c-1.8,3.2,1.6,7.2-2.7,10.1l-6.2-6.2l-13.3,5.9c-2.4,5.4-4.7,5.4-11.2-3.6
	c4.9-6.4,1.6-13.3,0.4-19.9c-1.1-5.8-0.6-6.6,5.1-7.6c4.9-1.1,9.9-2.2,14.9-3.9c3.9-1.2,7.3-0.6,10.1,1.9c0.3,4.5,0.8,8.6,0.9,12.6
	c-0.1,2.1,1.2,3.9,3.2,4.5c2.6,0.9,5.1,2.2,3.8,6.3C408.9,96,404.1,96,404.1,96z M378.6,81.9l1.3,16.3l15.6-7.5l-1.8-12.6
	L378.6,81.9z M384.8,259c-2.1,1.8-3.8,4.2-5.7,4.5c-1.9,0.3-4.6-0.9-6.6-1.9c-4.1-2.2-7.7-5.2-11.7-7.5c-10.1-5.7-20.1-11-30.2-16.5
	c-1.8-1.1-1.9-2.4-0.4-3.9c3-3.2,6-3.6,9.6-1.2c3.6,2.4,7.3,4.7,10.9,6.8C361.8,245.5,372.8,252,384.8,259z M618.2,103.2
	c-6.9,3.8-13.4,7.2-19.6,10.8c-2.2,1.4-4.4,3-6.1,4.8c-1.6,1.5-3.3,3.9-5.5,2.2c-1.8-1.3-2.9-3.9-4.2-5.8c7.8-7,16.8-12.8,26.4-16.9
	C615.3,95.5,617.6,96.7,618.2,103.2z M397.2,236.1c-3.1,2.7-6,2.1-7.8-0.6c-2.7-3.8-4.9-7.7-6.8-11.8c-3.1-7.2-5.8-14.7-8.6-22.2
	c-0.3-1.2-0.6-2.6-0.6-3.8c5.6-2.1,7.3-1.1,8.8,3.9c3.3,11.1,7.2,21.9,13.8,31.7C396.5,234.1,396.9,235,397.2,236.1z"/>
</svg>
