<?xml version="1.0" encoding="utf-8"?>
<!-- Generator: Adobe Illustrator 21.1.0, SVG Export Plug-In . SVG Version: 6.00 Build 0)  -->
<svg version="1.1" id="Layer_1" xmlns="http://www.w3.org/2000/svg" xmlns:xlink="http://www.w3.org/1999/xlink" x="0px" y="0px"
	 viewBox="0 0 1170 167" style="enable-background:new 0 0 1170 167;" xml:space="preserve">
<style type="text/css">
	.st0{stroke:#000000;stroke-miterlimit:10;}
</style>
<title>2-development-large2</title>
<path class="st0" d="M892.7,51.6c-0.6,0.8-1.1,1.6-1.7,2.4c-3,5.5-6.3,11-8.5,16.9c-0.5,1.2-1.1,2.4-1.6,3.6c-1,2.4-2.5,4.3-5.3,4.4
	c-1.3,2-2.1,4.3-2.4,6.7c-0.5,3.1-1,6.2-1.7,9.3c-0.5,2.1-1.6,2.9-3,2.6c-1.7-0.3-2.8-2-2.5-3.7c0-0.2,0.1-0.3,0.1-0.5
	c0.8-3.2,1.6-6.4,2.5-9.6c1.8-6,1.7-12.2,2.5-18.3c0.4-3.3,0.7-6.6,1-9.9c0-1-0.1-2.1-0.3-3.1c-1.3,1.3-2.2,1.9-2.7,2.8
	c-4,7.1-8,14.2-11.9,21.4c-0.3,0.6-0.4,1.3-0.7,1.8c-0.4,1-1.6,1.5-2.6,1.1c-0.1-0.1-0.3-0.1-0.4-0.2c-0.9-0.5-1.8-1.1-2.6-1.8
	c-1.5,2.3-1.3,4.7-1.7,6.9c-0.7,4.6-1.2,9.2-1.7,13.9c-0.1,2-0.1,4,0.1,6c0,1.1-0.4,2.1-1.6,2.2c-0.8,0-1.6-0.4-2.1-1
	c-1.2-1.2-1.6-3-1.2-4.6c0.7-3.2,1.5-6.5,2-9.8c0.5-2.9,0.9-5.9,1.2-8.9c0.8-7.6,1.5-15.2,2.4-22.8c0.4-3.1,1-6.2,1.7-9.3
	c0.5-1.9,1.7-2.6,3.2-2.3c1.3,0.3,2.2,1.6,2,3c-0.2,1.5-0.5,3-0.8,4.4c-1.1,5.4-2.2,10.7-3.3,16.1c0,0.6,0.1,1.3,0.2,1.9
	c0.7-0.5,1.3-1.1,1.9-1.7c4.6-7.7,9.1-15.5,13.7-23.2c1.5-2.6,3.3-5,5-7.5c0.8-1.2,1.7-2.1,3.2-1.8c1.9,0.3,3.3,1.8,3.5,3.7
	c0.1,2.3,0,4.7-0.2,7c-0.3,3.3-1,6.6-1.4,9.9c-0.3,1.9-0.4,3.9-0.7,6.7c1.2-0.9,2-1.2,2.3-1.8c2.5-4.7,5.4-9.2,8.7-13.4
	c0.5-0.8,0.9-1.8,1.1-2.7c1-3,2.7-5.8,4.8-8.1c2.2-2.3,5.1-1.8,6.5,1c0.6,1.4,0.8,2.8,0.7,4.3c-0.8,12.8-3.3,25.4-6,37.9
	c-1.5,7-2.8,14-4.2,21c-0.1,0.7-0.2,1.3-0.3,2c-0.5,1.9-1.3,2.7-2.5,2.6c-1.8-0.3-3.5-2.2-3.1-3.9c0.4-2.3,1.2-4.5,1.6-6.8
	c2.9-14.5,6.2-29,8-43.7c0-1.1-0.1-2.1-0.3-3.2L892.7,51.6z M43.2,34.6c3.6-0.2,6.7-0.4,9.9-0.4c1.8,0.1,3.6,0.3,5.4,0.8
	c10.9,2.7,15.3,13.2,15.2,21.5c-0.1,6.2-2.7,11.6-5.4,17c-7.3,14.3-17.8,26-29.9,36.3c-4.1,3.4-8.6,6.2-13.5,8.4
	c-8.4,3.8-18.5,0.9-22.9-6.4c-1.7-3.1-2.6-6.5-2.7-10c-0.4-6.1,1.1-11.9,3-17.6c3-9.5,7.1-18.7,12.1-27.3c1-1.3,1.4-3.1,1-4.7
	c-0.4-1.7,0.2-3.4,1.5-4.5c0.9-1,1.9-1.9,3-2.6c4.2-2.5,7.4-6.1,10.8-9.5l1.4-1.4c3.4-3.3,7.1-4.1,10.2-0.1
	C42.6,34.2,42.9,34.4,43.2,34.6z M4.5,100.1c0.1,3.4,0.9,6.7,2.2,9.8c1.9,4.3,4.9,5.9,9.6,5.4c5.2-0.6,10.1-2.7,14.2-5.9
	c7.3-5.3,13.9-11.3,19.8-18.1c4.7-5.6,8.6-11.8,12.8-17.8c1.2-1.7,1.8-3.9,2.7-5.9c0.4-1.3,1-2.5,1.6-3.7c1.6-2.8,2.4-5.9,2.3-9.1
	C69.9,45.7,65.2,37,52.9,38c-0.5,0-1,0.1-1.5,0.2c-7,0.4-13.2,3.2-19.5,6c-1.5,0.7-2.8,1.8-3.7,3.2c-4.7,5.8-8.9,12.1-12.4,18.8
	C12.2,73.1,9.2,80.4,7,87.9C5.8,91.9,5.3,96.1,4.5,100.1z M774.1,91.3c0.8-1,1.7-1.9,2.6-2.8c0.9-0.6,1.8-1.2,2.7-1.7l3.4-30.2
	c1.9-2,3.9,0.5,5.5,0.3c4.6-3.3,8.8-6.7,13.3-9.4c4.3-2.5,8.8-4.7,13.4-6.7c3.1-1.4,6.6-1.4,9.7,0c2.3,0.8,3.8,3.1,3.6,5.5
	c-0.2,3.5-1,6.9-2.5,10.1c-2.5,5.2-5.9,10-10.1,14.1c-5.5,5.8-11.4,11.2-17.3,16.5c-4,3.5-8.5,6.3-13.4,8.4c-1.6,0.6-2.7,2-2.8,3.7
	c-1,8.7-2.1,17.5-3.2,26.2c-0.7,5.3-1.3,10.6-1.9,15.8c-0.3,3-0.4,5.9-0.6,8.9c-3.2,1.2-5.1,0.4-5.3-2.6c-0.1-2.5,0-5,0.4-7.4
	c1.5-9.2,3.1-18.3,4.6-27.5c0.6-3.8,0.7-7.6,1.4-11.4c0.6-2.8-0.2-5.7-2.2-7.8C774.9,92.7,774.4,92,774.1,91.3z M822,46.4
	c-0.5-0.3-1-0.6-1.6-0.7c-0.7-0.1-1.4,0-2,0.2c-7.2,2.6-14.3,5.7-20,10.9c-3.6,3.5-7,7.1-10.2,10.9c-0.9,1-1.5,2.1-1.8,3.4
	c-1.1,5.5-2,11.1-3,16.7c-0.1,0.4,0.3,0.8,0.5,1.2c1.8,0.4,2.9-0.8,4.1-1.6c10.5-7.1,19.7-16,27.2-26.2
	C818.5,56.8,820.8,51.8,822,46.4z M345.6,67.7c-0.1,0.6-0.3,1.2-0.6,1.7c-3.1,4.2-3.2,9-3,13.8c0.1,2.5,0.3,5,0.4,7.5
	c0,1.1-0.9,1.9-1.9,1.9c0,0,0,0-0.1,0c-0.3,0-0.6-0.1-0.9-0.3c-1.8-0.9-3-2.8-3.1-4.8c-0.1-1.3-0.3-2.5-0.5-4.5
	c-1.5,1.3-2.5,1.9-3.4,2.8c-4.6,4.8-9.6,9.2-14.9,13.2c-2.3,1.6-4.8,3-7.3,4.3c-2.2,1.2-4.9,1.4-7.3,0.5c-2.5-0.7-4.3-2.7-4.9-5.2
	c-0.4-1.9-0.8-3.9-1-5.9c-0.5-2.6,0.4-5.3,2.3-7.2c4.9-5.4,9.3-11.3,13.9-17c5.4-6.5,10.8-13.1,16.2-19.6c2.2-2.6,4.5-5,8.2-5.2
	c1.4-0.1,2.5-1.3,2.4-2.7c0.1-2.8,0.2-5.7,0.4-8.5c0.3-4.8,0.5-9.6,1-14.4c0.5-5.1,1.2-10.2,1.9-15.3c0.2-0.9,0.7-1.8,1.5-2.3
	c1.1-0.5,2.4-0.1,3.1,0.9c0.6,0.8,1,1.7,1.2,2.6c0.1,1.2,0,2.4-0.3,3.5c-2.8,10.9-3.3,22-3.9,33.2c-0.3,6.3-0.8,12.6-1.2,18.9
	C343.3,63.9,343.2,63.9,345.6,67.7z M304.6,99c1.1,0,2.2-0.2,3.3-0.5c4.2-2.6,8.5-5.2,12.5-8.2c5.4-4.2,10.1-9.1,14.2-14.6
	c1.8-2,2.9-4.5,3.2-7.1c0.4-4.1,0.8-8.3,1.1-12.4c0.1-1.8,0-3.5,0-5.3c-2.1-0.6-3.3,0.8-4.4,1.9c-3.3,3.5-6.8,6.9-9.8,10.6
	c-6.4,7.7-12.8,15.7-19.2,23.5c-1.7,1.9-2.3,4.5-1.8,7C303.9,95.5,304.2,96.9,304.6,99L304.6,99z M924.8,74.2c4,0.3,6.3-1.5,8.9-3.1
	c3.7-2.2,7.6-4.1,11.4-6.1c1.3-0.7,2.8-1.2,4.1-1.9c5.9-3.3,12.4-4.7,19.1-5.3c5.1-0.7,10.1,1.4,13.2,5.5c1.8,2.4,1.5,4.2-1,5.8
	c-0.7,0.4-1.4,0.8-2.2,1.1c-9.3,3-18.5,6.7-28.1,8.7c-4.7,1.1-9.6,1.5-14.4,1.1c-3.8-0.4-6,1.3-7.8,4.1c-2.3,3.7-1.5,6.7,2.6,8.5
	c1.8,0.8,3.8,1.2,5.8,1.3c9.5,0.4,19-0.4,28.3-2.3c7.3-1.5,14.8-2.5,22.2-3.5c5.6-0.8,11.3-0.7,16.8-2.3c1.2-0.3,2.8-0.7,3.5,0.9
	c0.7,1.6-0.5,2.5-1.4,3.4c-1.8,1.7-4.1,2.1-6.5,2.3c-2.7,0.3-5.3,0.2-8,0.5c-8.2,1.1-16.5,2.3-24.7,3.5c-9.2,1.2-18.4,2.5-27.8,2.1
	c-4.7-0.2-9.3-1.2-12.9-4.5c-1.3-1.3-2.4-2.7-3.4-4.2c-1.9-2.5-1.8-5.9,0.2-8.3C924.1,79.6,925.9,77.6,924.8,74.2z M940,73.9
	l0.4,1.2c2-0.1,4,0.2,5.8-0.4c8.7-2.7,17.4-5.5,26.1-8.3c1-0.6,2-1.3,2.8-2.2c-1.7-0.5-2.7-1.2-3.7-1.1c-3.8,0.4-7.7,0.6-11.3,1.8
	c-5.8,1.9-11.4,4.5-17.1,6.9C942,72.4,941,73.1,940,73.9z M130.4,37.6c-2.6-0.7-5.5-0.3-7.8,1.1c-9.5,4.8-17.9,10.9-23.2,20.6
	c-1.1,2-2.1,2.4-3.5,1.8c-1.9-0.9-2.8-2.6-2-4.4c0.6-1.5,1.5-3,2.5-4.3c6.8-8.7,15.9-14.5,25.9-18.9c1.6-0.6,3.2-1,4.9-1.1
	c5.1-0.5,9.5,3.3,8.7,8.4c-0.6,4.1-1.7,8.1-3.5,11.9c-3.3,6.7-7,13.3-11,19.6c-5.3,8.6-11,17-16.5,25.6c-0.9,1.4-2.1,2.6-2,4.4
	c1.3,1.4,2.5,0.5,3.7,0.1c6.6-2.4,13.1-5,19.7-7.2c4.1-1.4,8.3-2.4,12.5-3.5c1.9-0.6,4-0.2,5.6,1.1c0.5,0.4,1,1.2,0.9,1.6
	c-0.2,0.8-0.7,1.4-1.4,1.8c-0.9,0.4-1.9,0.6-2.9,0.6c-4.4-0.1-8.6,1.2-12.6,2.7c-7.3,2.8-14.5,5.8-21.6,9.1
	c-3.4,1.7-6.7,3.8-9.7,6.1c-2.1,1.4-3.1,1.7-4.4,0.6c-1.3-1.1-2.7-3.6-1.6-5.3c0.6-1,1.1-2,1.7-3c6.3-10,12.5-20,18.9-30
	c5.6-8.7,11.3-17.3,15.4-26.8c1.1-2.6,2-5.3,2.8-8C130.2,40.7,130.4,39.1,130.4,37.6z M387.4,83.3c-0.6,1.3-0.1,2.9,1.2,3.6
	c1.3,1,2.8,1.8,4.4,2.3c4.7,1.7,9.8,2.2,14.8,1.6c8.5-1.3,17.1-2.5,25.6-3.9c3.3-0.6,6.5-1.4,9.6-2.5c3.2-1,6.1-2.9,8.2-5.5
	c2.5-2.9,4-2.8,7.6,0.5c-2.3,4.9-6.5,7.6-11.5,9.3c-6.1,2.2-12.6,2.8-19,3.9c-6.4,1.1-12.8,2.2-19.2,2.8c-6.3,0.6-12.7-0.2-18.7-2.5
	c-3.3-1.3-6.1-3.5-8-6.4c-1.5-2.2-2.3-4.4-1.4-7c0.2-0.7,0.3-1.3,0.4-2c2.8-2.4,5.3-4.5,7.7-6.8c2.8-2.8,6.2-5.1,9.9-6.6
	c5.9-2.3,11.7-4.7,17.6-7.1c3.4-1.5,7.1-1.8,10.7-0.9c1.8,0.4,3.4,1.5,4.5,3c1,1.3,0.8,3.1-0.5,4.1c0,0-0.1,0.1-0.1,0.1l0,0
	l-0.2,0.2c-0.5,0.4-1.1,0.7-1.7,1c-9.1,4.8-18.3,9.5-27.4,14.3c-3.9,2.3-8.3,3.6-12.8,4C388.5,82.9,387.9,83,387.4,83.3z
	 M394.1,75.1c4.9-0.3,8.6-3.2,12.7-5.2c3.7-1.7,7.5-3.4,10.7-6.5c-3.7-0.1-9,1.7-16.5,5.7C398.4,70.6,395.6,72,394.1,75.1
	L394.1,75.1z M553.7,75.4c2.3-0.7,3.7-2.3,5.2-4.2c2.8-3.9,6.8-6.4,11.1-8.3c7-3.1,14.3-5.6,21.7-7.3c2.8-0.5,5.6-0.8,8.4-0.8
	c3.6-0.1,6.3,2,8.6,4.5c1.7,1.9,1.4,3.6-0.8,5c-1.4,0.9-2.9,1.6-4.4,2.3c-8.7,3.9-17.3,7.8-26,11.5c-3.2,1.3-6.7,2-10,3
	c-1.1,0.3-2.2,0.7-3.6,1.2c0.3,0.9,0.8,1.8,1.4,2.6c2.6,2.4,5.9,3,9.3,3.1c5.5,0.3,11-0.1,16.4-1.2c7.7-1.6,15.3-3,23-4.8
	c3.5-0.8,7-2.1,10.5-3.1c1.6-0.5,3.2-0.8,4.8-0.9c1.1,0.1,1.9,1.1,1.8,2.2c0,0,0,0.1,0,0.1c0,0.4-0.2,0.8-0.5,1.1
	c-0.7,0.9-1.7,1.6-2.8,2c-4.2,1.5-8.5,2.8-12.9,3.9c-8.1,1.7-16.4,2.9-24.5,4.5c-4.9,0.8-9.9,1.1-14.9,0.9c-5.2,0-10.3-2-14-5.7
	C558.2,83.6,555.6,79.7,553.7,75.4z M601,60.3c-2-0.8-4.3-0.8-6.3-0.1c-7.9,1.9-15.6,4.5-23,7.9c-2.6,1.2-4.9,3-6.7,5.2
	c-0.4,0.7-0.7,1.4-0.8,2.2c4.7,0.3,6.7-0.3,22.4-6.7C593.7,65.8,598.5,63.1,601,60.3L601,60.3z M1028.4,83.2c-0.6,2-1,3.2-1.3,4.4
	c-1,4.7-2.3,9.4-1.8,14.2c0.1,0.7,0.1,1.3,0,2c-0.1,1.2-0.3,2.4-1.8,2.6c-1.5,0-2.7-1.2-2.7-2.7c0-0.1,0-0.2,0-0.2l0,0v-0.1
	c0.1-0.7,0.2-1.3,0.4-2c2.5-11.6,3.5-23.3,4.3-35.1c0.4-5.3,0.8-10.6,1.3-15.9c0.2-2.3,2-3.1,3.9-1.8c1.5,0.8,2.4,2.5,2.1,4.2
	c-0.1,0.7-0.3,1.3-0.4,2c-1.1,6.6-2.2,13.1-3.2,19.7c-0.2,1.6-0.8,3.2,0.6,5.1c0.7-0.6,1.3-1.3,1.9-2c3.4-7.6,8.2-14.4,12.6-21.5
	c3.3-5.2,7.2-9.9,11.8-14c5.7-5.2,13.4-3.5,16.1,3.8c0.9,2.5,1.3,5.1,1.2,7.8c0.1,7.2-1.4,14.2-3.3,21.1c-1.5,5.4-3.2,10.8-4.7,16.3
	c-1,3.8-1.7,7.8-2.5,11.7c-0.2,1-0.2,2.1-1.3,2.5c-1.4,0.5-2.1-0.6-2.8-1.5c-1.1-1.3-1.5-3.1-1-4.7c1.1-4.3,2-8.8,3.3-13
	c2.8-8.9,5.4-17.8,6.7-27.1c0.5-3.6,0.6-7.3,0.4-10.9c-0.2-3.6-2-4.6-5.4-3.5c-4,1.3-6.9,4-9.4,7.2c-8,10.3-14.7,21.4-18.9,33.8
	c-0.2,0.6-0.4,1.3-0.7,1.9c-0.5,1.1-1.8,1.7-2.9,1.2c-0.5-0.2-0.9-0.5-1.1-1C1029.3,86.1,1028.8,84.7,1028.4,83.2z M1118.8,108.7
	c-1.2-0.2-2.4,0-3-0.4c-1.5-0.9-2.3-2.5-2.2-4.2c0.5-3.6,0.7-7.4,1.9-10.8c1.9-5.2,2.6-10.6,3.8-16c1.3-5.8,1.9-11.8,2.8-17.7
	c0.1-0.5,0.1-1,0.1-1.5c0-0.9-0.7-1.6-1.6-1.6c0,0,0,0,0,0h-0.4c-1.6,0.5-3.1,1.2-4.6,1.8c-2.8,1.2-5.4,2.5-8.2,3.5
	c-4.3,1.5-5.7,0.5-6.6-4.5c2.1-1.5,4.8-2,7.3-2.9c4.1-1.5,8.1-3,12.2-4.3c2.8-0.9,3.9-2.6,4.2-5.4c0.9-7.4,1.9-14.8,3-22.2
	c0.6-3.6,1.5-7.1,2.2-10.4c1.3-0.8,3-0.5,3.9,0.7c1.1,1.1,1.4,2.7,0.9,4.2c-0.9,3.5-2,7-2.7,10.6c-1,5.4-1.8,10.8-2.7,16.2
	c0,0.6,0.2,1.2,0.4,1.7c1.7,0.9,3.1,0.3,4.6-0.2c6.8-2.1,13.7-4.1,20.5-6.2c2.1-0.6,4.1-1.4,6.1-2.1c3.9-1.4,5.8-0.6,8,3.5
	c-0.8,1.9-2.7,3-4.7,2.8c-3.8-0.3-7.3,0.7-10.8,1.8c-7.5,2.3-14.9,4.8-22.4,7c-2.5,0.7-3.4,2.2-3.7,4.6c-0.8,6.1-1.6,12.2-2.6,18.3
	c-1,6.1-2.5,12-3.7,18.1c-0.6,3.4-1,6.9-1.4,10.3C1119.3,105.1,1119.1,106.7,1118.8,108.7z M750.4,71.9c0.2,2.5-1.7,6.1-4.3,9.1
	c-6.6,7.8-14.5,13.7-24.3,17c-3.7,1.3-7.5,2.2-11.7,1c-6-1.8-11.5-9.3-9.3-16.7c3-10.5,8.7-20,16.6-27.5c1.3-1.2,2.9-2,4.5-1.3
	c2.9,1.3,5.9,0.7,8.9,0.7c3.7-0.1,7.2,0.1,10.7,1.9C747.3,59,750,63.7,750.4,71.9z M733.7,59c-6,0.2-11.4,0.8-15.3,5.6
	c-0.2,0.3-0.5,0.5-0.8,0.6c-2.5,0.8-3.7,2.8-4.9,4.7c-1.9,3.1-3.7,6.3-5.2,9.6c-1.2,2.5-1.8,5.4-1.7,8.2c0.3,4.5,2.1,6.4,6.5,6.4
	c3.7,0.1,7.3-0.7,10.6-2.3c5.6-2.6,10.7-6,15.4-10c3-2.6,5.4-6,6.9-9.7c2.6-6.4-0.7-11.8-7.4-12.8C736.3,59.2,734.8,59.1,733.7,59z
	 M481.1,54.9c3.4-1.8,5.7-0.7,7.2,1.5c1.4,2.1,2.5,4.3,3.2,6.7c1.7,5,2.9,10.2,4.7,15.3c1.3,3.7,3.2,7.3,4.8,10.9
	c0.3,0.6,0.6,1.2,1,1.7c3.2,4.6,4.7,4.6,7.9-0.1c5.1-7.3,9.6-15.1,13.3-23.3c2.9-7,6.5-13.7,10.7-20c2.9-0.7,4.7,0.4,6.3,2.9
	c-0.9,1.3-1.9,2.6-2.8,4c-2.5,3.9-5.1,7.8-7.4,11.8c-4.5,7.8-8.8,15.7-13.1,23.5c-2.2,4-5.3,7.7-5.2,12.7c-1.9,0.3-3.9-0.4-5.1-1.9
	c-4.5-4.9-9.5-9.3-12.1-15.7c-1.9-4.8-3.7-9.6-5.5-14.4C486.9,65.1,484.8,59.9,481.1,54.9z M665.5,19.5c1.8-0.7,3.2,0.3,4.5,1.3
	s1.2,2.7,1,4.1c-0.2,1.8-0.6,3.6-0.9,5.4c-1.2,6.9-2,13.8-2.4,20.8c-0.4,10.3-0.9,20.6-1.6,30.9c-0.4,5.8-0.8,11.6,0,17.4
	c0.2,1.2,0.1,2.4-1.3,2.9c-1.3,0.5-2.8,0-3.4-1.3c-0.7-1.3-1.2-2.7-1.3-4.2c0-2.2,0.1-4.3,0.3-6.5c0.7-8.8,1.4-17.5,2-26.3
	c0.4-6.8,0.4-13.6,0.8-20.4c0.5-7.8,1.2-15.6,1.8-23.4C665.2,20,665.3,19.7,665.5,19.5z"/>
</svg>
