<?xml version="1.0" encoding="utf-8"?>
<!-- Generator: Adobe Illustrator 21.1.0, SVG Export Plug-In . SVG Version: 6.00 Build 0)  -->
<svg version="1.1" id="Layer_1" xmlns="http://www.w3.org/2000/svg" xmlns:xlink="http://www.w3.org/1999/xlink" x="0px" y="0px"
	 viewBox="0 0 1170 555" style="enable-background:new 0 0 1170 555;" xml:space="preserve">
<style type="text/css">
	.st0{opacity:0.55;fill:#FAEDE7;enable-background:new    ;}
	.st1{stroke:#000000;stroke-miterlimit:10;}
</style>
<g>
	<path class="st0" d="M824.7,293.6c0,8.3,0,16.5,0,24.8c0,5.5-1.2,11.2,3.7,15.6c0.8,0.6,0.2,2.6,0,3.8c-0.2,3.2-0.6,6.3-1.2,10.1
		c-3.2,3.1-6.7,1.8-9.2-1.5c-3.2-4.3-6.7-4-11-2.3c-5.5,2-10.9,2.9-15,8c-3.1,3.7-6.4-1.4-9-3.7c-3.2-2.8-9-6-6.3-10.4
		c3.4-5.1,1.4-9.5,1.4-13.8c-6.1,0-12.1,0.3-18.2,0c-4.6-0.3-6.7,1.4-6.1,6.1c2.3,17.8,4.1,35.5,6.4,53.3c0.9,7.5,2.3,15,3.2,22.5
		c0.2,1.5-0.5,4.4-1.5,4.9c-1.8,0.6-4,0.6-5.5-0.5c-2.4-3.2-5.5-6.6-6-10.6c-2.4-18.4-4.4-36.7-6.4-55.1c-0.6-5.8-1.2-11.5-1.5-17
		c-0.2-1.8-0.8-3.7-1.2-5.4c-10.4-0.6-20.2-1.4-30-1.8c-1.8,0.3-3.4,0.9-4.9,2.3c-4.9,5.2-10.6,6-14.1-0.3
		c-6.9-11.5-18.8-16.8-28.9-24.2c-0.9-0.5-1.8-0.8-2.8-0.8c-2.9,6,2,14.5-6.3,17.9c-2.8,1.2-6,0.9-10.1,1.2l0.9-7.3
		c0.6-6.4,1.7-12.9,2-19.3c-0.2-2-1.7-4.1-3.2-5.2c-11-8.6-22.3-17-33.5-25.4c-2.9-1.8-5.8-4-8-6.4c-8.3,0.2-17.9-1.4-26.6,4
		c-4.1,2.4-8.3,1.4-12.9-0.9c-4.3-1.8-9.2-2.4-13.9-2.1c-15.2,0.8-30.3,2.3-45.8,3.4c-6.4,0.5-12.9,0.8-20.4,1.2l4.1,32
		c-6.3,2.4-8.7,1.5-14.1-5.4L452,293l-0.9,6.4c-8.3,3.7-12.4-4.1-19-6.6c6.7-11.3,0.3-22-0.9-33.1c-0.5-2.3-1.4-4.6-2.6-6.7
		c-1.8-3.4-0.6-5.1,2.8-5.5c3.2-0.2,6.4-0.5,9.6-0.9c7.3-1.8,14.4-4.1,21.6-6.9c2.4-1.2,4.1-5.1,6.6-8.6c7.2-1.8,10.4,1.8,12.6,13.9
		l79-2.4l-2.3-31.2l2.3-3.7l-55-49.1c0.9-1.8,1.7-5.2,2.8-5.5c3.4-0.6,8-1.2,10.6,0.8c5.1,3.4,9.2,8.7,13.8,12.9
		c12.4,11.2,24.8,22.5,37.4,33.5c6.3,5.4,9.2,5.1,18.4-0.2L577.2,86.9c-10.4,1.2-16.5-6-16.1-16.1c0.3-5.1-1.4-10.1-2.3-15.2
		c-0.6-4-1.4-8-2-11.9s-1.7-7.8-2.8-13.6c2.8-1.2,5.8-2.8,8.9-4.1c5.5-2.1,11.3-3.5,16.7-5.5c8.3-2.9,16.4-6.4,24.4-9.5
		c4.3-1.5,11.2,1.2,11.9,5.7c0.2,1.8-2.3,4.4-3.7,6.6l-1.4-0.2l4.3,26.6c2.6,1.2,5.1,2.8,7.5,4.4c2.9,2.3,2.3,7.3-1.2,7.8
		c-4.7,0.5-4.6,3.4-4.3,6.9c0.2,2.3,0,4.6,0,6.6c-4.6,0.8-4.6,0.8-13.8-6.1c-8.3,5.1-18.8,6.1-27.4,11.2l0.6,2c2.1,0,4,0,6,0.5
		c4.1,0.9,8.3,2.8,7.5,7.7c-2.1,13.3,1.7,26.2,2.8,39.3c1.2,13.6,2,27.1,2.9,40.4c0.2,1.8,0.5,3.7,0.9,7c1.8-1.8,3.4-3.7,4.9-5.5
		c10.1-14.7,20.2-29.7,30.8-44.2c5.8-7.8,12.6-14.7,18.7-22.3c4.6-6,8.6-12.2,12.6-18.4c4.6-6.9,8.7-14.2,13.6-21
		c1.8-2.3,5.1-3.4,8.3-4.9c2.3-6.3-0.5-11.5-4.6-16.8l4.4-8.7c6.6,2.1,13.5,5.1,20.4,1.2c6-3.4,14.7-2,18.7-11.3
		c4.4,1.8,8.3,4.1,12.4,6.7c1.7,1.7,2.1,3.8,1.8,6c-3.1,10.1,1.8,19.1,3.4,28.5c0.2,1.5,3.4,2.4,5.1,4.1c1.7,1.5,4.1,3.7,4.4,5.8
		c0.2,1.4-2.9,3.1-5.5,5.4v7.3l-11-1.8l0.2-0.9c-11,2.9-22,5.8-33.1,9c-5.1,1.4-10.1-2.1-11.2-8.3c-0.6-3.7-1.4-7.3-2-11l-1.8-0.5
		c-5.1,7.3-10.1,15-15.3,22.2c-6.9,9.3-14.2,18.4-21.1,27.6c-9,11.9-17.8,23.6-25.7,35.5c-6.4,9.5-11.9,19.3-17.9,28.9
		c-0.6,1.5-1.2,3.2-1.7,4.7c7.5,0.3,16.2-3.2,19,8.7l-11.5,2.6l2.3,17.1c7.3-1.4,15-2.3,22.3-4.3c15.5-4.4,30.5-9.2,45.9-14.1
		c5.5-1.5,14.2-9.2,19.3-16.4c6.3-0.5,9.6,4.1,10,12.9c-3.2,3.2-6.9,6.1-10.6,8.9c-3.7,2.8-7.7,5.1-11.9,6.7
		c-19.7,6.4-39.5,12.9-59.4,18.8c-5.8,1.4-11.5,2.3-17.1,3.1c7.3,15.2,19.3,24.5,32,33.5c1.8-0.5,3.7-0.9,5.5-1.5
		c5.2-1.8,8.7,0.2,9,5.5c0.5,9.6,8.3,13.2,14.4,17.8c2.3,1.8,5.4,2.9,7.8,4.6c15,10.1,32.3,9.8,49.3,11.5
		c10.4,0.9,20.5,1.4,30.8,1.7c4.6-0.3,9.3-0.5,13.9-1.2l-2.8-9.2c6.7-2.8,13.2-5.8,19.7-8.6c4.6-1.8,9.3-3.2,13.9-4.6
		c0.5-0.2,0.8,0,1.2-0.2c2.4-1.4,6-4.6,7.7-4c3.8,1.8,6.9,5.5,10.4,8.6L824.7,293.6z M601.1,25.7l-32.5,12.6l4.6,30.8L606,55.7
		L601.1,25.7z M731.9,74.5l-6.7-31.2l-28.6,8.1l4.7,32.6L731.9,74.5z M601.7,209.8c-9.8,3.4-18.5,6.1-27.1,9.2c-1.2,0.9-2,2.3-2,3.7
		c-0.3,6.1,0,12.4,0,19.3c2.9,0.6,6,0.9,8.9,1.2c4.9-0.3,9.6-1.2,14.4-1.7c2.3-0.2,4.4,0,7.8,0L601.7,209.8z M470.8,251.3
		c-8.3,1.5-15.2,2.8-21.7,4.4c-1.8,0.6-2.9,2.3-3.4,4.3c0.6,7.3,2.1,15,3.4,23.7c8-3.2,15.2-6,22-8.7c0.9-0.5,1.7-1.5,1.8-2.4
		C472.2,265.4,471.5,258.2,470.8,251.3z M812,329.8V299l-20.7,9.5v26.3L812,329.8z M532.6,437.3c-6.7,2.1-6.7,2.1-14.2-5.5
		l-18.8,6.9l0.9,7.5c-5.8,2.3-10.1,0.8-13.8-4.1c-9.6,4.6-15.6,12.9-22.3,20.4c-6.4,7.2-11.9,15-18.5,21.6
		c-2.1,1.8-6.7,0.9-11.3,1.5c0.3,2,0.6,5.4,1.2,8.4c1.2,7.8,1.8,15.6,7.3,22c1.4,2.3,2.1,5.1,1.7,7.8c0.3,3.1-1.8,5.5-4.7,5.8
		c-1.2,0-2.3-0.2-3.4-0.9c-4-2.1-7.5-4.9-11.9-7.8l-23.9,11.3l1.2,10.6c-6.3,2.3-10.9,1.2-12.4-4.3c-2.6-8-3.7-16.4-5.8-24.3
		c-2.1-7-4.4-13.9-6.9-20.8c-1.7-4,0-6,3.2-7.3c12.1-5.5,24.6-10.1,36.3-16.5c8-4.3,15-4.6,22.3,1.5c7.8-8.4,15.2-16.7,22.8-25
		c3.7-3.8,7.5-7.3,11.6-10.7c1.4-0.8,2.8-1.2,4.1-1.4c2.8-0.8,5.5-1.4,9-2.4l-6.4-44.4c13.9,1.2,25.7-3.2,36.7-12.6
		c7.8-0.8,11.2,2.8,10.4,11.2c-0.3,3.8-0.3,7.5,0.2,11.5c0.5,6.3,0.6,12.6,1.7,18.8c0.5,2.9,2.3,6,2.9,8.9
		C531.9,429.1,532.2,433,532.6,437.3z M425.3,508.4l-4.7-26.8l-28.2,13.3l5.5,25L425.3,508.4z M494,397.2l1.8,30.6l21.7-7.2l-3.4-30
		L494,397.2z M422.4,219.6c-0.6,6-6.3,10.1-12.1,9.5c-1.4-0.3-2.8-0.8-4-1.4c-17.5-8.7-34.9-17.6-52.2-26.8
		c-3.4-1.8-6.4-4.6-9.8-6.7c-2.6-1.8-5.1-3.2-8-4.3c-9.8-3.4-9.8-3.4-15.2-11c-4.3,1.5-8.9,3.1-13.3,4.7c-4.1,1.5-7.8,3.8-11.5,6.4
		c-7.8,1.5-16.1-1.5-17.5-6.4l4.1-3.2c-0.5-4.6-0.9-9.5-1.7-14.1c-1.2-7.7-2.9-15-3.7-22.5c-0.2-1.7,2.9-4.6,5.1-5.2
		c10.4-3.4,20.7-6.3,30.9-9.2l0.9-12.4c6.6-0.2,11.5,0.5,12.6,7.7c0.5,2.3,2.4,4.6,4.3,7.5c-6.4,3.2-4,8.7-2.9,13.9
		c0.9,6.3,1.8,12.4,2.6,18.7l9.8,3.8l-6.9,7.8l0.6,8.3l9.3-6.1C369.7,194.2,392.3,214.1,422.4,219.6z M292.9,147.1
		c0.6,9,0.9,17.6,1.8,26.3c0.5,3.4,2.9,3.8,6,2.8c6.3-2.4,12.4-4.7,19.6-7.8l-3.7-28.8L292.9,147.1z M631.8,404.1l-2.6,6.1
		c-6.9,1.8-11-2-14.7-6.6c-9.5-11.9-18.7-24.2-27.9-36.3c-0.5-0.6-0.9-1.5-1.8-2.9c-6.9,4.1-13.3,7.5-19.3,11.2
		c-4.4,2.8-8.6,6.4-12.9,9.2c-2,1.2-6,2.3-7.5,1.2c-2.8-2.3-5.1-5.4-6.3-8.9c-0.5-1.2,2.8-4.1,4.9-5.4c9.3-5.2,19.6-9.6,28.2-15.6
		c7-4.6,11.5-12.6,11.5-21.4c-0.3-16.5-1.2-33.1-1.8-49.8c-0.3-7.7,0-15.2,0-23.3c4.7-2.9,6.4-2.8,13.5,4.9c0,20.4,0,41.9,0,63.8
		c0,8.3-0.2,16.5,0.5,24.6c0.3,3.7,1.7,7.3,3.7,10.6c7.8,11,16.1,21.7,24.6,32.5C626.5,400.1,629.1,402.4,631.8,404.1z M834.5,131.5
		l-6.1-10.1c7.8-2.8,13.9-4.9,20.2-7.3c9-3.7,17.9-7.3,26.9-11.3c7.3-3.4,12.4-3.1,16.1,1.8c2.8,3.4,2.3,6.4-2.1,7
		c-6,1.4-7.7,4.9-7,10.4c0.5,6.3,0.6,12.6,1.2,18.8c0.2,4.6,0.9,8.9,5.2,11.9c1.2,0.6,1.4,3.8,1.2,5.8c-0.6,2.8-1.8,5.5-2.9,8
		c-5.5,2.3-7.7-3.1-11.6-5.5c-6.7,1.8-13.8,3.8-20.8,6.1c-1.2,0.2-1.8,1.5-2.8,2.4c-3.8,5.4-5.5,5.5-10.1,0.5
		c-2.8-3.2-5.5-6.6-7.8-9.6c6.3-10.6,0.9-20.2,2.3-29.9L834.5,131.5z M870.2,119.1c-8,3.4-14.4,6-21.1,9.2c-1.2,0.5-1.7,3.2-1.7,4.7
		c-0.2,4.9,0,9.5,0.2,14.2c0,2.3,0.5,4.6,0.9,7.3l24.3-6.3L870.2,119.1z M331.2,375.8c-2.3-11.9-4.3-23.9-6.6-35.5
		c-0.6-4.1,0.5-6.4,4.6-7.5c10.1-3.1,20.2-6.4,30.3-10v-6.4c2-0.5,4.3-0.8,6.6-0.5c11.8,2.8,16.5,5.8,16.7,10.4l-8,2.8
		c1.4,8.4,2.3,17,4,25.3s3.7,16.1,5.8,24.2c-6.3,2.9-10.1,0.5-13.3-4.1l-23.6,8.9l-0.5,7.7c-4.6,0.6-8.9,0.6-12.1-3.1
		c-0.6-0.6-1.4-1.4-2.3-1.5C325.5,382.1,325.5,381.8,331.2,375.8z M368.4,362.9l-5.5-29.9l-25.3,8.7l4.9,32.1L368.4,362.9z
		 M801.3,467.6c-1.2,2.1-2.1,3.4-2.8,5.1c-2.8,5.5-5.5,6.7-10.4,3.2c-3.1-2.3-7-3.1-10.6-1.5c-6.7,2-13.3,3.7-20.1,6
		c-5.1,2.3-11.3,0.5-14.2-4.1c0-11.9,0.2-22.5-0.2-32.8c0-2.3-2.3-4.6-3.4-6.9c-1.2-1.8-2.3-3.7-4-5.8c7.7-4.9,15.6-4.1,23.1-5.5
		c8.6-1.4,16.8-3.2,25.3-3.8c3.4,0,6.9,1.2,9.6,3.1c2.9,1.5,2.3,4.6,1.8,8c-1.2,8.7-1.4,17.5-0.6,25.9
		C795.3,461.5,799,464.3,801.3,467.6z M755.5,466.1l27.4-5.1l-1.4-26.8c-7.8,0.6-14.2,1.2-20.7,2c-1.4,0.3-3.4,1.8-3.7,3.1
		C756.4,447.9,756,456.6,755.5,466.1L755.5,466.1z M776.2,215.8L728,233.7v2.1l-10.1-5.1l1.8-0.9c-2.1-15.9-3.7-31.7-6-47.3
		c-0.8-4.1,1.2-5.8,4.1-6.9c11.9-4.7,24.2-9.3,36.1-14.2c6.1-2.3,11.9,2.3,12.4,9.2c0.6,7.2,2.1,14.2,3.8,21.1
		c1.7,6.7,4,13,5.8,19.7C776.2,212.8,776.2,214.4,776.2,215.8z M754.4,175.6c-8.7,3.1-16.5,5.4-24.3,8.3c-1.8,0.9-2.9,2.6-3.2,4.6
		c0.8,10.4,1.7,20.5,2.8,32.3l33.4-12.6L754.4,175.6z M610.7,429.4c0.2-3.7,2-5.8,6.9-6.9c10.6-3.1,22-4.1,30.3-13
		c3.4-3.7,14.2-2.6,17,1.8c0.6,1.5,0.6,3.4,0,5.1c-5.5,10.4-5.8,22.7-0.2,33.1c1.4,2.6,1.4,5.8,0.5,8.3c-0.9,1.5-4.6,1.8-7.3,2.3
		c-2.1,0.2-4,0.5-5.8,1.2c-10.1,5.5-20.5,10.4-30.3,10.1c-7.3-6.4-6.4-15.3-7.3-23.6C613.1,441.3,611.6,435.5,610.7,429.4z
		 M626.3,457.4l2.6,1.5c6-3.2,12.1-6.1,18.1-9.6c1.2-0.9,1.8-2.3,1.7-3.8c-0.5-6.4-1.2-12.9-1.8-19.7c-6.3,2.3-12.1,4.1-17.9,6.4
		c-1.4,0.8-2.3,1.8-2.4,3.4C626.3,442.8,626.3,450.2,626.3,457.4L626.3,457.4z M688.9,376.8c-1.8,0.3-2.9,0.8-3.7,0.3
		c-7.3-5.1-14.2-0.3-21.1,0.9c-3.4,0.5-6.7,1.4-10.1,1.8c-10.6,1.2-15.2-3.2-17.5-12.9c-1.2-4.6-1.4-9.5-2.1-14.2
		c-1.2-6.6-2.3-13-3.7-19.7l-1.8-0.5c1.4-1.2,2.9-1.8,4.6-2.6c10.4-1.7,20.7-3.2,30.9-4.6c5.5-0.9,11.3-1.8,17-2
		c5.8-0.5,9.6,4.6,9.2,10.4l-6,2c1.4,10.1-2.6,20.7,3.7,30.3C690.3,368.8,688.9,372.9,688.9,376.8z M646.5,340.4l2.6,28.2l23.9-5.2
		v-27.2L646.5,340.4z M503.8,146.5c-2.8,4.9,2.4,11-4.1,15.5l-9.5-9.5l-20.4,9c-3.7,8.3-7.2,8.3-17.1-5.5c7.5-9.8,2.4-20.4,0.6-30.5
		c-1.7-8.9-0.9-10.1,7.8-11.6c7.5-1.7,15.2-3.4,22.8-6c6-1.8,11.2-0.9,15.5,2.9c0.5,6.9,1.2,13.2,1.4,19.3c-0.2,3.2,1.8,6,4.9,6.9
		c4,1.4,7.8,3.4,5.8,9.6C511.2,146.5,503.8,146.5,503.8,146.5z M464.8,124.9l2,25l23.9-11.5l-2.8-19.3L464.8,124.9z M474.3,396
		c-3.2,2.8-5.8,6.4-8.7,6.9c-2.9,0.5-7-1.4-10.1-2.9c-6.3-3.4-11.8-8-17.9-11.5c-15.5-8.7-30.8-16.8-46.2-25.3
		c-2.8-1.7-2.9-3.7-0.6-6c4.6-4.9,9.2-5.5,14.7-1.8s11.2,7.2,16.7,10.4C439.1,375.3,455.9,385.3,474.3,396z M831.6,157.5
		c-10.6,5.8-20.5,11-30,16.5c-3.4,2.1-6.7,4.6-9.3,7.3c-2.4,2.3-5.1,6-8.4,3.4c-2.8-2-4.4-6-6.4-8.9c11.9-10.7,25.7-19.6,40.4-25.9
		C827.1,145.7,830.7,147.5,831.6,157.5z M493.3,360.9c-4.7,4.1-9.2,3.2-11.9-0.9c-4.1-5.8-7.5-11.8-10.4-18.1
		c-4.7-11-8.9-22.5-13.2-34c-0.5-1.8-0.9-4-0.9-5.8c8.6-3.2,11.2-1.7,13.5,6c5.1,17,11,33.5,21.1,48.5
		C492.2,357.9,492.8,359.3,493.3,360.9z"/>
	<path class="st1" d="M452.2,273c-2.1,2.6-5,4.5-8.2,5.5c-3.1,1.1-6.3,1.9-9.6,2.5c-8.5,1.4-17.1,2.6-25.6,3.9
		c-5,0.6-10.1,0.1-14.8-1.6c-1.6-0.5-3.1-1.3-4.4-2.3c-1.3-0.7-1.8-2.3-1.2-3.6c0.5-0.3,1.1-0.4,1.7-0.5c4.5-0.4,8.9-1.7,12.8-4
		c9.1-4.8,18.3-9.5,27.4-14.3c0.6-0.3,1.2-0.6,1.7-1l0.2-0.2l0.1-0.1c1.3-1,1.5-2.8,0.5-4.1c-1.1-1.5-2.7-2.6-4.5-3
		c-3.6-0.9-7.3-0.6-10.7,0.9c-5.9,2.4-11.7,4.8-17.6,7.1c-3.7,1.5-7.1,3.8-9.9,6.6c-2.4,2.3-4.9,4.4-7.7,6.8c-0.1,0.7-0.2,1.3-0.4,2
		c-0.9,2.6-0.1,4.8,1.4,7c1.9,2.9,4.7,5.1,8,6.4c6,2.3,12.4,3.1,18.7,2.5c6.4-0.6,12.8-1.7,19.2-2.8c6.4-1.1,12.9-1.7,19-3.9
		c5-1.7,9.2-4.4,11.5-9.3C456.2,270.2,454.7,270.1,452.2,273z M401.9,263.2c7.5-4,12.8-5.8,16.5-5.7c-3.2,3.1-7,4.8-10.7,6.5
		c-4.1,2-7.8,4.9-12.7,5.2C396.5,266.1,399.3,264.8,401.9,263.2z M1073.5,240c0.9,2.5,1.3,5.1,1.2,7.8c0.1,7.2-1.4,14.2-3.3,21.1
		c-1.5,5.4-3.2,10.8-4.7,16.3c-1,3.8-1.7,7.8-2.5,11.7c-0.2,1-0.2,2.1-1.3,2.5c-1.4,0.5-2.1-0.6-2.8-1.5c-1.1-1.3-1.5-3.1-1-4.7
		c1.1-4.3,2-8.8,3.3-13c2.8-8.9,5.4-17.8,6.7-27.1c0.5-3.6,0.6-7.3,0.4-10.9c-0.2-3.6-2-4.6-5.4-3.5c-4,1.3-6.9,4-9.4,7.2
		c-8,10.3-14.7,21.4-18.9,33.8c-0.2,0.6-0.4,1.3-0.7,1.9c-0.5,1.1-1.8,1.7-2.9,1.2c-0.5-0.2-0.9-0.5-1.1-1c-0.5-1.6-1-3-1.4-4.5
		c-0.6,2-1,3.2-1.3,4.4c-1,4.7-2.3,9.4-1.8,14.2c0.1,0.7,0.1,1.3,0,2c-0.1,1.2-0.3,2.4-1.8,2.6c-1.5,0-2.7-1.2-2.7-2.7
		c0-0.1,0-0.2,0-0.2v-0.1c0.1-0.7,0.2-1.3,0.4-2c2.5-11.6,3.5-23.3,4.3-35.1c0.4-5.3,0.8-10.6,1.3-15.9c0.2-2.3,2-3.1,3.9-1.8
		c1.5,0.8,2.4,2.5,2.1,4.2c-0.1,0.7-0.3,1.3-0.4,2c-1.1,6.6-2.2,13.1-3.2,19.7c-0.2,1.6-0.8,3.2,0.6,5.1c0.7-0.6,1.3-1.3,1.9-2
		c3.4-7.6,8.2-14.4,12.6-21.5c3.3-5.2,7.2-9.9,11.8-14C1063.1,231,1070.8,232.7,1073.5,240z M1170,234.6c-0.8,1.9-2.7,3-4.7,2.8
		c-3.8-0.3-7.3,0.7-10.8,1.8c-7.5,2.3-14.9,4.8-22.4,7c-2.5,0.7-3.4,2.2-3.7,4.6c-0.8,6.1-1.6,12.2-2.6,18.3s-2.5,12-3.7,18.1
		c-0.6,3.4-1,6.9-1.4,10.3c-0.1,1.7-0.3,3.3-0.6,5.3c-1.2-0.2-2.4,0-3-0.4c-1.5-0.9-2.3-2.5-2.2-4.2c0.5-3.6,0.7-7.4,1.9-10.8
		c1.9-5.2,2.6-10.6,3.8-16c1.3-5.8,1.9-11.8,2.8-17.7c0.1-0.5,0.1-1,0.1-1.5c0-0.9-0.7-1.6-1.6-1.6h-0.4c-1.6,0.5-3.1,1.2-4.6,1.8
		c-2.8,1.2-5.4,2.5-8.2,3.5c-4.3,1.5-5.7,0.5-6.6-4.5c2.1-1.5,4.8-2,7.3-2.9c4.1-1.5,8.1-3,12.2-4.3c2.8-0.9,3.9-2.6,4.2-5.4
		c0.9-7.4,1.9-14.8,3-22.2c0.6-3.6,1.5-7.1,2.2-10.4c1.3-0.8,3-0.5,3.9,0.7c1.1,1.1,1.4,2.7,0.9,4.2c-0.9,3.5-2,7-2.7,10.6
		c-1,5.4-1.8,10.8-2.7,16.2c0,0.6,0.2,1.2,0.4,1.7c1.7,0.9,3.1,0.3,4.6-0.2c6.8-2.1,13.7-4.1,20.5-6.2c2.1-0.6,4.1-1.4,6.1-2.1
		C1165.9,229.7,1167.8,230.5,1170,234.6z M345.8,194.5c-0.8,0.5-1.3,1.4-1.5,2.3c-0.7,5.1-1.4,10.2-1.9,15.3
		c-0.5,4.8-0.7,9.6-1,14.4c-0.2,2.8-0.3,5.7-0.4,8.5c0.1,1.4-1,2.6-2.4,2.7c-3.7,0.2-6,2.6-8.2,5.2c-5.4,6.5-10.8,13.1-16.2,19.6
		c-4.6,5.7-9,11.6-13.9,17c-1.9,1.9-2.8,4.6-2.3,7.2c0.2,2,0.6,4,1,5.9c0.6,2.5,2.4,4.5,4.9,5.2c2.4,0.9,5.1,0.7,7.3-0.5
		c2.5-1.3,5-2.7,7.3-4.3c5.3-4,10.3-8.4,14.9-13.2c0.9-0.9,1.9-1.5,3.4-2.8c0.2,2,0.4,3.2,0.5,4.5c0.1,2,1.3,3.9,3.1,4.8
		c0.3,0.2,0.6,0.3,0.9,0.3c0.1,0,0.1,0,0.1,0c1,0,1.9-0.8,1.9-1.9c-0.1-2.5-0.3-5-0.4-7.5c-0.2-4.8-0.1-9.6,3-13.8
		c0.3-0.5,0.5-1.1,0.6-1.7c-2.4-3.8-2.3-3.8-1.8-8.1c0.4-6.3,0.9-12.6,1.2-18.9c0.6-11.2,1.1-22.3,3.9-33.2c0.3-1.1,0.4-2.3,0.3-3.5
		c-0.2-0.9-0.6-1.8-1.2-2.6C348.2,194.4,346.9,194,345.8,194.5z M339.8,250.3c-0.3,4.1-0.7,8.3-1.1,12.4c-0.3,2.6-1.4,5.1-3.2,7.1
		c-4.1,5.5-8.8,10.4-14.2,14.6c-4,3-8.3,5.6-12.5,8.2c-1.1,0.3-2.2,0.5-3.3,0.5c-0.4-2.1-0.7-3.5-0.9-5.1c-0.5-2.5,0.1-5.1,1.8-7
		c6.4-7.8,12.8-15.8,19.2-23.5c3-3.7,6.5-7.1,9.8-10.6c1.1-1.1,2.3-2.5,4.4-1.9C339.8,246.8,339.9,248.5,339.8,250.3z M146.1,288.5
		c-0.2,0.8-0.7,1.4-1.4,1.8c-0.9,0.4-1.9,0.6-2.9,0.6c-4.4-0.1-8.6,1.2-12.6,2.7c-7.3,2.8-14.5,5.8-21.6,9.1
		c-3.4,1.7-6.7,3.8-9.7,6.1c-2.1,1.4-3.1,1.7-4.4,0.6s-2.7-3.6-1.6-5.3c0.6-1,1.1-2,1.7-3c6.3-10,12.5-20,18.9-30
		c5.6-8.7,11.3-17.3,15.4-26.8c1.1-2.6,2-5.3,2.8-8c0.3-1.5,0.5-3.1,0.5-4.6c-2.6-0.7-5.5-0.3-7.8,1.1c-9.5,4.8-17.9,10.9-23.2,20.6
		c-1.1,2-2.1,2.4-3.5,1.8c-1.9-0.9-2.8-2.6-2-4.4c0.6-1.5,1.5-3,2.5-4.3c6.8-8.7,15.9-14.5,25.9-18.9c1.6-0.6,3.2-1,4.9-1.1
		c5.1-0.5,9.5,3.3,8.7,8.4c-0.6,4.1-1.7,8.1-3.5,11.9c-3.3,6.7-7,13.3-11,19.6c-5.3,8.6-11,17-16.5,25.6c-0.9,1.4-2.1,2.6-2,4.4
		c1.3,1.4,2.5,0.5,3.7,0.1c6.6-2.4,13.1-5,19.7-7.2c4.1-1.4,8.3-2.4,12.5-3.5c1.9-0.6,4-0.2,5.6,1.1
		C145.7,287.3,146.2,288.1,146.1,288.5z M59.3,229.1c-1.8-0.5-3.6-0.7-5.4-0.8c-3.2,0-6.3,0.2-9.9,0.4c-0.3-0.2-0.6-0.4-0.9-0.5
		c-3.1-4-6.8-3.2-10.2,0.1l-1.4,1.4c-3.4,3.4-6.6,7-10.8,9.5c-1.1,0.7-2.1,1.6-3,2.6c-1.3,1.1-1.9,2.8-1.5,4.5c0.4,1.6,0,3.4-1,4.7
		c-5,8.6-9.1,17.8-12.1,27.3c-1.9,5.7-3.4,11.5-3,17.6c0.1,3.5,1,6.9,2.7,10c4.4,7.3,14.5,10.2,22.9,6.4c4.9-2.2,9.4-5,13.5-8.4
		c12.1-10.3,22.6-22,29.9-36.3c2.7-5.4,5.3-10.8,5.4-17C74.6,242.3,70.2,231.8,59.3,229.1z M68.2,258c-0.6,1.2-1.2,2.4-1.6,3.7
		c-0.9,2-1.5,4.2-2.7,5.9c-4.2,6-8.1,12.2-12.8,17.8c-5.9,6.8-12.5,12.8-19.8,18.1c-4.1,3.2-9,5.3-14.2,5.9
		c-4.7,0.5-7.7-1.1-9.6-5.4c-1.3-3.1-2.1-6.4-2.2-9.8c0.8-4,1.3-8.2,2.5-12.2c2.2-7.5,5.2-14.8,8.8-21.7c3.5-6.7,7.7-13,12.4-18.8
		c0.9-1.4,2.2-2.5,3.7-3.2c6.3-2.8,12.5-5.6,19.5-6c0.5-0.1,1-0.2,1.5-0.2c12.3-1,17,7.7,16.8,16.8C70.6,252.1,69.8,255.2,68.2,258z
		 M1004.9,279.9c-5.5,1.6-11.2,1.5-16.8,2.3c-7.4,1-14.9,2-22.2,3.5c-9.3,1.9-18.8,2.7-28.3,2.3c-2-0.1-4-0.5-5.8-1.3
		c-4.1-1.8-4.9-4.8-2.6-8.5c1.8-2.8,4-4.5,7.8-4.1c4.8,0.4,9.7,0,14.4-1.1c9.6-2,18.8-5.7,28.1-8.7c0.8-0.3,1.5-0.7,2.2-1.1
		c2.5-1.6,2.8-3.4,1-5.8c-3.1-4.1-8.1-6.2-13.2-5.5c-6.7,0.6-13.2,2-19.1,5.3c-1.3,0.7-2.8,1.2-4.1,1.9c-3.8,2-7.7,3.9-11.4,6.1
		c-2.6,1.6-4.9,3.4-8.9,3.1c1.1,3.4-0.7,5.4-2.1,7.3c-2,2.4-2.1,5.8-0.2,8.3c1,1.5,2.1,2.9,3.4,4.2c3.6,3.3,8.2,4.3,12.9,4.5
		c9.4,0.4,18.6-0.9,27.8-2.1c8.2-1.2,16.5-2.4,24.7-3.5c2.7-0.3,5.3-0.2,8-0.5c2.4-0.2,4.7-0.6,6.5-2.3c0.9-0.9,2.1-1.8,1.4-3.4
		C1007.7,279.2,1006.1,279.6,1004.9,279.9z M944.2,265.9c5.7-2.4,11.3-5,17.1-6.9c3.6-1.2,7.5-1.4,11.3-1.8c1-0.1,2,0.6,3.7,1.1
		c-0.8,0.9-1.8,1.6-2.8,2.2c-8.7,2.8-17.4,5.6-26.1,8.3c-1.8,0.6-3.8,0.3-5.8,0.4l-0.4-1.2C942.2,267.2,943.2,266.5,944.2,265.9z
		 M742.6,250.2c-3.5-1.8-7-2-10.7-1.9c-3,0-6,0.6-8.9-0.7c-1.6-0.7-3.2,0.1-4.5,1.3c-7.9,7.5-13.6,17-16.6,27.5
		c-2.2,7.4,3.3,14.9,9.3,16.7c4.2,1.2,8,0.3,11.7-1c9.8-3.3,17.7-9.2,24.3-17c2.6-3,4.5-6.6,4.3-9.1
		C751.1,257.8,748.4,253.1,742.6,250.2z M746.3,266.2c-1.5,3.7-3.9,7.1-6.9,9.7c-4.7,4-9.8,7.4-15.4,10c-3.3,1.6-6.9,2.4-10.6,2.3
		c-4.4,0-6.2-1.9-6.5-6.4c-0.1-2.8,0.5-5.7,1.7-8.2c1.5-3.3,3.3-6.5,5.2-9.6c1.2-1.9,2.4-3.9,4.9-4.7c0.3-0.1,0.6-0.3,0.8-0.6
		c3.9-4.8,9.3-5.4,15.3-5.6c1.1,0.1,2.6,0.2,4.1,0.3C745.6,254.4,748.9,259.8,746.3,266.2z M900.9,235.4c0.6,1.4,0.8,2.8,0.7,4.3
		c-0.8,12.8-3.3,25.4-6,37.9c-1.5,7-2.8,14-4.2,21c-0.1,0.7-0.2,1.3-0.3,2c-0.5,1.9-1.3,2.7-2.5,2.6c-1.8-0.3-3.5-2.2-3.1-3.9
		c0.4-2.3,1.2-4.5,1.6-6.8c2.9-14.5,6.2-29,8-43.7c0-1.1-0.1-2.1-0.3-3.2l-0.9,0.1c-0.6,0.8-1.1,1.6-1.7,2.4c-3,5.5-6.3,11-8.5,16.9
		c-0.5,1.2-1.1,2.4-1.6,3.6c-1,2.4-2.5,4.3-5.3,4.4c-1.3,2-2.1,4.3-2.4,6.7c-0.5,3.1-1,6.2-1.7,9.3c-0.5,2.1-1.6,2.9-3,2.6
		c-1.7-0.3-2.8-2-2.5-3.7c0-0.2,0.1-0.3,0.1-0.5c0.8-3.2,1.6-6.4,2.5-9.6c1.8-6,1.7-12.2,2.5-18.3c0.4-3.3,0.7-6.6,1-9.9
		c0-1-0.1-2.1-0.3-3.1c-1.3,1.3-2.2,1.9-2.7,2.8c-4,7.1-8,14.2-11.9,21.4c-0.3,0.6-0.4,1.3-0.7,1.8c-0.4,1-1.6,1.5-2.6,1.1
		c-0.1-0.1-0.3-0.1-0.4-0.2c-0.9-0.5-1.8-1.1-2.6-1.8c-1.5,2.3-1.3,4.7-1.7,6.9c-0.7,4.6-1.2,9.2-1.7,13.9c-0.1,2-0.1,4,0.1,6
		c0,1.1-0.4,2.1-1.6,2.2c-0.8,0-1.6-0.4-2.1-1c-1.2-1.2-1.6-3-1.2-4.6c0.7-3.2,1.5-6.5,2-9.8c0.5-2.9,0.9-5.9,1.2-8.9
		c0.8-7.6,1.5-15.2,2.4-22.8c0.4-3.1,1-6.2,1.7-9.3c0.5-1.9,1.7-2.6,3.2-2.3c1.3,0.3,2.2,1.6,2,3c-0.2,1.5-0.5,3-0.8,4.4
		c-1.1,5.4-2.2,10.7-3.3,16.1c0,0.6,0.1,1.3,0.2,1.9c0.7-0.5,1.3-1.1,1.9-1.7c4.6-7.7,9.1-15.5,13.7-23.2c1.5-2.6,3.3-5,5-7.5
		c0.8-1.2,1.7-2.1,3.2-1.8c1.9,0.3,3.3,1.8,3.5,3.7c0.1,2.3,0,4.7-0.2,7c-0.3,3.3-1,6.6-1.4,9.9c-0.3,1.9-0.4,3.9-0.7,6.7
		c1.2-0.9,2-1.2,2.3-1.8c2.5-4.7,5.4-9.2,8.7-13.4c0.5-0.8,0.9-1.8,1.1-2.7c1-3,2.7-5.8,4.8-8.1
		C896.6,232.1,899.5,232.6,900.9,235.4z M672.1,219c-0.2,1.8-0.6,3.6-0.9,5.4c-1.2,6.9-2,13.8-2.4,20.8c-0.4,10.3-0.9,20.6-1.6,30.9
		c-0.4,5.8-0.8,11.6,0,17.4c0.2,1.2,0.1,2.4-1.3,2.9c-1.3,0.5-2.8,0-3.4-1.3c-0.7-1.3-1.2-2.7-1.3-4.2c0-2.2,0.1-4.3,0.3-6.5
		c0.7-8.8,1.4-17.5,2-26.3c0.4-6.8,0.4-13.6,0.8-20.4c0.5-7.8,1.2-15.6,1.8-23.4c0.2-0.2,0.3-0.5,0.5-0.7c1.8-0.7,3.2,0.3,4.5,1.3
		C672.4,215.9,672.3,217.6,672.1,219z M630.4,272.1c-1.6,0.1-3.2,0.4-4.8,0.9c-3.5,1-7,2.3-10.5,3.1c-7.7,1.8-15.3,3.2-23,4.8
		c-5.4,1.1-10.9,1.5-16.4,1.2c-3.4-0.1-6.7-0.7-9.3-3.1c-0.6-0.8-1.1-1.7-1.4-2.6c1.4-0.5,2.5-0.9,3.6-1.2c3.3-1,6.8-1.7,10-3
		c8.7-3.7,17.3-7.6,26-11.5c1.5-0.7,3-1.4,4.4-2.3c2.2-1.4,2.5-3.1,0.8-5c-2.3-2.5-5-4.6-8.6-4.5c-2.8,0-5.6,0.3-8.4,0.8
		c-7.4,1.7-14.7,4.2-21.7,7.3c-4.3,1.9-8.3,4.4-11.1,8.3c-1.5,1.9-2.9,3.5-5.2,4.2c1.9,4.3,4.5,8.2,7.8,11.6c3.7,3.7,8.8,5.7,14,5.7
		c5,0.2,10-0.1,14.9-0.9c8.1-1.6,16.4-2.8,24.5-4.5c4.4-1.1,8.7-2.4,12.9-3.9c1.1-0.4,2.1-1.1,2.8-2c0.3-0.3,0.5-0.7,0.5-1.1v-0.1
		C632.3,273.2,631.5,272.2,630.4,272.1z M566,267.4c1.8-2.2,4.1-4,6.7-5.2c7.4-3.4,15.1-6,23-7.9c2-0.7,4.3-0.7,6.3,0.1
		c-2.5,2.8-7.3,5.5-14.4,8.5c-15.7,6.4-17.7,7-22.4,6.7C565.3,268.8,565.6,268.1,566,267.4z M825.8,234.9c-3.1-1.4-6.6-1.4-9.7,0
		c-4.6,2-9.1,4.2-13.4,6.7c-4.5,2.7-8.7,6.1-13.3,9.4c-1.6,0.2-3.6-2.3-5.5-0.3l-3.4,30.2c-0.9,0.5-1.8,1.1-2.7,1.7
		c-0.9,0.9-1.8,1.8-2.6,2.8c0.3,0.7,0.8,1.4,1.3,2c2,2.1,2.8,5,2.2,7.8c-0.7,3.8-0.8,7.6-1.4,11.4c-1.5,9.2-3.1,18.3-4.6,27.5
		c-0.4,2.4-0.5,4.9-0.4,7.4c0.2,3,2.1,3.8,5.3,2.6c0.2-3,0.3-5.9,0.6-8.9c0.6-5.2,1.2-10.5,1.9-15.8c1.1-8.7,2.2-17.5,3.2-26.2
		c0.1-1.7,1.2-3.1,2.8-3.7c4.9-2.1,9.4-4.9,13.4-8.4c5.9-5.3,11.8-10.7,17.3-16.5c4.2-4.1,7.6-8.9,10.1-14.1
		c1.5-3.2,2.3-6.6,2.5-10.1C829.6,238,828.1,235.7,825.8,234.9z M816.3,255.3c-7.5,10.2-16.7,19.1-27.2,26.2c-1.2,0.8-2.3,2-4.1,1.6
		c-0.2-0.4-0.6-0.8-0.5-1.2c1-5.6,1.9-11.2,3-16.7c0.3-1.3,0.9-2.4,1.8-3.4c3.2-3.8,6.6-7.4,10.2-10.9c5.7-5.2,12.8-8.3,20-10.9
		c0.6-0.2,1.3-0.3,2-0.2c0.6,0.1,1.1,0.4,1.6,0.7C821.9,245.9,819.6,250.9,816.3,255.3z M541.2,244.6c-0.9,1.3-1.9,2.6-2.8,4
		c-2.5,3.9-5.1,7.8-7.4,11.8c-4.5,7.8-8.8,15.7-13.1,23.5c-2.2,4-5.3,7.7-5.2,12.7c-1.9,0.3-3.9-0.4-5.1-1.9
		c-4.5-4.9-9.5-9.3-12.1-15.7c-1.9-4.8-3.7-9.6-5.5-14.4c-2.1-5.4-4.2-10.6-7.9-15.6c3.4-1.8,5.7-0.7,7.2,1.5
		c1.4,2.1,2.5,4.3,3.2,6.7c1.7,5,2.9,10.2,4.7,15.3c1.3,3.7,3.2,7.3,4.8,10.9c0.3,0.6,0.6,1.2,1,1.7c3.2,4.6,4.7,4.6,7.9-0.1
		c5.1-7.3,9.6-15.1,13.3-23.3c2.9-7,6.5-13.7,10.7-20C537.8,241,539.6,242.1,541.2,244.6z"/>
</g>
</svg>
