<?xml version="1.0" encoding="utf-8"?>
<!-- Generator: Adobe Illustrator 21.1.0, SVG Export Plug-In . SVG Version: 6.00 Build 0)  -->
<svg version="1.1" id="Layer_1" xmlns="http://www.w3.org/2000/svg" xmlns:xlink="http://www.w3.org/1999/xlink" x="0px" y="0px"
	 viewBox="0 0 915 363" style="enable-background:new 0 0 915 363;" xml:space="preserve">
<style type="text/css">
	.st0{fill:#FAEDE7;}
</style>
<path class="st0" d="M651.1,115.4c0.9,0,1.2,0.1,1.6,0.1c1.6,0,3.8-1.1,4,1.9c0.2,2.2,0.6,4.8-2.6,5.4c-2.6,0.5-3.4,2.4-3.4,4.9
	c-0.1,13.8-0.1,27.5-0.2,41.2c-0.1,7.8-0.5,15.6-0.2,23.4c0.4,11.2,1.5,22.4,1.6,33.6c0.1,11-0.6,22-0.9,33
	c-0.1,7,0.1,13.9,0.2,20.9c3.4,3.2,1.5,6.5,0.8,10.1c-0.8,3.4,0.4,7.2,0.5,10.9c0.3,11.1,0.5,22.2,0.8,33.2
	c0.1,5.3,0.2,10.4,0.5,15.6c0,0.6,0.9,1.2,1.4,1.6c3.5,2.2,4.4,5,2.1,7.4c-0.6,0.8-1.5,1.1-2.4,1.2c-12.2,0-24.5-0.1-36.8-0.2
	c-3.6,0-7.2-0.6-10.9-0.6c-2.5-0.1-5-0.3-5.8,3.2c-0.4,1.8-2,1.4-3.2,0.3c-2.9-2.2-4.5-6-4.1-9.6c0.2-2.9-0.5-4.5-3.8-4.6
	c-7.8-0.3-15.5-0.9-23.2-0.9c-13.6,0-27.2,0.3-40.9,0.5c-4.5,0-9.1,0-13.6,0c-10.6,0-21.4,0.4-32,0.2c-7.2-0.1-14.5-0.9-21.8-1
	c-9.1-0.3-18.2-0.1-27.4-0.3c-2.5,0-5-0.4-7.5-0.5c-6.6-0.3-13.2-0.4-19.9-0.5c-10.5-0.4-20.9-0.9-31.4-1.1
	c-10.8-0.2-21.6,0.1-32.4-0.1c-10.6-0.4-21.1-1.4-31.6-1.9c-4.4-0.1-8.8,0.5-13,0.6c-8.8,0.2-17.6,0.2-26.4,0.6
	c-1.5,0.2-2.9,0.8-4.2,1.4c-1.5,0.6-3,1.1-4.6,1.5c-2.4,0.2-3.6-0.5-3.2-3.4c0.5-4.7,0.5-9.5,0.9-14.2c0.5-5.9,1.8-11.7,1.9-17.6
	c0.3-15.6,0.4-31.1-0.1-46.8c-0.5-15-2.2-29.9-2.8-44.9c-0.4-12.6,0.3-25.4,0.3-38c0-8.8-0.1-17.5-0.5-26.1c-0.2-6,1.6-8.1,7.6-7.7
	c8.4,0.6,16.8,1.1,25.1,1.6c4.1,0.2,4.5-0.4,4.2-4.5c-1-17.4-1.7-34.8-2.9-52c-0.1-2.6-1.5-5.1-2-7.7c-0.3-1.2,0.2-3.6,0.8-3.8
	c2-0.5,3.6-3.1,6.2-1.6c1.1,0.5,2.2,0.9,3.5,0.8c8.1-0.2,16.1-0.9,24.2-1c2.9-0.1,5.8,0.5,8.6,0.6c3.8,0.1,7.6,0.1,11.4,0.2
	c3.4,0.1,6.8,0.6,10.1,0.9c4,0.2,8,0.6,12,0.9c2,0.1,1.9-1.5,1.6-2.9c-1.5-10.3-2.9-20.6-4.2-30.9c-1.2-9.3-2.2-18.5-3.4-27.9
	c-0.6-4.8-1-9.5-1.5-14.1c-0.1-2.7,0.9-4.1,3.8-4.1c0.9-0.1,1.6-0.5,2.4-0.9c1.4-0.8,2.6-2,4-2.1c3.8-0.1,7.4,0.2,11.1,0.4
	c3.1,0.2,6.1,0.6,9.2,0.8c7.5,0.1,15,0.1,22.4,0.3c4.5,0.1,9,0.5,13.5,0.6c4.9,0.1,9.6-0.3,14.5,0c7.5,0.2,14.9,0.6,22.4,1
	c10.8,0.5,21.5,1.5,32.2,1.6c6.1,0.1,12.2-1,18.4-1.3c6.1-0.2,12.2,0,18.2,0.1c7.6,0.1,15.2,0.2,22.8,0.5c5,0.1,10.1,0.5,15.1,0.6
	c5.9,0.1,11.9,0.1,17.8,0.2c7.1,0.2,14.3,0.6,21.5,0.9c9.4,0.4,18.8,0.9,28.2,1.1c3.5,0,7-0.4,10.5-1.1c3.2-0.5,5.1,0.5,5.1,3.9
	c-0.1,15.4-0.5,30.8-0.6,46.1c-0.1,9.5,0,19,0,28.4c0,8.9,0,17.6,0.1,26.5C650.8,111.6,651,113.4,651.1,115.4z M266.6,156.4
	c-0.6,14-1.5,27.1-1.5,40.1c0,13.1,0.8,26.4,1.5,39.5c0.3,6.5,1.4,13,1.5,19.5c0.2,13.4,0.1,26.9,0.1,40.2c0,2.1-0.8,4.6,2,6
	c0.4,0.1,0.5,1.2,0.4,1.8c-1.5,4-0.4,7.7,1.1,11.5c2.9,7,6.2,12.9,14.5,15.1c5.2,1.5,11.2,0,15.8,4.1c0.3,0.2,1-0.1,1.5,0l34.2,1.6
	c4,0.3,8.1,0.5,12.1,0.5c6.2,0,12.6-0.4,18.9-0.1c17.4,0.4,34.6,1,52,1.5c12.9,0.4,25.8,0.8,38.6,1.1c9,0.2,18,0.6,27.1,0.8
	c3.8,0,7.5-0.5,11.2-0.4c6.7,0.1,13.5,0.8,20.3,0.8c10.1,0.1,20.1-0.1,30.2-0.4c4.6-0.1,9.4-0.1,14-0.5c9.5-0.8,19.1-0.4,28.5,1.2
	c2.8,0.4,4.4,0.1,4.8-3c0.4-2.6,2.4-3.2,4.5-1.9c0.9,0.6,1.5,1.5,2.4,2.1c0.9,0.6,1.9,1.1,2.9,1.2c8.8-0.5,17.6-1.7,26.5-0.8
	c3.5,0.4,7.2-0.2,10.7,0c2.4,0.1,2.9-0.6,2.8-2.8c-0.3-5.9-0.1-11.6-0.4-17.5c-0.2-8.8-0.9-17.5-1.1-26.1c-0.1-3.2-1.8-3.6-4.5-3.5
	c-5.1,0.1-10.1,0.1-15.2-0.1c-3.9-0.2-4.5-1.2-3.8-5c0.2-1,0.2-2,0.2-3c-0.5-4.1-1.2-8.3-1.6-12.4c-0.6-5.5-1.1-11-1.5-16.5
	c-0.1-2,0.4-3.9,0.2-5.9c-0.2-4.2-0.7-8.5-0.9-12.7c-0.2-5.1-0.1-10.2-0.1-15.2c-0.2-15.8-0.6-31.6-0.5-47.4
	c0-10.4,1.1-20.8,1.1-31.1c0-5.4,1.2-11-1.1-16.4c-1.5-3.6-0.5-4.8,3.6-4.9c6.9-0.2,13.6-0.6,20.5-0.8c2.1,0,2.9-0.9,2.9-3
	c-0.1-3.1,0-6.2,0.2-9.4c0.1-2.4-0.8-3.1-3-3.2c-2.6-0.2-5.1-0.5-7.6-1c-3.6-0.6-7.1-1.6-10.6-2.1c-5.9-0.9-5.9-0.8-8.5,4.6
	c-0.1,0.2-0.4,0.5-0.5,0.9c-1.1,5.1-2.4,10.2-3.1,15.5c-0.4,2.1-0.9,3-3.2,2.9c-0.2-1-0.4-2.1-0.2-3.1c1.9-8.1,4-16.1,6-24.1
	c1.2-5,3.5-6.5,8.5-5.8c6.2,1.1,12.5,2.5,18.8,3.5c3.6,0.6,4,0.2,3.9-3.4c-0.2-9.1-0.5-18.2-0.8-27.4c0-1.5,0-3,0-4.4l-0.9-0.1
	c-0.1,4.2-4.6,7.4-2.6,12.2c0.2,0.7-1.4,2.5-2.4,3.5c-0.2,0.2-1.6-0.6-2.5-0.9c-1.6-0.5-3.2-0.9-5-1.2c-1.1-0.1-2.4-0.1-3.5,0
	c0-1.5,0.1-3,0.5-4.4c2.6-7.2,5.5-14.2,8.2-21.5c0.9-2.2,1.9-2.8,3.9-1.1c1.4,0.9,2.8,1.6,4.2,2.4c0.4-0.8,0.6-1,0.6-1.4
	c0-9-0.1-17.9-0.2-26.9c0-3.1-2-3.4-4.4-3.4c-5,0.2-9.9,0.6-14.9,0.4c-9.8-0.5-19.6-1.5-29.3-2.4c-0.5,2.4-0.7,4.1-1.1,5.8
	c-2.2,9.2-4.5,18.5-6.8,27.9c-1.9,8.4-4.1,16.6-5.6,25c-1.4,8.1-3.4,8,5.6,10.2c0.4,0.1,0.8,0.2,1.2,0.4c4.6,1.1,6.1,3.9,4.8,8.5
	c-3.1,9.8,0.5,17.9,9.5,22.9c0.9,0.5,0.9,2.6,1.4,3.9c-1.1,0.2-2.5,1.1-3.1,0.6c-6-3.2-10.4-9-11.9-15.8c-0.5-3-0.9-6-0.9-9
	c-0.1-2.8-2-3.5-4.3-4.1c-2.1-0.5-3.4-0.4-3.8,2.3c0,0.4-1.8,1-2.6,0.9c-4.8-0.4-6.6-3.5-5.6-9.8c0.7-3.4-0.3-7-2.6-9.5
	c-6-6.4-11.9-12.8-18.2-18.8c-4.4-4-9.4-7.2-14.1-10.8c-1.2-0.7-2.5-1.4-4-1.6c-4.1-1.5-8.2-2.8-12.2-4.2c-1.8-0.6-3.5-2-5.2-2.4
	c-3.1-0.6-6.4-0.8-9.6-1.1c-0.4,0-0.6-0.5-1-0.8c-1.6-0.9-3.4-1.6-5.2-2.4c-5.6-1.9-11.2-2.8-17-0.4c-0.4,0.1-0.9,0.1-1.2,0
	c-3.9-0.2-7.6-0.5-11.5-0.4c-4.5,0-8.9,0.5-13.2,1.6c-2.8,0.8-5.6,0.8-8.4,1.6c-3.4,1.1-6.5,3.1-9.9,4c-8,1.9-14.2,7.1-21,11.3
	c-3.1,1.9-5.8,4.6-9.4,5.6c-0.6,0.1-1.1,0.9-1.8,1.4c-4.7,4.3-9.7,8.2-14.2,12.8c-3.4,3.2-6.2,6.9-8.8,10.8
	c-1.4,2.3-2.1,4.2-5.4,4.5c1,1.1,2.1,2.1,3.2,2c6.5-0.8,12.4,1.9,18.3,3.9c2.4,1,4.4,2.6,6,4.6c1.5,2.1,2.8,4.4,3.6,6.9
	c0.2,0.9,0,1.8-0.5,2.5c-1.1,0.2-2.2,0-3.2-0.5c-0.9-0.6-1-2-1.6-3c-1.2-1.8-2.4-4.1-4.2-5.1c-2.9-1.8-6.1-3-9.5-3.5
	c-6.6-0.8-13.4,1-20-1c-0.1,0-0.2,0-0.2,0c-6.9-0.4-13.6-0.6-20.5-1c-6.6-0.4-13.2-1-19.9-1.1c-5.1-0.1-10.1,0.1-15.2,0.2
	c-3.6,0.1-7.4,0.4-11,0.6c-2.2,0.1-3,1.2-2.9,3.5c0.5,9.2,0.9,18.5,1.4,27.8c0.1,2.2,1.2,3.2,3.6,3.2c4,0,8.1,0.5,12.1,0.6
	c8,0.4,16.1,0.8,24.1,1.1c5.2,0.2,10.5,0.4,15.8,0.4c7.1,0,14.2-0.9,21.2,1.2c3.8,1.1,4.9,0,4.6-3.9c-0.1-1.2-0.1-2.5,0.1-3.8
	c0.2-0.9,1.2-2.4,1.6-2.4c2.2,0.5,3.1-1.4,4.6-2.2c1.5-1,3-1.9,4.6-2.5c5.5-2.3,11-4.4,16.6-6.2c1.2-0.2,2.6,0,3.8,0.6
	c0.4,0.7,0.4,1.8,0,2.5c-1,0.7-2,1.2-3.2,1.6c-0.4,0.1-1.1-0.2-1.5-0.1c-6.2,2.1-12.6,4-17.5,8.8c-0.9,0.9-2,1.6-3,2.4h-0.9
	c0.6,2.6,1.5,5.2,2.4,7.7c1.9,4.5,0.5,6.9-4.2,6.9c-2.9,0-5.8-0.8-8.6-0.9c-7.5-0.5-15.1-0.6-22.6-1.2c-8.5-0.8-16.9,2-25.4,0.2
	c-2.8-0.6-5.8,0.2-8.6,0c-6.1-0.6-12.2-1.9-18.6-0.6c0.6,6.8-1.1,13.5,3.2,19.5c0.6,1,0.8,2.2,0.4,3.2s-1.8,2.2-2.5,2.2
	c-7-0.4-14-1.1-21-1.8C276.6,156.9,271.5,156.8,266.6,156.4z M574.6,66.8c0.2-0.4,0.5-0.8,0.6-1.2c2.1-10.4,4.1-20.8,6.2-31.1
	c1.1-5.6,2.4-11.2,3.6-16.8c0.9-4.1,0.2-4.9-3.8-4.8c-2.4,0.1-4.9,0-7.2-0.1c-3.1-0.2-6.1-0.9-9.2-0.9c-7.6,0.1-15.4,0.6-23,0.9
	c-2.5,0.1-5,0-7.4,0c-4.5-0.1-8.9-0.5-13.4-0.5c-2.6,0-5.3,0.4-7.9,0.5c-2.6,0.1-5.3,0.2-7.9,0.2c-8.2,0-16.5,0.1-24.7-0.2
	c-9.5-0.4-18.9-1.1-28.4-1.6c-7.4-0.4-14.7-0.9-22-1.1c-5.9,0-11.9-1.1-17.8,0.9c-0.9,0.1-1.6,0.1-2.5,0c-4.1-0.4-8.3-0.9-12.4-1.4
	c-5.6-0.6-11.4,0.4-17-1.1c-0.5-0.1-1,0-1.5,0.1l-12.6,1.8l9,62.1c4.5-5.1,8.8-10.3,13.3-14.8c3.9-3.8,8.1-7.1,12.5-10.2
	c4.2-3.1,8.9-5.6,13.4-8.5c3.9-2.5,7.6-5.1,11.5-7.5c1.5-0.9,3.5-1,4.9-2c7-4.6,15.1-6.5,23-7.9c9.2-1.6,18.9-1.5,28.4-2
	c2.6-0.1,5.1,0,7.8,0.4c6.1,1.2,12.4,2.6,18.4,4.1c4.1,1.1,8,2.8,12.1,4.1c3.1,1,6.2,1.8,9.4,2.8c2.8,0.9,5.5,2,8,3.2
	c2.6,1.6,5.1,3.4,7.6,5.2c1.5,0.9,2.9,1.9,4.3,3C558,50.4,566.1,58.5,574.6,66.8z M642.3,150.1h0.6c0-7.8,0-15.4,0-23.1
	c0-2.5-0.9-3.6-3.5-3.4c-5,0.5-10,0.8-14.9,1.2c-2.2,0.2-3.5,1.2-3.5,3.8c0,6.4-0.4,12.6-0.6,19c-0.1,5.6-0.2,11.1-0.5,16.7
	c-0.2,8.6-1,17.4-0.9,26c0.1,11.4,0.9,22.9,1.2,34.2c0.1,2.6-0.4,5.2-0.2,7.8c0.5,9.6,1,19.2,1.8,28.8c0.5,6.1,1.6,12.1,2.4,18.2
	c0.2,1.8,1,2.4,2.9,2.4c4-0.2,8.1-0.1,12.1-0.1s4.2-0.1,4.1-4.2c-0.1-5.9-0.4-11.9-0.4-17.8c0.1-11.1,0.9-22.2,0.7-33.4
	c-0.1-13.8-1.1-27.4-1.5-41.1C642.1,173.6,642.3,161.9,642.3,150.1z M603.8,351c2.8,0.1,5.7,0.4,8.8,0.5c9.9,0.5,19.6,0.9,29.5,1.4
	c1.6,0.1,3-0.4,3-2.2c0-2.8-0.2-5.6-0.5-8.4c0,0-0.1,0-0.2-0.1c-2.6-0.4-5.4-0.6-8-0.6c-4.9,0.1-9.9,1.4-14.5,0.5
	c-4.1-0.8-7.8,0-11.6,0.4c-2.2,0.3-4.6,0.6-6.4,0.8L603.8,351L603.8,351z M284,334.8c-8.5-2.8-12.5-9.7-16.2-17.4
	c-1,5.2-1.6,10.5-2,15.8c0,0.5,1.1,1.6,1.8,1.6C272.8,334.8,278.5,334.8,284,334.8L284,334.8z M641.2,51.4c-0.6-0.6-1.4-1.6-2.2-1.9
	c-0.9-0.1-1.8,0.2-2.4,1c-2.2,4.1-4.4,8.2-6.2,12.5c-0.4,0.9,0.2,3.2,0.6,3.4c1.5,0.2,4.1,0.2,4.5-0.5
	C637.7,61.3,639.3,56.6,641.2,51.4z M470.1,279c-0.4-6.7-0.6-12.6-1-18.4c-0.1-2.1-0.5-4.4-0.9-6.5c-0.2-1.6-0.2-3,1.9-3.2
	c5.6-0.9,11.2-1.8,16.9-2.6c2-0.4,2.9,0.4,2.8,2.5c-0.1,4.5-0.3,8.9,0,13.4c0.1,2.9,1.1,5.6,1.6,8.5c0,0.9-0.2,1.8-0.6,2.5
	c-0.8-0.2-1.6-0.5-2.4-0.9c-0.8-0.4-1.9-1.2-2.6-1.1c-3.2,0.6-6.5,1.5-9.6,2.5c-0.9,0.2-1.4,1.5-2.1,2.4c0.9,0.5,1.9,1.4,2.8,1.4
	c6.4-0.6,12.9-1.2,19.2-2.1c6.6-1,13.3-2.3,19.9-3.4c2.9-0.6,5.8,0.8,7.1,3.4c1.5,2.5,0.5,4.6-2.5,5c-0.2,0-0.5-0.1-0.6,0
	c-6.8,4-14.6,2.6-21.9,4.1c-9,1.9-18.1,2.6-27.2,1.1c-4.5-0.9-9-2.5-13.1-4.6c-8-3.8-16-7.6-22.1-14.2c-5-5.4-9.8-11-14.1-16.9
	c-5.4-7-9.6-14.9-12.5-23.3c-4.4-13-7.4-26.1-2.9-40c1.7-5.4,1.9-11.4,3.9-16.6c4.4-11.4,8.4-22.9,15.9-33
	c5.9-7.9,12.2-15.2,20.4-20.6c6.1-4,13.1-7,19.9-10.1c11-5.4,23-7.5,34.9-10.1c1.8-0.4,3.8,0.1,5.6,0.1c6.9,0.2,13.9,0,20.7,0.7
	c8.9,0.9,17,4.3,22.6,11.1c3.1,3.8,4.2,9.2,6,14.1c0.3,0.8-0.9,2.1-1.2,3.1c-1.2-0.5-2.4-1.1-3.5-1.9c-0.6-0.8-1-1.6-1.1-2.5
	c-2-6.8-6.8-10.5-13.4-12c-4.6-1-9-2.5-13.6-3.1c-3.5-0.4-7-0.4-10.5-0.1c-3.4,0.1-6.9,0.4-10.2,0.6c-3.4,0.2-4.5,1.5-3.9,4.9
	c1.2,7.5,2.5,14.9,3.6,22.4c0.1,0.7-0.6,1.8-1,2.6c-0.6-0.5-1.6-0.9-1.9-1.5c-1.1-2.9-3-3.8-5.9-2.9c-2,0.6-4.2,0.9-6.2,1.5
	c-0.8,0.2-1.1,1.5-1.6,2.2l-1.9,2.9c-0.6-0.8-1.2-1.5-1.9-2.1c-1.8-1.8-0.8-3.6-0.8-5.6c-0.3-3.9-1.1-7.6-2.4-11.1
	c-0.6-1.9-1.5-3.4,0.2-5c0.4-0.2,0.3-1.1,0.4-1.6c-0.6-0.1-1.4-0.5-2-0.2c-15.4,5.7-29.9,13-40.4,26.2c-6.6,8.5-11.9,17.8-15.9,27.8
	c-3.1,7.6-5.3,15.5-6.5,23.6c-1,6-3.2,11.9-2.4,18.1c1.2,9.5,4.1,18.8,8.5,27.1c4.5,8.2,9.9,15.9,16.1,22.9
	c6.2,7.1,14.5,11.4,22.9,15.4C462.8,276.8,466.5,278,470.1,279z M473.1,271.8c4.4-1,8.2-1.6,12-2.6c1-0.5,1.8-1.4,1.9-2.5
	c0-3.9-0.4-7.6-0.6-11.5c-0.1-2.4-1.2-3.2-3.4-2.8c-2.9,0.6-5.8,1.1-8.5,1.9c-1,0.4-1.8,1.1-2,2
	C471.2,261.5,471.8,266.5,473.1,271.8z M494.2,112.8c-2.6,0.9-5.1,2-7.5,3.2c-2,1.2-5.8,1.9-3,5.8c0.2,0.2-0.3,1-0.4,1.5
	c-0.1,1.5-0.2,3.1-0.1,4.6c0,2.6,1.5,3.8,4,3.2c2.4-0.5,4.6-1.4,6.9-1.6c2.6-0.2,3.4-1.8,2.9-4C496.2,121.5,495.3,117.6,494.2,112.8
	z M585.2,213.1c-8.2-0.1-14.4-4.9-20-10.2c-2.6-2.5-5.1-4.9-6.5-8.5c-2.8-7.1,0.3-12.7,3.9-18.2c4.5-6.6,11.9-7.9,18.9-7.4
	c4.4,0.4,8.6,3.1,12.6,5.5c2.4,1.4,4,3.9,5.9,5.9c5.8,6.1,5.6,13.1,2.8,20.4C599.6,208.4,593.2,211.8,585.2,213.1z M598.3,188.9
	c-0.4-1.7-0.3-3.8-1.1-5c-3.5-5-9.1-7-14.6-8c-6.2-1.1-12.1,4-14,10.1c-0.3,0.9-1.8,2-2.5,1.9c-2.2-0.5-2.5,1-2.4,2.2
	c0.2,1.8,0.9,3.4,1.8,4.9c2.9,5.2,8.4,7.2,13.2,9.9c1.9,1,4,1.2,6,0.8C591.8,203.4,598.1,198.9,598.3,188.9L598.3,188.9z
	 M319.1,228.4c-1.1,3.3-2,6.6-2.8,10.1c-0.8,4.2-1.2,8.6-1.2,12.9c0,8.9,0.5,17.6,0.4,26.5c0,7.5-0.5,14.9-0.6,22.4
	c0,2,0.1,3.9-2.8,3.8c-3.1-0.1-4.6-1.8-4.4-4.4c0.4-3.9,1-7.8,1-11.8c0.1-5.4-0.1-10.8-0.1-16.2c-0.1-11.9-0.2-23.6-0.4-35.5
	c0-3.8,0.1-7.5,0.2-11.2c0.1-2.5,1.9-3.8,4.4-3.2C317.3,222.6,319.1,224.1,319.1,228.4z M322.3,168.9c-0.1,1.6-0.5,3.1-0.8,4.6
	c-0.4,1.4-1,3.8-1.6,3.8c-2.1,0-5,0-5.5-2.9c-0.4-2.4-0.2-4.8,0.3-7.1c1.4-6.5,3.1-7.1,9.7-6.1c4.4,0.5,8.8,0.6,13,0.5
	c10.2,0.1,20.5,0.1,30.8,0c4.1,0,8.2-0.5,12.4-0.5c0.9,0,2.4,0.8,2.4,1.2c0,1.9,0.2,4.4-0.9,5.4c-1.8,1.4-4,2.1-6.2,2.1
	c-6.4,0-12.9-0.6-19.2-0.8c-5.9-0.1-11.7,0.2-17.6,0.1C333.7,169.2,328.5,168.9,322.3,168.9z M361.8,248.6c0.2-1.5,0.8-4,1.2-6.5
	c1-6,9-10.4,13.4-9.8c5.3,0.8,10.1,3.3,13.8,7.1c3,3.1,5.8,6,6.1,10.8c0.3,4.4-1.5,8.8-4.9,11.6c-7.2,6.8-15.1,6.1-22.6,0.2
	C365,258.8,361.6,252.9,361.8,248.6z M390.3,248.2c-0.5-1.2-1.1-2.4-2-3.4c-2.1-2.1-4.2-5-6.9-5.8c-5.9-1.6-11.8,3.2-13,9.6
	c-0.9,4.5,1.2,8.9,5.6,10.2c2.2,0.5,4.6,0.6,7,0.4C385.1,259,390.5,253.1,390.3,248.2L390.3,248.2z M425.5,64.1
	c0-1.1,0.9-2.1,3.5-1.9c9.2,1.1,18.4,2.1,27.6,2.9c1.8,0.1,3.5-0.1,5.1-0.6c2.8-0.6,4.1,0.8,3.6,3.6c-0.4,2.4-0.6,4.9-1,7.2
	c-0.3,1.9-0.9,3.6-3.4,2.8c-5.4-2-11.1-2.6-16.9-2.1c-2.5,0.2-5,0.1-7.5-0.1c-2.9-0.4-4.6,1.1-6.4,3c-0.5,0.6-1.1,1-1.9,1.1
	c-0.4,0-1.1-1-1.1-1.6C426.7,74.1,426.1,69.6,425.5,64.1z M429.7,71c1.4-0.1,2.8-0.1,4.1,0c8,1.1,15.8,3.5,24,2.9
	c2.1-0.1,2.6-1,2.9-2.8c0.2-2-0.6-2.6-2.4-2.8c-0.9-0.1-1.8-0.5-2.8-0.6c-3.5-0.8-7.1-1.2-10.6-1.6c-3.9-0.2-7.8,0.5-11.6,0.2
	S428.7,66.9,429.7,71L429.7,71z M459.1,179.4c-0.4-0.8-0.9-1.5-1.1-2.2c-0.4-1-0.8-1.9-1.1-2.9c-1-2.7-2.5-4-5.5-2.6
	c-1.4,0.6-3,0.9-4.5,1.4c-0.9,0.4-2,0.9-2.2,1.5c-0.8,3.5-2.2,3.3-5,1.9c-2-1-1.9-2-1.6-3.6c0.4-1.2,0.5-2.5,0.2-3.8
	c-1.2-4.2-2.9-8.4-4.4-12.6c-0.6-1.6-0.6-2.6,1.2-3.5c3.9-1.9,7.5-4,11.2-6c3-1.6,6.5,0.4,7.5,4.2c1.4,5.5,2.6,10.9,4.1,16.4
	c0.8,2.4,1.8,4.6,2.9,6.9C462,176.6,461.5,178.9,459.1,179.4z M438.3,158.2c1,3.9,1.8,7.2,2.9,10.6c0.6,0.9,1.6,1.2,2.6,1.2
	c2.8-0.5,5.5-1.2,8-2.4c1.2-0.8,2-2,2.1-3.4c-0.8-3.6-1.7-7.3-3.1-10.8c-0.8-2.1-2.2-3.2-4.6-1.9c-2,1.1-4,2.1-5.8,3.5
	C439.6,156.1,438.8,157.1,438.3,158.2L438.3,158.2z M455.1,231.6c-0.5,0.6-0.8,1.6-1.4,1.9c-0.8,0.1-1.5-0.1-2-0.8
	c-1-2.2-2.8-1.9-4.4-1.2c-1.6,0.6-3.6,1.4-5.4,2.1c-1.4,0.6-2.5,1.1-2.1,3.2c0.4,2.3-0.8,3.1-3,2.1c-0.9-0.4-1.8-0.6-2.6-0.9
	c-2.1-0.5-2.4-1.9-1.1-3.1c1.5-1.6,1.2-3.2,0.2-4.9c-1.5-3-3.2-5.8-5.4-8.4c-2.1-2.4-1.2-3.8,0.9-4.9c3.4-1.9,6.8-3.6,10.3-5.4
	c0.6-0.2,1.2-0.6,1.9-1c4.1-3,4.6-2.9,6.2,2c1.2,3.6,2.2,7.4,3.6,11c0.9,2,2,4,3.1,6C454.2,229.9,454.6,230.6,455.1,231.6z
	 M448.1,224.8c-1.2-3.3-2.5-6.5-3.9-9.6c-0.5-0.6-1.4-1-2.2-1c-2.8,1.4-5.5,2.9-8.1,4.5c-0.8,0.6-1.1,1.5-1,2.5
	c1.1,3,2.4,5.9,3.9,8.8c0.2,0.5,1.8,0.8,2.6,0.8c1-0.1,2-0.5,2.9-1C444.6,228.6,447.1,227.8,448.1,224.8L448.1,224.8z M283.5,268.5
	c-0.8-2.3-1.4-4.6-1.9-6.9c-0.6-4.1-1-8.3-1.6-12.4c-0.3-2.3,0.5-3.1,2.8-3.5c3.4-0.4,6.8-1.1,10-1.7c0.8-0.2,1.5-0.6,2-1.2
	c1-1.1,1.9-2.2,3.6-1.1c1.6,0.9,2.4,2.8,1.6,4.5c-0.6,2.5-1.1,5-1.2,7.6c-0.1,1.5,0.8,2.9,1,4.4c0.4,1.6,0.5,3.2,0.5,4.9
	c0,1-0.5,1.9-1.4,2.5c-0.5,0.2-1.6-0.8-2.5-1c-1-0.4-2-0.5-3-0.4C290.3,265.5,287.3,267,283.5,268.5z M296,253.4
	c-0.1-6.7-0.1-6.7-6.5-4.8c-0.8,0.2-1.6,0.5-2.4,0.8c-3.1,1.2-4.2,5.4-2.8,10.1c1.1,3.6,3.6,1.9,5.6,1.4
	C297.2,259.3,295.8,260,296,253.4L296,253.4z M605.1,38.3c-0.5,0.8-1,1.8-1.6,2.6c-4,5.5-6.1,12.2-5.7,19c0,1.2-1,2.5-1.9,3.6
	c-0.1,0.1-1.6-0.9-2.5-1.2c-1.2-0.5-2.5-0.7-3.8-1.1c-0.8-0.3-1.9-0.1-2.1-0.6c-0.4-0.8-0.5-1.8-0.1-2.5c3.9-6.8,4.5-14.4,5.7-21.8
	c0-0.9,0.1-1.9,0.5-2.8c0.6-0.6,1.5-0.9,2.2-0.8c2,0.5,4,2,6,1.9C604.6,34.5,604.6,36.1,605.1,38.3z M599.2,39.1l-1-0.6
	c-1.2,1.2-3.1,2.4-3.6,3.9c-1.2,3.6-2.2,7.4-3,11.1c-0.2,0.9,0.2,2.8,0.9,3c1.8,0.7,2.5-0.5,3-2.1c1.1-4.4,2.5-8.8,3.6-13.2
	C599.3,40.5,599.3,39.8,599.2,39.1L599.2,39.1z M314.6,320.5c0-3.9,0-7.6,0-11.5c0-0.9,0.1-1.8,0.5-2.5c0.6-0.2,1.2-0.2,1.9,0.1
	c0.5,1,0.8,2,0.8,3.1c-0.1,2.6-1,5.2-0.9,7.9c0.2,4,1.1,8,1.6,12c0.3,1.1,0,2.4-0.6,3.2c-1.4,1.4-3,0.5-3-1.6c-0.1-3.5,0-7.1,0-10.6
	L314.6,320.5z M398.3,315.8c-1.1-1.6-2.1-2.4-2.2-3.5c-0.1-0.6,1-1.4,1.6-2.1c0.9,0.8,2.1,1.4,2.5,2.3
	C400.5,313,399.3,314,398.3,315.8z M350.6,248.9c0.8,1.4,1.8,2.2,1.5,2.8c-0.5,1-1.1,2-2,2.9c-0.8-0.8-2.1-1.6-2-2.2
	C348.3,251.1,349.5,250.2,350.6,248.9z M355.3,267.8c0.5,0.9,1.4,1.8,1.2,2.6c-0.1,0.8-1.2,1.5-1.9,2.1c-0.6-0.8-1.6-1.4-1.7-2.1
	c0-0.8,0.9-1.7,1.2-2.6H355.3z M412.5,312.5c0.9,1.1,1.8,1.9,1.6,2.4c-0.2,0.9-1.1,1.6-1.7,2.4c-0.8-0.6-2.1-1.4-2-1.8
	C410.5,314.5,411.5,313.8,412.5,312.5z M375,295c-1.1,0.9-2.4,1.6-3.8,2.2c-0.4,0.1-1.1-0.9-1.6-1.2c0.6-0.8,1.1-1.9,2-2.2
	C372.5,293.3,373.2,294.2,375,295z M385.2,302c0.8,1.2,1.6,2.2,1.5,2.6c-0.5,0.9-1.4,1.5-2.2,1.8c-0.4,0.1-1.7-1.4-1.6-1.5
	C383.5,303.8,384.2,303,385.2,302z M427,318.5c-0.5-0.8-1.2-1.6-1.4-2.4c0-0.5,1.2-1.6,1.8-1.5c0.9,0.2,2,1.1,2.1,1.9
	s-0.8,1.8-1.2,2.8L427,318.5z M365,283.2c-1.2,0.8-2,1.5-2.9,1.6c-0.5,0-1.6-1.2-1.5-1.6c0.2-0.9,1.1-1.5,1.8-2.2L365,283.2z"/>
</svg>
