<?xml version="1.0" encoding="utf-8"?>
<!-- Generator: Adobe Illustrator 21.1.0, SVG Export Plug-In . SVG Version: 6.00 Build 0)  -->
<svg version="1.1" id="Layer_1" xmlns="http://www.w3.org/2000/svg" xmlns:xlink="http://www.w3.org/1999/xlink" x="0px" y="0px"
	 viewBox="0 0 1170 167" style="enable-background:new 0 0 1170 167;" xml:space="preserve">
<style type="text/css">
	.st0{stroke:#000000;stroke-width:2;stroke-miterlimit:10;}
</style>
<g>
	<path class="st0" d="M659.6,90.2c-0.9,0.4-1.8,0.9-2.7,1.5c-2.6,2.1-5.1,4.2-7.7,6.4c-2.6,2.3-5.7,4.1-9.1,5.2
		c-3.1,1-6.4,0.8-9.3-0.5c-3.8-1.7-5.1-5.5-2.8-9c2.1-3.4,4.4-6.7,6.9-9.8c5-6,10.4-11.7,16.2-17c2-1.8,4-3.7,6.7-4.1
		c1.8-0.3,3.6-0.2,5.4,0.2c1.3,0.4,2.2,1.7,2,3.1c0.1,1.3-0.8,2.4-2,2.6c-4.6,0.1-7.6,3.3-10.8,5.8c-6.6,5.3-12.3,11.7-17,18.8
		c-0.5,0.8-1,1.7-1.4,2.6c-0.1,0.3-0.1,0.7,0,1c1.3,1.3,2.8,0.6,4-0.1c3.9-2.5,7.9-4.9,11.6-7.7c4.1-3.1,7.9-6.6,11.8-10.1
		c2.2-1.8,3.7-4.3,4.4-7.1c0.8-3.4,1.7-6.8,2.6-10.2l1.2-4.8c2.6-1.4,4.9-1,6.5,0.9s3.4,3.6,2.3,6.6c-1.1,3.7-2.8,7.2-5,10.3
		c-3.5,4.4-5.3,9.6-7,14.8c-4.4,13.1-8.7,26.2-13.1,39.3c-2,5.8-4,11.6-6,17.5c-0.5,1.6-1,3.2,0.1,4.8c1.5,2.1,1.3,4.6,0.7,6.8
		c-0.9,2.7-2,5.4-3.4,7.9c-0.5,1.2-2,1.8-3.2,1.2c-0.1,0-0.1-0.1-0.2-0.1c-2.2-0.8-3.8-2.3-3.7-4.8s0.5-4.9,1.2-7.3
		c3.3-10.1,6.8-20.1,10.2-30.2c3.6-10.9,7.2-21.7,10.7-32.6C660,91.5,659.7,91,659.6,90.2z"/>
	<path class="st0" d="M344.5,116.2c-5.3,0.9-7.2-0.6-6.9-4.8c0.3-4.5,0.7-8.9,1.1-13.4c0.1-1.5,0.5-3-0.5-4.3
		c-1.5-0.9-2.6,0.1-3.6,0.8c-3,2.4-6,4.7-8.8,7.3c-4.6,4.3-9.1,8.8-13.6,13.2c-2,2-4.1,3.9-6.2,5.7c-1.8,1.6-4.4,1.9-6.5,0.7
		c-2.4-1.4-3.6-2.8-3.1-6.1c1.9-12.4,7-24.1,14.8-34c6.1-7.7,12.6-15.1,19.2-22.3c2-2.2,4.8-3.6,7.8-3.9c3.4-0.4,3.7-0.7,3.9-3.9
		s0.3-6.3,0.5-9.5c0.3-4.6,0.8-9.3,1-13.9c0.2-6.8,0.2-13.6,0.3-20.5c0-1.3,0.1-2.7,0-4c-0.2-2.7,1.9-3.4,4-2.7
		c2.6,0.8,3.5,2.1,3.2,4.9c-0.3,2.3-0.8,4.6-1.2,6.9c-1.5,9.9-1.9,19.9-2.5,29.9c-0.6,10.5-1.3,20.9-2,31.4
		c-0.6,8.8-1.5,17.6-2.1,26.4c0,2.8,0.1,5.6,0.5,8.4C343.9,111,344.2,113.5,344.5,116.2z M339.3,86.8c0.8-5.7,1.7-11.1,2.3-16.5
		c0.1-1.7,0-3.4-0.3-5c-0.6-3.2-3.3-4.2-5.9-2.1c-9.4,7.7-17.6,16.8-24.2,27c-4.1,6.5-6.9,13.7-8.3,21.2c-0.2,0.8,0.3,1.7,0.6,3.1
		l30.8-26.9L339.3,86.8z"/>
	<path class="st0" d="M382.4,81.9c2.7-2.5,4.7-0.3,6.8-0.7c10.5-10.5,23.7-16.2,37.6-20.5c4.4-1.4,9.1-1,13.1,1.3
		c1,0.6,1.9,1.3,2.7,2.1c1.6,1.8,1.3,3.7-0.8,5c-2.5,1.6-5.2,2.9-7.9,4.1c-8.5,3.4-17,6.8-25.5,10c-3.4,1.3-7,2.2-10.4,3.3
		c-2.8,0.9-3.4,1.9-2.8,4.8c0.9,4.7,4.7,8.4,9.4,9.1c2.3,0.4,4.7,0.5,7,0.4c4.8-0.2,9.6-0.5,14.4-1.1c6.9-1,13.8-2.3,20.6-3.6
		c3.6-0.5,7.1-1.9,10.2-3.9c1.6-1.3,4-1.2,5.5,0.2c1.3,0.8,1.7,2.5,0.9,3.8l0,0c-0.2,0.3-0.5,0.6-0.8,0.8c-0.8,0.6-1.7,1.1-2.6,1.4
		c-2.3,0.8-4.7,1.6-7.2,2.2c-13.3,3-26.8,5.5-40.4,5.8c-10.9,0.2-18.5-3.7-23.1-15.4c-0.7-2.2-2-4.2-3.7-5.7
		C384.3,84.3,383.3,83.1,382.4,81.9z M432.7,66.6c-3.3-1.3-5.4-0.3-7.3,0.4c-7,2.6-14,5-20.1,9.6c0.5,0.4,0.8,0.8,1,0.8
		c7.6-2.8,15.2-5.7,22.8-8.6C430.4,68.1,431.6,67.4,432.7,66.6z"/>
	<path class="st0" d="M93.1,105.2c1.7-1.4,3.2-0.2,4.6,0.5c5.4,2.7,11,2.5,16.5,0.8c2.5-0.8,4.9-1.9,7.2-3.3
		c6.9-4.1,12.7-9.9,16.7-16.8c1.1-1.9,1.9-3.9,2.4-6c0.9-3.6-0.1-5.8-3.4-7.3c-1.9-1-4-1.6-6.2-1.8c-8.7-0.4-17.3,0.5-25.1,5.3
		l0.4,3.5c-3.2,0.1-6.2,0.1-8.9-1.4c-0.9-0.5-1.8-0.7-2.8-0.8c-2.5-0.2-3.8-1.8-4.9-3.8c-0.6-0.9-0.3-2.2,0.6-2.8
		c0.2-0.2,0.5-0.3,0.8-0.3c1.5-0.2,3-0.1,4.4,0.3c1.6,0.4,3.3,0.3,4.8-0.4c6.8-2.7,13.1-6.6,18.6-11.5c2.6-2.1,4.8-4.5,5.6-7.9
		c-0.8-1.6-2.2-1.5-3.5-1.5c-7.3-0.1-14.6,1.2-21.5,3.8c-3,1.1-5.8,2.4-8.8,3.6c-3.7,1.4-4.8,1-7.6-2.9c0.7-0.8,1.6-1.5,2.5-2
		c8-2.9,16-5.6,24.6-6.4c3.8-0.4,7.6-1,11.4-0.3c2.5,0.4,4.8,1.5,6.7,3.1c2.7,2.3,3.3,4.9,1.3,7.9c-1.5,2-3.1,3.9-4.9,5.6l-2,2.3
		c2.2,1.4,4.5,1.1,6.6,1.4c6,0.9,11.1,3.2,15,8c2.7,3.4,3.9,7.1,1.9,11.1c-1.6,3.5-3.6,6.8-5.9,9.8c-4.7,5.9-10.6,10.7-17.2,14.2
		c-9.5,4.8-18.9,4.6-28-1C93.7,107.6,92.5,106.9,93.1,105.2z"/>
	<path class="st0" d="M0,89.8c-0.1-4.8,0.8-9.5,2.6-13.9C5,69,8.5,62.5,12.8,56.6c1.6-1.9,3.3-3.8,5.1-5.5c1.2-1.2,2.8-1.8,4.5-1.6
		c1.7-0.1,3.3-0.4,4.9-0.9c2.7-0.7,5.4-1.6,8.1-2.3c5.9-1.4,12.1-0.7,17.5,1.9c4.9,2.2,8.8,6.1,10.9,11.1c1.6,3.3,1.6,7.2,0.1,10.6
		c-2.3,5.5-5.5,10.7-9.3,15.3c-6,7.6-13,14.3-20.9,19.9c-4.9,3.5-10.9,5.3-16.9,5c-3.2-0.1-6.2-1.3-8.6-3.4
		C3.1,102.6,0.1,96.4,0,89.8z M18.2,105.2c3.8-0.3,7.5-1.7,10.5-4c9.6-6.6,17.9-14.9,24.6-24.4c2.2-3.3,4.1-6.9,5.5-10.6
		c2.2-5.9-0.6-11.8-6.4-14.3c-3.5-1.5-7.4-2-11.1-1.2c-5.3,0.9-10.4,2.1-14.9,5.1c-2.1,1.5-4.9,2.8-5.5,5.5c-0.8,3.1-4.3,3-5.5,5.4
		c-0.1,0.2-0.2,0.3-0.3,0.4c-3.6,6-6.3,12.5-7.8,19.3c-1.1,4.8-0.5,9.8,1.8,14.1C10.7,103.8,13.2,105.3,18.2,105.2L18.2,105.2z"/>
	<path class="st0" d="M719.1,94.4c-0.3,3.5-0.5,6.5-0.8,9.5c0,0.8-0.2,1.7-0.6,2.4c-0.5,0.9-1.6,1.3-2.6,0.9l0,0
		c-2.1-0.8-3.3-3-3-5.2c0.8-10.1,2.2-20.2,2.2-30.3c0-3.8,0.2-7.7,0.3-11.5c0.1-0.6,0.2-1.2,0.3-1.7c1.5-1.3,3.1-1.3,4.3-0.2
		c1,0.8,1.7,1.9,2,3.2c0.1,2,0,4-0.4,5.9c-0.3,1.6-0.8,3.2-0.1,5.1c2.8-0.3,3.6-2.5,4.2-4.4c2.3-6.8,7-12.1,11.6-17.2
		c3.9-4.3,9.6-4,13.6,0.1c1.9,2,2.7,4.7,2.1,7.4c-0.8,5.9-1.6,11.9-2.5,17.8c-1.2,7.9-2.7,15.7-3.8,23.6c-0.4,2.4,0,5-0.2,7.5
		c-0.1,0.9-0.6,2.2-1.2,2.4c-1,0.1-1.9-0.2-2.6-0.9c-1.6-1.3-2.4-3.3-2-5.3c1.1-7.6,2.4-15.1,3.4-22.7s1.7-15.5,2.5-23.3
		c0.1-0.7,0-1.3-0.1-2c-0.2-1-1.1-1.7-2.1-1.5l0,0c-0.2,0-0.4,0.1-0.6,0.2c-0.7,0.4-1.4,0.9-2,1.5c-1.6,1.7-3.2,3.4-4.6,5.3
		c-6,8.5-10.8,17.6-13,27.8C722.8,91.4,721.8,93.4,719.1,94.4z"/>
	<path class="st0" d="M495.3,70c1-0.6,2.2-1,3.3-1.3c7.3-1.3,13.9-4.5,20.4-7.9c3.7-2,7.5-3.6,11.8-3.4c1.5,0.1,2.9,0.5,4.3,1.1
		c1.1,0.5,1.8,1.7,1.5,2.9c-0.1,1.2-1.2,2-2.4,1.9l0,0H534c-5.5-0.6-10,2-14.6,4.4c-2,1.1-4.1,2-7.1,3.5c1.8,0.5,2.5,0.9,3.1,0.8
		c7.9-0.8,15.6,0.7,23.2,2.6c3.6,0.9,6.9,2.6,9.8,4.8c3.8,2.9,4,5.7,0.9,9.2c-3.3,3.7-7.6,6-12,8c-4.1,1.9-8.5,2.9-13,3.1
		c-8.7,0.2-17.3,0.2-26,0.4c-3.6,0.1-6-1.3-7.5-4.9c1.3-2.8,3.8-3.2,6.5-3.5c0.9,1,1.5,2.4,2.6,2.9c1.2,0.5,2.6,0.7,3.9,0.6
		c6.5-0.2,13-0.2,19.4-0.8c6.9-0.5,12.7-3.8,17.8-8.3c0.9-0.9,1.7-1.9,2.3-3c-0.9-2.3-2.8-2.6-4.5-3.1c-7.2-2.4-14.7-2.5-22.2-2.4
		c-3.2,0.1-6.3,0.1-9.5,0c-1.7-0.1-3.3-0.3-5-0.5C498.4,76.4,496.2,74.1,495.3,70z"/>
	<path class="st0" d="M591,52.8c4.3-0.4,5.6,0.7,5.6,4.2c0,0.7-0.1,1.3-0.2,2c-1.6,9.5-1.3,19.2-2.3,28.8c-0.5,4.4-0.3,8.9,0.6,13.3
		c0.2,0.7-0.1,2-0.5,2.2c-0.9,0.4-1.8,0.4-2.7,0.1c-1-0.6-1.8-1.5-2.2-2.6c-0.5-1.2-0.7-2.6-0.5-3.9c1.5-7.9,0.3-15.9,0.7-23.8
		c0.3-5.7,0.5-11.3,0.8-17C590.6,55,590.8,53.9,591,52.8z"/>
	<path class="st0" d="M588,29c1.7,0.8,3.5,1.6,5.1,2.5c1,0.5,1.3,1.7,0.8,2.7c0,0.1,0,0.1-0.1,0.1l-0.1,0.2c-0.5,1-1.7,1.4-2.7,0.9
		l0,0c-0.1-0.1-0.2-0.1-0.3-0.2c-1.1-0.7-2-1.6-2.7-2.6C587.7,31.9,588,30.8,588,29z"/>
</g>
</svg>
