<?xml version="1.0" encoding="utf-8"?>
<!-- Generator: Adobe Illustrator 21.1.0, SVG Export Plug-In . SVG Version: 6.00 Build 0)  -->
<svg version="1.1" id="Layer_1" xmlns="http://www.w3.org/2000/svg" xmlns:xlink="http://www.w3.org/1999/xlink" x="0px" y="0px"
	 viewBox="0 0 1170 555" style="enable-background:new 0 0 1170 555;" xml:space="preserve">
<style type="text/css">
	.st0{fill:#FAEDE7;}
</style>
<title>3-design</title>
<path class="st0" d="M880.4,176.8c1.4,0,1.8,0.1,2.4,0.1c2.4,0,5.8-1.7,6.1,2.9c0.3,3.4,0.9,7.3-4,8.2c-4,0.8-5.2,3.7-5.2,7.5
	c-0.2,21-0.2,41.9-0.3,62.8c-0.2,11.9-0.8,23.8-0.3,35.6c0.6,17.1,2.3,34.1,2.4,51.2c0.2,16.8-0.9,33.5-1.4,50.3
	c-0.2,10.7,0.2,21.2,0.3,31.8c5.2,4.9,2.3,9.9,1.2,15.4c-1.2,5.2,0.6,11,0.8,16.6c0.5,16.9,0.8,33.8,1.2,50.6
	c0.2,8.1,0.3,15.8,0.8,23.8c0,0.9,1.4,1.8,2.1,2.4c5.3,3.3,6.7,7.6,3.2,11.3c-0.9,1.1-2.2,1.8-3.7,1.8c-18.6,0-37.3-0.2-56.1-0.3
	c-5.5,0-11-0.9-16.6-0.9c-3.8-0.2-7.6-0.5-8.8,4.9c-0.6,2.7-3,2.1-4.9,0.5c-4.5-3.5-6.8-9-6.2-14.6c0.3-4.4-0.8-6.9-5.8-7
	c-11.9-0.5-23.6-1.4-35.3-1.4c-20.7,0-41.4,0.5-62.3,0.8h-20.7c-16.2,0-32.6,0.6-48.8,0.3c-11-0.2-22.1-1.4-33.2-1.5
	c-13.9-0.5-27.7-0.2-41.8-0.5c-3.8,0-7.6-0.6-11.4-0.8c-10.1-0.5-20.1-0.6-30.3-0.8c-16-0.6-31.8-1.4-47.8-1.7
	c-16.5-0.3-32.9,0.2-49.4-0.2c-16.1-0.6-32.1-2.1-48.1-2.9c-6.7-0.2-13.4,0.8-19.8,0.9c-13.4,0.3-26.8,0.3-40.2,0.9
	c-2.2,0.4-4.4,1.1-6.4,2.1c-2.3,0.9-4.6,1.7-7,2.3c-3.7,0.3-5.5-0.8-4.9-5.2c0.8-7.2,0.8-14.5,1.4-21.6c0.8-9,2.7-17.8,2.9-26.8
	c0.5-23.8,0.6-47.4-0.1-71.3c-0.8-22.9-3.4-45.6-4.3-68.4c-0.6-19.2,0.5-38.7,0.5-57.9c0-13.4-0.1-26.7-0.8-39.8
	c-0.3-9.1,2.4-12.3,11.6-11.7c12.8,0.9,25.6,1.7,38.2,2.4c6.2,0.3,6.9-0.6,6.4-6.9c-1.5-26.5-2.6-53-4.4-79.2c-0.1-4-2.3-7.8-3-11.7
	c-0.5-1.8,0.3-5.5,1.2-5.8c3-0.8,5.5-4.7,9.5-2.4c1.6,0.9,3.5,1.3,5.3,1.2c12.3-0.3,24.5-1.4,36.9-1.5c4.4-0.2,8.8,0.8,13.1,0.9
	c5.8,0.2,11.6,0.2,17.4,0.3c5.2,0.2,10.4,0.9,15.4,1.4c6.1,0.3,12.2,0.9,18.3,1.4c3,0.2,2.9-2.3,2.4-4.4
	c-2.3-15.7-4.4-31.4-6.4-47.1c-1.9-14.2-3.4-28.2-5.2-42.5c-0.9-7.3-1.5-14.5-2.3-21.5c-0.1-4.1,1.4-6.3,5.8-6.3
	c1.3-0.2,2.5-0.7,3.7-1.4c2.1-1.2,4-3,6.1-3.2c5.8-0.2,11.3,0.3,16.9,0.6c4.7,0.3,9.3,0.9,14,1.2c11.4,0.2,22.9,0.2,34.1,0.5
	c6.9,0.2,13.7,0.8,20.6,0.9c7.5,0.2,14.6-0.5,22.1,0c11.4,0.3,22.7,0.9,34.1,1.5c16.5,0.8,32.8,2.3,49.1,2.4c9.3,0.2,18.6-1.5,28-2
	c9.3-0.3,18.6,0,27.7,0.2C707.8,5.8,719.4,6,731,6.4c7.6,0.2,15.4,0.8,23,0.9c9,0.2,18.1,0.2,27.1,0.3c10.8,0.3,21.8,0.9,32.8,1.4
	c14.3,0.6,28.6,1.4,43,1.7c5.4,0,10.7-0.6,16-1.7c4.9-0.8,7.8,0.8,7.8,5.9c-0.2,23.5-0.8,46.9-0.9,70.2c-0.2,14.5,0,29,0,43.3
	c0,13.6,0,26.8,0.2,40.4C879.9,171,880.2,173.7,880.4,176.8z M294.5,239.2c-0.9,21.3-2.3,41.3-2.3,61.1c0,20,1.2,40.2,2.3,60.2
	c0.5,9.9,2.1,19.8,2.3,29.7c0.3,20.4,0.1,41,0.1,61.2c0,3.2-1.2,7,3,9.1c0.6,0.1,0.8,1.8,0.6,2.7c-2.3,6.1-0.6,11.7,1.7,17.5
	c4.4,10.7,9.5,19.6,22.1,23c7.9,2.3,17.1,0,24.1,6.2c0.5,0.3,1.5-0.1,2.3,0l52.1,2.4c6.1,0.5,12.3,0.8,18.4,0.8
	c9.5,0,19.2-0.6,28.8-0.2c26.5,0.6,52.7,1.5,79.2,2.3c19.7,0.6,39.3,1.2,58.8,1.7c13.7,0.3,27.4,0.9,41.3,1.2
	c5.8,0,11.4-0.8,17.1-0.6c10.2,0.2,20.6,1.2,30.9,1.2c15.4,0.2,30.6-0.2,46-0.6c7-0.2,14.3-0.2,21.3-0.8c14.5-1.2,29.1-0.6,43.5,1.8
	c4.3,0.6,6.7,0.2,7.3-4.6c0.6-4,3.7-4.9,6.9-2.9c1.4,0.9,2.3,2.3,3.7,3.2c1.3,1,2.8,1.6,4.4,1.8c13.4-0.8,26.8-2.6,40.4-1.2
	c5.3,0.6,11-0.3,16.3,0c3.7,0.2,4.4-0.9,4.3-4.3c-0.5-9-0.2-17.7-0.6-26.7c-0.3-13.4-1.4-26.7-1.7-39.8c-0.2-4.9-2.7-5.5-6.9-5.3
	c-7.8,0.1-15.4,0.1-23.2-0.1c-5.9-0.3-6.9-1.8-5.8-7.6c0.3-1.5,0.4-3,0.3-4.6c-0.8-6.2-1.8-12.6-2.4-18.9
	c-0.9-8.4-1.7-16.8-2.3-25.1c-0.2-3,0.6-5.9,0.3-9c-0.3-6.4-1.1-13-1.4-19.4c-0.3-7.8-0.2-15.5-0.2-23.2
	c-0.3-24.1-0.9-48.1-0.8-72.2c0-15.9,1.7-31.7,1.7-47.4c0-8.2,1.8-16.8-1.7-25c-2.3-5.5-0.8-7.3,5.5-7.5c10.5-0.3,20.7-0.9,31.2-1.2
	c3.2,0,4.4-1.4,4.4-4.6c-0.2-4.7,0-9.4,0.3-14.3c0.2-3.7-1.2-4.7-4.6-4.9c-3.9-0.3-7.7-0.8-11.5-1.5c-5.5-0.9-10.8-2.4-16.2-3.2
	c-9-1.4-9-1.2-13,7c-0.3,0.4-0.6,0.9-0.8,1.4c-1.7,7.8-3.7,15.5-4.7,23.6c-0.6,3.2-1.4,4.6-4.9,4.4c-0.4-1.5-0.5-3.1-0.3-4.7
	c2.9-12.3,6.1-24.5,9.1-36.7c1.8-7.6,5.3-9.9,13-8.8c9.5,1.7,19,3.8,28.6,5.3c5.5,0.9,6.1,0.3,5.9-5.2c-0.3-13.9-0.8-27.7-1.2-41.7
	V88l-1.4-0.2c-0.2,6.4-7,11.3-4,18.6c0.3,1.1-2.1,3.8-3.7,5.3c-0.3,0.3-2.4-0.9-3.8-1.4c-2.5-0.8-5-1.4-7.6-1.8
	c-1.8-0.2-3.6-0.2-5.3,0c-0.1-2.3,0.2-4.5,0.8-6.7c4-11,8.4-21.6,12.5-32.8c1.4-3.3,2.9-4.3,5.9-1.7c2.1,1.4,4.3,2.4,6.4,3.7
	c0.6-1.2,0.9-1.5,0.9-2.1c0-13.7-0.2-27.3-0.3-41c0-4.7-3-5.2-6.7-5.2c-7.6,0.3-15.1,0.9-22.7,0.6c-14.9-0.8-29.9-2.3-44.6-3.7
	c-0.8,3.7-1.1,6.2-1.7,8.8c-3.3,14-6.9,28.2-10.4,42.5c-2.9,12.8-6.2,25.3-8.5,38.1c-2.1,12.3-5.2,12.2,8.5,15.5
	c0.6,0.1,1.2,0.3,1.8,0.6c7,1.7,9.3,5.9,7.3,13c-4.7,14.9,0.8,27.3,14.5,34.9c1.4,0.8,1.4,4,2.1,5.9c-1.7,0.3-3.8,1.7-4.7,0.9
	c-9.2-5-15.8-13.9-18-24.2c-0.8-4.5-1.3-9.1-1.4-13.7c-0.2-4.3-3-5.3-6.5-6.2c-3.2-0.8-5.2-0.6-5.8,3.5c0,0.6-2.7,1.5-4,1.4
	c-7.3-0.6-10.1-5.3-8.5-14.9c1-5.2-0.4-10.6-4-14.5c-9.1-9.8-18.1-19.5-27.7-28.6c-6.7-6.1-14.3-11-21.5-16.5
	c-1.8-1.2-3.9-2-6.1-2.4c-6.2-2.3-12.5-4.3-18.6-6.4c-2.7-0.9-5.3-3-7.9-3.7c-4.7-0.9-9.8-1.2-14.6-1.7c-0.6,0-0.9-0.8-1.5-1.2
	c-2.4-1.4-5.2-2.4-7.9-3.7c-8.5-2.9-17.1-4.3-25.9-0.6c-0.6,0.2-1.2,0.2-1.8,0c-5.9-0.3-11.6-0.8-17.5-0.6c-6.8,0-13.5,0.8-20.1,2.4
	c-4.3,1.2-8.5,1.2-12.8,2.4c-5.2,1.7-9.9,4.7-15.1,6.1c-12.2,2.9-21.6,10.8-32,17.2c-4.7,2.9-8.8,7-14.3,8.5
	c-0.9,0.2-1.7,1.4-2.7,2.1c-7.2,6.6-14.8,12.5-21.6,19.5c-5.1,5-9.6,10.5-13.4,16.4c-2.1,3.5-3.2,6.4-8.2,6.9c1.5,1.7,3.2,3.2,4.9,3
	c9.9-1.2,18.9,2.9,27.9,5.9c3.6,1.5,6.7,3.9,9.1,7c2.4,3.2,4.2,6.7,5.5,10.5c0.3,1.3,0,2.7-0.8,3.8c-1.7,0.3-3.4,0-4.9-0.8
	c-1.4-0.9-1.5-3-2.4-4.6c-1.8-2.7-3.7-6.2-6.4-7.8c-4.4-2.8-9.3-4.6-14.5-5.3c-10.1-1.2-20.4,1.5-30.5-1.5h-0.3
	c-10.5-0.6-20.7-0.9-31.2-1.5c-10.1-0.6-20.1-1.5-30.3-1.7c-7.8-0.1-15.4,0.1-23.2,0.3c-5.5,0.1-11.3,0.6-16.8,0.9
	c-3.4,0.1-4.6,1.8-4.4,5.3c0.8,14,1.4,28.2,2.1,42.4c0.1,3.4,1.8,4.9,5.5,4.9c6.1,0,12.3,0.8,18.4,0.9c12.2,0.6,24.5,1.2,36.7,1.7
	c7.9,0.3,16,0.6,24.1,0.6c10.8,0,21.6-1.4,32.3,1.8c5.8,1.7,7.5,0,7-5.9c-0.2-1.9-0.1-3.9,0.1-5.8c0.3-1.4,1.8-3.7,2.4-3.7
	c3.4,0.8,4.7-2.1,7-3.4c2.2-1.5,4.5-2.8,7-3.8c8.4-3.5,16.8-6.7,25.3-9.4c2-0.3,4,0,5.8,0.9c0.6,1.2,0.6,2.6,0,3.8
	c-1.5,1.1-3.1,1.9-4.9,2.4c-0.6,0.1-1.7-0.3-2.3-0.1c-9.5,3.2-19.2,6.1-26.7,13.4c-1.5,1.3-3,2.5-4.6,3.7h-1.4c1,4,2.2,7.9,3.7,11.7
	c2.9,6.9,0.8,10.5-6.4,10.5c-4.4,0-8.8-1.2-13.1-1.4c-11.4-0.8-23-0.9-34.4-1.8c-13-1.2-25.8,3-38.7,0.3c-4.3-0.9-8.8,0.3-13.1,0
	c-9.3-0.9-18.6-2.9-28.3-0.9c0.9,10.4-1.7,20.6,4.9,29.7c0.9,1.4,1.2,3.2,0.6,4.9c-0.6,1.5-2.7,3.4-3.8,3.4
	c-10.7-0.6-21.3-1.7-32-2.7C310.6,239.9,302.5,239.9,294.5,239.2z M763.8,102.7c0.4-0.6,0.7-1.2,0.9-1.8c3.2-15.8,6.2-31.7,9.5-47.4
	c1.7-8.5,3.7-17.1,5.5-25.6c1.4-6.2,0.3-7.5-5.8-7.3c-3.7,0.1-7.5,0-11-0.1c-4.7-0.3-9.3-1.4-14-1.4c-11.6,0.1-23.5,0.9-35,1.4
	c-3.8,0.1-7.6,0-11.3,0c-6.9-0.1-13.6-0.8-20.4-0.8c-4,0-8.1,0.6-12,0.8s-8.1,0.3-12,0.3c-12.5,0-25.1,0.1-37.6-0.3
	c-14.5-0.6-28.8-1.7-43.3-2.4c-11.3-0.6-22.4-1.4-33.5-1.7c-9,0-18.1-1.7-27.1,1.4c-1.3,0.2-2.5,0.2-3.8,0
	c-6.2-0.6-12.6-1.4-18.9-2.1c-8.5-0.9-17.4,0.6-25.9-1.7c-0.8-0.1-1.5-0.1-2.3,0.1l-19.2,2.7l13.7,94.6c6.9-7.8,13.4-15.7,20.3-22.6
	c5.9-5.7,12.3-10.9,19-15.5c6.4-4.7,13.6-8.5,20.4-13c5.9-3.8,11.6-7.8,17.5-11.4c2.3-1.4,5.3-1.5,7.5-3c10.7-7,23-9.9,35-12
	c14-2.4,28.8-2.3,43.3-3c4-0.2,7.9,0,11.9,0.6c9.3,1.8,18.9,4,28,6.2c6.2,1.7,12.2,4.3,18.4,6.2c4.7,1.5,9.5,2.7,14.3,4.3
	c4.2,1.3,8.2,3,12.2,4.9c4,2.4,7.8,5.2,11.6,7.9c2.3,1.4,4.5,2.8,6.6,4.5C738.5,77.7,750.8,90.1,763.8,102.7z M867,229.6h0.9v-35.2
	c0-3.8-1.4-5.5-5.3-5.2c-7.6,0.8-15.2,1.2-22.7,1.8c-3.3,0.3-5.3,1.8-5.3,5.8c0,9.8-0.6,19.2-0.9,28.9c-0.2,8.5-0.3,16.9-0.8,25.4
	c-0.3,13.1-1.5,26.5-1.4,39.6c0.2,17.4,1.4,34.9,1.8,52.1c0.2,4-0.6,7.9-0.3,11.9c0.8,14.6,1.5,29.2,2.7,43.9
	c0.8,9.3,2.4,18.4,3.7,27.7c0.3,2.7,1.5,3.7,4.4,3.7c6.1-0.3,12.3-0.1,18.4-0.1s6.4-0.1,6.2-6.4c-0.2-9-0.6-18.1-0.6-27.1
	c0.2-16.9,1.4-33.8,1.1-50.9c-0.2-21-1.7-41.8-2.3-62.6C866.6,265.4,867,247.6,867,229.6z M808.3,535.7c4.3,0.2,8.7,0.6,13.4,0.8
	c15.1,0.8,29.9,1.4,45,2.1c2.4,0.2,4.6-0.6,4.6-3.3c0-4.3-0.3-8.5-0.8-12.8c-0.1,0-0.2-0.1-0.3-0.2c-4-0.6-8.1-0.9-12.2-0.9
	c-7.5,0.2-15.1,2.1-22.1,0.8c-6.2-1.2-11.9,0-17.7,0.6c-3.3,0.5-7,0.9-9.8,1.2L808.3,535.7L808.3,535.7z M321,511
	c-13-4.3-19-14.8-24.7-26.5c-1.5,8-2.5,16-3,24.1c0.4,1.2,1.5,2.2,2.7,2.4H321z M865.3,79.3c-0.9-0.9-2.1-2.4-3.3-2.9
	c-1.4-0.2-2.8,0.4-3.7,1.5c-3.3,6.2-6.7,12.5-9.5,19c-0.6,1.4,0.3,4.9,0.9,5.2c2.3,0.3,6.2,0.3,6.9-0.8
	C859.9,94.3,862.4,87.2,865.3,79.3z M604.6,426c-0.6-10.2-0.9-19.2-1.5-28c-0.2-3.3-0.7-6.6-1.4-9.9c-0.3-2.4-0.3-4.6,2.9-4.9
	c8.5-1.4,17.1-2.7,25.8-4c3-0.6,4.4,0.6,4.3,3.8c-0.2,6.9-0.5,13.6,0,20.4c0.2,4.4,1.7,8.5,2.4,13c0,1.3-0.3,2.6-0.9,3.8
	c-1.3-0.3-2.5-0.8-3.7-1.4c-1.2-0.6-2.9-1.8-4-1.7c-4.9,1-9.8,2.2-14.6,3.8c-1.4,0.3-2.1,2.3-3.2,3.7c1.4,0.8,2.9,2.1,4.3,2.1
	c9.8-0.9,19.7-1.8,29.2-3.2c10.1-1.5,20.3-3.5,30.3-5.2c4.4-0.9,8.8,1.2,10.8,5.2c2.3,3.8,0.8,7-3.8,7.6c-0.3,0-0.8-0.1-0.9,0
	c-10.4,6.1-22.2,4-33.4,6.2c-13.7,2.9-27.6,4-41.4,1.7c-7-1.4-13.7-3.8-20-7c-12.2-5.8-24.4-11.6-33.7-21.6
	c-7.7-8.2-14.8-16.8-21.5-25.8c-8.2-10.7-14.6-22.7-19-35.5c-6.7-19.8-11.3-39.8-4.4-60.9c2.6-8.2,2.9-17.4,5.9-25.3
	c6.7-17.4,12.8-34.9,24.2-50.3c9-12,18.6-23.2,31.1-31.4c9.3-6.1,20-10.7,30.3-15.4c16.8-8.2,35-11.4,53.2-15.4
	c2.7-0.6,5.8,0.1,8.5,0.1c10.5,0.3,21.2,0,31.5,1.1c13.6,1.4,25.9,6.6,34.4,16.9c4.7,5.8,6.4,14,9.1,21.5c0.5,1.2-1.4,3.2-1.8,4.7
	c-1.9-0.8-3.7-1.7-5.3-2.9c-0.9-1.1-1.5-2.4-1.7-3.8c-3-10.4-10.4-16-20.4-18.3c-7-1.5-13.7-3.8-20.7-4.7c-5.3-0.6-10.7-0.6-16-0.1
	c-5.2,0.1-10.5,0.6-15.5,0.9c-5.2,0.3-6.9,2.3-5.9,7.5c1.8,11.4,3.8,22.7,5.5,34.1c0.2,1.1-0.9,2.7-1.5,4c-0.9-0.8-2.4-1.4-2.9-2.3
	c-1.7-4.4-4.6-5.8-9-4.4c-3,0.9-6.4,1.4-9.5,2.3c-1.2,0.3-1.7,2.3-2.4,3.4l-2.9,4.4c-0.8-1.2-1.8-2.2-2.9-3.2
	c-2.7-2.7-1.2-5.5-1.2-8.5c-0.4-5.8-1.7-11.5-3.7-16.9c-0.9-2.9-2.3-5.2,0.3-7.6c0.6-0.3,0.5-1.7,0.6-2.4c-0.9-0.1-2.1-0.8-3-0.3
	c-23.5,8.7-45.6,19.8-61.5,39.9c-10,12.9-18.2,27.2-24.2,42.4c-4.7,11.6-8.1,23.6-9.9,36c-1.5,9.1-4.9,18.1-3.7,27.6
	c1.8,14.4,6.2,28.4,12.9,41.2c6.9,12.5,15.1,24.2,24.5,34.9c9.5,10.8,22.1,17.4,34.9,23.5C593.5,422.7,599.1,424.5,604.6,426z
	 M609.2,415c6.7-1.5,12.5-2.4,18.3-4c1.5-0.7,2.6-2.1,2.9-3.8c0-5.9-0.6-11.6-0.9-17.5c-0.2-3.7-1.8-4.9-5.2-4.3
	c-4.4,0.9-8.8,1.7-13,2.9c-1.4,0.5-2.5,1.6-3,3C606.3,399.4,607.2,407,609.2,415L609.2,415z M641.3,172.7c-3.9,1.4-7.7,3-11.4,4.9
	c-3,1.8-8.8,2.9-4.6,8.8c0.3,0.3-0.5,1.5-0.6,2.3c-0.2,2.3-0.3,4.7-0.2,7c0,4,2.3,5.8,6.1,4.9c3.7-0.8,7-2.1,10.5-2.4
	c4-0.3,5.2-2.7,4.4-6.1C644.4,186.1,643,180.1,641.3,172.7L641.3,172.7z M780,325.6c-12.5-0.1-21.9-7.5-30.5-15.5
	c-4-3.8-7.8-7.5-9.9-13c-4.3-10.8,0.5-19.4,5.9-27.7c6.9-10.1,18.1-12,28.8-11.3c6.7,0.6,13.1,4.7,19.2,8.4c3.7,2.1,6.1,5.9,9,9
	c8.8,9.3,8.5,20,4.3,31.1C801.9,318.5,792.2,323.6,780,325.6z M800,288.8c-0.6-2.6-0.5-5.8-1.7-7.6c-5.3-7.6-13.9-10.7-22.2-12.2
	c-9.5-1.7-18.4,6.1-21.3,15.4c-0.5,1.4-2.7,3-3.8,2.9c-3.3-0.8-3.8,1.5-3.7,3.4c0.4,2.7,1.3,5.2,2.7,7.5c4.4,7.9,12.8,11,20.1,15.1
	c2.8,1.5,6,1.9,9.1,1.2C790,310.8,799.6,304,800,288.8L800,288.8z M374.5,348.9c-1.7,5-3,10.1-4.3,15.4c-1.2,6.5-1.8,13.1-1.8,19.7
	c0,13.6,0.8,26.8,0.6,40.4c0,11.4-0.8,22.7-0.9,34.1c0,3,0.1,5.9-4.3,5.8c-4.7-0.1-7-2.7-6.7-6.7c0.6-5.9,1.5-11.9,1.5-18
	c0.1-8.2-0.1-16.5-0.1-24.7c-0.1-18.1-0.3-36-0.6-54.1c0-5.8,0.1-11.4,0.3-17.1c0.1-3.8,2.9-5.8,6.7-4.9
	C371.8,340.1,374.5,342.4,374.5,348.9z M379.4,258.3c-0.2,2.4-0.7,4.7-1.2,7c-0.6,2.1-1.5,5.8-2.4,5.8c-3.2,0-7.6,0-8.4-4.4
	c-0.5-3.6-0.4-7.3,0.5-10.8c2.1-9.9,4.7-10.8,14.8-9.3c6.6,0.7,13.2,1,19.8,0.8c15.5,0.1,31.2,0.1,46.9,0c6.2,0,12.5-0.8,18.9-0.8
	c1.4,0,3.7,1.2,3.7,1.8c0,2.9,0.3,6.7-1.4,8.2c-2.7,2.1-6,3.2-9.5,3.2c-9.8,0-19.6-0.9-29.2-1.2c-9-0.1-17.8,0.3-26.8,0.1
	C396.8,258.7,388.9,258.3,379.4,258.3L379.4,258.3z M439.6,379.7c0.3-2.3,1.2-6.1,1.8-9.9c1.5-9.1,13.7-15.9,20.4-14.9
	c8,1.2,15.4,5,21,10.8c4.6,4.7,8.8,9.1,9.3,16.5c0.5,6.7-2.3,13.3-7.5,17.7c-11,10.4-23,9.3-34.4,0.3
	C444.5,395.3,439.3,386.3,439.6,379.7z M483,379.1c-0.7-1.9-1.7-3.6-3-5.2c-3.2-3.2-6.4-7.6-10.5-8.8c-9-2.4-18,4.9-19.8,14.6
	c-1.4,6.9,1.8,13.6,8.5,15.5c3.5,0.7,7.1,0.9,10.7,0.6C475.1,395.6,483.4,386.6,483,379.1L483,379.1z M536.6,98.6
	c0-1.7,1.4-3.2,5.3-2.9c14,1.7,28,3.2,42,4.4c2.6,0.2,5.3-0.1,7.8-0.9c4.3-0.9,6.2,1.2,5.5,5.5c-0.6,3.7-0.9,7.5-1.5,11
	c-0.5,2.9-1.4,5.5-5.2,4.3c-8.2-3-17-4.1-25.8-3.2c-3.8,0.3-7.6,0.2-11.4-0.2c-4.4-0.6-7,1.7-9.8,4.6c-0.7,0.9-1.7,1.5-2.9,1.7
	c-0.6,0-1.7-1.5-1.7-2.4C538.5,113.8,537.5,107,536.6,98.6z M543,109.1c2.1-0.2,4.2-0.2,6.2,0c12.2,1.7,24.1,5.3,36.6,4.4
	c3.2-0.2,4-1.5,4.4-4.3c0.3-3-0.9-4-3.7-4.3c-1.4-0.2-2.7-0.8-4.3-0.9c-5.3-1.1-10.7-1.9-16.2-2.4c-5.9-0.3-11.9,0.8-17.7,0.3
	S541.5,102.9,543,109.1L543,109.1z M587.8,274.3c-0.7-1.1-1.2-2.2-1.7-3.4c-0.6-1.5-1.2-2.9-1.7-4.4c-1.5-4.1-3.8-6.1-8.4-4
	c-2.1,0.9-4.6,1.4-6.9,2.1c-1.4,0.6-3,1.4-3.3,2.3c-1.2,5.3-3.3,5-7.6,2.9c-3-1.5-2.9-3-2.4-5.5c0.6-1.9,0.7-3.9,0.3-5.8
	c-1.8-6.4-4.4-12.8-6.7-19.2c-0.9-2.4-0.9-4,1.8-5.3c5.9-2.9,11.4-6.1,17.1-9.1c4.6-2.4,9.9,0.6,11.4,6.4c2.1,8.4,4,16.6,6.2,25
	c1.3,3.6,2.7,7.1,4.4,10.5C592.2,270,591.5,273.5,587.8,274.3z M556.2,242c1.5,5.9,2.7,11,4.4,16.1c0.9,1.3,2.4,2,4,1.8
	c4.2-0.7,8.3-1.9,12.2-3.7c1.8-1.1,3-3,3.2-5.2c-1.2-5.6-2.8-11.1-4.8-16.5c-1.2-3.2-3.3-4.9-7-2.9c-3.1,1.5-6,3.3-8.8,5.3
	C558.1,238.6,557.1,240.3,556.2,242z M581.8,353.8c-0.8,0.9-1.2,2.4-2.1,2.9c-1.2,0.2-2.3-0.3-3-1.2c-1.5-3.4-4.3-2.9-6.7-1.8
	c-2.4,0.9-5.5,2.1-8.2,3.2c-2.1,0.9-3.8,1.7-3.2,4.9c0.6,3.5-1.2,4.7-4.6,3.2c-1.4-0.6-2.7-0.9-4-1.4c-3.2-0.8-3.7-2.9-1.7-4.7
	c2.3-2.4,1.8-4.9,0.3-7.5c-2.2-4.6-5-8.9-8.2-12.8c-3.2-3.7-1.8-5.8,1.4-7.5c5.2-2.9,10.4-5.5,15.7-8.2c1-0.4,2-0.9,2.9-1.5
	c6.2-4.6,7-4.4,9.5,3c1.8,5.5,3.3,11.3,5.5,16.8c1.4,3,3,6.1,4.7,9.1C580.4,351.2,581,352.3,581.8,353.8L581.8,353.8z M571.1,343.5
	c-1.8-5-3.8-9.9-5.9-14.6c-0.9-0.9-2.1-1.5-3.3-1.5c-4.3,2.1-8.4,4.4-12.3,6.9c-1.2,0.9-1.8,2.4-1.5,3.8c1.7,4.6,3.7,9.1,5.9,13.4
	c0.3,0.8,2.7,1.2,4,1.2c1.6-0.2,3.1-0.7,4.4-1.5C565.8,349.3,569.6,348.1,571.1,343.5L571.1,343.5z M320.3,410
	c-1.2-3.4-2.1-7-2.9-10.5c-0.9-6.2-1.5-12.6-2.4-18.9c-0.5-3.5,0.8-4.7,4.3-5.3c5.2-0.6,10.4-1.7,15.2-2.6c1.2-0.3,2.2-0.9,3-1.8
	c1.5-1.7,2.9-3.4,5.5-1.7c2.5,1.3,3.6,4.3,2.4,6.9c-1,3.8-1.6,7.7-1.8,11.6c-0.1,2.3,1.2,4.4,1.5,6.7c0.6,2.4,0.8,5,0.8,7.5
	c0,1.6-0.8,3-2.1,3.8c-0.8,0.3-2.4-1.2-3.8-1.5c-1.5-0.6-3-0.8-4.6-0.6C330.6,405.5,326.1,407.7,320.3,410z M339.3,387
	c-0.1-10.2-0.1-10.2-9.9-7.3c-1.2,0.3-2.5,0.7-3.7,1.2c-4.7,1.8-6.4,8.2-4.3,15.4c1.7,5.5,5.5,2.9,8.5,2.1
	C341.1,396,339,397.1,339.3,387L339.3,387z M810.3,59.3c-0.8,1.2-1.5,2.7-2.4,4c-6.1,8.3-9.2,18.6-8.7,28.9c0,1.8-1.5,3.8-2.9,5.5
	c-0.2,0.2-2.4-1.4-3.8-1.8c-1.8-0.8-3.8-1.1-5.8-1.7c-1.2-0.5-2.9-0.2-3.2-0.9c-0.7-1.2-0.7-2.6-0.2-3.8c5.9-10.4,6.9-21.9,8.7-33.2
	c0-1.5,0.2-2.9,0.8-4.3c0.9-0.9,2.1-1.3,3.3-1.2c3,0.8,6.1,3,9.1,2.9C809.5,53.5,809.5,56,810.3,59.3z M801.3,60.5l-1.5-0.9
	c-1.8,1.8-4.7,3.7-5.5,5.9c-1.8,5.6-3.4,11.2-4.6,16.9c-0.3,1.4,0.3,4.3,1.4,4.6c2.7,1.1,3.8-0.8,4.6-3.2c1.7-6.7,3.8-13.4,5.5-20.1
	C801.4,62.7,801.4,61.6,801.3,60.5z M367.7,489.3v-17.5c-0.1-1.3,0.2-2.6,0.8-3.8c0.9-0.3,2-0.3,2.9,0.1c0.8,1.5,1.2,3.1,1.2,4.7
	c-0.1,4-1.5,7.9-1.4,12c0.3,6.1,1.7,12.2,2.4,18.3c0.4,1.7,0.1,3.5-0.9,4.9c-2.1,2.1-4.6,0.8-4.6-2.4c-0.1-5.3,0-10.8,0-16.1
	L367.7,489.3z M495.2,482.1c-1.7-2.4-3.2-3.7-3.4-5.3c-0.1-0.9,1.5-2.1,2.4-3.2c1.4,1.2,3.2,2.1,3.8,3.5
	C498.5,477.8,496.7,479.4,495.2,482.1z M422.5,380.2c1.2,2.1,2.7,3.4,2.3,4.3c-0.8,1.6-1.8,3.1-3,4.4c-1.2-1.2-3.2-2.4-3-3.4
	C419,383.5,420.9,382.2,422.5,380.2z M429.7,409c0.8,1.4,2.1,2.7,1.8,4c-0.1,1.2-1.8,2.3-2.9,3.2c-0.9-1.2-2.4-2.1-2.6-3.2
	c0-1.2,1.4-2.6,1.8-4H429.7z M516.8,477.1c1.4,1.7,2.7,2.9,2.4,3.7c-0.3,1.4-1.7,2.4-2.6,3.7c-1.2-0.9-3.2-2.1-3-2.7
	C513.8,480.1,515.3,479.1,516.8,477.1L516.8,477.1z M459.7,450.4c-1.8,1.4-3.7,2.5-5.8,3.4c-0.6,0.1-1.7-1.4-2.4-1.8
	c0.9-1.2,1.7-2.9,3-3.4C455.9,447.8,456.9,449.2,459.7,450.4L459.7,450.4z M475.2,461.1c1.2,1.8,2.4,3.4,2.3,4
	c-0.8,1.3-2,2.2-3.4,2.7c-0.6,0.1-2.6-2.1-2.4-2.3C472.7,463.9,473.9,462.4,475.2,461.1L475.2,461.1z M538.9,486.2
	c-0.8-1.2-1.8-2.4-2.1-3.7c0-0.8,1.8-2.4,2.7-2.3c1.4,0.3,3,1.7,3.2,2.9s-1.2,2.7-1.8,4.3L538.9,486.2z M444.5,432.5
	c-1.8,1.2-3,2.3-4.4,2.4c-0.8,0-2.4-1.8-2.3-2.4c0.3-1.4,1.7-2.3,2.7-3.4L444.5,432.5z"/>
<path d="M868.5,276.7c-0.9,0.4-1.8,0.9-2.7,1.5c-2.6,2.1-5.1,4.2-7.7,6.4c-2.6,2.3-5.7,4.1-9.1,5.2c-3.1,1-6.4,0.8-9.3-0.5
	c-3.8-1.7-5.1-5.5-2.8-9c2.1-3.4,4.4-6.7,6.9-9.8c5-6,10.4-11.7,16.2-17c2-1.8,4-3.7,6.7-4.1c1.8-0.3,3.6-0.2,5.4,0.2
	c1.3,0.4,2.2,1.7,2,3.1c0.1,1.3-0.8,2.4-2,2.6c-4.6,0.1-7.6,3.3-10.8,5.8c-6.6,5.3-12.3,11.7-17,18.8c-0.5,0.8-1,1.7-1.4,2.6
	c-0.1,0.3-0.1,0.7,0,1c1.3,1.3,2.8,0.6,4-0.1c3.9-2.5,7.9-4.9,11.6-7.7c4.1-3.1,7.9-6.6,11.8-10.1c2.2-1.8,3.7-4.3,4.4-7.1
	c0.8-3.4,1.7-6.8,2.6-10.2l1.2-4.8c2.6-1.4,4.9-1,6.5,0.9s3.4,3.6,2.3,6.6c-1.1,3.7-2.8,7.2-5,10.3c-3.5,4.4-5.3,9.6-7,14.8
	c-4.4,13.1-8.7,26.2-13.1,39.3c-2,5.8-4,11.6-6,17.5c-0.5,1.6-1,3.2,0.1,4.8c1.5,2.1,1.3,4.6,0.7,6.8c-0.9,2.7-2,5.4-3.4,7.9
	c-0.5,1.2-2,1.8-3.2,1.2c-0.1,0-0.1-0.1-0.2-0.1c-2.2-0.8-3.8-2.3-3.7-4.8c0.1-2.5,0.5-4.9,1.2-7.3c3.3-10.1,6.8-20.1,10.2-30.2
	c3.6-10.9,7.2-21.7,10.7-32.6C868.9,278,868.6,277.5,868.5,276.7z M851.5,354.3c-0.5,0-1-0.1-1.5-0.3c-2.7-1-4.1-2.8-4-5.3
	c0.1-2.5,0.5-5,1.2-7.4c2.1-6.4,4.3-12.9,6.5-19.2c1.2-3.7,2.5-7.3,3.7-11l2.2-6.6c2.8-8.5,5.7-17.3,8.5-26c0.2-0.3,0.1-0.5,0-1l0,0
	c-0.7,0.3-1.4,0.7-2.1,1.2c-2.5,2-4.9,4-7.7,6.4c-2.7,2.4-5.9,4.2-9.3,5.3c-3.2,1-6.6,0.8-9.7-0.5c-1.9-0.8-3.4-2.3-4-4.3
	c-0.5-1.9-0.1-3.9,1-5.5c2.1-3.4,4.4-6.7,6.9-9.8c5-6.1,10.5-11.8,16.3-17.1l0.3-0.2c1.9-1.8,4-3.6,6.7-4c1.9-0.3,3.8-0.2,5.6,0.2
	c1.6,0.5,2.6,2.1,2.4,3.7c0.1,1.5-1,2.8-2.5,3c-3.7,0.1-6.4,2.3-9,4.4c-0.5,0.4-1,0.9-1.6,1.3c-6.6,5.3-12.3,11.6-16.9,18.7
	c-0.5,0.9-1,1.7-1.4,2.5v0.5c0.9,0.8,2,0.5,3.3-0.3c0.8-0.5,1.7-1.1,2.5-1.6c3-1.9,6.1-3.9,9-6.1c3.6-2.7,6.9-5.7,10.4-8.8l1.4-1.2
	c2.1-1.8,3.5-4.2,4.2-6.8c0.8-3.4,1.7-6.8,2.6-10.1v-0.1l1.3-5l0.2-0.1c2.7-1.5,5.3-1.1,7.1,1l0.4,0.5c1.5,1.8,3.1,3.6,2,6.6
	c-1.1,3.7-2.8,7.2-5.1,10.4c-3.4,4.2-5.1,9.1-6.9,14.7c-2.2,6.5-4.4,13-6.5,19.6s-4.4,13.2-6.6,19.7c-2,5.8-4,11.6-6,17.5
	c-0.5,1.5-0.9,3,0,4.4c1.3,1.9,1.6,4.2,0.8,7.2c-0.9,2.8-2,5.4-3.4,8C853.4,353.8,852.5,354.4,851.5,354.3z M868.9,276l0.1,0.7
	c0,0.2,0.1,0.4,0.1,0.6c0.2,0.5,0.1,1.1-0.1,1.6c-2.8,8.6-5.7,17.4-8.5,25.9l-2.2,6.6c-1.2,3.7-2.5,7.3-3.7,11
	c-2.1,6.3-4.4,12.8-6.5,19.2c-0.7,2.3-1.1,4.8-1.2,7.2c-0.1,2,1.1,3.5,3.4,4.3c1,0.5,2.2,0.2,2.7-0.8c0,0,0.1-0.1,0.1-0.1
	c1.4-2.5,2.5-5.1,3.4-7.8c0.7-2.7,0.5-4.7-0.6-6.4s-0.7-3.6-0.2-5.2c2-5.9,4-11.7,6-17.5c2.2-6.6,4.4-13.2,6.6-19.7s4.3-13,6.5-19.6
	c1.8-5.6,3.6-10.6,7.1-15c2.1-3.1,3.8-6.5,4.9-10.1c0.9-2.5-0.3-4-1.8-5.7l-0.4-0.5c-1.4-1.7-3.4-2-5.7-0.9l-1.2,4.7
	c-0.9,3.3-1.8,6.7-2.6,10.1c-0.7,2.9-2.3,5.5-4.6,7.4l-1.4,1.2c-3.4,3-6.8,6.1-10.5,8.9c-2.9,2.2-6,4.2-9.1,6.1
	c-0.9,0.5-1.7,1.1-2.6,1.6s-2.9,1.7-4.6,0l-0.1-0.1v-0.1c-0.1-0.4-0.1-0.9,0-1.3c0.4-0.9,0.9-1.8,1.4-2.7
	c4.7-7.1,10.5-13.5,17.1-18.9c0.5-0.4,1-0.8,1.6-1.3c2.7-2.2,5.5-4.6,9.5-4.6c0.9-0.2,1.6-1.1,1.5-2.1c0.2-1.2-0.5-2.3-1.6-2.6
	c-1.7-0.4-3.5-0.5-5.2-0.2c-2.4,0.4-4.3,2.1-6.2,3.7l-0.3,0.2c-5.7,5.3-11.1,11-16.2,16.9c-2.5,3.1-4.8,6.3-6.9,9.7
	c-1,1.3-1.3,3-0.9,4.6c0.6,1.7,1.9,3,3.5,3.6c2.8,1.3,6,1.4,8.9,0.5c3.3-1.1,6.3-2.8,8.9-5.1c2.8-2.4,5.2-4.4,7.7-6.4
	c0.9-0.6,1.8-1.1,2.8-1.6L868.9,276z M553.4,302.7c-5.3,0.9-7.2-0.6-6.9-4.8c0.3-4.5,0.7-8.9,1.1-13.4c0.1-1.5,0.5-3-0.5-4.3
	c-1.5-0.9-2.6,0.1-3.6,0.8c-3,2.4-6,4.7-8.8,7.3c-4.6,4.3-9.1,8.8-13.6,13.2c-2,2-4.1,3.9-6.2,5.7c-1.8,1.6-4.4,1.9-6.5,0.7
	c-2.4-1.4-3.6-2.8-3.1-6.1c1.9-12.4,7-24.1,14.8-34c6.1-7.7,12.6-15.1,19.2-22.3c2-2.2,4.8-3.6,7.8-3.9c3.4-0.4,3.7-0.7,3.9-3.9
	s0.3-6.3,0.5-9.5c0.3-4.6,0.8-9.3,1-13.9c0.2-6.8,0.2-13.6,0.3-20.5c0-1.3,0.1-2.7,0-4c-0.2-2.7,1.9-3.4,4-2.7
	c2.6,0.8,3.5,2.1,3.2,4.9c-0.3,2.3-0.8,4.6-1.2,6.9c-1.5,9.9-1.9,19.9-2.5,29.9c-0.6,10.5-1.3,20.9-2,31.4
	c-0.6,8.8-1.5,17.6-2.1,26.4c0,2.8,0.1,5.6,0.5,8.4C552.8,297.5,553.1,300,553.4,302.7L553.4,302.7z M548.2,273.3
	c0.8-5.7,1.7-11.1,2.3-16.5c0.1-1.7,0-3.4-0.3-5c-0.6-3.2-3.3-4.2-5.9-2.1c-9.4,7.7-17.6,16.8-24.2,27c-4.1,6.5-6.9,13.7-8.3,21.2
	c-0.2,0.8,0.3,1.7,0.6,3.1l30.8-26.9L548.2,273.3z M511.2,309.1c-1.1,0-2.1-0.3-3-0.8c-2.5-1.5-3.9-3-3.3-6.6
	c1.9-12.5,7.1-24.3,14.9-34.2c5.4-6.8,11.5-13.9,19.2-22.3c2.1-2.3,5-3.7,8.1-4.1c3.2-0.4,3.3-0.5,3.5-3.4c0.2-1.9,0.3-3.8,0.3-5.7
	c0-1.3,0.1-2.5,0.2-3.8c0.1-1.8,0.3-3.7,0.4-5.5c0.2-2.8,0.5-5.6,0.6-8.4c0.1-4.5,0.2-9.2,0.2-13.7c0-2.3,0-4.5,0.1-6.8v-3.9
	c-0.2-1.1,0.2-2.2,1.1-2.9c1.1-0.7,2.4-0.8,3.6-0.3c2.9,0.9,3.9,2.4,3.5,5.4c-0.2,1.6-0.5,3.1-0.8,4.6c-0.1,0.8-0.3,1.5-0.4,2.3
	c-1.2,8.4-1.9,16.8-2.2,25.2c-0.1,1.5-0.2,3.1-0.3,4.6c-0.6,9.8-1.2,19.8-1.9,29.4l-0.1,2c-0.3,4.4-0.7,8.9-1.1,13.2
	s-0.7,8.8-1,13.2c0,2.8,0.2,5.5,0.5,8.3c0.1,2.3,0.3,4.5,0.6,6.9l0.1,1.3l-0.5,0.1c-3.1,0.5-5,0.3-6.2-0.8c-1-0.9-1.4-2.4-1.3-4.5
	c0.3-4.2,0.6-8.2,1-12.4l0.1-1c0-0.3,0-0.5,0.1-0.8c0.2-1,0.1-2.1-0.4-3.1c-1-0.5-1.7-0.1-2.7,0.6l-0.3,0.2l-1.6,1.3
	c-2.5,2-4.9,3.9-7.2,6c-3.4,3.2-6.9,6.6-10.2,9.9c-1.1,1.1-2.3,2.2-3.4,3.3c-1.8,1.8-3.9,3.7-6.2,5.7
	C514.1,308.6,512.7,309.1,511.2,309.1L511.2,309.1z M555.3,187.3c-0.5,0-1,0.1-1.4,0.4c-0.5,0.5-0.8,1.3-0.7,2c0,0.9,0,1.8,0,2.7
	v1.3c0,2.3-0.1,4.6-0.1,6.8c0,4.5-0.1,9.1-0.2,13.7c-0.1,2.8-0.4,5.7-0.6,8.4c-0.2,1.8-0.3,3.7-0.4,5.5c-0.1,1.3-0.1,2.5-0.2,3.8
	c-0.1,1.9-0.1,3.8-0.3,5.7c-0.2,3.4-0.7,3.9-4.3,4.3c-2.9,0.3-5.5,1.6-7.5,3.7c-7.7,8.4-13.8,15.5-19.2,22.3
	c-7.7,9.8-12.8,21.5-14.7,33.8c-0.5,3,0.6,4.3,2.9,5.6c1.9,1.1,4.3,0.8,5.9-0.6c2.4-2,4.4-3.9,6.2-5.7c1.1-1.1,2.3-2.2,3.4-3.3
	c3.3-3.3,6.8-6.7,10.2-9.9c2.3-2.2,4.8-4.1,7.2-6.1l1.9-1.5c0.9-0.7,2.2-1.6,3.9-0.6l0.1,0.1c0.7,1.2,1,2.6,0.7,3.9
	c0,0.3-0.1,0.5-0.1,0.8l-0.1,1c-0.4,4.2-0.7,8.2-1,12.4c-0.1,1.8,0.2,3,0.9,3.7c0.9,0.8,2.5,1,4.9,0.6v-0.3
	c-0.3-2.4-0.5-4.7-0.6-6.9c-0.3-2.8-0.5-5.6-0.5-8.4c0.3-4.4,0.7-8.9,1.1-13.2s0.7-8.8,1-13.2l0.1-2c0.6-9.6,1.3-19.6,1.9-29.4
	c0.1-1.5,0.2-3.1,0.3-4.6c0.5-8.3,1-16.9,2.2-25.3c0.1-0.8,0.3-1.5,0.4-2.3c0.3-1.5,0.6-3.1,0.8-4.6c0.3-2.5-0.4-3.6-2.9-4.4
	C556.1,187.4,555.7,187.3,555.3,187.3L555.3,187.3z M512.1,301.9l-0.2-0.8c-0.1-0.4-0.2-0.8-0.3-1.2c-0.2-0.7-0.3-1.4-0.3-2.1
	c1.4-7.6,4.2-14.8,8.4-21.3c6.7-10.2,14.8-19.4,24.3-27.1c1.1-1.1,2.7-1.4,4.2-1c1.4,0.6,2.3,1.9,2.5,3.4c0.3,1.7,0.4,3.4,0.3,5.1
	c-0.4,3.7-0.9,7.3-1.5,11.1c-0.3,1.8-0.5,3.6-0.8,5.5l-0.1,0.4l-5.2,0.8L512.1,301.9z M547,249.1c-0.9,0-1.8,0.4-2.4,1
	c-9.4,7.6-17.5,16.7-24.1,26.9c-4.1,6.4-6.9,13.5-8.2,21c-0.1,0.5,0,1.1,0.2,1.6c0,0.2,0.1,0.3,0.1,0.5l30.3-26.5l4.8-0.8
	c0.2-1.7,0.5-3.4,0.7-5.1c0.6-3.8,1.1-7.4,1.5-11c0.1-1.6,0-3.3-0.3-4.9c-0.1-1.2-0.8-2.2-1.9-2.7L547,249.1z M591.3,268.4
	c2.7-2.5,4.7-0.3,6.8-0.7c10.5-10.5,23.7-16.2,37.6-20.5c4.4-1.4,9.1-1,13.1,1.3c1,0.6,1.9,1.3,2.7,2.1c1.6,1.8,1.3,3.7-0.8,5
	c-2.5,1.6-5.2,2.9-7.9,4.1c-8.5,3.4-17,6.8-25.5,10c-3.4,1.3-7,2.2-10.4,3.3c-2.8,0.9-3.4,1.9-2.8,4.8c0.9,4.7,4.7,8.4,9.4,9.1
	c2.3,0.4,4.7,0.5,7,0.4c4.8-0.2,9.6-0.5,14.4-1.1c6.9-1,13.8-2.3,20.6-3.6c3.6-0.5,7.1-1.9,10.2-3.9c1.6-1.3,4-1.2,5.5,0.2
	c1.3,0.8,1.7,2.5,0.9,3.8c0,0,0,0,0,0c-0.2,0.3-0.5,0.6-0.8,0.8c-0.8,0.6-1.7,1.1-2.6,1.4c-2.3,0.8-4.7,1.6-7.2,2.2
	c-13.3,3-26.8,5.5-40.4,5.8c-10.9,0.2-18.5-3.7-23.1-15.4c-0.7-2.2-2-4.2-3.7-5.7C593.2,270.8,592.2,269.6,591.3,268.4L591.3,268.4z
	 M641.6,253.1c-3.3-1.3-5.4-0.3-7.3,0.4c-7,2.6-14,5-20.1,9.6c0.5,0.4,0.8,0.8,1,0.8c7.6-2.8,15.2-5.7,22.8-8.6
	C639.2,254.7,640.4,253.9,641.6,253.1L641.6,253.1z M620.3,293.4c-11.5,0-18.5-4.9-22.8-15.7c-0.7-2.1-1.9-4-3.6-5.5
	c-1.2-1.1-2.2-2.2-3.1-3.5l-0.3-0.4l0.3-0.3c1.3-1.3,3.4-1.7,5.1-1c0.6,0.2,1.2,0.3,1.8,0.2c11.4-11.4,26.1-16.9,37.7-20.5
	c4.5-1.5,9.4-1,13.5,1.3c1,0.6,2,1.4,2.8,2.2c0.8,0.8,1.2,2,1.1,3.1c-0.3,1.1-1,2.1-2,2.7c-2.6,1.6-5.2,2.9-8,4.1
	c-8.4,3.4-17,6.8-25.5,10c-2.2,0.8-4.5,1.5-6.7,2.2c-1.3,0.4-2.5,0.7-3.7,1.1c-2.6,0.8-3,1.6-2.5,4.2c0.9,4.5,4.5,8,9,8.7
	c2.3,0.4,4.6,0.5,6.9,0.4c5.8-0.2,10.2-0.6,14.4-1.1c6.7-1,13.6-2.3,20.6-3.6c3.6-0.5,7-1.8,10-3.8c1.8-1.4,4.4-1.4,6.1,0.2
	c1.5,0.9,2,2.9,1,4.4c0,0,0,0,0,0.1c-0.2,0.4-0.5,0.7-0.9,1c-0.8,0.6-1.7,1.1-2.7,1.5c-2.1,0.7-4.6,1.6-7.2,2.2
	c-12,2.7-26.1,5.5-40.5,5.8L620.3,293.4z M592,268.5c0.8,1.1,1.7,2.1,2.7,3c1.8,1.6,3.1,3.6,3.8,5.9c4.2,10.8,11,15.3,22.6,15.1
	c14.3-0.3,28.4-3.1,40.3-5.8c2.6-0.6,5-1.5,7.1-2.2c0.9-0.3,1.7-0.8,2.5-1.3c0.3-0.2,0.5-0.4,0.7-0.7c0.6-1.1,0.3-2.4-0.7-3.1
	c-1.7-1.3-3.4-1.4-4.9-0.2c-3.1,2.1-6.7,3.5-10.4,4c-7,1.3-13.9,2.6-20.6,3.6c-4.2,0.5-8.6,0.9-14.5,1.1c-2.4,0.1-4.8,0-7.1-0.4
	c-5-0.7-8.9-4.6-9.8-9.5c-0.6-3.1,0.1-4.4,3.1-5.4c1.2-0.4,2.5-0.8,3.8-1.1c2.2-0.6,4.5-1.3,6.6-2.1c8.5-3.2,17.1-6.7,25.5-10
	c2.7-1.2,5.3-2.5,7.8-4.1c0.8-0.4,1.4-1.1,1.6-2c0-0.9-0.3-1.7-0.9-2.3c-0.8-0.8-1.7-1.4-2.6-2c-3.9-2.2-8.5-2.6-12.7-1.3
	c-11.5,3.6-26.1,9.1-37.4,20.4l-0.1,0.1h-0.2c-0.8,0.1-1.6,0.1-2.4-0.2C594.5,267.7,593.4,267.4,592,268.5L592,268.5z M615.3,264.4
	L615.3,264.4c-0.4,0-0.6-0.2-0.9-0.5c-0.1-0.2-0.3-0.3-0.5-0.4l-0.5-0.4l0.5-0.4c5.7-4.3,12.3-6.7,18.7-9.1l2-0.7
	c2.3-1.1,4.9-1.2,7.2-0.2l0.8,0.3l-0.7,0.5c-1.2,0.8-2.4,1.6-3.7,2.2C630.7,258.6,623,261.6,615.3,264.4L615.3,264.4z M615,263.1
	L615,263.1l0.2,0.2c7.6-2.8,15.2-5.7,22.6-8.5c1.1-0.6,1.9-1.1,2.7-1.6c-2.4-0.7-4,0-5.6,0.6l-2,0.7
	C626.5,256.9,620.5,259.1,615,263.1L615,263.1z M302,291.7c1.7-1.4,3.2-0.2,4.6,0.5c5.4,2.7,11,2.5,16.5,0.8
	c2.5-0.8,4.9-1.9,7.2-3.3c6.9-4.1,12.7-9.9,16.7-16.8c1.1-1.9,1.9-3.9,2.4-6c0.9-3.6-0.1-5.8-3.4-7.3c-1.9-1-4-1.6-6.2-1.8
	c-8.7-0.4-17.3,0.5-25.1,5.3l0.4,3.5c-3.2,0.1-6.2,0.1-8.9-1.4c-0.9-0.5-1.8-0.7-2.8-0.8c-2.5-0.2-3.8-1.8-4.9-3.8
	c-0.6-0.9-0.3-2.2,0.6-2.8c0.2-0.2,0.5-0.3,0.8-0.3c1.5-0.2,3-0.1,4.4,0.3c1.6,0.4,3.3,0.3,4.8-0.4c6.8-2.7,13.1-6.6,18.6-11.5
	c2.6-2.1,4.8-4.5,5.6-7.9c-0.8-1.6-2.2-1.5-3.5-1.5c-7.3-0.1-14.6,1.2-21.5,3.8c-3,1.1-5.8,2.4-8.8,3.6c-3.7,1.4-4.8,1-7.6-2.9
	c0.7-0.8,1.6-1.5,2.5-2c8-2.9,16-5.6,24.6-6.4c3.8-0.4,7.6-1,11.4-0.3c2.5,0.4,4.8,1.5,6.7,3.1c2.7,2.3,3.3,4.9,1.3,7.9
	c-1.5,2-3.1,3.9-4.9,5.6l-2,2.3c2.2,1.4,4.5,1.1,6.6,1.4c6,0.9,11.1,3.2,15,8c2.7,3.4,3.9,7.1,1.9,11.1c-4.7,10.4-12.9,18.9-23.1,24
	c-9.5,4.8-18.9,4.6-28-1C302.6,294.1,301.4,293.4,302,291.7L302,291.7z M318.6,299.6c-5.3-0.1-10.5-1.6-14.9-4.5
	c-1-0.4-2.9-1.3-2.1-3.6v-0.1l0.1-0.1c1.7-1.4,3.3-0.6,4.6,0.1l0.6,0.3c4.8,2.4,10.1,2.6,16.1,0.8c2.5-0.8,4.9-1.9,7.1-3.2
	c6.8-4,12.5-9.7,16.5-16.6c1.1-1.8,1.9-3.8,2.3-5.9c0.8-3.4-0.1-5.3-3.1-6.7c-1.9-1-3.9-1.6-6-1.8c-10.3-0.5-17.9,1.1-24.5,5.1
	l0.4,3.7h-0.5c-3.4,0.1-6.4,0.1-9.2-1.5c-0.8-0.4-1.7-0.7-2.6-0.7c-2.8-0.2-4.2-2.1-5.3-4.1c-0.7-1.2-0.4-2.7,0.8-3.5
	c0.3-0.3,0.7-0.4,1.1-0.4c1.5-0.2,3-0.1,4.5,0.3c1.5,0.4,3.1,0.3,4.5-0.4c6.2-2.3,12.1-5.9,18.5-11.4c2.6-1.8,4.5-4.5,5.4-7.5
	c-0.6-1.1-1.6-1.1-2.7-1.1H330c-7.3-0.1-14.5,1.2-21.3,3.8c-1.8,0.7-3.6,1.4-5.3,2.1c-1.1,0.5-2.3,1-3.5,1.4c-4,1.5-5.3,1-8.2-3.1
	l-0.2-0.3l0.3-0.3c0.7-0.9,1.6-1.6,2.6-2.1c8.1-3,16.1-5.7,24.8-6.5c0.5-0.1,1-0.1,1.5-0.2c3.3-0.5,6.7-0.6,10-0.1
	c2.5,0.4,4.9,1.5,6.9,3.2c3,2.6,3.5,5.4,1.4,8.6c-1.5,2-3.2,4-5,5.7l-1.6,1.8c1.3,0.6,2.8,0.9,4.2,0.9c0.6,0,1.1,0.1,1.7,0.2
	c6.6,1,11.7,3.7,15.3,8.2c3.2,4,3.9,7.9,2,11.6c-1.6,3.5-3.6,6.8-5.9,9.9c-4.7,5.9-10.7,10.8-17.4,14.3
	C328.1,298.3,323.4,299.6,318.6,299.6L318.6,299.6z M302.4,292c-0.3,1.1,0.3,1.6,1.7,2.2c8.9,5.5,18.1,5.8,27.6,1
	c6.6-3.5,12.4-8.3,17-14.1c2.3-3,4.3-6.2,5.8-9.7c1.7-3.4,1.1-6.9-1.8-10.6c-3.5-4.4-8.2-6.8-14.7-7.8c-0.5-0.1-1.1-0.1-1.7-0.2
	c-1.8,0-3.6-0.4-5.1-1.3l-0.5-0.3l2.4-2.7c1.8-1.7,3.4-3.6,4.9-5.6c1.8-2.7,1.4-5-1.2-7.2c-1.9-1.6-4.1-2.6-6.5-3
	c-3.2-0.6-6.5-0.2-9.7,0.1c-0.5,0.1-1,0.1-1.5,0.2c-8.6,0.8-16.5,3.5-24.5,6.4c-0.7,0.4-1.4,1-2,1.6c2.5,3.4,3.4,3.7,6.8,2.4
	c1.2-0.5,2.3-1,3.5-1.4c1.7-0.7,3.5-1.5,5.3-2.2c6.9-2.6,14.3-3.9,21.7-3.8h0.2c1.3,0,2.8,0,3.7,1.8l0.1,0.2v0.2
	c-0.9,3.8-3.6,6.4-5.8,8.2c-5.5,5-11.8,8.9-18.7,11.6c-1.6,0.7-3.4,0.9-5.1,0.4c-1.4-0.4-2.8-0.5-4.2-0.3c-0.2,0-0.4,0.1-0.5,0.2
	c-0.3,0.2-0.6,0.6-0.7,1c-0.1,0.4,0,0.8,0.2,1.1c1.1,2,2.3,3.4,4.5,3.6c1.1,0.1,2.1,0.4,3,0.9c2.4,1.3,5,1.4,8.1,1.4l-0.4-3.3
	l0.3-0.2c6.8-4.2,14.7-5.9,25.4-5.4c2.2,0.2,4.4,0.8,6.4,1.9c3.5,1.6,4.6,4,3.7,7.9c-0.5,2.2-1.3,4.2-2.5,6.1
	c-4.1,7-9.9,12.8-16.9,17c-2.3,1.4-4.7,2.5-7.3,3.3c-6.3,2-11.8,1.7-16.9-0.8l-0.6-0.3C304.6,291.7,303.6,291.1,302.4,292z
	 M208.9,276.3c-0.1-4.8,0.8-9.5,2.6-13.9c2.4-6.9,5.9-13.4,10.2-19.3c1.6-1.9,3.3-3.8,5.1-5.5c1.2-1.2,2.8-1.8,4.5-1.6
	c1.7-0.1,3.3-0.4,4.9-0.9c2.7-0.7,5.4-1.6,8.1-2.3c5.9-1.4,12.1-0.7,17.5,1.9c4.9,2.2,8.8,6.1,10.9,11.1c1.6,3.3,1.6,7.2,0.1,10.6
	c-2.3,5.5-5.5,10.7-9.3,15.3c-6,7.6-13,14.3-20.9,19.9c-4.9,3.5-10.9,5.3-16.9,5c-3.2-0.1-6.2-1.3-8.6-3.4
	C212,289.1,209,282.9,208.9,276.3L208.9,276.3z M227.1,291.7c3.8-0.3,7.5-1.7,10.5-4c9.6-6.6,17.9-14.9,24.6-24.4
	c2.2-3.3,4.1-6.9,5.5-10.6c2.2-5.9-0.6-11.8-6.4-14.3c-3.5-1.5-7.4-2-11.1-1.2c-5.3,0.9-10.4,2.1-14.9,5.1c-2.1,1.5-4.9,2.8-5.5,5.5
	c-0.8,3.1-4.3,3-5.5,5.4c-0.1,0.2-0.2,0.3-0.3,0.4c-3.6,6-6.3,12.5-7.8,19.3c-1.1,4.8-0.5,9.8,1.8,14.1
	C219.6,290.3,222.1,291.8,227.1,291.7L227.1,291.7z M227,297.1h-1.3c-3.3-0.1-6.4-1.3-8.9-3.5c-5.2-4.3-8.3-10.6-8.4-17.3
	c-0.1-4.8,0.8-9.6,2.6-14.1c2.4-7,5.9-13.5,10.3-19.4c2-2.3,3.6-4.1,5.2-5.6c1.3-1.3,3.1-1.9,4.9-1.7c1.6-0.1,3.2-0.4,4.7-0.9
	l4.1-1.2c1.3-0.4,2.7-0.8,4.1-1.2c6-1.4,12.3-0.7,17.8,1.9c5,2.3,9,6.3,11.2,11.4c1.6,3.5,1.7,7.5,0.1,11
	c-2.3,5.6-5.5,10.8-9.4,15.4c-6,7.6-13.1,14.4-21,20C238.3,295.3,232.7,297.1,227,297.1L227,297.1z M230.7,236.5
	c-1.4,0-2.7,0.5-3.6,1.5c-1.8,1.7-3.5,3.6-5.1,5.5c-4.3,5.8-7.7,12.3-10.1,19.1c-1.8,4.3-2.7,9-2.6,13.7l0,0c0.1,6.4,3,12.5,8,16.5
	c2.3,2,5.2,3.2,8.3,3.3c5.9,0.3,11.8-1.5,16.6-4.9c7.8-5.6,14.8-12.3,20.8-19.8c3.8-4.6,6.9-9.7,9.2-15.2c1.5-3.2,1.4-7-0.1-10.2
	c-2-4.9-5.9-8.8-10.7-10.9c-5.9-2.6-11.5-3.3-17.2-1.9c-1.3,0.3-2.7,0.8-4,1.1s-2.7,0.8-4.1,1.2c-1.6,0.5-3.3,0.8-5,0.9
	C231.1,236.5,230.9,236.5,230.7,236.5L230.7,236.5z M226.6,292.2c-4.7,0-7.4-1.5-9.1-5c-2.3-4.4-3-9.5-1.8-14.4
	c1.5-6.9,4.2-13.4,7.9-19.4l0.1-0.1c0.1-0.1,0.2-0.2,0.2-0.3c0.6-1,1.6-1.9,2.7-2.4c1.3-0.5,2.3-1.6,2.7-2.9c0.5-2.4,2.6-3.7,4.5-5
	c0.4-0.3,0.8-0.5,1.2-0.8c4.4-2.9,9.2-4.2,15.1-5.2c3.8-0.8,7.8-0.4,11.4,1.2c6.1,2.6,8.9,8.9,6.7,14.9c-1.4,3.8-3.3,7.4-5.6,10.7
	c-6.7,9.6-15.1,17.9-24.7,24.5c-3.1,2.3-6.8,3.8-10.7,4.1l0,0C227,292.2,226.8,292.2,226.6,292.2L226.6,292.2z M224.4,253.9
	c-3.6,5.9-6.2,12.4-7.7,19.1c-1.1,4.7-0.5,9.6,1.8,13.8c1.6,3.3,4,4.6,8.6,4.4c3.7-0.3,7.2-1.7,10.2-3.9
	c9.5-6.6,17.8-14.8,24.5-24.3c2.2-3.3,4.1-6.8,5.4-10.5c2.1-5.6-0.4-11.2-6.1-13.7c-3.4-1.5-7.2-1.9-10.8-1.2
	c-5.8,1-10.5,2.2-14.7,5c-0.4,0.3-0.8,0.6-1.2,0.8c-1.8,1.2-3.6,2.4-4,4.4c-0.5,1.6-1.7,2.9-3.2,3.5c-1,0.4-1.8,1.1-2.3,2
	C224.7,253.5,224.6,253.7,224.4,253.9L224.4,253.9z M928,280.9c-0.3,3.5-0.5,6.5-0.8,9.5c0,0.8-0.2,1.7-0.6,2.4
	c-0.5,0.9-1.6,1.3-2.6,0.9l0,0c-2.1-0.8-3.3-3-3-5.2c0.8-10.1,2.2-20.2,2.2-30.3c0-3.8,0.2-7.7,0.3-11.5c0.1-0.6,0.2-1.2,0.3-1.7
	c1.5-1.3,3.1-1.3,4.3-0.2c1,0.8,1.7,1.9,2,3.2c0.1,2,0,4-0.4,5.9c-0.3,1.6-0.8,3.2-0.1,5.1c2.8-0.3,3.6-2.5,4.2-4.4
	c2.3-6.8,7-12.1,11.6-17.2c3.9-4.3,9.6-4,13.6,0.1c1.9,2,2.7,4.7,2.1,7.4c-0.8,5.9-1.6,11.9-2.5,17.8c-1.2,7.9-2.7,15.7-3.8,23.6
	c-0.4,2.4,0,5-0.2,7.5c-0.1,0.9-0.6,2.2-1.2,2.4c-1,0.1-1.9-0.2-2.6-0.9c-1.6-1.3-2.4-3.3-2-5.3c1.1-7.6,2.4-15.1,3.4-22.7
	s1.7-15.5,2.5-23.3c0.1-0.7,0-1.3-0.1-2c-0.2-1-1.1-1.7-2.1-1.5c0,0,0,0,0,0c-0.2,0-0.4,0.1-0.6,0.2c-0.7,0.4-1.4,0.9-2,1.5
	c-1.6,1.7-3.2,3.4-4.6,5.3c-6,8.5-10.8,17.6-13,27.8C931.7,277.9,930.7,279.9,928,280.9L928,280.9z M953,296.7c-1,0-1.9-0.4-2.6-1.1
	c-1.7-1.4-2.6-3.6-2.1-5.8c0.4-3.1,0.9-6.1,1.4-9.2c0.7-4.4,1.4-9,2-13.5c0.8-5.8,1.4-11.8,1.9-17.6l0.6-5.7c0.1-0.6,0-1.1-0.1-1.7
	V242c-0.1-0.7-0.8-1.2-1.5-1.1c-0.2,0-0.3,0.1-0.5,0.2c-0.7,0.4-1.3,0.9-1.9,1.4c-1.5,1.6-3.2,3.4-4.6,5.2
	c-6.7,9.5-11,18.6-12.9,27.6c-0.5,2.3-1.4,4.7-4.3,5.8c-0.1,1.2-0.2,2.3-0.3,3.5c-0.2,2-0.3,3.9-0.5,5.7c0,0.9-0.2,1.8-0.6,2.6
	c-0.5,1.2-1.9,1.7-3.1,1.1c0,0-0.1,0-0.1,0c-2.3-0.9-3.6-3.3-3.3-5.7c0.2-3,0.5-6.1,0.8-9.1c0.8-7,1.3-14.1,1.4-21.2
	c0-2.6,0.1-5.2,0.2-7.7c0-1.3,0.1-2.5,0.1-3.8v-0.2c0.1-0.6,0.2-1.1,0.3-1.6v-0.2l0.1-0.1c1.3-1.4,3.6-1.5,5-0.2
	c1,0.9,1.8,2.1,2.1,3.4c0.1,2,0,4.1-0.4,6.1c0,0.2-0.1,0.4-0.1,0.7c-0.4,1.2-0.4,2.5-0.1,3.8c2.1-0.4,2.8-2,3.4-4
	c2.4-7.1,7.3-12.5,11.7-17.4c1.7-2,4.2-3.2,6.8-3.3c2.9,0,5.6,1.2,7.5,3.4c2,2,2.7,4.5,2.2,7.8l-0.3,2c-0.7,5.2-1.4,10.6-2.2,15.8
	c-0.5,3.4-1.1,6.9-1.7,10.2c-0.7,4.4-1.5,8.9-2.1,13.4c-0.2,1.4-0.2,2.8-0.2,4.2v3.3c-0.1,0.8-0.6,2.5-1.5,2.8h-0.1
	C953.3,296.7,953.2,296.7,953,296.7L953,296.7z M952.9,240c1.1,0,2,0.8,2.2,1.9v0.2c0.1,0.7,0.2,1.3,0.1,2l-0.6,5.7
	c-0.6,5.8-1.2,11.8-1.9,17.6c-0.6,4.5-1.3,9.1-2,13.5c-0.5,3.1-1,6.1-1.4,9.2c-0.4,1.8,0.3,3.7,1.8,4.8c0.6,0.6,1.4,0.9,2.2,0.8
	c0.5-0.6,0.8-1.3,0.8-2c0.1-1.1,0.1-2.1,0-3.2c-0.1-1.4,0-2.9,0.2-4.3c0.6-4.5,1.4-9,2.1-13.4c0.6-3.3,1.1-6.8,1.7-10.2
	c0.8-5.2,1.5-10.6,2.2-15.8l0.3-2c0.4-2.9-0.2-5.2-2-7c-1.8-1.9-4.2-3-6.8-3.1c-2.3,0.1-4.6,1.1-6.1,2.9c-4.3,4.8-9.2,10.2-11.5,17
	c-0.5,1.7-1.4,4.4-4.6,4.7h-0.4l-0.1-0.4c-0.5-1.5-0.5-3.2-0.1-4.7c0-0.2,0.1-0.4,0.1-0.7c0.4-1.9,0.5-3.9,0.4-5.8
	c-0.3-1.1-0.9-2.1-1.8-2.8c-1-0.9-2.6-0.9-3.5,0.1c-0.1,0.5-0.2,0.9-0.2,1.4v0.1c0,1.2-0.1,2.5-0.1,3.7c-0.1,2.5-0.2,5.2-0.2,7.7
	c0,7.1-0.7,14.3-1.4,21.3c-0.3,3-0.6,6.1-0.8,9.1c-0.3,2,0.8,3.9,2.7,4.7c0.7,0.4,1.6,0.1,2-0.6c0,0,0,0,0-0.1
	c0.4-0.7,0.5-1.4,0.5-2.2c0.2-1.9,0.3-3.8,0.5-5.8c0.1-1.2,0.2-2.4,0.3-3.8v-0.3l0.3-0.1c2.5-0.9,3.4-2.8,4-5.2
	c2-9.2,6.3-18.3,13.1-28c1.4-1.9,3.1-3.7,4.6-5.4c0.6-0.6,1.3-1.1,2.1-1.6c0.3-0.1,0.5-0.3,0.8-0.3C952.6,240,952.8,240,952.9,240
	L952.9,240z M704.2,256.5c1-0.6,2.2-1,3.3-1.3c7.3-1.3,13.9-4.5,20.4-7.9c3.7-2,7.5-3.6,11.8-3.4c1.5,0.1,2.9,0.5,4.3,1.1
	c1.1,0.5,1.8,1.7,1.5,2.9c-0.1,1.2-1.2,2-2.4,1.9c0,0,0,0,0,0h-0.2c-5.5-0.6-10,2-14.6,4.4c-2,1.1-4.1,2-7.1,3.5
	c1.8,0.5,2.5,0.9,3.1,0.8c7.9-0.8,15.6,0.7,23.2,2.6c3.6,0.9,6.9,2.6,9.8,4.8c3.8,2.9,4,5.7,0.9,9.2c-3.3,3.7-7.6,6-12,8
	c-4.1,1.9-8.5,2.9-13,3.1c-8.7,0.2-17.3,0.2-26,0.4c-3.6,0.1-6-1.3-7.5-4.9c1.3-2.8,3.8-3.2,6.5-3.5c0.9,1,1.5,2.4,2.6,2.9
	c1.2,0.5,2.6,0.7,3.9,0.6c6.5-0.2,13-0.2,19.4-0.8c6.9-0.5,12.7-3.8,17.8-8.3c0.9-0.9,1.7-1.9,2.3-3c-0.9-2.3-2.8-2.6-4.5-3.1
	c-7.2-2.4-14.7-2.5-22.2-2.4c-3.2,0.1-6.3,0.1-9.5,0c-1.7-0.1-3.3-0.3-5-0.5C707.3,262.9,705.1,260.6,704.2,256.5z M706.9,287.1
	c-3.7,0-6.1-1.7-7.6-5.2l-0.1-0.2l0.1-0.2c1.5-3.2,4.5-3.5,6.9-3.8h0.3l0.2,0.2l0.9,1.2c0.5,0.7,1,1.4,1.6,1.6
	c1.2,0.5,2.4,0.7,3.7,0.6c1.6-0.1,3.3-0.1,4.9-0.1c4.8-0.1,9.7-0.2,14.5-0.7c6-0.4,11.8-3.1,17.5-8.2c0.8-0.8,1.5-1.7,2.1-2.7
	c-0.7-1.7-2.1-2-3.6-2.4l-0.5-0.1c-7.1-2.4-14.5-2.5-22.1-2.4c-3.2,0.1-6.3,0.1-9.5,0c-1.6-0.1-3-0.3-4.6-0.4l-0.5-0.1
	c-3.9-0.7-6.3-3.2-7.2-7.5l-0.1-0.4l0.3-0.2c1.1-0.6,2.2-1,3.4-1.3c7.4-1.3,14.1-4.6,20.3-7.9c3.5-1.9,7.5-3.7,12.1-3.5
	c1.5,0.2,3.1,0.5,4.5,1.1c1.3,0.6,2.1,2,1.8,3.5c0,0.7-0.4,1.3-1,1.7c-0.6,0.4-1.3,0.6-2,0.6H743c-5.1-0.5-9.2,1.6-13.5,3.9
	l-0.9,0.5c-1.2,0.7-2.4,1.2-3.8,1.9c-0.7,0.3-1.4,0.7-2.1,1c0.1,0,0.3,0.1,0.4,0.1c0.4,0.2,0.9,0.3,1.3,0.3c8.1-0.8,16,0.8,23.4,2.6
	c3.6,0.9,7,2.6,10,4.9c2,1.5,3.1,3.1,3.2,4.7s-0.6,3.3-2.3,5.2c-3.4,3.8-7.9,6.2-12.2,8.1c-4.2,1.9-8.6,2.9-13.2,3.1
	c-4.4,0.1-8.8,0.2-13,0.2s-8.6,0.1-13,0.2C707.2,287.1,707,287.1,706.9,287.1z M700.2,281.7c1.4,3.1,3.5,4.5,6.9,4.4
	c4.4-0.1,8.8-0.2,13-0.2s8.6-0.1,13-0.2c4.4-0.1,8.8-1.2,12.8-3.1c4.2-1.9,8.5-4.2,11.8-7.9c1.5-1.7,2.1-3.1,2-4.5s-1.1-2.6-2.8-4
	c-2.8-2.2-6.1-3.8-9.6-4.7c-7.3-1.8-15.1-3.4-23-2.6c-0.6,0-1.2-0.1-1.7-0.3c-0.4-0.1-0.9-0.3-1.5-0.5l-1.3-0.3l1.2-0.6
	c1.2-0.6,2.3-1.1,3.3-1.6l3.8-1.9l0.9-0.5c4.3-2.2,8.7-4.6,14-4h0.1c0.5,0,0.9-0.1,1.3-0.4c0.3-0.3,0.5-0.7,0.6-1.1
	c0.2-1-0.3-2-1.2-2.4c-1.3-0.6-2.7-0.9-4.1-1.1c-4.3-0.2-8.1,1.5-11.5,3.3c-6.3,3.3-13.1,6.6-20.5,8c-1,0.3-1.9,0.7-2.8,1.1
	c0.9,3.7,2.9,5.7,6.3,6.3l0.4,0.1c1.5,0.2,3,0.4,4.5,0.4c3.2,0.1,6.3,0.1,9.5,0c7.7-0.1,15.1,0,22.4,2.4l0.5,0.1
	c1.6,0.4,3.4,1,4.3,3.3l0.1,0.2l-0.1,0.2c-0.6,1.1-1.5,2.2-2.4,3.1c-5.9,5.2-11.9,8-18.1,8.4c-4.8,0.5-9.8,0.6-14.6,0.7
	c-1.6,0-3.2,0.1-4.8,0.1c-1.4,0.1-2.8-0.1-4.1-0.6c-0.8-0.5-1.5-1.2-2-2l-0.6-0.9C703.4,279,701.4,279.5,700.2,281.7L700.2,281.7z
	 M799.9,239.3c4.3-0.4,5.6,0.7,5.6,4.2c0,0.7-0.1,1.3-0.2,2c-1.6,9.5-1.3,19.2-2.3,28.8c-0.5,4.4-0.3,8.9,0.6,13.3
	c0.2,0.7-0.1,2-0.5,2.2c-0.9,0.4-1.8,0.4-2.7,0.1c-1-0.6-1.8-1.5-2.2-2.6c-0.5-1.2-0.7-2.6-0.5-3.9c1.5-7.9,0.3-15.9,0.7-23.8
	c0.3-5.7,0.5-11.3,0.8-17C799.5,241.5,799.7,240.4,799.9,239.3L799.9,239.3z M801.6,290.6c-0.5,0-0.9-0.1-1.4-0.2h-0.1
	c-1.1-0.7-1.9-1.6-2.4-2.8c-0.6-1.3-0.7-2.8-0.5-4.2c0.7-4.9,1-9.9,0.7-14.9c-0.1-2.9-0.1-5.9,0-8.9c0.1-2.8,0.3-5.7,0.4-8.5
	s0.2-5.7,0.4-8.5v-0.1c0.3-1.1,0.5-2.2,0.7-3.3l0.1-0.4h0.4c2.5-0.2,4,0,5,0.9c0.8,0.8,1.2,1.9,1.2,3.8c0,0.6-0.1,1.3-0.2,1.9v0.2
	c-0.8,5.6-1.3,11.3-1.5,17c-0.2,3.9-0.4,7.8-0.8,11.7c-0.5,4.4-0.3,8.8,0.6,13.1c0.2,0.8,0,2.4-0.8,2.7
	C802.8,290.5,802.2,290.7,801.6,290.6z M800.6,289.4c0.7,0.3,1.6,0.2,2.3-0.1c0.2-0.5,0.3-1.1,0.2-1.6c-0.9-4.4-1.1-9-0.6-13.5
	c0.4-3.9,0.6-7.8,0.8-11.7c0.2-5.7,0.7-11.4,1.5-17.1v-0.2c0.1-0.6,0.2-1.1,0.2-1.7c0.1-1.1-0.2-2.2-0.9-3.1
	c-0.7-0.6-1.8-0.8-3.8-0.7c-0.2,1-0.4,1.9-0.6,2.9c-0.1,2.8-0.3,5.6-0.4,8.4s-0.2,5.7-0.4,8.5s-0.1,5.9,0,8.8c0.3,5,0,10.1-0.7,15.1
	c-0.2,1.2,0,2.5,0.5,3.6C799,288,799.7,288.9,800.6,289.4z M799.9,239.3l0.5,0.1L799.9,239.3z M796.9,215.5c1.7,0.8,3.5,1.6,5.1,2.5
	c1,0.5,1.3,1.7,0.8,2.7c0,0.1,0,0.1-0.1,0.1l-0.1,0.2c-0.5,1-1.7,1.4-2.7,0.9c0,0,0,0,0,0c-0.1-0.1-0.2-0.1-0.3-0.2
	c-1.1-0.7-2-1.6-2.7-2.6C796.6,218.4,796.9,217.3,796.9,215.5z M800.8,222.6c-0.4,0-0.8-0.1-1.1-0.3l-0.1-0.1
	c-0.1,0-0.2-0.1-0.3-0.2c-1.1-0.7-2-1.6-2.8-2.7l-0.1-0.1c-0.2-0.7-0.2-1.4-0.1-2.1c0-0.5,0.1-1.1,0.1-1.7v-0.8l1.7,0.8
	c1.4,0.6,2.8,1.3,4.1,2c1.2,0.6,1.6,2.1,1,3.3c0,0.1-0.1,0.2-0.2,0.3l0,0C802.7,222,801.8,222.6,800.8,222.6L800.8,222.6z
	 M800.2,221.5c0.7,0.3,1.6,0,2-0.7l0.3-0.5c0.1-0.3,0.1-0.7,0.1-1c-0.1-0.4-0.4-0.7-0.7-0.9c-1.3-0.7-2.7-1.4-4.1-2l-0.3-0.1
	c0,0.3,0,0.7-0.1,1c-0.1,0.5-0.1,1,0,1.5c0.7,1,1.5,1.8,2.5,2.4l0.1,0.1C800,221.4,800.1,221.4,800.2,221.5L800.2,221.5z"/>
</svg>
