<?xml version="1.0" encoding="utf-8"?>
<!-- Generator: Adobe Illustrator 21.1.0, SVG Export Plug-In . SVG Version: 6.00 Build 0)  -->
<svg version="1.1" id="Layer_1" xmlns="http://www.w3.org/2000/svg" xmlns:xlink="http://www.w3.org/1999/xlink" x="0px" y="0px"
	 viewBox="0 0 915 363" style="enable-background:new 0 0 915 363;" xml:space="preserve">
<style type="text/css">
	.st0{fill:#FAEDE7;}
</style>
<path class="st0" d="M370.5,295.1c0.2,3,0.2,4.7,0.4,6.5c0,4.6-3.3,7.5-7.5,6.3c-1.8-0.7-3.1-2.3-3.5-4.2
	c-0.5-16.3-0.7-32.6-0.7-48.8c0-3.8-1.4-5.2-5.1-5.1c-4.7,0.2-9.6,0.3-14.4,0.2c-16.6-0.5-33.1-1.4-49.7-1.9c-8-0.2-15.9,0.2-24,0.3
	c-4.2-0.2-7.7-3.2-8.4-7.2c-1.2-12.6-2.6-25.2-3.5-37.8c0-4,0.2-8.2,0.5-12.2c0.2-5.4,0.5-10.7,0.5-16.1c-0.2-12.6-0.5-25-0.7-37.4
	c-0.4-17.2-0.7-34.3-1.2-51.5c-0.4-11.5-1.1-22.9-1.2-34.5c-0.2-13.6-0.4-27.3,0-41c0-3.2,1.9-6.5,3.5-9.6c0.4-0.7,2.3-1.2,3.5-1.1
	c8.8,0.4,17.5,1.1,26.4,1.6c10.1,0.5,20.1,0.9,30.3,1.2c3.5,0.2,7.2-0.4,11-0.4c14.5,0.4,29.2,0.9,43.8,1.2c8.2,0.2,16.4,0,24.7-0.2
	c14.4-0.2,28.7-0.4,43-0.9c7.7-0.2,15.2-1.6,22.9-1.8c12.8-0.2,25.6,0.3,38.3,0.7c1.6,0,3.1,0,4.7,0c7.4,0.4,9.5,4.4,6.8,11.4
	c-1.2,3.3-0.9,7.3-1.1,11c0.2,1.1,1.1,1.8,1.9,2.1c3.1,0,4,2.1,5.3,4.4c0.9,1.4,2.1,2.6,3.7,3.5c11.2,5.6,22.6,11.2,34,16.6
	c5.6,2.6,11.4,5.1,17,7.7c4.5,2.1,8.9,4.9,13.5,7c7.7,3.5,15.8,6.8,23.5,10.2c7.2,3.2,14.2,6.5,21.3,9.5c5.2,2.3,10.5,4,15.9,5.8
	c1.9,0.5,4.2-0.2,6.3-0.5c2.1-0.4,4.2-0.5,6.5-0.7c2.1,0,2.8,1,2.8,3.3c0,8.4,0.2,16.8,0.2,25.4c0,7-0.5,14-0.5,20.8
	c0,4.9,0.5,10,0.4,14.9c-0.5,10.7-1.6,21.2-2.3,31.7c-1,15.6-1.9,31-2.6,46.6c0.4,1.4,1,2.8,2.5,3.5c5.4,3.8,5.8,6.3,0.9,10.8
	c-7.5,6.7-15,13.1-22.4,19.9c-3,2.6-5.4,5.6-8,8.4c-12.2,13.3-25.9,25.2-40.6,35.9c-7.3,5.2-13.6,11.9-21.2,16.8
	c-8.4,5.2-15.1,12.1-21.7,19.1c-5.1,5.1-10.7,9.8-16.6,13.8c-2.3,1.6-5.9,1.2-8.9,1.8c-0.5,0-1.8-0.7-1.8-1.1
	c-0.4-6.6-6.3-5.9-10.1-7.7c-7.2-3.3-14.5-5.8-21.5-9.3c-21.2-10.3-41.6-22.4-64.1-30.3c-14.4-5.1-29.1-9.6-43.4-14.3
	C376.4,297.7,373.8,296.5,370.5,295.1z M325.3,239.1v0.4c9.8,0,19.4-0.2,29.2,0c3.1,0,4-1.1,3.9-4.2c-0.7-19.1-1.2-38.2-1.8-57.2
	c-0.5-15.1-1.2-29.9-5.9-44.3c-0.9-2.6,0-3.8,2.4-5.1c5.8-2.6,11.6-5.8,17-9.1c8-5.4,15.4-11.9,23.4-17.3
	c10.5-7,21.2-13.5,31.9-20.1c9.8-6.3,19.8-12.4,29.6-18.9c7.9-5.1,15.8-10.3,23.4-15.8c5.8-4,11.2-8.8,17.1-12.6
	c3.5-2.3,5.1-4.4,4.2-8.8c-0.5-3.5-0.7-7-0.2-10.5c0.2-3.2-1.1-4-4-4.2c-8-0.2-16.1-0.7-24.3-0.7c-5.4,0-11,0.4-16.4,0.9
	c-4.6,0.4-8.9,1.6-13.3,1.8c-10.5,0.2-21.2,0-31.7,0c-13.1,0-26.1,0.4-39.2,0c-13.1-0.3-26.4-1.2-39.6-1
	c-15.9,0.2-31.9,1.4-47.8-1.2c-5.6-0.9-11.6-0.2-17.3,0.3c-1.4,0.3-2.4,1.6-2.8,3c0,5.6,0.4,11.2,0.5,16.8c0.2,3.5,0.4,7,0.2,10.3
	c-0.2,4.4-1,8.8-1,13c0.2,8.8,1.2,17.7,1.4,26.6c0.5,26.1,1.1,52,1.4,78c0.2,9.4,0,18.9,0.2,28.3c0.2,10.2,0.4,20.3,0.7,30.5
	c0.2,4.9,0.9,9.8,1.4,14.7c0.4,3.7,2.1,5.2,6.3,5.2C291.2,237.8,308.3,238.5,325.3,239.1L325.3,239.1z M530.4,344.6l0.9,0.9
	c4-4.2,8-8.6,12.1-12.8c3-3,6-5.8,9.3-8.4c4.7-3.5,10-6.5,14.7-10c4.4-3.3,8.2-7,12.2-10.5c11.4-9.6,22.9-19.1,34.1-29.1
	c7.2-6.5,13.3-14.4,20.7-20.5c6.8-5.6,10.5-11.4,10.7-20.3c0.2-11.7,1.9-23.4,2.8-35.2c0.7-8,1.2-16.3,1.8-24.3
	c0.3-3.8,0.7-7.5,0.9-11.2c0.3-11.6,0.7-23.3,0.7-34.8c0-7.2-1-14.3-1.6-22.8c-2.6,2.4-4.2,4.2-6.1,5.8c-9.5,7-18.7,14.2-28.4,20.8
	c-14.9,10.7-30.1,21.2-45.1,31.5c-6.8,4.7-13.8,8.9-20.7,13.6c-5.2,3.7-10.1,7.5-15.2,11.6c-1.1,1.1-1.6,2.3-1.8,3.7
	c-0.5,10-1.6,20.1-1.2,30.1c0.9,19.2,1.6,38.3,0.2,57.6c-1,15.6-0.9,31.5-1.2,47.1C530.2,333,530.4,338.8,530.4,344.6z M368.7,199.9
	l-1.2,0.2c0.5,11.9,1.2,23.8,1.4,35.7c0,4,1.9,5.2,5.1,5.2c12.9-0.2,25.7-0.3,38.7-0.7c13.6-0.3,27.3-1.1,40.9-1.2
	c15.8,0,31.3,0.3,47.1,0.7c2.6,0,4.7-0.2,4.9-3.9c0.2-15,0.7-30.3,0.7-45.3c-0.2-1.8-1.1-3.3-2.4-4.4c-1.9-1.6-4-3-6.1-4
	c-9.1-4.4-18-9.1-27.5-12.9c-14.9-6.3-30.1-12.2-45.1-18c-8.2-3.2-16.6-5.9-24.9-8.8c-9.3-3.3-18.6-6.5-27.8-9.4
	c-3.3-1.1-8.8,4-8.6,7.5C365.4,160.1,367.1,180.1,368.7,199.9z M518.7,344.2c0.4-2.4,0.7-4.4,0.7-6.3c0.2-11.7,0-23.6,0.5-35.4
	c0.5-15.6,1.6-31.1,2.5-46.6c0.3-6.1-0.7-7-7-6.7c-6.1,0.3-12.6,0.7-19.1,0.7c-17.3-0.2-34.6-0.7-51.8-0.9c-4.2,0-8.4,0-12.6,0.2
	c-14.2,0.7-28.4,1.4-42.7,2.1c-6.5,0.2-12.9,0-18.9,0c0,10.2,0,19.8,0,29.4c0.2,1.1,0.7,2.1,1.8,2.8c3.7,1.9,7.5,3.7,11.4,5.2
	c15.9,5.8,32.4,10.7,47.9,17.3c18.9,8.1,37.3,17.5,55.8,26.4C497.2,336.9,506.8,342.5,518.7,344.2L518.7,344.2z M511.5,39.7
	c-0.4,1.1-0.5,2.1-0.7,3.2c0.7,24.5,1.2,48.8,1.9,73.3c0.2,8.8,0.4,17.7,0.7,26.4c0,1,0,2.1,0,3.1c0.7,9.8,1.4,19.8,2.1,29.6
	c0.2,2.4-0.4,4.9,2.8,6.3c3.1,1.4,5.6,2.1,8.4-0.3c2.1-1.8,4.4-3.5,6.7-4.9c8.2-5.8,16.4-11.9,24.7-17.5c8.9-5.9,18.2-11.4,27-17.7
	c13.1-9.3,25.9-19.1,38.8-28.9c4.4-3.2,8.6-6.5,12.6-10c2.3-1.9,2.3-3.7-1-5.1c-10.2-4.4-21.2-6.8-30.3-13.5
	c-0.3-0.2-0.7-0.3-1.2-0.5c-13.3-5.8-26.6-11.2-39.5-17.3c-14.2-6.7-27.8-14.2-41.8-21.2C519,43.1,515.4,41.5,511.5,39.7L511.5,39.7
	z M504.9,174.5c0-6.3,0.2-11.4,0-16.5c-0.7-15.2-1.6-30.4-2.1-45.7c-0.2-6,0.2-11.9,0-17.9c-0.4-13-1-25.9-1.6-38.7
	c-0.2-3.9,0-7.7,0-12.1c-1.1,0.2-2.3,0.5-3.3,1.1c-6.5,4.7-12.8,9.6-19.2,14.2c-8.9,6.1-17.9,12.3-26.8,18.2
	c-5.1,3.5-10.5,6.7-15.8,10c-4.5,2.8-9.3,5.6-14,8.4c-6.1,3.7-12.4,6.8-18.4,10.9c-7.5,5.2-14.7,11.2-21.9,17c-0.4,0.3-0.5,1-1,2.3
	C422.8,139.8,464.4,154.4,504.9,174.5L504.9,174.5z M516.9,192.7c-0.2,2.5-0.4,4.9-0.4,7.2c0,11.6,0.2,23.1-0.3,34.8
	c-0.2,3.9,1,4.2,4.4,3.7c0-1.4,0.2-2.6,0.2-3.8c0-7.2-0.2-14.5,0-21.7c0-5.1,0.5-10.2,0.7-15.2C521.5,194.8,520.8,192.7,516.9,192.7
	L516.9,192.7z"/>
</svg>
