<?xml version="1.0" encoding="utf-8"?>
<!-- Generator: Adobe Illustrator 21.1.0, SVG Export Plug-In . SVG Version: 6.00 Build 0)  -->
<svg version="1.1" id="Layer_1" xmlns="http://www.w3.org/2000/svg" xmlns:xlink="http://www.w3.org/1999/xlink" x="0px" y="0px"
	 viewBox="0 0 1170 167" style="enable-background:new 0 0 1170 167;" xml:space="preserve">
<g>
	<path d="M1030.7,113.9c-5.1-1.3-6.3-2.6-6.2-6.8c0.2-6.2,1.8-12.2,3.6-18.1c1.8-5.7,3.7-11.4,5.2-17.1c1.2-4.5,2.1-9.1,2.9-13.7
		c0.5-2.8,0.3-2.9-1.3-6.6c-1.1,1.2-2.1,2.2-3.1,3.2c-4.8,5.4-8.3,11.6-12.2,17.6c-3.6,5.8-6.4,12.1-8.2,18.7
		c-1.2,4-1.6,4.2-5.6,2.8c-0.6-0.2-1.1-0.3-1.7-0.4c-3,6.2-1,13.6-4.5,19.6c-2.2,0.7-3.6-0.2-4.9-1.7c-1.1-1.3-1.5-3.1-1-4.7
		c1-4,2-8.1,3-12.1c2.6-10.8,3.9-21.9,3.9-33.1c-0.1-2-0.3-4-0.6-5.9c-0.1-1-0.2-1.9-0.3-2.8c4-0.5,6.6,0.7,7.5,4
		c0.6,2.4,0.8,4.9,0.6,7.4c-0.1,3.2-0.8,6.3-1,9.4c0,1.4,0.1,2.7,0.2,4.1c0.9-0.7,1.8-1.5,2.5-2.4c4.4-6.9,8.6-13.9,13.1-20.6
		c2.6-3.7,5.3-7.2,8.3-10.5c1.7-2,3.7-2.3,5.8-1c3.6,2.2,6.1,5.2,6.4,9.6c0.4,5.7,0.3,11.2-1.6,16.8c-2.7,7.7-4.9,15.6-7.3,23.3
		c-1.9,6.1-3.5,12.2-3.2,18.6C1031.1,112.1,1030.9,113,1030.7,113.9z"/>
	<path d="M165,39v4.9c1,0.3,1.9,0.6,2.8,0.8c5.2,0.9,10.4,2,15,5.1c5.3,3.6,8.7,8.6,11.1,14.4c1.7,4.1,0.5,8.2-0.9,12.1
		c-1.9,4.6-4.5,8.9-7.7,12.7c-5.3,6.7-11.1,12.9-17.5,18.5c-2.9,2.5-6,4.8-9.2,6.8c-10.7,6.9-24.9,2.6-29.6-10.7
		c-2.8-7.9-3-16.5-0.6-24.6c2-6.9,4.6-13.5,8.9-19.3c2.7-3.6,4.7-7.6,7.4-11.2c2.4-3,4.9-5.9,7.5-8.6c0.7-0.7,1.5-1.3,2.4-1.7
		C158.1,36.1,161.4,35.9,165,39z M148.2,55.1c-1.3,1.5-2.6,3.1-3.7,4.8c-2.7,4.9-5.5,9.9-7.9,15c-4.3,9.1-4.7,18.7-2.3,28.3
		c2.4,9.3,8.7,11.4,16.3,8.4c1.8-0.8,3.6-1.8,5.2-3c11.3-7.8,20.2-17.8,27.8-29c1.7-2.8,3.1-5.8,4.2-9c1.1-2.7,1.2-5.6,0.1-8.3
		c-2.6-6.4-6.9-11-13.8-12.5c-5.1-1.1-10.3-0.9-15.3,0.6c-1.6,0.5-3,1.5-3.9,2.8C153.1,55.5,151.2,56.4,148.2,55.1z"/>
	<path d="M257.5,87.6c-4.2-0.2-8.4,0.4-12.5,1.6c-4.1,1.3-8.2,2.6-12.4,3.8c-2.4,0.8-5.1,0.1-6.9-1.8c-1.8-1.6-2-4.3-0.4-6.1
		c0.2-0.2,0.3-0.3,0.5-0.5c7.5-6.5,12.9-14.7,18.6-22.7c4.5-6.4,8.9-12.9,13.3-19.3c1.6-2.4,3.8-2.9,7-1.8c2.6,0.9,3.6,2.4,3.2,5.4
		c-1,10.1-2.1,20.2-3.1,30.3c-0.2,1.8,0,3.6,0,5.3c2,1.3,4,1.4,6,1.8s3.9,0.8,5.8,1.3c1.7,0.3,3,1.5,3.3,3.2c-1.1,1.6-2.4,1-3.7,0.6
		c-3-1.1-6.1-1.6-9.3-1.5c-0.6,0-1.3,0.1-1.9,0.3c-1.4,1.5-1.4,3.5-1.5,5.2c-0.3,5.5-0.4,11-0.5,16.5c0,3,0.5,6,1.4,8.8
		c0.9,2.9,0.8,6.2,0.8,9.3c0,1.1-1.1,1.6-2.2,1.6c-2.8,0-5.1-2.2-5.2-5c-0.5-4.6-1-9.3-1.1-13.9c0-6,0.4-12,0.6-18
		C257.5,90.7,257.5,89.4,257.5,87.6z M237.5,83.9c7,0.1,13.3-1.2,19.9-1.7c0.4-2.1,0.9-3.8,1.1-5.6c0.3-2.8,0.5-5.6,0.8-8.5
		c0.3-3.7,0.6-7.3,0.9-11c-0.1-0.8-0.4-1.5-0.7-2.2c-0.8,0.5-1.3,0.6-1.6,1c-6.6,8.6-13.1,17.2-19.7,25.8
		C237.9,82.5,237.7,83.2,237.5,83.9L237.5,83.9z"/>
	<path d="M758.5,74.9c0.9-6.6,1.8-12.8,2.7-19.1c0-0.3-0.3-0.6-0.6-1.1c-0.7,0.1-1.4,0.4-2.1,0.8c-3,2.6-6.1,5.2-8.9,8
		c-4.2,4.1-6.5,3.8-9.7-1.6c0.6-0.9,1.3-1.7,2.1-2.5c5-4.6,10.5-8.7,16.4-12.2c1.6-0.9,3.2-1.7,5.2-1.2c4.4,1,6.1,3.4,5.6,7.9
		c-0.2,1.5-0.5,2.9-0.9,4.4c-1.9,7.3-2.5,14.8-3.5,22.2s-1.7,14.8-2.5,22.3c-0.2,1.8,0.1,3.7,0,5.5c-0.1,2.4-2.1,3.5-4.1,2.2
		c-2.4-1.4-3.2-3.7-3.2-6.3c0-1.2,0.3-2.3,0.4-3.5c-0.1-0.7-0.4-1.5-0.7-2.2c-1.2,0.7-2.2,1.2-3.1,1.9c-4.8,3.5-9.6,7.2-15.1,9.6
		c-6.4,2.7-11.5,1.2-15.3-3.2c-2-2.2-2.1-4,0.2-6.1c5-4.6,9.3-10,15.4-13.3c0.4-0.3,0.8-0.6,1.2-0.9C743.7,81.2,750.2,77,758.5,74.9
		z M728.8,105.1c1.9,1,3.6,0,5.2-0.8c7.5-3.3,13.7-8.6,20.4-13.3c0.9-0.7,1.7-1.6,2.2-2.7c0.9-1.7,1-3.4-0.7-4.8
		C748.3,85.8,730.9,99.6,728.8,105.1L728.8,105.1z"/>
	<path d="M496.5,58.1c-0.7,0.6-1.4,1.3-1.9,2c-4.5,7-7.7,14.8-9.3,23c-0.4,2-0.7,3.9-1.2,5.9c-0.4,1.5-0.9,2.9-2.6,3.4
		c-1.3,0.4-1.7,1.5-1.9,2.7c-0.5,3.2-0.9,6.4,0.2,9.4c0.9,2.6,0.4,4.9-0.2,7.3c-0.6,2.2-1.6,2.9-3.5,2.7c-1.9-0.1-3.5-1.6-3.6-3.5
		c0-1.2,0-2.3,0.2-3.5c0.4-3.5,1-6.9,1.2-10.4c0.2-2.6,0-5.3,0.1-7.9c0.2-6.2,0.5-12.3,0.7-18.5c0.1-2.3-0.1-4.7-0.1-7
		c0-1-0.2-2-0.2-3c0-2.7,0.9-4,2.6-4.1c2.5-0.3,4.7,1.4,5.1,3.8l0,0c0,0.1,0,0.2,0,0.3c0.1,1.1,0.1,2.3,0.3,4.2
		c1.1-1.3,1.7-1.9,2.2-2.6c2.2-3.1,4.3-6.4,6.6-9.4c1.1-1.4,2.6-2.6,4.2-3.5c2.8-1.6,6.4-0.6,8,2.2c0.5,0.8,0.7,1.7,0.8,2.7
		c0.6,12,0.9,24-0.7,35.9c-0.9,6.4-1.7,12.8-2.6,19.3c0,0.8-0.3,1.6-0.7,2.3c-0.5,0.6-1.3,1-2.1,1c-2.2-0.4-3.8-2.3-3.8-4.5
		c0-0.8,0.1-1.7,0.3-2.5c3.8-13.5,3.9-27.3,3.2-41.2c-0.1-2.1-0.3-4.2-0.4-6.3L496.5,58.1z"/>
	<path d="M555.1,58.4c-0.8,0.8-1.5,1.6-2.1,2.5c-3,5-5.2,10.4-6.5,16.1c-0.1,0.7-0.2,1.3-0.3,2c-0.5,2.3-1.4,4.1-4.2,4
		c-0.5,0.1-0.9,0.3-1.3,0.5c-2.4,7.1-3,14.4-3.8,21.6c-0.1,1.1,0.3,2.3,0.3,3.5c0,1.8-0.2,3.6-0.5,5.4c-0.3,1.5-1.7,2.4-3.2,2.1
		c-0.2,0-0.5-0.1-0.7-0.2c-2.1-0.8-3.4-2.8-3.3-5.1c0.1-1.3,0.3-2.7,0.5-4c1.5-10.2,3.2-20.4,4.6-30.6c0.6-4.8,0.7-9.6,1-14.4
		c0.1-1.3,0.3-2.6,0.5-3.7c3.3-1.6,5.7,0.3,8.1,1.4c2-1,2.6-2.9,3.7-4.3c1.1-1.5,2.2-2.9,3.5-4.2c4.5-3.9,10.1-2,11.4,3.9
		c1.1,5.3,0.6,10.6,0,15.9c-1.3,10.1-2.8,20.1-4,30.1c-0.3,2.3,0.2,4.6,0.4,6.9s-1,3.1-3,2.4c-3-1-4.4-2.8-4.4-5.9
		c0-3.3,0.2-6.6,0.6-9.9c1.1-8.7,2.5-17.5,3.7-26.2c0.2-2.5,0.3-5,0.2-7.5C555.9,60.1,555.6,59.2,555.1,58.4z"/>
	<path d="M848.9,49.8c-8.8,0-16.2,4.7-24,8.2c-2.5,1.1-3.4,2.9-3.6,5.4c-0.9,10.3-1.8,20.5-2.6,30.8c-0.2,1.6,0,3.3,0.6,4.8
		c1.1,2.4,1.3,5.2,0.6,7.8c-0.3,1.1-0.4,2.3-0.6,3.4c-0.6,2.9-2.5,3.8-5.1,2.6c-1.6-0.6-2.7-2-3-3.7c-0.2-1.3-0.3-2.7-0.2-4
		c0.8-8.4,1.8-16.8,2.6-25.3c0.4-4.5,0.6-9,0.8-13.4c0-0.5-0.5-1.1-0.9-2c-1.7,0.6-3.3,1.1-4.8,1.5c-2.3,0.7-4.7,0.2-6.6-1.3
		c-1.4-0.9-2.1-2.7-1.5-4.3c1.6-0.6,3.5-1.1,5.3-1.8c2.5-1,4.9-2,7.3-3.1c1.6-0.6,2.6-2.2,2.6-3.9c-0.1-4.2,1-8.2,1.5-12.4
		c0.6-4.6,0.8-9.2,0.8-13.8c-0.1-4.3,0.6-8.6,0.9-13c2-1.4,3.9-0.7,5.6,0.4s2.2,2.9,2,4.8c-0.2,2.2-0.7,4.3-1,6.4
		c-1,7.6-1.9,15.2-2.8,22.8c0,0.7,0.1,1.4,0.2,2.2c1.6,1.2,2.8,0.4,4,0c4.5-1.7,9-3.5,13.5-5.1c2.9-1.1,6.2-0.3,8.2,2.1
		c1.1,0.9,1.4,2.5,0.5,3.6L848.9,49.8z"/>
	<path d="M598.5,67l-2.9-5.8c0.9-0.9,1.5-2,2.4-2.4c8.9-4.3,17.9-5,26.7,0.3c6.3,3.8,8.1,9.8,8,16.7c-0.2,4-1.2,7.9-2.9,11.6
		c-4,9.6-10.9,17.7-19.7,23.3c-1.7,1.1-3.5,2-5.4,2.6c-5.1,1.6-10.6,0-14-4.1c-3.6-3.9-5.2-8.3-3.5-13.7c1.9-6.2,3.3-12.6,6.1-18.4
		C594.9,73.6,596.7,70.4,598.5,67z M610.6,61.1c0.5,0.5,0.8,1,1.2,1.5c2.2,2.4,2.2,3.6-0.7,4.7c-2.2,0.9-4,2.4-5.4,4.3
		c-6.2,8.1-10.2,17.6-11.8,27.7c-0.4,2.3,0,4.7,1.1,6.7c1.3,2.7,2.9,3.6,5.6,2.4c2.9-1.2,5.7-2.8,8.2-4.7
		c6.8-5.2,12.1-11.9,15.6-19.7c2-4.4,2.7-9.2,2-14C625.6,62,618.8,58.2,610.6,61.1L610.6,61.1z"/>
	<path d="M940,107.1c-11-0.2-17.6-10-14.5-19c2-5.5,5-10.5,8.9-14.9c3.8-4.4,8-8.4,12.1-12.5c1.2-1.2,2.6-2.2,4.5-1.5
		c2.1,0.7,3.8,0.1,5.8-0.6c3.6-1.5,7.6-1.4,11.2,0.2c3.2,1.5,5.6,4.4,6.4,7.8c1.3,4.7,0.6,9.2-1,13.6c-2,5.5-5.9,9.5-9.7,13.7
		c-4.3,4.5-9.3,8.1-14.9,10.7C945.5,106.1,942,106.5,940,107.1z M969.3,71.2c-0.2-2-0.2-3.2-0.4-4.3c-0.5-3.1-1.6-4.1-4.6-3.9
		c-1.2,0-2.3,0.3-3.4,0.7c-2.3,1-4.5,2.2-6.7,3.3c-9.9,5.2-16.8,13.4-21.7,23.3c-0.8,1.7-1.2,3.4-1.3,5.3c-0.2,4.1,2.2,6.3,6.2,5.7
		c2.3-0.3,4.6-0.9,6.7-1.9c7.6-3.7,14.2-8.6,19.2-15.5c1.7-2.5,3.1-5.1,4.3-7.8C968.3,74.4,968.8,72.8,969.3,71.2L969.3,71.2z"/>
	<path d="M679.2,114.1c-1.8,1.1-4.2,0.8-5.7-0.8c-1.9-1.7-3.2-3.9-3.7-6.4c-1.5-7.5-3.1-15-4.4-22.5c-1.7-10.2-3.1-20.4-6.7-29.9
		c0.6-1.5,2.3-2.1,3.7-1.5l0,0l0.2,0.1c2,0.8,3.9,2,4.5,4.4c0.7,3.2,1.4,6.5,1.9,9.8c1.5,9.4,2.8,18.7,4.3,28.1
		c0.3,1.8,0.8,3.5,1.3,5.7c1.1-0.7,2-0.9,2.4-1.4c2.2-3.5,4.3-7.1,6.4-10.7c1.4-2.4,2.9-4.8,4.3-7.3c2-3.5,3.8-7,5.8-10.5
		c3.2-5.7,6.3-11.3,9.5-17c0.3-0.6,0.7-1.1,1.1-1.7c1.8,0.5,3.5,1,5.2,1.7c1.6,0.6,2.4,2.3,1.8,3.8c-0.1,0.2-0.2,0.5-0.4,0.7
		c-0.2,0.3-0.4,0.6-0.6,0.8c-7,8.3-11.9,18-17.4,27.3c-3.2,5.4-6.6,10.8-9.8,16.2C681.1,106.5,679,109.9,679.2,114.1z"/>
	<path d="M885.2,52.3c2.7-0.9,4.7,0,6.5,1.7c1.1,1.1,1.5,2.7,1.1,4.1c-0.8,3.4-1.5,6.8-2.2,10.2c-2,8.6-4.1,17.1-6.1,25.7
		c-0.8,3.2-1.2,6.5-0.3,9.8s-0.9,6.8-1.5,10.2c-0.2,1-1.4,1.3-2.5,1.2c-3.1-0.3-5.4-3.1-5.3-6.2c0.2-2.5,0.6-5,1.1-7.4
		c2-9.4,4.2-18.8,5.9-28.3c1.2-6.4,3-12.7,2.8-19.2C884.8,53.5,885,52.9,885.2,52.3z"/>
	<path d="M435,114.4c-5.2,1.2-7.8-0.6-7.3-5c1-9.9,0.8-19.9,1.1-29.8c0.2-9.6,0.8-19.2,1.2-29c2.3-1.8,4.5-1.1,6.8,0.3
		c1,1.7,1.3,3.8,0.8,5.7c-1.7,11.8-2.6,23.8-2.5,35.7C435.1,99.6,435,106.9,435,114.4z"/>
	<path d="M431.6,19.2c3.8,0.4,5.5,2.8,4.5,5.7c-1.1,3.1-2.8,6-5,8.4c-1.2,1.5-3.3,1.9-4.9,0.9c-1.8-0.9-2.9-2.9-2.5-4.9
		c0.6-3.4,2.4-6.6,5.1-8.8C429.7,19.8,430.6,19.4,431.6,19.2z"/>
	<path d="M882.9,25.9c2.2,0,4.3,0.7,6.1,2c1.3,0.8,1.7,2.6,0.9,3.9l0,0v0.1c-0.8,1.2-2.4,1.6-3.6,0.8c-0.1-0.1-0.2-0.1-0.3-0.2
		C883.9,30.9,882.1,29.2,882.9,25.9z"/>
</g>
</svg>
