<svg id="Layer_1" data-name="Layer 1" xmlns="http://www.w3.org/2000/svg" viewBox="0 0 1170 555"><defs><style>.cls-1{fill:#faede7;}</style></defs><title>4-innovation</title><path class="cls-1" d="M451.08,451.85c.31,4.6.31,7.2.61,10,0,7.05-5.06,11.5-11.5,9.66a8.81,8.81,0,0,1-5.36-6.44c-.77-25-1.07-50-1.07-74.79,0-5.82-2.15-8-7.82-7.82-7.2.31-14.71.46-22.07.31-25.44-.77-50.73-2.15-76.17-2.91-12.26-.31-24.37.31-36.78.46a13.59,13.59,0,0,1-12.87-11c-1.84-19.31-4-38.62-5.36-57.94,0-6.13.31-12.57.77-18.7.31-8.28.77-16.4.77-24.68-.31-19.31-.77-38.32-1.07-57.32-.61-26.36-1.07-52.57-1.84-78.93-.61-17.63-1.69-35.1-1.84-52.88-.31-20.84-.61-41.84,0-62.84,0-4.9,2.91-10,5.36-14.71.61-1.07,3.53-1.84,5.36-1.69C293.67.18,307,1.25,320.65,2c15.48.77,30.81,1.38,46.44,1.84,5.36.31,11-.61,16.86-.61,22.22.61,44.75,1.38,67.13,1.84,12.57.31,25.14,0,37.86-.31,22.07-.31,44-.61,65.9-1.38,11.8-.31,23.3-2.45,35.1-2.76,19.62-.31,39.24.46,58.7,1.07h7.2c11.34.61,14.56,6.74,10.42,17.47-1.84,5.06-1.38,11.19-1.69,16.86a4.45,4.45,0,0,0,2.91,3.22c4.75,0,6.13,3.22,8.12,6.74a15.93,15.93,0,0,0,5.67,5.36C698.45,60,715.92,68.53,733.4,76.81c8.58,4,17.47,7.82,26.06,11.8,6.9,3.22,13.64,7.51,20.69,10.73,11.8,5.36,24.22,10.42,36,15.63,11,4.9,21.76,10,32.65,14.56,8,3.53,16.09,6.13,24.37,8.89,2.91.77,6.44-.31,9.66-.77a99.15,99.15,0,0,1,10-1.07c3.22,0,4.29,1.53,4.29,5.06,0,12.87.31,25.75.31,38.93,0,10.73-.77,21.46-.77,31.88,0,7.51.77,15.33.61,22.84-.77,16.4-2.45,32.49-3.53,48.59-1.53,23.91-2.91,47.51-4,71.42.61,2.15,1.53,4.29,3.83,5.36,8.28,5.82,8.89,9.66,1.38,16.55-11.5,10.27-23,20.08-34.33,30.5-4.6,4-8.28,8.58-12.26,12.87a417.42,417.42,0,0,1-62.23,55c-11.19,8-20.84,18.24-32.49,25.75-12.87,8-23.14,18.55-33.26,29.27a175.79,175.79,0,0,1-25.44,21.15c-3.53,2.45-9,1.84-13.64,2.76-.77,0-2.76-1.07-2.76-1.69-.61-10.12-9.66-9-15.48-11.8-11-5.06-22.22-8.89-33-14.25-32.49-15.79-63.76-34.33-98.24-46.44-22.07-7.82-44.6-14.71-66.52-21.92C460.12,455.84,456.14,454,451.08,451.85ZM381.8,366v.61c15,0,29.73-.31,44.75,0,4.75,0,6.13-1.69,6-6.44-1.07-29.27-1.84-58.55-2.76-87.67-.77-23.14-1.84-45.83-9-67.9-1.38-4,0-5.82,3.68-7.82a235.93,235.93,0,0,0,26.06-13.95c12.26-8.28,23.6-18.24,35.86-26.52,16.09-10.73,32.49-20.69,48.89-30.81,15-9.66,30.35-19,45.37-29,12.11-7.82,24.22-15.79,35.86-24.22,8.89-6.13,17.17-13.49,26.21-19.31,5.36-3.53,7.82-6.74,6.44-13.49a56.64,56.64,0,0,1-.31-16.09c.31-4.9-1.69-6.13-6.13-6.44C630.4,16.73,618,16,605.42,16c-8.28,0-16.86.61-25.14,1.38-7.05.61-13.64,2.45-20.38,2.76-16.09.31-32.49,0-48.59,0-20.08,0-40,.61-60.08,0-20.08-.46-40.46-1.84-60.69-1.53-24.37.31-48.89,2.15-73.26-1.84-8.58-1.38-17.78-.31-26.52.46-2.15.46-3.68,2.45-4.29,4.6,0,8.58.61,17.17.77,25.75a137,137,0,0,1,.31,15.79c-.31,6.74-1.53,13.49-1.53,19.92.31,13.49,1.84,27.13,2.15,40.77.77,40,1.69,79.7,2.15,119.55.31,14.41,0,29,.31,43.37.31,15.63.61,31.11,1.07,46.75.31,7.51,1.38,15,2.15,22.53.61,5.67,3.22,8,9.66,8,26.06-.15,52.26.92,78.32,1.84Zm314.35,161.7,1.38,1.38c6.13-6.44,12.26-13.18,18.55-19.62a161.28,161.28,0,0,1,14.25-12.87c7.2-5.36,15.33-10,22.53-15.33,6.74-5.06,12.57-10.73,18.7-16.09,17.47-14.71,35.1-29.27,52.26-44.6,11-10,20.38-22.07,31.73-31.42,10.42-8.58,16.09-17.47,16.4-31.11.31-17.93,2.91-35.86,4.29-54,1.07-12.26,1.84-25,2.76-37.24.46-5.82,1.07-11.5,1.38-17.17.46-17.78,1.07-35.71,1.07-53.34,0-11-1.53-21.92-2.45-34.94-4,3.68-6.44,6.44-9.35,8.89C855.09,181,841,192.07,826.12,202.18,803.29,218.58,780,234.68,757,250.46c-10.42,7.2-21.15,13.64-31.73,20.84-8,5.67-15.48,11.5-23.3,17.78a9.46,9.46,0,0,0-2.76,5.67c-.77,15.33-2.45,30.81-1.84,46.13,1.38,29.43,2.45,58.7.31,88.28-1.53,23.91-1.38,48.28-1.84,72.19C695.85,509.94,696.15,518.83,696.15,527.72ZM448.32,305.94l-1.84.31c.77,18.24,1.84,36.48,2.15,54.72,0,6.13,2.91,8,7.82,8,19.77-.31,39.39-.46,59.31-1.07,20.84-.46,41.84-1.69,62.69-1.84,24.22,0,48,.46,72.19,1.07,4,0,7.2-.31,7.51-6,.31-23,1.07-46.44,1.07-69.43a10.24,10.24,0,0,0-3.68-6.74,44.62,44.62,0,0,0-9.35-6.13C632.24,272.07,618.6,264.87,604,259c-22.84-9.66-46.13-18.7-69.12-27.59-12.57-4.9-25.44-9-38.16-13.49-14.25-5.06-28.51-10-42.61-14.41-5.06-1.69-13.49,6.13-13.18,11.5C443.26,244.94,445.87,275.6,448.32,305.94Zm229.9,221.16a59.81,59.81,0,0,0,1.07-9.66c.31-17.93,0-36.17.77-54.26.77-23.91,2.45-47.67,3.83-71.42.46-9.35-1.07-10.73-10.73-10.27-9.35.46-19.31,1.07-29.27,1.07-26.52-.31-53-1.07-79.39-1.38-6.44,0-12.87,0-19.31.31l-65.45,3.22c-10,.31-19.77,0-29,0v45.06a6.09,6.09,0,0,0,2.76,4.29A179.6,179.6,0,0,0,471,442c24.37,8.89,49.66,16.4,73.41,26.52,29,12.41,57.17,26.82,85.52,40.46,15.33,6.9,30,15.48,48.28,18.09Zm-11-466.7a28.11,28.11,0,0,0-1.07,4.9c1.07,37.55,1.84,74.79,2.91,112.34.31,13.49.61,27.13,1.07,40.46v4.75c1.07,15,2.15,30.35,3.22,45.37.31,3.68-.61,7.51,4.29,9.66,4.75,2.15,8.58,3.22,12.87-.46a80,80,0,0,1,10.27-7.51c12.57-8.89,25.14-18.24,37.86-26.82,13.64-9,27.89-17.47,41.38-27.13,20.08-14.25,39.7-29.27,59.47-44.29,6.74-4.9,13.18-10,19.31-15.33,3.53-2.91,3.53-5.67-1.53-7.82-15.63-6.74-32.49-10.42-46.44-20.69a11.12,11.12,0,0,0-1.84-.77c-20.38-8.89-40.77-17.17-60.54-26.52C726.65,90.3,705.81,78.8,684.35,68.07c-5.67-2.45-11.19-4.9-17.17-7.66ZM657.07,267c0-9.66.31-17.47,0-25.29-1.07-23.3-2.45-46.59-3.22-70-.31-9.2.31-18.24,0-27.43-.61-19.92-1.53-39.7-2.45-59.31-.31-6,0-11.8,0-18.55a15.15,15.15,0,0,0-5.06,1.69c-10,7.2-19.62,14.71-29.43,21.76-13.64,9.35-27.43,18.85-41.08,27.89C568,123.1,559.74,128,551.62,133.06c-6.9,4.29-14.25,8.58-21.46,12.87-9.35,5.67-19,10.42-28.2,16.71-11.5,8-22.53,17.17-33.57,26.06-.61.46-.77,1.53-1.53,3.53,64.37,21.61,128.13,44,190.2,74.79Zm18.39,27.89c-.31,3.83-.61,7.51-.61,11,0,17.78.31,35.4-.46,53.34-.31,6,1.53,6.44,6.74,5.67,0-2.15.31-4,.31-5.82,0-11-.31-22.22,0-33.26,0-7.82.77-15.63,1.07-23.3,0-4.44-1.07-7.66-7.05-7.66Z"/><path d="M1030.7,307.9c-5.1-1.3-6.3-2.6-6.2-6.8.2-6.2,1.8-12.2,3.6-18.1,1.8-5.7,3.7-11.4,5.2-17.1,1.2-4.5,2.1-9.1,2.9-13.7.5-2.8.3-2.9-1.3-6.6-1.1,1.2-2.1,2.2-3.1,3.2-4.8,5.4-8.3,11.6-12.2,17.6a70.93,70.93,0,0,0-8.2,18.7c-1.2,4-1.6,4.2-5.6,2.8a10.46,10.46,0,0,0-1.7-.4c-3,6.2-1,13.6-4.5,19.6-2.2.7-3.6-.2-4.9-1.7a5,5,0,0,1-1-4.7c1-4,2-8.1,3-12.1a141.34,141.34,0,0,0,3.9-33.1,56.1,56.1,0,0,0-.6-5.9c-.1-1-.2-1.9-.3-2.8,4-.5,6.6.7,7.5,4a23,23,0,0,1,.6,7.4c-.1,3.2-.8,6.3-1,9.4,0,1.4.1,2.7.2,4.1a14.21,14.21,0,0,0,2.5-2.4c4.4-6.9,8.6-13.9,13.1-20.6a106.39,106.39,0,0,1,8.3-10.5c1.7-2,3.7-2.3,5.8-1,3.6,2.2,6.1,5.2,6.4,9.6.4,5.7.3,11.2-1.6,16.8-2.7,7.7-4.9,15.6-7.3,23.3-1.9,6.1-3.5,12.2-3.2,18.6A7.45,7.45,0,0,1,1030.7,307.9ZM165,233v4.9c1,.3,1.9.6,2.8.8,5.2.9,10.4,2,15,5.1,5.3,3.6,8.7,8.6,11.1,14.4,1.7,4.1.5,8.2-.9,12.1a48.46,48.46,0,0,1-7.7,12.7,139.3,139.3,0,0,1-17.5,18.5,75.27,75.27,0,0,1-9.2,6.8c-10.7,6.9-24.9,2.6-29.6-10.7a39.77,39.77,0,0,1-.6-24.6c2-6.9,4.6-13.5,8.9-19.3,2.7-3.6,4.7-7.6,7.4-11.2,2.4-3,4.9-5.9,7.5-8.6a8.07,8.07,0,0,1,2.4-1.7C158.1,230.1,161.4,229.9,165,233Zm-16.8,16.1a43.7,43.7,0,0,0-3.7,4.8c-2.7,4.9-5.5,9.9-7.9,15-4.3,9.1-4.7,18.7-2.3,28.3,2.4,9.3,8.7,11.4,16.3,8.4a27,27,0,0,0,5.2-3c11.3-7.8,20.2-17.8,27.8-29a46.25,46.25,0,0,0,4.2-9,10.85,10.85,0,0,0,.1-8.3c-2.6-6.4-6.9-11-13.8-12.5a30.52,30.52,0,0,0-15.3.6,7.46,7.46,0,0,0-3.9,2.8C153.1,249.5,151.2,250.4,148.2,249.1Zm109.3,32.5a38,38,0,0,0-12.5,1.6c-4.1,1.3-8.2,2.6-12.4,3.8a6.65,6.65,0,0,1-6.9-1.8,4.3,4.3,0,0,1-.4-6.1l.5-.5c7.5-6.5,12.9-14.7,18.6-22.7,4.5-6.4,8.9-12.9,13.3-19.3,1.6-2.4,3.8-2.9,7-1.8,2.6.9,3.6,2.4,3.2,5.4-1,10.1-2.1,20.2-3.1,30.3a46.84,46.84,0,0,0,0,5.3c2,1.3,4,1.4,6,1.8s3.9.8,5.8,1.3a3.93,3.93,0,0,1,3.3,3.2c-1.1,1.6-2.4,1-3.7.6a24.54,24.54,0,0,0-9.3-1.5,6.28,6.28,0,0,0-1.9.3c-1.4,1.5-1.4,3.5-1.5,5.2-.3,5.5-.4,11-.5,16.5a28.93,28.93,0,0,0,1.4,8.8c.9,2.9.8,6.2.8,9.3,0,1.1-1.1,1.6-2.2,1.6a5.19,5.19,0,0,1-5.2-5c-.5-4.6-1-9.3-1.1-13.9,0-6,.4-12,.6-18A28.9,28.9,0,0,0,257.5,281.6Zm-20-3.7c7,.1,13.3-1.2,19.9-1.7.4-2.1.9-3.8,1.1-5.6.3-2.8.5-5.6.8-8.5.3-3.7.6-7.3.9-11a8.08,8.08,0,0,0-.7-2.2c-.8.5-1.3.6-1.6,1-6.6,8.6-13.1,17.2-19.7,25.8-.3.8-.5,1.5-.7,2.2Zm521-9c.9-6.6,1.8-12.8,2.7-19.1,0-.3-.3-.6-.6-1.1a6,6,0,0,0-2.1.8c-3,2.6-6.1,5.2-8.9,8-4.2,4.1-6.5,3.8-9.7-1.6a16.38,16.38,0,0,1,2.1-2.5,98.36,98.36,0,0,1,16.4-12.2c1.6-.9,3.2-1.7,5.2-1.2,4.4,1,6.1,3.4,5.6,7.9a34.35,34.35,0,0,1-.9,4.4c-1.9,7.3-2.5,14.8-3.5,22.2s-1.7,14.8-2.5,22.3c-.2,1.8.1,3.7,0,5.5-.1,2.4-2.1,3.5-4.1,2.2-2.4-1.4-3.2-3.7-3.2-6.3,0-1.2.3-2.3.4-3.5a9.35,9.35,0,0,0-.7-2.2,28.05,28.05,0,0,0-3.1,1.9c-4.8,3.5-9.6,7.2-15.1,9.6-6.4,2.7-11.5,1.2-15.3-3.2-2-2.2-2.1-4,.2-6.1,5-4.6,9.3-10,15.4-13.3l1.2-.9A46.23,46.23,0,0,1,758.5,268.9Zm-29.7,30.2c1.9,1,3.6,0,5.2-.8,7.5-3.3,13.7-8.6,20.4-13.3a7.29,7.29,0,0,0,2.2-2.7c.9-1.7,1-3.4-.7-4.8-7.6,2.3-25,16.1-27.1,21.6Zm-232.3-47a11.9,11.9,0,0,0-1.9,2,66,66,0,0,0-9.3,23c-.4,2-.7,3.9-1.2,5.9-.4,1.5-.9,2.9-2.6,3.4-1.3.4-1.7,1.5-1.9,2.7-.5,3.2-.9,6.4.2,9.4.9,2.6.4,4.9-.2,7.3-.6,2.2-1.6,2.9-3.5,2.7a3.78,3.78,0,0,1-3.6-3.5,20.55,20.55,0,0,1,.2-3.5c.4-3.5,1-6.9,1.2-10.4.2-2.6,0-5.3.1-7.9.2-6.2.5-12.3.7-18.5.1-2.3-.1-4.7-.1-7,0-1-.2-2-.2-3,0-2.7.9-4,2.6-4.1a4.58,4.58,0,0,1,5.1,3.8h0v.3c.1,1.1.1,2.3.3,4.2,1.1-1.3,1.7-1.9,2.2-2.6,2.2-3.1,4.3-6.4,6.6-9.4a14.28,14.28,0,0,1,4.2-3.5,5.89,5.89,0,0,1,8,2.2,6.08,6.08,0,0,1,.8,2.7c.6,12,.9,24-.7,35.9-.9,6.4-1.7,12.8-2.6,19.3a4.76,4.76,0,0,1-.7,2.3,2.81,2.81,0,0,1-2.1,1,4.6,4.6,0,0,1-3.8-4.5,10.68,10.68,0,0,1,.3-2.5c3.8-13.5,3.9-27.3,3.2-41.2-.1-2.1-.3-4.2-.4-6.3Zm58.6.3a16.38,16.38,0,0,0-2.1,2.5,55,55,0,0,0-6.5,16.1c-.1.7-.2,1.3-.3,2-.5,2.3-1.4,4.1-4.2,4a5,5,0,0,0-1.3.5c-2.4,7.1-3,14.4-3.8,21.6-.1,1.1.3,2.3.3,3.5a32.87,32.87,0,0,1-.5,5.4,2.66,2.66,0,0,1-3.2,2.1,1.85,1.85,0,0,1-.7-.2,5.12,5.12,0,0,1-3.3-5.1c.1-1.3.3-2.7.5-4,1.5-10.2,3.2-20.4,4.6-30.6.6-4.8.7-9.6,1-14.4a36.87,36.87,0,0,1,.5-3.7c3.3-1.6,5.7.3,8.1,1.4,2-1,2.6-2.9,3.7-4.3a35.42,35.42,0,0,1,3.5-4.2c4.5-3.9,10.1-2,11.4,3.9,1.1,5.3.6,10.6,0,15.9-1.3,10.1-2.8,20.1-4,30.1-.3,2.3.2,4.6.4,6.9s-1,3.1-3,2.4c-3-1-4.4-2.8-4.4-5.9a82.21,82.21,0,0,1,.6-9.9c1.1-8.7,2.5-17.5,3.7-26.2a62.63,62.63,0,0,0,.2-7.5C555.9,254.1,555.6,253.2,555.1,252.4Zm293.8-8.6c-8.8,0-16.2,4.7-24,8.2-2.5,1.1-3.4,2.9-3.6,5.4-.9,10.3-1.8,20.5-2.6,30.8a9.83,9.83,0,0,0,.6,4.8,11.61,11.61,0,0,1,.6,7.8c-.3,1.1-.4,2.3-.6,3.4-.6,2.9-2.5,3.8-5.1,2.6a4.76,4.76,0,0,1-3-3.7,17.9,17.9,0,0,1-.2-4c.8-8.4,1.8-16.8,2.6-25.3.4-4.5.6-9,.8-13.4,0-.5-.5-1.1-.9-2q-2.55.9-4.8,1.5a7.17,7.17,0,0,1-6.6-1.3,3.66,3.66,0,0,1-1.5-4.3c1.6-.6,3.5-1.1,5.3-1.8,2.5-1,4.9-2,7.3-3.1a4.14,4.14,0,0,0,2.6-3.9c-.1-4.2,1-8.2,1.5-12.4a106.45,106.45,0,0,0,.8-13.8c-.1-4.3.6-8.6.9-13,2-1.4,3.9-.7,5.6.4a4.76,4.76,0,0,1,2,4.8c-.2,2.2-.7,4.3-1,6.4-1,7.6-1.9,15.2-2.8,22.8a18,18,0,0,0,.2,2.2c1.6,1.2,2.8.4,4,0,4.5-1.7,9-3.5,13.5-5.1a7.29,7.29,0,0,1,8.2,2.1,2.57,2.57,0,0,1,.5,3.6ZM598.5,261l-2.9-5.8c.9-.9,1.5-2,2.4-2.4,8.9-4.3,17.9-5,26.7.3,6.3,3.8,8.1,9.8,8,16.7a31.48,31.48,0,0,1-2.9,11.6,50.84,50.84,0,0,1-19.7,23.3,22.39,22.39,0,0,1-5.4,2.6,13,13,0,0,1-14-4.1c-3.6-3.9-5.2-8.3-3.5-13.7,1.9-6.2,3.3-12.6,6.1-18.4C594.9,267.6,596.7,264.4,598.5,261Zm12.1-5.9a15.76,15.76,0,0,1,1.2,1.5c2.2,2.4,2.2,3.6-.7,4.7a12.64,12.64,0,0,0-5.4,4.3,61.18,61.18,0,0,0-11.8,27.7A10.34,10.34,0,0,0,595,300c1.3,2.7,2.9,3.6,5.6,2.4a37.08,37.08,0,0,0,8.2-4.7A50.89,50.89,0,0,0,624.4,278a24.94,24.94,0,0,0,2-14c-.8-8-7.6-11.8-15.8-8.9Zm329.4,46c-11-.2-17.6-10-14.5-19a46.15,46.15,0,0,1,8.9-14.9c3.8-4.4,8-8.4,12.1-12.5,1.2-1.2,2.6-2.2,4.5-1.5,2.1.7,3.8.1,5.8-.6a14.08,14.08,0,0,1,11.2.2,11.66,11.66,0,0,1,6.4,7.8c1.3,4.7.6,9.2-1,13.6-2,5.5-5.9,9.5-9.7,13.7a49.17,49.17,0,0,1-14.9,10.7C945.5,300.1,942,300.5,940,301.1Zm29.3-35.9c-.2-2-.2-3.2-.4-4.3-.5-3.1-1.6-4.1-4.6-3.9a9.83,9.83,0,0,0-3.4.7c-2.3,1-4.5,2.2-6.7,3.3-9.9,5.2-16.8,13.4-21.7,23.3a13.78,13.78,0,0,0-1.3,5.3c-.2,4.1,2.2,6.3,6.2,5.7a22.34,22.34,0,0,0,6.7-1.9c7.6-3.7,14.2-8.6,19.2-15.5a49.58,49.58,0,0,0,4.3-7.8c.7-1.7,1.2-3.3,1.7-4.9ZM679.2,308.1a4.58,4.58,0,0,1-5.7-.8,11.6,11.6,0,0,1-3.7-6.4c-1.5-7.5-3.1-15-4.4-22.5-1.7-10.2-3.1-20.4-6.7-29.9a2.79,2.79,0,0,1,3.7-1.5h0l.2.1c2,.8,3.9,2,4.5,4.4.7,3.2,1.4,6.5,1.9,9.8,1.5,9.4,2.8,18.7,4.3,28.1.3,1.8.8,3.5,1.3,5.7,1.1-.7,2-.9,2.4-1.4,2.2-3.5,4.3-7.1,6.4-10.7,1.4-2.4,2.9-4.8,4.3-7.3,2-3.5,3.8-7,5.8-10.5,3.2-5.7,6.3-11.3,9.5-17a16.29,16.29,0,0,1,1.1-1.7,45.15,45.15,0,0,1,5.2,1.7,2.93,2.93,0,0,1,1.8,3.8,2.51,2.51,0,0,1-.4.7,5.55,5.55,0,0,1-.6.8c-7,8.3-11.9,18-17.4,27.3-3.2,5.4-6.6,10.8-9.8,16.2C681.1,300.5,679,303.9,679.2,308.1Zm206-61.8c2.7-.9,4.7,0,6.5,1.7a4.22,4.22,0,0,1,1.1,4.1c-.8,3.4-1.5,6.8-2.2,10.2-2,8.6-4.1,17.1-6.1,25.7a19.14,19.14,0,0,0-.3,9.8c.9,3.3-.9,6.8-1.5,10.2-.2,1-1.4,1.3-2.5,1.2a6,6,0,0,1-5.3-6.2,60,60,0,0,1,1.1-7.4c2-9.4,4.2-18.8,5.9-28.3,1.2-6.4,3-12.7,2.8-19.2A12.09,12.09,0,0,1,885.2,246.3ZM435,308.4c-5.2,1.2-7.8-.6-7.3-5,1-9.9.8-19.9,1.1-29.8.2-9.6.8-19.2,1.2-29,2.3-1.8,4.5-1.1,6.8.3a7.58,7.58,0,0,1,.8,5.7,237.17,237.17,0,0,0-2.5,35.7C435.1,293.6,435,300.9,435,308.4Zm-3.4-95.2c3.8.4,5.5,2.8,4.5,5.7a24.69,24.69,0,0,1-5,8.4,3.74,3.74,0,0,1-4.9.9,4.56,4.56,0,0,1-2.5-4.9,14.71,14.71,0,0,1,5.1-8.8A6.5,6.5,0,0,1,431.6,213.2Zm451.3,6.7a10.36,10.36,0,0,1,6.1,2,2.88,2.88,0,0,1,.9,3.9h0v.1a2.61,2.61,0,0,1-3.6.8c-.1-.1-.2-.1-.3-.2C883.9,224.9,882.1,223.2,882.9,219.9Z"/></svg>