<svg id="Layer_1" data-name="Layer 1" xmlns="http://www.w3.org/2000/svg" viewBox="0 0 920 629.72"><title>intro</title><path d="M431.28-238.83a30.56,30.56,0,0,1-10.33-1.3,13.71,13.71,0,0,1-8.51-7.17,3.41,3.41,0,0,0-1-1.35c-.28-.19-1.2,0-1.24.13-.54,2-2.34,1.83-3.79,2.28-4.36,1.37-8.69,2.83-13.06,4.15-2.77.84-5.48,1.91-8.44,2.13-1.64.12-3.23.88-4.87,1a30.29,30.29,0,0,1-7.43-.12c-3.22-.61-6.25-1.74-8.61-4.45a30.44,30.44,0,0,1-4.08-6.51,6,6,0,0,1,.08-4.82,23.49,23.49,0,0,1,4.14-6.43c4.65-5.83,10.93-9.38,17.67-12.14a8.34,8.34,0,0,1,10.1,2.65,5.89,5.89,0,0,1,1,2,3.67,3.67,0,0,1-2.08,4.52,6.14,6.14,0,0,1-5.63-.73c-1.88-1.66-1.9-1.7-4-.61a33.52,33.52,0,0,0-4.95,2.84c-2.57,2-4.95,4.17-7.45,6.23a11.84,11.84,0,0,0-3.08,4.76c-1.15,2.63.59,6.13,3.26,7.08a17.72,17.72,0,0,0,10.05.47c4.21-.94,8.45-1.79,12.57-3,4.27-1.3,8.43-3,12.6-4.6a3.93,3.93,0,0,1,3.79.17,13.53,13.53,0,0,0,1.52.81c.8.36,1.42,0,1.42-.78,0-4.76,2.89-8,5.81-11.22a33.58,33.58,0,0,1,10-7.33,81.44,81.44,0,0,1,8.24-4.07,76.32,76.32,0,0,1,9.62-3.34c4.39-1,8.14.76,10.65,4.38s1.91,7.76-2.38,10.26-8.58,4.36-12.93,6.41a46.72,46.72,0,0,1-6.7,2.69,69.89,69.89,0,0,1-8.5,1.85,7.69,7.69,0,0,1-5.31-.9c-1.36-.8-1.84-.5-2.43,1-1.19,3,.28,6,3.67,7a27.48,27.48,0,0,0,10.12,1c1.57-.15,3.14-.37,4.7-.57a171.58,171.58,0,0,0,17.78-3.59,47.19,47.19,0,0,0,11.21-4.66c1.57-.84,2.8-2.32,4.16-3.54.62-.56,1.2-1.31,2.14-.84a2.81,2.81,0,0,1,1.73,2.27,3.79,3.79,0,0,1-1.3,3.58c-2.93,2.47-6,4.81-9.64,6.06-4.55,1.56-9.22,2.8-13.87,4a95.6,95.6,0,0,1-9.48,2.11A63,63,0,0,1,431.28-238.83ZM449-272.09c-1.08.2-1.73.3-2.38.44a53.19,53.19,0,0,0-12.14,4.34,29.4,29.4,0,0,0-3.16,1.41c-2.7,1.77-5.32,3.66-8,5.52a3.22,3.22,0,0,0-.91.82c-.25.4-.6,1.17-.46,1.29a2.15,2.15,0,0,0,1.5.59,19.12,19.12,0,0,0,2.86-.8c2.62-.79,5.28-1.46,7.85-2.38,3.83-1.38,7.6-2.89,11.37-4.42a11.37,11.37,0,0,0,4.73-3.15c.62-.75,1.2-1.65.62-2.47C450.42-271.53,449.45-271.8,449-272.09Zm-478.72,368c-.36,0-.67-.56-1-.86a4,4,0,0,1,1-.52,21.53,21.53,0,0,0,2.22-.26c3.26-1,6.55-1.93,9.75-3.1a80.3,80.3,0,0,0,16.36-8.3,2.81,2.81,0,0,0,.65-4.33,11.09,11.09,0,0,0-3.51-2.66c-2.49-1.18-5.07-.34-7.57.25s-4.94,1.38-7.42,2.06a13.31,13.31,0,0,1-2,.32,28.8,28.8,0,0,0-15.12,5.85,7.92,7.92,0,0,0-3.09,6.46c-.07,2.53,1.21,4.5,2.57,6.36a11.37,11.37,0,0,0,8.6,4.9c7.18.52,14.06-1,20.81-3.2C-1.88,97,3.68,95,9.27,93.14c1.6-.54,2.25-.22,3.23,1.34A25.85,25.85,0,0,0,14.84,98c3.12,3.53,7.38,4.54,11.76,4.33a59,59,0,0,0,14.66-2.68c6.42-2,12.91-3.71,19-6.61a1.86,1.86,0,0,0,1.2-1.68A3.43,3.43,0,0,0,59.79,88a3.37,3.37,0,0,0-3.95-.33,62.2,62.2,0,0,1-14.57,5.74c-4.47,1.26-8.92,2.63-13.63,2.92a19.21,19.21,0,0,1-6.17-.16c-2.54-.66-3.62-2.38-2.86-4.81a10,10,0,0,1,4.67-5.92C29.06,82.12,35,79.52,41.9,80a2.76,2.76,0,0,0,2.86-1.62,2.67,2.67,0,0,0-.89-3.15c-1.91-1.87-4.13-2.78-6.82-2-4.38,1.3-8.82,2.45-13.12,4A21,21,0,0,0,13.52,85c-.87,1.24-1.67,2.24-3.42,1.62a3,3,0,0,0-1.69.3q-3.06,1-6.1,2.09c-2.81,1-5.58,2.09-8.42,3-2.29.73-4.66,1.17-7,1.84-4,1.16-8,2.36-12.21,2.33C-26.78,96.08-28.28,96.06-29.77,95.89ZM70.3-91q.67,6.31,1.34,12.62a3.87,3.87,0,0,0,.26,1c.4,1,1.21,1.23,1.83.32.79-1.16,1.38-2.46,2.14-3.65a31.1,31.1,0,0,1,2.82-4.05,21.62,21.62,0,0,0,3.93-5.71,4.1,4.1,0,0,1,2.88-2.52,9.38,9.38,0,0,0,3-1.63,4.09,4.09,0,0,1,4.7-.36A56.16,56.16,0,0,0,99.7-92c1.87.88,4,1.69,5.34,3.12,2.61,2.7,5.42,5.53,4.51,9.93a11.07,11.07,0,0,1-3.16,5.27,32.16,32.16,0,0,1-11.94,8.26c-3.3,1.26-6.58,2.49-10.11,2.26s-7.07-.87-9.5-4A2.58,2.58,0,0,0,72.92-68c-2.38.14-4.22-.49-5.42-2.71A5,5,0,0,0,64-72.86,76.53,76.53,0,0,1,48.28-79a20,20,0,0,0-2.91-1.33c-2.85-.87-5.06-2.83-7.53-4.33-1.94-1.18-2-1.12-3.9.33-3.73,2.89-7.59,5.62-11.26,8.59a41.58,41.58,0,0,0-5.27,5.29,6.24,6.24,0,0,0-.84,2.8,16.37,16.37,0,0,0,0,2,1.42,1.42,0,0,1-1.61,1.51c-2.48-.1-5-.1-7.45-.41s-3.4-3.36-2-5.26,1.4-2.29.35-4.19C4-77.33,2.37-80.79.35-84c-1.44-2.3-2.75-4.81-5.14-6.34a5.18,5.18,0,0,1-1.95-2.81A1.92,1.92,0,0,1-4.61-95.8,6.45,6.45,0,0,1,.21-92.93c2.85,3.65,4.69,7.8,6.92,11.75C8-79.59,8.89-78,9.79-76.39s2.09,1.94,3.61.68c2.81-2.33,5.62-4.65,8.4-7,2.52-2.14,5-4.29,7.46-6.54a4,4,0,0,0,.83-2.2c.4-2.51.4-2.56,3-2.6.92,0,1.83,0,2.75,0,2.92,0,5,1.42,5.58,4.27a4.41,4.41,0,0,0,2.55,3.16c3.65,1.77,6.87,4.33,10.76,5.65,2.83,1,5.6,2.08,8.46,3,2,.61,2.92-.12,2.82-2.16-.15-3.15-.47-6.29-.76-9.43-.17-1.82-.38-3.64-.67-5.44-.18-1.12-.59-2.21-.86-3.31a6.77,6.77,0,0,1-.23-1.47c0-1.49.48-2,1.93-1.91a5.56,5.56,0,0,1,5.1,5.19c.12,1.82,0,3.66,0,5.49ZM95-88.15a9.43,9.43,0,0,0-2.91.44,14.07,14.07,0,0,0-5,4,5.29,5.29,0,0,1-1.17,1.26c-2.88,1.92-4.5,4.86-6.1,7.74a8.17,8.17,0,0,0-.63,4.12,3.16,3.16,0,0,0,3.53,3.06,9.85,9.85,0,0,0,2.2-.35,32.32,32.32,0,0,0,11.36-4.83c2.5-1.82,5.32-3.14,7-6.09,1.61-2.75,1-5.14-1-6.58C100.2-87,97.89-88.31,95-88.15Zm-508.63,288.6c.45-4.3.94-8.6,1.34-12.9.54-5.88,2-11.65,1.84-17.6a4.79,4.79,0,0,1,.21-1.47c.5-1.67,1.23-2.3,2.94-1.9a12.57,12.57,0,0,1,4,1.86,3,3,0,0,1,1.1,3.35q-.69,2.91-1.3,5.84c-.65,3.09-1.4,6.17-1.87,9.29-.76,5.09-1.87,10.15-1.71,15.35,0,.91-.11,1.84,0,2.74a4.8,4.8,0,0,0,.61,2.3c1.79,2.42,1.12,4.82-.16,7-1.91,3.25-2.37,7.79-.59,11.1a3.67,3.67,0,0,1-.48,4.76,5.16,5.16,0,0,0-1.22,2.91c-.27,4.15-.4,8.31-.45,12.46a11.68,11.68,0,0,0,.74,3.13c.78,2.76-.61,4.33-3.36,3.69-1.35-.32-2.82-.51-3.64-1.91a3.9,3.9,0,0,1-.57-2.57c.26-2.56.26-5.15.3-7.72a1.37,1.37,0,0,0-.6-.94c-.14-.1-.63.14-.84.35-2,2-3.94,4.07-5.9,6.11-2.54,2.64-5,5.36-7.65,7.88a9.81,9.81,0,0,1-11.16,1.55c-2.43-1.4-4.61-3.27-4.36-6.69a22.8,22.8,0,0,1,1.18-6.08,56.86,56.86,0,0,1,11-18.57c4.93-5.63,10.34-10.82,15.58-16.17a7.41,7.41,0,0,1,2.61-1.89c2.24-.79,2.82-2.37,2.67-4.49,0-.25,0-.5,0-.75Zm-.91,19c0-1.6.07-2.6,0-3.59s-.64-1.29-1.44-.62c-1.21,1-2.44,2-3.54,3.13A143.41,143.41,0,0,0-432,232.89c-3,4-4.69,8.34-6.35,12.84a9.16,9.16,0,0,0-.44,2.44,1.09,1.09,0,0,0,1.39,1.25,2.71,2.71,0,0,0,1.28-.67c1.92-1.83,3.85-3.66,5.7-5.56,3-3.1,6-6.24,8.9-9.38,1.87-2,3.73-4,5.52-6.06a3.89,3.89,0,0,0,.92-2C-414.77,223.49-414.65,221.17-414.52,219.45Zm763.77,27.42a13.9,13.9,0,0,1,1.14-3.34,43.28,43.28,0,0,1,8.5-9.38c4.91-4.06,10.46-7.05,15.9-10.26,2.85-1.68,4.8-1.16,7.53,1,1.38,1.08,1.77.94,2.13-.79a19.36,19.36,0,0,1,.81-2.85,1.6,1.6,0,0,1,2-1,6.73,6.73,0,0,1,4,2.79c.45.59.78,1.28,1.19,1.9a5,5,0,0,1,0,5.84c-3.72,6.1-7.35,12.26-11.07,18.36s-7.49,12-11.07,18c-2.74,4.64-5.2,9.45-7.78,14.18-1.55,2.84-3.2,5.63-4.62,8.53-2.19,4.44-4.76,8.73-5.71,13.68-.25,1.3-.32,2.65-.63,3.93-.37,1.53-.89,1.74-2.33,1.17-2.63-1-3.34-2.36-3-5.24a32.08,32.08,0,0,1,3.19-9.65c2-4.45,4.29-8.8,6.55-13.14s4.72-8.91,7.16-13.33c1.65-3,3.45-5.87,5.14-8.82.69-1.21,1.29-2.49,1.9-3.74a3.32,3.32,0,0,0,.31-.94c.18-1.18-.41-1.6-1.59-1.24a70.42,70.42,0,0,1-7.4,2.19c-5.56,1.07-8.78-.56-11.22-4.78A16.33,16.33,0,0,1,349.26,246.87Zm9.8,1.64,0,.1c1-.21,2-.35,2.91-.65a52.92,52.92,0,0,0,10-4.4,24.73,24.73,0,0,0,9.95-10.4,6.6,6.6,0,0,0,.54-1.12c.27-.93-.06-1.55-1-1.54a8.06,8.06,0,0,0-3.13.49c-1.73.78-3.27,2-5,2.76A47.45,47.45,0,0,0,361,242.4a34.1,34.1,0,0,0-3.43,3.92c-.31.4-.6,1.3-.4,1.52.36.4,1.1.48,1.68.68A.69.69,0,0,0,359.06,248.51ZM-447.42-70.58c-.15-3.45,1.23-6.51,3.13-9.43a49,49,0,0,1,11.85-12.31,63.62,63.62,0,0,1,14-8.51,15.33,15.33,0,0,1,3.56-1A2,2,0,0,0-413-104c.14-2.23.4-4.46.52-6.7q.54-10.09,1-20.18c.16-3.48.27-7,.39-10.45.06-1.74.3-2,2.06-1.78a14.69,14.69,0,0,1,3.55.88,3,3,0,0,1,1.81,3.66c-.58,3.1-1.1,6.21-1.56,9.33-.35,2.38-.57,4.77-.8,7.17s-.31,4.64-.6,6.95c-.92,7.37-.8,14.78-1,22.17-.06,1.82-.43,3.63-.52,5.46-.32,7-1.57,13.88-1.44,20.88,0,1,.09,2,.06,3a2.91,2.91,0,0,1-3.34,2.77,4.61,4.61,0,0,1-3.67-5.89,39.52,39.52,0,0,0,.91-4.89,1.88,1.88,0,0,0-.56-1.51c-.25-.18-1.09.11-1.44.44-2.16,2.05-4.2,4.24-6.38,6.26a81.55,81.55,0,0,1-8.06,7,8.61,8.61,0,0,1-11.21-1A13.4,13.4,0,0,1-447.42-70.58Zm6.18,1.88.31.08a5,5,0,0,0,0,1.24c.4,1.49.38,3.38,2.17,3.93,1.56.48,2.85-.52,4-1.55,2-1.84,4.13-3.62,6.06-5.57,3.75-3.77,7.39-7.65,11.11-11.45a3,3,0,0,1,1.68-.89A1.87,1.87,0,0,0-414-84.85a22.23,22.23,0,0,0,.1-4.69c-.41-3.09-4.39-5-6.88-3.21-3.62,2.62-7.66,4.69-10.81,8s-6.58,6.14-8,10.62C-440.17-72.34-440.69-70.52-441.24-68.71Zm167.12-153q.34-6.85.69-13.71c.14-2.66.3-5.31.42-8,0-1,.21-1.85,1.38-2s1.74-1.25,2.21-2.18c1.39-2.74,2.56-5.59,4.05-8.27,1.37-2.45,3-4.74,4.65-7.05.29-.41.93-.59,1.4-.87.29.55.58,1.1.85,1.66a1.19,1.19,0,0,1,0,.5,132.93,132.93,0,0,1-.81,15.45c-.51,3.95-.61,8-.76,11.95a4.55,4.55,0,0,0,3.8,4.27c1.34.16,2.18-.37,2.21-1.71a13.13,13.13,0,0,0-.43-4.43c-1.1-3.22-.24-6.25.47-9.32a1,1,0,0,1,1.55-.7,9,9,0,0,0,1.15.49c1.68.49,2.51.09,3.07-1.58a9.67,9.67,0,0,0,.52-2.44,21.75,21.75,0,0,1,2.29-7.58c.92-2.05,1.84-4.1,2.86-6.1.64-1.25,1.47-2.4,2.19-3.6a1.71,1.71,0,0,1,2.08-.94c1,.29,1.13,1.17,1.12,2,0,3.41,0,6.82-.21,10.23-.1,2.15-.49,4.29-.7,6.44-.34,3.56-.45,7.15-1,10.67a74.17,74.17,0,0,0-.49,13,14.61,14.61,0,0,0,.6,3.43,4.54,4.54,0,0,0,3.08,3,2,2,0,0,0,2.62-2.47,5.63,5.63,0,0,0-.66-1.62,9.38,9.38,0,0,1-1.06-5.77c.24-3.73.49-7.46.87-11.18.56-5.54,1.35-11.05,1.82-16.59.31-3.62.74-7.22,0-10.91a7.14,7.14,0,0,0-4.57-5.7,4.76,4.76,0,0,0-4.74.27,16.38,16.38,0,0,0-5.39,6.12c-1.43,2.43-2.63,5-4,7.47a8.67,8.67,0,0,1-1.18,1.39,10.47,10.47,0,0,1-.88-1.68,5.18,5.18,0,0,1-.06-1.49c0-1.42,0-2.84,0-4.25-.15-2.51-1.14-4.45-3.67-5.41s-4.46.15-6.11,1.73a29.34,29.34,0,0,0-3.35,4.3c-1.4,2-2.73,4-4.13,5.92a1,1,0,0,1-.83.34,1.06,1.06,0,0,1-.64-.68,4.46,4.46,0,0,1,.05-1.22c.16-3-1.38-4.53-4.33-4.37-2,.11-2.5.88-2.24,2.95a58,58,0,0,1,.71,7.68c0,8.24-.24,16.47-.43,24.71,0,1.65-.27,3.31-.47,5-.31,2.55-.82,5.09-1,7.66-.14,2.18,1.15,3.35,3.33,3.47,1.69.09,2.11-.24,2.15-1.93,0-2.08,0-4.16,0-6.25Zm32.4,446.39c1.3.47,2.46.85,3.59,1.31s1.55.39,1.89-.72a22.39,22.39,0,0,0,.65-3.42c.33-2.3,1.09-2.93,3.35-2.34A9.54,9.54,0,0,1-228.9,221c2,1.53,2.11,2.52,1.21,4.94-.52,1.4-.84,2.88-1.37,4.28-.94,2.48-2.11,4.87-2.95,7.38-1.58,4.73-3,9.51-4.47,14.27-1,3.18-2.07,6.33-3,9.54-.86,3-1.52,6.12-2.34,9.16-.37,1.36-1,2.66-1.35,4s-.78,2.87-1.09,4.33c-.68,3.25-1.37,6.5-1.93,9.77-.39,2.29-.57,4.62-.83,6.93-.06.5,0,1-.07,1.5-.41,2.44-1.95,3.25-4.13,2.19-.37-.18-.69-.47-1-.68-2.31-1.37-2.55-1.74-2-4.43.47-2.44,1.1-4.84,1.7-7.25q2.61-10.4,5.26-20.79c.93-3.62,1.94-7.22,2.92-10.82a1.17,1.17,0,0,0,.11-.48,1.72,1.72,0,0,0-.34-.88c-.11-.1-.59.09-.8.27-1.68,1.48-3.31,3-5,4.49a8.26,8.26,0,0,1-7.44,1.84c-4.06-.83-7-5.71-5.61-9.58,1.74-5,3.71-9.83,7-14s6.62-8.38,11.31-11.14A20.17,20.17,0,0,1-241.72,224.64Zm3.06,9.21c.2-1.67-.56-2.39-1.73-2.06a3.32,3.32,0,0,0-1.29.72c-2.27,2.06-4.6,4.07-6.73,6.27a35.3,35.3,0,0,0-7.65,13c-.12.32-.1.93.09,1.07a1.26,1.26,0,0,0,1.15.07,25.94,25.94,0,0,0,3.64-2.57,56.07,56.07,0,0,0,5.29-5.29,98.89,98.89,0,0,0,6-7.93A12.76,12.76,0,0,0-238.66,233.84ZM104.79-270.45c.83,0,1.67-.06,2.5,0,3.77.31,6.23,3.28,5.52,7a42.2,42.2,0,0,1-2.2,7.91c-3.05,7.56-8.49,13.3-15.22,17.57-3.54,2.25-7.46,4.32-11.84,4.82-1,.11-2,.09-3,.13-1.94.08-2.55.77-2.42,2.61.16,2.07.23,4.15.38,6.22.43,6,.85,12.1,1.33,18.14.32,4.06.71,8.11,1.1,12.16.13,1.32.46,2.63.49,4,.06,2.28-.89,2.84-3,1.9s-3.23-2.29-2.8-4.19c.6-2.64-.21-5.13-.24-7.69s-.25-5.14-.46-7.71-.48-4.95-.73-7.42c0-.5-.14-1-.16-1.48-.21-4.48-.43-9-.61-13.46a9.12,9.12,0,0,0-2.18-5.93c-1.71-2-1.61-2,.29-3.72a2.87,2.87,0,0,0,.9-1.87c0-2.49-.19-5-.35-7.47q-.27-4.23-.63-8.45c-.08-1-.36-2-.45-3-.12-1.36.49-2,1.87-2A4.61,4.61,0,0,1,78-257.25c-.19,5.15-.41,10.3-.58,15.45a9.51,9.51,0,0,0,.31,2.71,2.27,2.27,0,0,0,1,1.34,1.82,1.82,0,0,0,1.6-.06,1.64,1.64,0,0,0,.37-1.49c-1.74-4.76-1-9.18,1.29-13.6a38.19,38.19,0,0,1,4.15-6.47,33.43,33.43,0,0,1,7.27-7.07c1-.69,2-1.44,3-2.17C99-270.41,101.84-270.63,104.79-270.45ZM86-244.08c0,1.55,0,3,1.31,3.33a3.86,3.86,0,0,0,2.73-.7A41,41,0,0,0,105-258a19.74,19.74,0,0,0,1.51-5.23c.29-1.67-.41-2.37-2.14-2.11a8.5,8.5,0,0,0-3.67,1.36c-4.81,3.53-9.6,7.11-12.14,12.82C87.47-248.79,86.2-246.45,86-244.08ZM348.25-64.93a10.05,10.05,0,0,1-6-1.49,4.73,4.73,0,0,1-2.28-5.1,3.07,3.07,0,0,1,.79-1.18c1.94-2.15,4.52-3.37,7-4.65,3.24-1.67,6.61-3.07,9.84-4.73,3.72-1.91,7.73-3,11.68-4.2a3.15,3.15,0,0,1,1.23.05c1.84.21,2.81-.17,3.35-1.74,1.36-4,2.62-8.05,3.85-12.1.14-.47,0-1.48-.25-1.55a3.48,3.48,0,0,0-2.32-.06,32.1,32.1,0,0,0-5.26,3.29c-3,2.44-5.93,5.06-8.85,7.64A11.52,11.52,0,0,0,359.69-89a3,3,0,0,1-4.54.68c-1.22-.92-1.93-3.9-1.14-5.22a12.75,12.75,0,0,1,2-2.56,69.58,69.58,0,0,1,13.74-10.24,50.38,50.38,0,0,1,6.1-2.73,4.73,4.73,0,0,1,4.32.35,7.28,7.28,0,0,1,3.93,8.31,30.86,30.86,0,0,1-1.1,3.81c-1.7,5.12-3.44,10.24-5.14,15.36a4,4,0,0,0-.23,1.47,1.24,1.24,0,0,0,1.76,1.17c.77-.29,1.44-.83,2.18-1.18,2.29-1.09,6,.86,6.33,3.39a2.66,2.66,0,0,1-.53,1.81,3.52,3.52,0,0,1-3,1.49c-2.5-.19-4.73.85-7.06,1.42-1.63.39-1.85.73-1.89,2.44,0,1.08.13,2.16.09,3.24-.07,1.85-.89,2.38-2.78,2.17-2.13-.23-2.88-1.74-3.5-3.43-.71-1.93-.89-2.23-2.8-1.76-3.22.78-6.54,1.1-9.61,2.55C354.12-65.21,351.16-65.06,348.25-64.93Zm7.93-8c.59-.09,1.09-.14,1.57-.25,2.63-.62,5.27-1.19,7.87-1.91a21,21,0,0,0,4.16-1.63c.4-.21.61-1.14.54-1.7,0-.28-.87-.59-1.37-.66a3,3,0,0,0-1.44.3q-5.75,2.37-11.47,4.8c-.26.11-.42.42-.63.64ZM-106.47,220.39a11.9,11.9,0,0,1-.15,2.24c-1.3,5-.71,10.27-1.74,15.33a2.49,2.49,0,0,0,1.26,2.51c2.65,2,2.73,4.09.34,6.37-.54.51-1,1.11-1.51,1.65a4.52,4.52,0,0,0-1,4.64,8.32,8.32,0,0,1,.34,3.13,2.18,2.18,0,0,1-2.86,2,6,6,0,0,1-2.4-1.17,9.72,9.72,0,0,1-1.53-1.94c-1-1.38-1.32-1.47-2.91-.64-3.17,1.65-6.3,3.35-9.48,5a24.75,24.75,0,0,1-8.33,2.4,8.71,8.71,0,0,1-6.11-1.74,5.9,5.9,0,0,1-.76-9,51,51,0,0,1,8.8-7.7c1.91-1.32,3.86-2.59,5.72-4,1.33-1,1.31-1.21.31-2.56-.34-.47-.74-.9-1.05-1.38a2.73,2.73,0,0,1,0-3.57c2-2.75,3.52-5.82,5.37-8.67a37.09,37.09,0,0,1,9.25-9.66,4,4,0,0,1,4.47-.14C-107.67,215-106,217.1-106.47,220.39Zm-9.12,23.72c-.06-1.45-1-2.27-2.17-1.92a20,20,0,0,0-3.71,1.43A54.9,54.9,0,0,0-133,251.28a22.68,22.68,0,0,0-1.94,1.94c-.22.26-.21.73-.3,1.11a3.38,3.38,0,0,0,1.28.26,10.25,10.25,0,0,0,2.34-.81q7.15-3.51,14.28-7.09A3.4,3.4,0,0,0-115.58,244.11Zm1.68-17.19a12.76,12.76,0,0,0,0-1.78,1.7,1.7,0,0,0-.55-1c-.1-.09-.61.15-.81.35a29.09,29.09,0,0,0-6.28,9.41c-.44,1.07-.08,1.62,1,1.62s2.48-.06,3.72-.14a2,2,0,0,0,2.25-2.12C-114.3,231.24-114.13,229.18-113.9,226.92ZM108.94,222c1.08,0,2.17-.08,3.24,0,4.23.39,7.43,4.75,6.29,8.74a4.1,4.1,0,0,1-1.88,2.17c-3.93,2.13-7.65,4.65-11.93,6.13-4,1.38-7.88,3.1-11.87,4.5A54.61,54.61,0,0,1,86.73,245c-.24.05-.5,0-.74.08-2.41.38-3,.83-2.88,2.31.12,2.21,1.28,3.72,3.27,3.69a42.17,42.17,0,0,0,8.18-.7c3.48-.74,6.86-1.95,10.28-3,5.87-1.8,11.72-3.65,17.59-5.46,1.9-.59,3.81-1.14,5.72-1.68a9.86,9.86,0,0,1,6.12.51,3.84,3.84,0,0,1,2.33,2.44,2.26,2.26,0,0,1-1.7,3.2,3.42,3.42,0,0,1-1.49,0c-2.73-.74-5.2.14-7.73,1-3.54,1.18-7.15,2.16-10.72,3.25-1.67.51-3.32,1.08-5,1.67-3.74,1.35-7.4,3-11.44,3.36-1.31.13-2.56.74-3.87.89a46.76,46.76,0,0,1-6.21.33c-6.58-.15-12.81-6.39-12.38-13.37a12.32,12.32,0,0,1,3.36-7.59,25.92,25.92,0,0,1,7.45-5.71c2.51-1.27,4.78-3,7.3-4.27C97.7,224.18,105.27,221.25,108.94,222ZM91.76,237c.61-.19,1.18-.32,1.71-.54q7.08-3,14.15-6.08c1.45-.63,2.26-1.72,1.72-2a3.59,3.59,0,0,0-2.53-.2c-3.78,1.46-7.53,3-11.24,4.66a32.23,32.23,0,0,0-4.29,2.48c-.32.2-.4.77-.59,1.17ZM-38-227.71c5.73-.05,11-2,16.29-3.68,4.56-1.48,9.07-3.11,13.59-4.69,2.74-1,5.44-2,8.2-2.91a50.42,50.42,0,0,1,7-1.82,15,15,0,0,0,8.08-4.06c1.39-1.31,1.67-1.3,3-.3,1.88,1.48,2.34,2.75,1.56,4.21a7,7,0,0,1-4.75,3.35c-3.28.87-6.62,1.52-9.91,2.38-2.39.63-4.75,1.39-7.09,2.2-3.84,1.33-7.65,2.78-11.49,4.12-3.13,1.1-6.27,2.21-9.45,3.15a48.42,48.42,0,0,1-17,2.18,17.52,17.52,0,0,1-10.52-4.08c-3.36-2.9-5.58-6.63-5.33-11.29a8.4,8.4,0,0,1,1.23-4.25,35,35,0,0,1,5-5.48c5.07-4.64,11.27-7.58,17.17-10.93a60.86,60.86,0,0,1,10.88-4.92,11.47,11.47,0,0,1,9.86,1.2A6,6,0,0,1-10-255.15,3.47,3.47,0,0,1-11.25-254c-3.7,2-7.39,4.1-11.14,6-4.77,2.47-9.53,5-14.41,7.21-2.92,1.34-6,2.58-9.35,2.3a4.85,4.85,0,0,0-1.49.13,2.11,2.11,0,0,0-1.89,2.26A7.36,7.36,0,0,0-44-228.5,53.25,53.25,0,0,0-38-227.71Zm22-30.72c0-1.45-.92-2-2.46-1.45a49.21,49.21,0,0,0-6.93,2.68c-3.53,1.8-6.92,3.86-10.35,5.86-1.71,1-3.4,2-5,3.19a22.7,22.7,0,0,0-2.94,2.64,1.19,1.19,0,0,0-.13,1.12c.13.22.69.24,1.07.25a1.85,1.85,0,0,0,.69-.27c2.94-1.3,5.92-2.5,8.8-3.92,4.59-2.25,9.12-4.61,13.65-7a16.85,16.85,0,0,0,2.82-2A4.48,4.48,0,0,0-16-258.43ZM172.77,214c4.85-.12,8.12,4.59,7,8.18-1.75,5.62-3,11.4-4.43,17.12a10.4,10.4,0,0,0-.35,2.46c0,1.6.9,2.23,2.23,1.37a26.28,26.28,0,0,0,4.23-3.43c1.63-1.62,2.22-1.78,4.28-.51a3.21,3.21,0,0,1,1.43,4.27,9.68,9.68,0,0,1-2.82,3c-2.63,1.74-5.41,3.24-8.13,4.84-2,1.18-2.2,1.54-1.39,3.74.35.94.56,1.79-.24,2.51a2.62,2.62,0,0,1-3,.72,8.21,8.21,0,0,1-3-1.69,3.16,3.16,0,0,0-3.54-1.06,12,12,0,0,0-2.86.84,24.06,24.06,0,0,1-10.93,2.08,12.2,12.2,0,0,1-7.55-2.91c-2.29-1.79-2.16-4.4,0-6.25a115.47,115.47,0,0,1,15.58-10.68,12.66,12.66,0,0,1,7.56-2.09c2,.14,2.09-.14,2.61-2.19.6-2.32,1.32-4.61,2-6.93.43-1.59.8-3.2,1.2-4.81a.9.9,0,0,0-.91-1.2,5.66,5.66,0,0,0-2.39.43,23.34,23.34,0,0,0-9.7,7.6c-.47.68-1.17,1.19-1.67,1.86-1.08,1.45-2.61,1.47-4.07,1.13a4.65,4.65,0,0,1-3.29-3.14,2.85,2.85,0,0,1,.87-3.17A53.36,53.36,0,0,1,161,218.9c.71-.43,1.36-1,2.06-1.41,2.69-1.75,5.75-2.57,8.79-3.42A4.13,4.13,0,0,1,172.77,214Zm-17.41,38a9.18,9.18,0,0,0,1-.18c3-1,6-2,8.93-3a3.76,3.76,0,0,0,2.41-2.67,3.17,3.17,0,0,0-.5-2.27c-.19-.29-1.29-.31-1.76-.06-3.54,2-7,4-10.52,6.09-.4.24-.54.92-.81,1.39ZM-150.51-96.84a17.73,17.73,0,0,1-3.39,8.41c-3.54,5-6.6,10.35-10.62,15-1.88,2.19-3.54,4.57-5.59,6.63a8.63,8.63,0,0,1-4.83,2.87A2.36,2.36,0,0,0-177-61.45C-177.4-56-179-50.64-178.55-45.1a8.78,8.78,0,0,1-.25,2.22A58.16,58.16,0,0,0-179.52-25a15.69,15.69,0,0,0,.47,1.93,1.33,1.33,0,0,1-1.12,1.84,4.18,4.18,0,0,1-5.14-3.12A17.92,17.92,0,0,1-185.6-31c.63-3.51.77-7.1,1.1-10.66.42-4.55.81-9.1,1.23-13.65.27-2.9.62-5.79.8-8.69a16.19,16.19,0,0,0-.45-2.9c-.09-.72-.37-1.59-.09-2.16,2.38-4.81,2.29-10.16,3.43-15.24a20.36,20.36,0,0,0,.13-3.49c.1-2.24,1-3,3.19-2.6a11.17,11.17,0,0,1,1.43.43c1.43.45,2,.15,2.92-1,3.47-4.56,6.95-9.1,10.5-13.59,1.44-1.81,3.08-2.08,5.33-1.2C-152.08-104.22-150.46-101.94-150.51-96.84Zm-7.33.61c-.24-.36-.41-.83-.6-.84a1.37,1.37,0,0,0-1,.43,92.34,92.34,0,0,0-11.35,17.2c-.51,1-1,2.07-1.46,3.14a1.15,1.15,0,0,0,.38,1,1.15,1.15,0,0,0,1-.22,11.45,11.45,0,0,0,1.3-1.5A89.36,89.36,0,0,0-159.42-92.6C-158.82-93.77-158.37-95-157.84-96.23ZM271-69.38a10.26,10.26,0,0,1,1.68-6,31.57,31.57,0,0,1,9.61-10,73.19,73.19,0,0,1,8-4.56c2.56-1.31,4.23-.93,6.33,1.1a8.74,8.74,0,0,0,.67.73,1.27,1.27,0,0,0,2.19-.55c1.35-2.93,2.7-5.85,4.08-8.77a2,2,0,0,1,3.08-1,5.23,5.23,0,0,1,2.55,6.58c-1.48,3.23-3.24,6.33-4.89,9.49s-4,6.1-5.31,9.55c-1.14,2.92-2.82,5.61-4.15,8.46-.66,1.42-1,3-1.58,4.45-2.32,6.14-4.67,12.26-7,18.4s-4.49,12.14-5.47,18.58c-.13.82,0,1.67-.2,2.48a5.42,5.42,0,0,1-.82,2c-.47.66-1.1.75-2,.34-2.9-1.38-3.54-2.8-2.64-6,.68-2.39,1.17-4.83,1.88-7.21.89-3,1.89-6,2.89-9q1.62-4.83,3.35-9.62c.56-1.56,1.23-3.08,1.82-4.64,1.22-3.27,2.43-6.54,3.6-9.83a4.19,4.19,0,0,0,0-1.38,5.7,5.7,0,0,0-1.4.13c-2,.72-4,1.63-6.05,2.21a8.24,8.24,0,0,1-7.58-1.19A6.66,6.66,0,0,1,271-69.38ZM293-83a5,5,0,0,0-1.8.49c-3,1.83-5.93,3.64-8.71,5.72a28.49,28.49,0,0,0-4.3,4.46c-.56.66-1.18,1.72-.4,2.46.43.4,1.56.32,2.27.11,6.36-1.8,10.91-6.06,14.83-11.13a3.45,3.45,0,0,0,.47-.88c.28-.73-.09-1.1-.77-1.22A13.68,13.68,0,0,0,293-83ZM-16.3,201.27c-.43,2.62-1,5.23-1.26,7.87-.64,6.86-2.07,13.65-2.06,20.58,0,.81-.42,1.61-.48,2.43-.16,2.23-.32,4.47-.29,6.7,0,1.1.8,1.32,1.76.67a1.87,1.87,0,0,0,.57-.47c1.67-2.68,4.45-4.52,5.67-7.55A4.37,4.37,0,0,1-11.11,230a1.68,1.68,0,0,1,1.13-.38c1.77.17,3.45,3,2.55,4.56a73.07,73.07,0,0,1-5.12,7.95,32.54,32.54,0,0,1-4.66,4.49c-2,1.79-3.36,3.88-3.21,6.69a6.94,6.94,0,0,1,0,.75c-.15,2.67-2.11,3.78-4.47,2.46a6.67,6.67,0,0,1-1.87-1.62,3.24,3.24,0,0,0-3.93-1.14,25.45,25.45,0,0,1-12.35.3A13.77,13.77,0,0,1-51,249.2a11,11,0,0,1-1.79-4.53c-.14-.61.52-1.6,1.08-2.14,3.23-3.08,6.19-6.45,10.21-8.63,2.1-1.14,3.92-2.79,6-4.06,2.45-1.52,4.8-3.28,7.88-3.52.61,0,1.33-.92,1.67-1.58a7.34,7.34,0,0,0,.46-2.43q.73-6.18,1.43-12.36c.07-.58.13-1.16.15-1.74.15-3.4.28-6.8.44-10.21.12-2.66,1.54-3.55,4-2.53S-16.06,198.31-16.3,201.27Zm-23.85,47.84c3.73,0,7.19-1.15,10.59-2.45A3.73,3.73,0,0,0-27,243.29c.14-2.15.39-4.29.5-6.44.05-1,.49-2.5-.64-2.93-.78-.29-2.09.24-2.93.78-3.14,2-6.23,4.08-9.23,6.29a31.09,31.09,0,0,0-4.56,4.21c-1.44,1.6-.87,3.2,1.2,3.73A13.84,13.84,0,0,0-40.15,249.11Zm-353.9-11.58c.07-5.33,2.48-9.2,5.18-12.94,2.12-2.94,5-5.05,7.86-7.19a27.89,27.89,0,0,1,6.52-3.57,37,37,0,0,1,7.36-2.15c4.07-.67,8.49,2,9.74,5.35a3.78,3.78,0,0,1-1.18,4.67c-1.52,1.28-3,2.62-4.65,3.75-3.75,2.6-7.54,5.16-11.4,7.58a33.64,33.64,0,0,1-10.23,4.46c-2.1.49-2.34,1.17-1.54,3.24a10.34,10.34,0,0,0,.53,1.4c.82,1.44,1.87,2.51,3.73,2.44a27,27,0,0,0,7.12-1c6.48-2,12.33-5.27,18.23-8.47,2.55-1.38,5.08-2.82,7.71-4,2.12-1,4.35-1.18,6.33.49s1.71,3.19-.4,4.31c-1.9,1-3.91,1.79-5.83,2.75-4.76,2.37-9.43,5-14.27,7.13a65.18,65.18,0,0,1-11,3.94c-3.87,1-7.94,1.27-11.71-.68C-390.15,246.92-394.58,243.17-394.05,237.53Zm27.46-18.27c0-.82-.51-1.08-1.31-.82A36.24,36.24,0,0,0-379.23,225a19.11,19.11,0,0,0-2.45,2.48,4.32,4.32,0,0,0-.52,1.28,9.76,9.76,0,0,0,1.63.18c.3,0,.59-.29.87-.46,2.12-1.29,4.28-2.52,6.35-3.9s4.16-3,6.22-4.5A2.56,2.56,0,0,0-366.59,219.26Zm268-474c-.38-4.89-.92-9.78-3.5-14.11-2-3.39-4.81-5.67-9-5.69a4.69,4.69,0,0,0-3.91,1.82c-.84,1-1.85,1.94-2.58,3-1.24,1.85-2.41,3.77-3.46,5.73-1.34,2.49-2.52,5.07-3.83,7.58-.18.34-.73.48-1.1.72-.19-.34-.55-.68-.54-1,0-1.58.1-3.16.27-4.72s.55-2.94.7-4.43c.28-2.85-1.36-4.61-4.19-4.62-2.07,0-2.81.88-2.61,3s.33,4,.42,6c.15,3.31.1,6.62.05,9.93-.14,9.41-.08,18.83-.16,28.24,0,2.33-.36,4.65-.4,7a3.74,3.74,0,0,0,3.28,3.8c1.61.28,2.42-.27,2.54-1.88a24,24,0,0,0-.05-3q-.37-6.84-.77-13.69a4.35,4.35,0,0,1,1.37-3.59,4.84,4.84,0,0,0,1.19-2.1c.68-2.48,1.06-5.06,1.89-7.49,1.31-3.85,2.74-7.66,4.37-11.38,2-4.5,4.26-8.85,7.8-12.39,2.1-2.09,3.1-1.94,4.4.8a10.78,10.78,0,0,1,.72,1.86c.53,2,1,4,1.51,6,1.25,5.1,1,10.3.45,15.4-.46,4.09-.54,8.29-2,12.26-.39,1.06-.17,2.33-.47,3.44-.86,3.19-1.86,6.35-2.78,9.53A3.39,3.39,0,0,0-106.9-215c2.44.56,3.37,0,3.82-2.18,0-.24,0-.5.09-.74.41-2.37.72-4.77,1.27-7.11,1.91-8.12,3.41-16.28,3.19-24.67C-98.54-251.38-98.43-253.06-98.56-254.71ZM318.75,250.17a8.09,8.09,0,0,0,2.13-5.2,27.59,27.59,0,0,1,3.63-10.53c2.65-4.64,6.45-8.43,10-12.42.11-.12.21-.31.35-.35.6-.19,1.21-.33,1.82-.49a5.28,5.28,0,0,1,.27,1.65c-.75,4.5-1.4,9-2.39,13.48a104.45,104.45,0,0,0-2.38,16.26,5.26,5.26,0,0,0,2.89,5.1c1.93.92,3.18.32,3.59-1.77a6.68,6.68,0,0,0,.16-2.46,20.83,20.83,0,0,1,.42-7.93c1-5.39,2.06-10.77,3.07-16.16.26-1.38.35-2.79.63-4.17.54-2.59,1.15-5.16,1.76-7.73.85-3.56-.75-5.9-3.68-7.66-1.37-.83-2.63-1-3.88.14-2,1.77-4,3.48-5.91,5.34-2.6,2.56-5.08,5.24-7.63,7.86a4.86,4.86,0,0,1-1.18.9c-.76.4-1.33,0-1.29-.82a7.64,7.64,0,0,1,.23-1c.67-3.46-.4-5.49-3.56-6.76-1.62-.66-2.82,0-3.15,1.66-.08.41-.06.83-.1,1.24-.38,3.8-.77,7.6-1.14,11.4-.2,2.07-.35,4.14-.53,6.21q-.85,9.55-1.69,19.1a1.55,1.55,0,0,0,.16,1,20.79,20.79,0,0,0,3,3.9c1.82,1.53,3.83.54,4-1.82a20.88,20.88,0,0,0-.17-3.23c-.06-.75-.2-1.48-.36-2.69A5.28,5.28,0,0,1,318.75,250.17Zm-622-513.64c-.46,2.69-.83,5.4-1.39,8.06-1.34,6.43-2.18,12.93-2.91,19.45-.24,2.14-.45,4.3-.56,6.45a9,9,0,0,0,.94,5.33,3.1,3.1,0,0,1,.28,1c.39,1.84-.65,3-2.47,2.64-2.44-.43-3.53-1.63-3.75-4.14s-1.08-2.89-3.32-1.77c-3.71,1.86-7.36,3.83-11,5.75-2.94,1.54-5.86,3.11-8.82,4.6a10.18,10.18,0,0,1-2.37.74,7.38,7.38,0,0,1-8.38-3.37c-1.12-1.74-.71-3.62.15-5.25a46.19,46.19,0,0,1,4-6.3,76.31,76.31,0,0,1,10.36-11.45,34.27,34.27,0,0,1,13.74-7.82,19.86,19.86,0,0,1,4-.36c.75,0,1.5,0,2.25.05a1.77,1.77,0,0,0,2.06-1.66,97.72,97.72,0,0,0,1.57-14.63c0-2.76-1.39-3.46-3.89-2.28a30.2,30.2,0,0,0-11.73,9.78,3.65,3.65,0,0,1-6.15-.32,1.68,1.68,0,0,1,.17-2.08,42,42,0,0,1,13.43-10.52,12.64,12.64,0,0,1,8.73-1,6,6,0,0,1,4.79,5.37,37.15,37.15,0,0,1,0,3.75Zm-8.71,22.19c.12-3.86-.95-4.75-4.15-4.09a5.93,5.93,0,0,0-1.43.43,64.42,64.42,0,0,0-5.74,3c-5.12,3.23-9,7.83-13,12.24a38.07,38.07,0,0,0-4.15,6.18,5.42,5.42,0,0,0-.6,2.6c0,1,.56,1.32,1.49,1a33.88,33.88,0,0,0,3.9-1.62c4-2.1,8-4.38,12.09-6.38,3.12-1.52,6-3.58,9.48-4.34a1.77,1.77,0,0,0,1-1.22C-312.58-236.3-312.22-239.1-311.91-241.28ZM167.35-76.36A7.5,7.5,0,0,1,170.14-83c1.71-1.42,1.92-1.68,4-.71,2.47,1.18,4.88,2.48,7.28,3.81,2.82,1.56,5.6,3.22,8.4,4.81,2.23,1.26,4.55,2.38,6.69,3.76,2.5,1.62,4.82,3.53,7.3,5.2a10.2,10.2,0,0,0,3.17,1.38,2.36,2.36,0,0,0,2.93-2.72,3.33,3.33,0,0,0-1.73-2.85c-2.2-1.14-4.36-2.35-6.51-3.59q-8.74-5-17.45-10.08c-1.72-1-3.45-2-5.08-3.12-1.81-1.24-1.82-2.1-.14-3.51,3.25-2.72,6.62-5.29,9.78-8.11a106.54,106.54,0,0,0,7.78-7.69c1.79-2,1.79-3.39,0-5.23-2.71-2.83-3.76-3.21-5.65.54-2,4-5.42,6.61-8.79,9.3-2.45,2-4.84,4-7.25,6-1,.85-2,1.77-3.05,2.56a2.73,2.73,0,0,1-3.07.27c-1.06-.57-1-1.6-1-2.62q.11-2.37.2-4.74a14.64,14.64,0,0,1,.78-4.88c1-2.51-.4-6.7-2.38-7.89-1.29-.78-2.8-1.64-4.19-.67s-.62,2.45-.51,3.75c.26,3.05.6,6.1.79,9.16.07,1.06-.33,2.15-.28,3.22.14,3.21.1,6.41,0,9.63A6,6,0,0,1,159.83-83a5.7,5.7,0,0,0-1.24,1.22,1.89,1.89,0,0,0-.37,1.36c.43,1.33.75,2.8,2.11,3.54a3.08,3.08,0,0,1,1.4,4.28c-1.51,3.47,0,6.72.42,10a4.34,4.34,0,0,0,1.3,2.09,2.48,2.48,0,0,0,3.4.28,2.18,2.18,0,0,0,.75-2.24c-.18-2.73-.41-5.46-.64-8.4A44.94,44.94,0,0,0,167.35-76.36ZM133.67-234.61a78.33,78.33,0,0,0,12.85-2.13c4-.92,7.91-1.85,11.8-3,2.7-.79,5.31-1.92,7.95-2.9a15.23,15.23,0,0,0,2.25-.93,36.46,36.46,0,0,0,3.27-2.13c.38-.28.55-.87.94-1.13,1.35-.88,4,.43,5.13,2.48a2.58,2.58,0,0,1-1.4,3.71c-3.93,1.52-7.72,3.4-11.9,4.27-1.94.4-3.81,1.13-5.73,1.66-3.18.88-6.25,2.19-9.65,2.27-1.29,0-2.54.73-3.84.92-3.53.52-7.06,1-10.61,1.33a14.64,14.64,0,0,1-4.45-.41,43.71,43.71,0,0,1-7.15-2.07c-1.47-.62-2.59-2-4-2.9-2.05-1.25-2.74-3.23-3.33-5.33a4.51,4.51,0,0,1,.19-2.88,18,18,0,0,1,4.46-7.1c2.07-2,3.95-4.24,6.57-5.62a37.92,37.92,0,0,0,3.33-2.17c3.58-2.41,7.79-3.22,11.79-4.5A9.93,9.93,0,0,1,149-263a2,2,0,0,0,.72.19c3.39.06,5.34,2.42,7.34,4.65a5.37,5.37,0,0,1,.1,6.23,11.41,11.41,0,0,1-3.11,2.82c-2.79,1.44-5.72,2.63-8.63,3.85a30.65,30.65,0,0,1-4.23,1.44,74.62,74.62,0,0,1-9,2,24.45,24.45,0,0,1-6.16-.46c-1.06-.14-2.23-.75-3.07.13-1,1.05-.82,2.55-.47,3.8.4,1.43,1.95,1.88,3.12,2.2C128.28-235.42,131-235.1,133.67-234.61Zm-1.28-12.3c.88-.13,1.38-.15,1.86-.27a65.75,65.75,0,0,0,14.38-5.38,9.92,9.92,0,0,0,2.64-2.21c1.37-1.53.93-2.71-1.06-3.17a13.28,13.28,0,0,0-6.15.18c-5.33,1.28-9.93,4-14.27,7.26a3.18,3.18,0,0,0-.38.32,1.4,1.4,0,0,0,.26,2.43A15.19,15.19,0,0,0,132.39-246.91ZM-151.48-255q0,6.87,0,13.73c0,.5,0,1,0,1.5.14,1.87.46,2.38,2.32,2.64a2,2,0,0,1,2,1.8,2.58,2.58,0,0,1-1.36,2.72c-2.7,1.68-3.45,3.53-2.74,6.67a24.72,24.72,0,0,1,.69,3.16c.14,1.49-.54,2.17-2,2.26A4.74,4.74,0,0,1-157-225c.06-1.74-.69-2.24-2.26-1.44-1.93,1-3.78,2.12-5.76,2.95a55.38,55.38,0,0,1-9.07,3.31c-2.43.55-5.12.71-7.43-1-1.13-.84-2.46-1.42-3.56-2.28-2.25-1.78-2.38-4-.29-5.88,2.44-2.24,5-4.41,7.52-6.52s4.9-3.94,7.41-5.82a30.67,30.67,0,0,1,12-5.78c1.44-.3,1.91-.88,2-2.44.06-1.41,0-2.83,0-4.24-.12-4.49-.26-9-.39-13.46,0-.17,0-.33,0-.5-.11-1-.24-2.25-1.31-2.45a3.66,3.66,0,0,0-2.39,1c-1.88,1.49-3.68,3.08-5.46,4.68a22.2,22.2,0,0,0-4.47,6.53c-1,1.86-1.52,2.1-3.33,1.83a3.86,3.86,0,0,1-3-3,3.33,3.33,0,0,1,.5-1.83,41.36,41.36,0,0,1,6.45-8.18,10.07,10.07,0,0,1,1.32-1.14,82.75,82.75,0,0,1,7.14-5c4.1-2.31,9.59-.84,9.82,4.9.21,5.23,0,10.48,0,15.73Zm-5,18c0-1,0-1.63,0-2.21,0-2.37-1.27-3.32-3.34-2.24a82.19,82.19,0,0,0-10.47,6.12c-3.13,2.28-5.8,5.18-8.66,7.82a2.68,2.68,0,0,0-.58.78c-.64,1.32-.24,2.08,1.19,2.25a4,4,0,0,0,1.49,0,36.18,36.18,0,0,0,5.92-1.8c3.8-1.8,7.45-3.93,11.21-5.82C-157.49-233.23-155.71-234.52-156.49-237ZM-191,213.66c0-1,0-2,0-3-.12-2.09-1.66-3.16-3.18-4.2a3.86,3.86,0,0,0-4.42-.22,12,12,0,0,0-3.64,3c-2.15,2.63-4.38,5.2-6.51,7.84a35.34,35.34,0,0,0-2.53,3.68c-1,1.6-1.66,1.68-2.57,0a5.7,5.7,0,0,0-5.54-3.1c-1.66,0-2.26.65-2.29,2.27q-.14,7.23-.3,14.45a29.31,29.31,0,0,1-.14,4.49c-.81,4.56-.2,9.09-.06,13.64.08,2.81,1.9,4.11,3.77,5.45a2.54,2.54,0,0,0,3.06.06c1-.7.81-1.68.61-2.71-.32-1.71-.57-3.44-.76-5.17-.27-2.42.78-4.56,1.56-6.75,1.77-4.92,3.4-9.89,6.14-14.39,1.42-2.34,2.72-4.76,4.23-7a55.85,55.85,0,0,1,3.88-4.87,1.14,1.14,0,0,1,1-.29,1.24,1.24,0,0,1,.57,1c-.21,2.57-.39,5.14-.78,7.68-.43,2.79-1.1,5.54-1.61,8.31s-1,5.54-1.39,8.33c-.26,2.05-.42,4.15.74,6.07.89,1.48,3.34,2.67,4.66,2.18,1.12-.42,1.65-1.9,1.4-3.93,0-.33-.16-.65-.18-1a15.17,15.17,0,0,1-.06-3c1.11-7.14,2.3-14.27,3.44-21.4.39-2.46.73-4.92,1.09-7.38Zm461.65-450.1a22.45,22.45,0,0,1-10.13-1.3,14.55,14.55,0,0,1-8.17-7.92,4.72,4.72,0,0,1,.46-4.78,33.94,33.94,0,0,1,4.52-5.26A65,65,0,0,1,277-267.14,25.44,25.44,0,0,1,288.51-269c3.93.38,7.06,4.33,5.75,7.64a9.37,9.37,0,0,1-3.39,4.54,64.24,64.24,0,0,1-5.92,3.69,63.49,63.49,0,0,1-7.73,3.42,46.15,46.15,0,0,1-8.85,2.48c-2.14.31-4.43-.32-6.65-.62-1-.14-1.93-.37-2.77.51-1.39,1.43-1.34,3.2.38,4.19a11.09,11.09,0,0,0,6.86,1.81c1.88-.2,3.82.15,5.69-.1a112.59,112.59,0,0,0,13.9-2.83,80,80,0,0,0,9.63-3.26,23.54,23.54,0,0,0,6.85-4c2.67-2.34,5.08-.85,6.07,2.05a2.44,2.44,0,0,1-.47,1.79,3.92,3.92,0,0,1-1.53,1.24c-2.75,1.31-5.33,3-8.41,3.57a33.3,33.3,0,0,0-4.14,1.55c-2.74.93-5.5,1.78-8.24,2.69A41.62,41.62,0,0,1,270.63-236.44ZM284.91-263a10.63,10.63,0,0,0-1.81.4,88.19,88.19,0,0,0-13.59,6.1,14.27,14.27,0,0,0-2.59,1.93c-.36.34-.42,1-.61,1.5a5,5,0,0,0,1.58.47,7,7,0,0,0,2.17-.53c3-1.19,6-2.34,9-3.69,2.17-1,4.22-2.24,6.29-3.42a5,5,0,0,0,1.28-1.18c.66-.79.41-1.44-.56-1.58A10.72,10.72,0,0,0,284.91-263Zm-366,487.87c0-.58,0-1.17,0-1.75A5.34,5.34,0,0,0-86.94,218c-1.78.1-2.31.7-2.17,2.52.19,2.4.6,4.8.59,7.2,0,5.24-.23,10.48-.48,15.71-.2,4.23-.55,8.46-.89,12.68a3.69,3.69,0,0,0,1.79,3.82,15.77,15.77,0,0,0,2.47,1.19,2.31,2.31,0,0,0,3-1,10.37,10.37,0,0,0,1.52-5.92,21.56,21.56,0,0,1,.55-6.88,23.65,23.65,0,0,1,2.61-5.64c2.39-4.27,4.88-8.49,7.37-12.7.68-1.14,1.51-2.19,2.3-3.26.13-.18.47-.43.57-.38A1.51,1.51,0,0,1-67,226a2.23,2.23,0,0,1,.11,1c-.23,4.74-.44,9.47-.74,14.21-.23,3.65-.59,7.29-.87,10.94a4.57,4.57,0,0,0,2.21,4.22,3.38,3.38,0,0,0,3.56.36c1.13-.59,1.17-1.93,1.11-3.11s-.3-2.15-.26-3.22c.09-2.9.25-5.81.43-8.71q.39-6.35.84-12.69c.2-2.82.6-5.63.69-8.44.11-3.79-1.62-6.14-5.13-7.34a2.35,2.35,0,0,0-2.78.45c-1.66,2-3.36,3.91-4.84,6-2,2.78-3.71,5.7-5.56,8.57a3.18,3.18,0,0,1-.54.83c-.61.48-1.39,1.33-1.92,1.22-1-.22-.69-1.34-.63-2.15.09-1.08.23-2.15.36-3.22ZM-394.71,93.56A3.8,3.8,0,0,0-390.9,90a19.36,19.36,0,0,1,.68-3.65c.62-2,1.43-3.89,2.12-5.84,2.35-6.61,6.38-12.17,10.81-17.49a3.58,3.58,0,0,1,.5-.56,1.16,1.16,0,0,1,1.88.36,4,4,0,0,1,.2,1.92c-.21,1.81-.53,3.61-.77,5.42-.9,6.74-1.28,13.54-2.87,20.19a2.68,2.68,0,0,0,.29,2.09,10.5,10.5,0,0,0,2.92,2.25,2.31,2.31,0,0,0,3.18-2.1c0-1.33-.08-2.67,0-4,.11-2,.24-4,.51-5.95.42-3,1-6.06,1.43-9.1.5-3.62.85-7.25,1.33-10.87a8.24,8.24,0,0,0-1.62-6.12A5.32,5.32,0,0,0-378,55.28,8.92,8.92,0,0,0-380.13,57c-2.9,3.62-6.36,6.79-8.66,10.89a3,3,0,0,1-1,1.07,1,1,0,0,1-1-.21,1.93,1.93,0,0,1-.29-1.18c.2-5.31.27-10.64.72-15.93.32-3.79,1.15-7.53,1.74-11.3a3.8,3.8,0,0,0-.87-3.23,7,7,0,0,0-3.3-2.1c-2.17-.76-3.13,0-3.14,2.3,0,10.81-.18,21.62-1,32.41-.46,6.28.07,12.65-1.92,18.78a4.49,4.49,0,0,0-.11,1.09C-399,92-397.25,93.59-394.71,93.56ZM-114.37-98.17c3.95-.29,6.86,1.55,9.36,4.38,2,2.28,1.79,4-1,5.27-4.17,1.85-8.4,3.54-12.6,5.31-1.37.58-2.72,1.22-4.1,1.79-3.75,1.56-7.5,3.12-11.27,4.65a2.18,2.18,0,0,0-1.63,2,2.31,2.31,0,0,0,1.33,2.43,10.33,10.33,0,0,0,5.53,1.16c.5,0,1-.18,1.48-.18,7.11,0,13.75-2.17,20.36-4.43,3.37-1.15,6.66-2.56,10-3.89a5.56,5.56,0,0,1,6.19,2c1,1.69.44,3.08-1.43,3.63-6.69,2-13.33,4.09-20.08,5.84-4.08,1.06-8.18,2.3-12.49,2.24-1.48,0-3,.07-4.45,0a16.82,16.82,0,0,1-9-3.25,14.17,14.17,0,0,1-3.12-3.51c-1.17-1.6-2.21-3.3-3.28-5-1.25-2-1.09-2.75,1.06-3.62,1.39-.56,2-1.7,2.78-2.75a34,34,0,0,1,12.08-10.56c3.42-1.7,6.89-3.36,10.83-3.51C-116.68-98.21-115.52-98.17-114.37-98.17Zm-14,12.86c.8-.34,1.31-.58,1.83-.79,2.52-1,5.06-2,7.54-3.06a28.5,28.5,0,0,0,3.84-2.19,1.14,1.14,0,0,0,.28-1.08c-.1-.22-.71-.39-1-.32a31.23,31.23,0,0,0-11.15,4.63,6.87,6.87,0,0,0-1.57,1.56C-128.78-86.36-128.5-85.85-128.37-85.31ZM267.51,216.47c0-.58,0-1.17,0-1.75a7.1,7.1,0,0,0-5.49-6.85,3.5,3.5,0,0,0-3.08.52,16.71,16.71,0,0,0-4.75,4.7,15.81,15.81,0,0,1-2.05,2.46c-2.18,2.26-4.82,4.11-6.18,7.1a3,3,0,0,1-.82.93c-.65.55-1.38.34-1.44-.48a10.13,10.13,0,0,1,.22-2.21c.51-3.53-.81-5.61-4.18-6.57-2.45-.7-3.35.1-3.31,2.68q.11,6.86,0,13.72c0,3-.43,6-.33,9,.11,3.23.59,6.44.95,9.66.26,2.32,1.9,3.65,3.73,4.66,1.41.77,2.71-.15,2.72-1.75a6.25,6.25,0,0,0-.36-1.94,2.93,2.93,0,0,1,.28-2.78,17.67,17.67,0,0,0,1.69-4.13c1-3.09,1.57-6.33,2.87-9.27a62.16,62.16,0,0,1,10-15.69c.42-.48,1.25-.59,1.9-.87a5,5,0,0,1,.63,1.73c-.29,5.81-.64,11.61-1,17.41q-.22,3.48-.59,6.94a5.25,5.25,0,0,0,1.53,4.3c1.16,1.27,2.81,1.88,4,1.3s1.89-2.67,1.55-4.1a19.27,19.27,0,0,1-.62-7.12c.56-4.28.8-8.6,1.2-12.9.12-1.32.32-2.64.51-4,.22-1.56.46-3.11.69-4.66Zm-696-190.8c-2.6-.32-3.1.13-3.08,2.76,0,3.58.16,7.17,0,10.74-.24,6.48-.67,13-1,19.43a3.72,3.72,0,0,1-1.95,3c-3.85,2.6-7.14,6-11.35,8.09a1.72,1.72,0,0,0-1.09,1.79,4.46,4.46,0,0,0,5.68,3.77,13.07,13.07,0,0,0,3.1-2c1.28-.92,2.47-2,3.76-2.85.66-.46,1.33-.28,1.47.63a20,20,0,0,1,.3,3.22c-.09,6.07-.23,12.15-.36,18.22a13.76,13.76,0,0,1-.15,1.49c-.21,1.59,0,3,1.61,3.82a4.26,4.26,0,0,0,4.92-.08,1.64,1.64,0,0,0,.78-2.13c-1.25-2.85-1-5.91-1.1-8.86-.23-6.66-.06-13.32-.1-20a4.63,4.63,0,0,1,2.08-4c4.29-3.14,8.53-6.35,12.82-9.49,2.28-1.67,4.6-3.28,6.95-4.85,1.07-.72,1.92-1.63,1.43-2.87-1.23-3.11-5.48-4-7.17-2-3.42,4-7.79,6.95-12.1,9.9-.91.63-1.95,1.91-3,1-.58-.48-.45-2-.38-3,.25-3.55.61-7.1.94-10.65.07-.74.19-1.48.31-2.21.4-2.54.8-5.07,1-6.39C-424,27.74-425.45,26.05-428.47,25.68Zm128.15,208.25c.91.3,2.3.5,2.55,1.11.55,1.34-1,1.94-1.81,2.64-2.45,2-5.54,2.93-8.32,4.38-2.29,1.19-4.85,1.09-7.27,1.59a22.73,22.73,0,0,1-4.7.37c-1.55,0-1.91-.35-1.83-1.95a1.54,1.54,0,0,0-1.05-1.72,10,10,0,0,0-9.33.3c-1.58.85-2.07,2.26-1.07,3.74a6.26,6.26,0,0,0,2.38,2.09,30.24,30.24,0,0,0,17,2.65,43.48,43.48,0,0,0,5.62-1,75.84,75.84,0,0,0,9.49-2.91c3.2-1.32,6.33-2.87,8.59-5.76a4.4,4.4,0,0,0,.82-4.41,6.19,6.19,0,0,0-2.67-3.49,24.14,24.14,0,0,0-8.42-2.94,82.91,82.91,0,0,0-21.77-1.28c-.41,0-.85-.31-1.27-.47.19-.49.26-1.14.61-1.45a12.82,12.82,0,0,1,2.13-1.28c3.35-1.92,6.77-3.44,10.83-2.64,1.61.32,3.1-.5,4.46-1.33,1.07-.65,1.6-1.74,1.06-2.48-1.42-2-3-4-5.65-4.06a19.46,19.46,0,0,0-9.67,2c-4.06,2.22-8,4.61-12.21,6.57-1.59.74-2.2,1.78-1.67,3.41.62,1.87,1.22,3.89,3,5,2.37,1.55,4.81,3,7.83,2.76,3.9-.27,7.8-.47,11.69-.7C-307.39,233-303.79,232.78-300.32,233.92ZM298.48,62.27c0-1,0-2,0-3,0-3.36.67-4.35,4-5.47,3.07-1,6.17-2,9.29-2.84A47.87,47.87,0,0,1,325,49.06a9.45,9.45,0,0,0,2.95-.36,1.69,1.69,0,0,0,1-2.76,33.71,33.71,0,0,0-2.52-3.4,2.17,2.17,0,0,0-2.9-.59,7.49,7.49,0,0,1-2.82.91,37.1,37.1,0,0,0-8.81,1.47C306,45.89,300,47.1,294,48.51c-2.76.65-3.72,2.94-2.48,5.55a9.47,9.47,0,0,1,1,2.77c.25,2.06.32,4.14.41,6.22.14,3.31.18,6.63.35,9.94.14,2.89-.24,3.44-3.07,4.05a26.83,26.83,0,0,0-2.87.83,2.48,2.48,0,0,0-1.71,2.5,4.73,4.73,0,0,0,5.17,4.76c1.84-.22,2.29.05,2.14,2a28.69,28.69,0,0,1-2.09,9.68,5.76,5.76,0,0,0-.46,4.35c.45,1.35,2.83,3.19,4.17,3.18a3.7,3.7,0,0,0,3.43-3.54c0-1.83,0-3.66.17-5.48.2-2.56.57-5.11.78-7.68a38.31,38.31,0,0,0,.06-4,2.57,2.57,0,0,1,1.77-2.73c2.92-.93,5.5-2.75,8.66-3.09A31.1,31.1,0,0,0,314,76.59a1.15,1.15,0,0,0,1-1.47c-.6-2.7-2.39-5.09-5.47-4.6a29.58,29.58,0,0,0-3.85.94A47.39,47.39,0,0,1,300.93,73c-1.58.29-1.9-.11-2-1.72-.18-3-.33-6-.49-9ZM-384.22-68c-1.16-.29-2.3-2.35-2.22-3.6.1-1.49,1.4-1.43,2.37-1.8a5,5,0,0,1,1-.2c6.51-1,11.81-4.78,17.27-8,2.82-1.68,5.22-4.09,7.77-6.22,1.89-1.58,2-3.1.39-4.92a6.82,6.82,0,0,0-2.42-1.63c-3.52-1.45-6.94-.22-10.2.89-3,1-5.86,2.75-8.83,4a31.13,31.13,0,0,0-8,5.43,18.57,18.57,0,0,0-5.53,7.53,8.41,8.41,0,0,0,.77,8.09,13.52,13.52,0,0,0,9.26,5.76,30.26,30.26,0,0,0,8.9.23,66.29,66.29,0,0,0,17-4.34c3.39-1.38,6.77-2.76,10.14-4.19a8.21,8.21,0,0,0,2.34-1.38,2.27,2.27,0,0,0-.69-4c-1.79-.79-3.58-1.42-5.16.49a3.44,3.44,0,0,1-1.31.71l-11.44,4.92a45.76,45.76,0,0,1-15.56,3.32C-380.32-67.23-382.29-67.51-384.22-68ZM167.07,94.64q0,1.37,0,2.75c0,1-.07,2,0,3a28.81,28.81,0,0,0,.59,4.18,3.52,3.52,0,0,0,3.93,2.73c1.54-.35,2.12-1.94,1.7-4.11s-.6-4.1-.89-6.16a3.69,3.69,0,0,1,1.47-3.73,5.72,5.72,0,0,0,2.17-3.8,4.73,4.73,0,0,1,.32-1.2,45.09,45.09,0,0,1,4.84-8.64,44,44,0,0,1,13-11.46,3.09,3.09,0,0,1,2.29-.35c1,.34,1,1.39.85,2.36-1.07,5.53-2.08,11.08-3.23,16.6-.87,4.15-1.9,8.26-2.91,12.38a7.59,7.59,0,0,0,.63,4.37,3.13,3.13,0,0,0,3,1.39,2.13,2.13,0,0,0,1.7-2.18,15,15,0,0,1,.25-2.23c1.15-5.51,2.22-11,3.68-16.48a121.07,121.07,0,0,0,2.4-12.46,11.15,11.15,0,0,0-2.66-9.07,5.26,5.26,0,0,0-6-1.77,34.48,34.48,0,0,0-3.83,1.8c-5.25,2.73-9.24,7-13.24,11.19-.7.74-1.1,2.21-2.45,1.6-1.1-.49-.59-1.78-.64-2.72-.14-3.13-1.45-4.65-4.42-5-1.19-.15-1.73.21-1.92,1.39a9.56,9.56,0,0,0,0,1.74c.07,2.65.3,5.31.19,8-.22,5.31-.62,10.62-.94,15.93ZM-290.69-67.49a2.58,2.58,0,0,1-1.9-2.62,2.47,2.47,0,0,1,1.95-2.57,14.67,14.67,0,0,1,1.69-.4c2.26-.54,4.58-.91,6.77-1.67a70.52,70.52,0,0,0,11.24-4.73A26.86,26.86,0,0,0-264.71-84a5.36,5.36,0,0,0-2.3-8.57,10.91,10.91,0,0,0-8.73.54c-4.47,2.37-8.94,4.72-13.25,7.4a65.84,65.84,0,0,0-7.37,5.9,5.5,5.5,0,0,0-1.46,2c-.86,2-2.13,4-1.36,6.41a11.42,11.42,0,0,0,6.83,7.43A29.86,29.86,0,0,0-281.61-61c6.82.2,13.29-1.78,19.65-3.88,4.31-1.43,8.38-3.61,12.51-5.54,2.3-1.08,2.38-2.86.33-4.35s-3.45-1.59-5.67,0a44,44,0,0,1-13,6.15c-1.83.54-3.73.82-5.53,1.44-2.88,1-5.83,1.24-10.13,1.36C-285.13-65.75-287.92-66.5-290.69-67.49ZM410.8-127.33c-1.66-.73-2.71-.09-2.84,1.76a11.82,11.82,0,0,0,0,2c.54,5.37-.9,10.56-1.48,15.83-.14,1.32-.4,2.62-.54,3.94-.19,1.9-.25,3.82-.5,5.71-.18,1.39-.38,2.85-1.7,3.74s-2.36,1.54-3.58,2.25c-2.29,1.34-4.57,2.69-6.92,3.92A2.16,2.16,0,0,0,392-85.76a4.89,4.89,0,0,0,2.58,4c1.69.92,3.21.3,4.61-.78a31.71,31.71,0,0,1,3-2.23c1-.6,1.93,0,1.83,1.1-.22,2.47-.49,4.93-.85,7.39a8,8,0,0,0,2.39,7.48,3.53,3.53,0,0,0,3.71.56c1-.65,1.36-2.08.83-3.59a11.63,11.63,0,0,1-.7-2.11c-.63-4.4-.07-8.77.31-13.16a5.6,5.6,0,0,1,3.39-4.77c4.15-2.25,8.22-4.64,12.35-6.94,3.55-2,7.13-3.88,10.68-5.84,2.47-1.36,4.93-2.73,7.35-4.15,1.62-1,2-2.15,1.11-3.78a10.84,10.84,0,0,0-1.8-2c-.84-.89-1.58-.68-2.61-.08-3.87,2.23-7.78,4.44-11.79,6.42-5.21,2.57-10.13,5.63-15.12,8.57a1.88,1.88,0,0,1-1.53.2,1.71,1.71,0,0,1-.74-1.37c.26-2.3.62-4.59,1-6.88.64-3.58,1.35-7.16,2-10.73.18-1,.33-2,.43-2.55C414.53-124.31,413.35-126.21,410.8-127.33ZM-151.42,73.16a59.48,59.48,0,0,0-12.18,6.1c-4.12,2.72-7.5,6.26-11.27,9.36-1.23,1-1.31,1.57-.65,3s1.19,2.75,1.88,4.07a10.81,10.81,0,0,0,9.81,6.17c4.06.15,7.91-1.07,11.7-2.25,4.27-1.32,8.43-3,12.56-4.75,2.35-1,4.87-1.66,7-3.25a6.61,6.61,0,0,1,1.4-.51,8,8,0,0,0,1.53-.79c.69-.5,1.33-1.11,1-2.08a2.56,2.56,0,0,0-1.78-1.89,8.62,8.62,0,0,0-6.27.78c-1.94.93-3.8,2.07-5.8,2.84-4.41,1.68-8.87,3.25-13.35,4.74a51.26,51.26,0,0,1-6.5,1.61,9.68,9.68,0,0,1-3.23-.06,1.78,1.78,0,0,1-1.21-1c-.23-.79.45-1.11,1.13-1.34,1.16-.39,2.3-.83,3.45-1.26l3.27-1.22a39,39,0,0,0,9.58-4.68c1.67-1.22,3.54-2.15,5.29-3.26a28.41,28.41,0,0,0,3.24-2.29c1.71-1.46,1.79-4.79.37-6.54a6.82,6.82,0,0,0-5.81-2.46A28.42,28.42,0,0,0-151.42,73.16ZM-365.25,92.35a9.7,9.7,0,0,0,10,6.22,48.62,48.62,0,0,0,10.19-2.14C-341,95-336.81,93.89-332.91,92A37.73,37.73,0,0,1-328,90.11c2.68-.88,5.36-1.75,8.07-2.5,2-.55,2.54-2.6,1.28-4.39A3.84,3.84,0,0,0-324,82.17a18.2,18.2,0,0,1-2.8,1.61c-2.71,1-5.49,1.86-8.21,2.86-1.71.63-3.34,1.51-5.06,2.11-2.66.93-5.34,1.83-8.07,2.54a78.78,78.78,0,0,1-8,1.61c-1.8.27-2.27-.26-2.36-2-.13-2.51.43-3.38,2.83-4.32a44.92,44.92,0,0,0,5.31-2.07,75.47,75.47,0,0,0,12.61-8.43,51.85,51.85,0,0,0,3.84-3.53c1.31-1.35,1.23-2.8-.1-4.16a6.34,6.34,0,0,0-1.35-1.08,13.34,13.34,0,0,0-13.1-.48,24.06,24.06,0,0,0-5.25,3.71,66.44,66.44,0,0,0-9.54,11.14,10.66,10.66,0,0,0-2.41,7.2A16.58,16.58,0,0,0-365.25,92.35Zm121.14,5.27a18.45,18.45,0,0,1,0,2.5c-.37,2.66,1.28,3.94,3.31,5a2.77,2.77,0,0,0,3.29-.15,3.39,3.39,0,0,0,1.3-3.32c-.79-3.58.62-6.67,2.12-9.75.33-.67.74-1.29,1-2,1.72-3.76,3.34-7.57,5.15-11.29A27,27,0,0,1-225,74.25c.33-.44,1.06-.59,1.61-.87,0,.62.07,1.25.09,1.87,0,.08-.06.16-.07.24-.52,3.11-1.12,6.21-1.53,9.33-.39,3-.69,6-.81,8.94a36.66,36.66,0,0,0,.36,6.7,3.28,3.28,0,0,0,4.23,2.45c1.51-.41,2-1.56,1.63-3.64a18.88,18.88,0,0,1-.43-4.18c.25-4.06.56-8.12,1-12.16a39.74,39.74,0,0,1,1.47-7.06,52.75,52.75,0,0,0,2.29-11.21,6.37,6.37,0,0,0-.38-2.44c-.65-2-2.43-2.38-4.16-2.63a2.89,2.89,0,0,0-3,1.75,10.43,10.43,0,0,1-1.62,1.85,27.94,27.94,0,0,0-3.08,3.26c-2.78,4.12-5.42,8.34-8.14,12.5a4.54,4.54,0,0,1-1.06.86,9.34,9.34,0,0,1-.83-1.38,1.52,1.52,0,0,1,.06-1c.65-1.82-.24-3.16-1.56-4.11a10.43,10.43,0,0,0-3.6-1.54c-1.94-.46-3.12,1-2.63,3a16.25,16.25,0,0,1,.7,3.4c.16,6.48.22,13,.31,19.46ZM70.37,47c0,1.25.08,2.5,0,3.74-.42,5.38-.93,10.74-1.34,16.12A4.62,4.62,0,0,1,67,70.69c-3.27,2.14-6.57,4.22-9.86,6.3-1.77,1.12-2.19,2.29-1.43,4.21A4.77,4.77,0,0,0,61.16,84,5.35,5.35,0,0,0,63,82.73c1-.95,2-2,3.07-2.93s1.88-.65,2.05,1a12.52,12.52,0,0,1,0,1.5c0,2.58-.09,5.16-.15,7.74a3.77,3.77,0,0,1-.19,1.71c-1,1.67-.73,3.32-.23,5a9.67,9.67,0,0,1,.37,2.46,3.51,3.51,0,0,0,1.89,3c1.37.91,2.67,1.37,4.15.42,1.17-.76,1.33-1.86.6-4.07a18.58,18.58,0,0,1-1.05-7.11c.24-3.64.34-7.3.48-10.95Q74,78.77,74,77a4.71,4.71,0,0,1,2.32-4.17c3.28-2.11,6.53-4.32,10-6.13,4.23-2.21,7.89-5.21,11.8-7.85a3,3,0,0,0,.69-4.6A9.7,9.7,0,0,0,95.92,52c-1.12-.62-1.65-.25-2.45.85a12,12,0,0,1-2.57,3,141,141,0,0,1-14.08,8.83c-1.2.63-1.72.39-1.83-.89a7.45,7.45,0,0,1,0-1.5,107.32,107.32,0,0,1,2.26-13.48A5.79,5.79,0,0,0,73.19,42c-1.69-.48-2.59.07-2.72,1.8-.09,1.08,0,2.16,0,3.25Zm172.88,58a14.55,14.55,0,0,1-7.86-2.08c-2.7-1.45-4.08-3.74-4.6-6.91a9.34,9.34,0,0,1,2-7.42,23.56,23.56,0,0,1,8.68-7.66,3.24,3.24,0,0,0,2-2.37,4.12,4.12,0,0,1,2.92-3.1A24.65,24.65,0,0,1,255,74a46.47,46.47,0,0,1,9.42.55c6.33,1.14,10.29,5.78,11.4,11.74a8.17,8.17,0,0,1-2.16,6.9,27.91,27.91,0,0,1-11.35,7.36,95.36,95.36,0,0,1-11.63,3.53A58.31,58.31,0,0,1,243.25,105ZM243,99.46l.06.36c3.16-.63,6.33-1.23,9.49-1.9,4.21-.89,7.87-3.08,11.66-5a18.39,18.39,0,0,0,5.07-4c1.33-1.39,1.63-4.25.56-5.58a12.34,12.34,0,0,0-2.76-2.51c-2.18-1.44-4.35-1.08-6.11.9a2.44,2.44,0,0,1-2.86.94,7.38,7.38,0,0,0-5.58.51c-1.76.74-3.49,1.55-5.19,2.42a25,25,0,0,0-9.65,8.45c-1.7,2.57-.6,4.71,2.32,5.3A15.45,15.45,0,0,0,243,99.46ZM-70.54,85.93c1.75,0,3.5-.09,5.24,0,4.58.27,9.11.8,13.39,2.64,1,.45,2.05,1,2.21,2.16a2.83,2.83,0,0,1-1.62,2.63,21.71,21.71,0,0,1-6.2,3.09,43.75,43.75,0,0,1-14.54,1.17C-75,97.45-78,97-81,96.49c-.57-.09-1.07-.66-1.6-1s-1.29-1.22-2-1.3a31.45,31.45,0,0,0-5.47,0,1.89,1.89,0,0,0-1.39,1.09c-.35,1.71-.33,3.51,1.76,4.42a8.82,8.82,0,0,0,2.1.76c4.67.73,9.33,1.66,14,2a84.86,84.86,0,0,0,16.19.09,24,24,0,0,0,11.9-4.68c2.7-2,3.25-5.24,1.73-8.28a8.87,8.87,0,0,0-4.09-4.2,49.63,49.63,0,0,0-5.43-2.49,54.87,54.87,0,0,0-6-1.46c-1-.22-2-.28-2.94-.53-.31-.08-.76-.59-.71-.81a1.58,1.58,0,0,1,.78-1,9.14,9.14,0,0,1,1.72-.19,14.51,14.51,0,0,0,2.9-.65c1.52-.61,1.75-1.56.9-3a5.64,5.64,0,0,0-6.48-2.6c-1.94.44-3.82,1.14-5.73,1.73a59.44,59.44,0,0,1-6.43,2,21.44,21.44,0,0,0-4.24,1.32A30.68,30.68,0,0,1-83.7,79c-1.18.3-1.83.85-1.71,2A4.49,4.49,0,0,0-84,84.33a7.9,7.9,0,0,0,5.73,2c2.57-.21,5.15-.32,7.72-.47Zm-123.83,9.89c-.06.91-.08,1.83-.19,2.74-.38,3.1,1.87,4.71,4.45,5.38,1.79.47,3.07-.48,3-2.33a36.65,36.65,0,0,0-1-5.84,21.86,21.86,0,0,1-.82-3.58c-.09-3.41,0-6.83,0-10.25,0-3.12.6-3.18,3.22-4.27a7.44,7.44,0,0,1,1.22-.26c2.43-.55,4.9-1,7.29-1.69,3.51-1,6.94-2.23,10.7-2.22,2.54,0,3.44-2,2-4.12a6.1,6.1,0,0,0-1-1.11c-2-1.76-4.14-1.2-6.36-.58-4.64,1.29-9.3,2.5-14,3.73a5.59,5.59,0,0,1-1.49.11c-.77,0-1.27-.36-1.27-1.2,0-.5,0-1,.06-1.5.31-3.72.53-7.46,1-11.17.52-4.53,1.17-9,1.87-13.55a4.51,4.51,0,0,0-4-5.51,2.54,2.54,0,0,0-3,2.82,31.67,31.67,0,0,1-.2,4c-.19,2-.58,4-.65,5.95-.22,6.57-.33,13.15-.48,19.72,0,2-.22,2.47-2.22,3.07-3,.9-6.1,1.58-9.15,2.38a15.33,15.33,0,0,0-2.58.8,1.36,1.36,0,0,0-.59,2.1,8.75,8.75,0,0,0,4,3.6c1.47.74,2.57-.08,3.78-.51.63-.22,1.21-.56,1.84-.77a15.43,15.43,0,0,1,2.64-.72c1.59-.23,2.13.27,2.22,1.86,0,.58,0,1.17,0,1.75q-.21,5.6-.43,11.21ZM350.05-272.46a8.36,8.36,0,0,0-6.45-6.48,7.25,7.25,0,0,0-5,.84,26.82,26.82,0,0,0-7.09,5.78c-2.23,2.66-5.22,4.68-6.65,8a1.71,1.71,0,0,1-1.42.61c-.31,0-.67-.64-.84-1.06a2.28,2.28,0,0,1-.06-1.23c.43-2.18-.91-3.4-2.41-4.54a2.78,2.78,0,0,0-3.06-.26c-.46.25-.43,1.44-.57,2.21a4.6,4.6,0,0,0,.06,1c.16,3.15.35,6.3.48,9.46.07,1.58,0,3.17.08,4.75.26,4.39.75,8.77.8,13.17a7.22,7.22,0,0,0,3.22,6.1c1.24.92,2.77.38,2.7-1.09a30.17,30.17,0,0,0-.92-6.34c-.51-1.9-1.06-3.86,0-5.53a28.36,28.36,0,0,0,2.6-5.27,48.52,48.52,0,0,1,3.49-6.6,35.54,35.54,0,0,1,8.31-10.49,48.25,48.25,0,0,1,5-3.69c1.45-.89,2.32-.41,2.74,1.21a9.89,9.89,0,0,1,.41,2.2,81.15,81.15,0,0,1-.79,15.67c-.73,4.25-1.07,8.56-1.73,12.82-.42,2.66,1.09,4.18,2.84,5.67a1.36,1.36,0,0,0,2.17-.17,4,4,0,0,0,.93-1.94c.25-3.22.37-6.46.54-9.68.05-1,.08-2,.15-3,.39-4.88.79-9.76,1.14-14.11C350.47-267.5,350.39-270,350.05-272.46Zm-218.2,377a11.41,11.41,0,0,1-7.47-1.52c-3.2-2-5.58-4.55-5.86-8.68-.29-4.32,1.62-7.72,3.93-11,.81-1.15,1.8-2.16,2.66-3.28a7,7,0,0,0,1.28-2.1,3.66,3.66,0,0,1,2.77-2.85c3.32-.85,5.75-3.26,8.53-5s3.12-1.72,6,.06a8.58,8.58,0,0,0,4.45,1.3c5.18-.12,10.39,5.25,11.79,9.73a9.19,9.19,0,0,0,.29,1.21c1.59,3.33.46,6.31-1.65,8.79-4.56,5.36-9.83,9.85-16.66,12.2C138.86,104.4,135.72,104.46,131.85,104.57Zm15.71-27.13c-3.14-.41-6.39,1.19-9.78,1.93a4.67,4.67,0,0,0-3.17,2.26,4.42,4.42,0,0,1-1.49,1.22,15.22,15.22,0,0,0-1.71,1,29.65,29.65,0,0,0-6.58,8.71c-1.4,2.68-.32,5.11,2.51,6.19a8.49,8.49,0,0,0,5.85.36,10.81,10.81,0,0,1,2.19-.5,22.77,22.77,0,0,0,12.9-5.29c2.39-2.06,5-3.88,6.77-6.57a5.78,5.78,0,0,0-1.36-8C152,77.35,150,77.47,147.56,77.44Zm93-154.84c0,1.66-.35,3.42.07,5,.87,3.17.86,6.41,1.37,9.6a6.48,6.48,0,0,0,2.89,4.74,2.33,2.33,0,0,0,2.81.1,3,3,0,0,0,1-3.13c-.57-1.9-1.07-3.81-1.7-5.69a6.72,6.72,0,0,1,.08-4.64,54.14,54.14,0,0,1,6.72-13,61.23,61.23,0,0,1,6.47-6.89,1.68,1.68,0,0,1,1.51-.33,1.59,1.59,0,0,1,.59,1.39c-.69,3.58-1.4,7.15-2.24,10.69a94.56,94.56,0,0,0-2.52,13.19c-.16,1.7,0,3.31,1.3,4.63s2.21,1.58,3.3,1.1a3,3,0,0,0,1.56-3.14,32.47,32.47,0,0,1,1.12-11.11c1-4.26,2.33-8.46,2.76-12.85a5.37,5.37,0,0,1,.33-1.2,14.59,14.59,0,0,0,.4-7.39c-.58-3.28-4.72-5.38-7.35-3.68-3.47,2.25-7,4.54-9.63,7.81-1.1,1.35-2.35,2.58-3.46,3.93-.63.77-1.14.73-1.89.18a15,15,0,0,0-3.33-2.13c-2.28-.87-3.34.08-3.09,2.47.37,3.46.72,6.93,1.07,10.39ZM21.13-262.92a1.92,1.92,0,0,0,.46,2.49c.61.55,1.21,1.1,1.83,1.64A18.63,18.63,0,0,1,25.5-257c3.51,4.1,7,8.23,10.45,12.36,1.47,1.75,1.54,2.67.33,4.66l-5.05,8.3c-1.72,2.82-3.32,5.72-5.2,8.43a90.17,90.17,0,0,1-5.68,7.18,1.35,1.35,0,0,0-.1,2,9.24,9.24,0,0,0,.74,1c1.38,1.47,4.16,1.59,5.21.16,1.67-2.28,3.38-4.54,4.85-6.94,2-3.25,3.74-6.63,5.63-9.94,1.15-2,2.31-4,3.56-6s2.22-2.15,4-.8,3.8,3,5.67,4.47a4.76,4.76,0,0,1,.73,1c1.82,2.57,4.64,3.35,7.47,4a2.82,2.82,0,0,0,2.07-1.06c.64-.73.21-1.63-.46-2.21A16.89,16.89,0,0,0,56-233.32c-3.39-1.51-6.15-3.91-9.1-6-2.42-1.75-2.63-3-.94-5.46,2.52-3.6,5.18-7.11,7.74-10.68a13.43,13.43,0,0,1,3.77-3.91,2.77,2.77,0,0,0,.61-3.79c-1.69-2.47-5.35-2.64-6.75-.36-1.77,2.89-3.63,5.73-5.47,8.58-1.39,2.16-2.75,4.35-4.22,6.45-1.36,1.94-2.15,2-3.67.21-1.88-2.21-3.58-4.57-5.42-6.81s-3.95-4.7-5.95-7A4.49,4.49,0,0,0,23-263.77C22.36-263.5,21.43-263.41,21.13-262.92Zm-454.34,33.14a27.75,27.75,0,0,1,.16,4c-.25,2.82,1.45,4.09,4.14,4.69,2.13.48,3.49-1,2.76-3.07a29.52,29.52,0,0,1-1.28-10.08c0-2.74.21-5.48.33-8.22.19-4.23.18-8.49.64-12.69a34.29,34.29,0,0,0,0-10.16,12.09,12.09,0,0,1,0-2.74c.12-2.73.28-5.46.41-8.2.19-3.81.38-7.63.53-11.44a28.69,28.69,0,0,0-.12-3c0-.41-.34-1-.17-1.19,1.21-1.72.7-3.7.95-5.56.62-4.77,1.26-9.54,1.86-14.31.2-1.56.38-3.13.49-4.69.14-2.07-1.22-3.29-3.14-4a8.73,8.73,0,0,0-2.21-.38c-1.08-.08-1.53.32-1.53,1.44,0,.74.24,1.49.19,2.22-.42,7.29,0,14.61-1.1,21.9a144.72,144.72,0,0,0-1,16.65c-.29,8.73-.38,17.46-.62,26.19-.08,2.74-.36,5.47-.58,8.2-.29,3.56-.61,7.11-.88,10.2C-433.37-232.27-433.28-231-433.21-229.79Zm212.5,170.73A7.67,7.67,0,0,1-228-69.59a6,6,0,0,0,.44-1.42,14.11,14.11,0,0,1,3.05-6.72c2.53-3.39,5-6.81,7.76-10a24.88,24.88,0,0,1,5.2-4.59c1.89-1.25,4.19-.7,6.32-.38,1.39.21,2.75.62,4.13.86,3.93.7,8.15,4.7,7,9.58a15.89,15.89,0,0,1-3.28,6.6c-2.81,3.24-6.15,6-9.23,9a41.91,41.91,0,0,1-8,5.81A12,12,0,0,1-220.71-59.05Zm21.21-25.05c.12-2.56-1.4-3.8-3.62-3.22a19.53,19.53,0,0,0-9.52,5.55,52.73,52.73,0,0,0-3.73,4.35c-2.45,3.26-4.77,6.6-5.66,10.7-.35,1.62.36,2.44,2,2a9.12,9.12,0,0,0,2.7-1.22c2.3-1.63,4.45-3.48,6.78-5.07A41.4,41.4,0,0,0-202-79.28,10.06,10.06,0,0,0-199.5-84.11ZM200.09,216.66a32.09,32.09,0,0,0-4.1,1.67,2,2,0,0,0-1.24,2.46,17.9,17.9,0,0,0,1.34,3.46A8.13,8.13,0,0,1,197.2,230a10.07,10.07,0,0,0,0,2.24,64.83,64.83,0,0,1-.81,15.61,5.36,5.36,0,0,0,0,1.47c.25,2.71,2.39,3.64,4.45,4.54,1,.45,2.29.81,3.24-.27s1.76-2.32,1.2-4.05a19,19,0,0,1-.81-4.61c-.4-6.18.67-12.26,1.52-18.35a3.3,3.3,0,0,1,2.11-2.86c4.24-1.66,8.44-3.44,12.72-5a54.39,54.39,0,0,0,12.29-6.5c1.41-1,2-2.65,1.11-3.91a10,10,0,0,0-3-2.84c-1.49-.88-2.52-.42-3.64,1a9,9,0,0,1-2.4,2.46c-3.52,1.84-7.08,3.65-10.76,5.15-4.14,1.69-8.4,3.21-13.52,2.58A1.46,1.46,0,0,0,200.09,216.66ZM-74.53-81.21q.23,2.48.46,5c.19,2,.45,4,.55,5.94.17,3.28,2.29,5.23,5.48,4.9A2.42,2.42,0,0,0-65.63-68c0-2.07.15-4.14,0-6.2-.21-3.56-.59-7.1-.87-10.65-.12-1.56-.53-3.08-.08-4.69a5,5,0,0,0-.32-2.65c-.62-1.91-.54-2.28,1.39-2.88,1.27-.39,2.59-.59,3.89-.86.81-.17,1.64-.28,2.45-.45,2.6-.55,5.2-1.09,7.79-1.68q4.25-1,8.48-2c2.49-.63,5-1.33,7.46-2a3.14,3.14,0,0,0,2.35-2.28c.2-2.12-4-5.16-5.95-4.27-.6.28-1.15.68-1.74,1a13.73,13.73,0,0,1-1.82.8A125.33,125.33,0,0,1-61.63-102c-4.25.71-8.56,1.11-12.86,1.53-2.59.26-3.76,2.27-2.45,4.53a4.32,4.32,0,0,0,1,1.14,5.75,5.75,0,0,1,2.05,5.12q-.25,4.23-.48,8.46ZM114-90.78c.78,6.92.65,13.92,2,20.79.54,2.76,2.07,4.72,4.75,5.34a2,2,0,0,0,2.65-1.81,17,17,0,0,0-.33-3.44,28.26,28.26,0,0,1-.56-3.91c.06-5.23,1.35-10.39,1-15.65a1.16,1.16,0,0,1,0-.25,1.89,1.89,0,0,1,1.93-1.87c2.15-.12,4.3-.34,6.46-.51.83-.07,1.67,0,2.48-.18,4.17-.7,8.32-1.45,12.49-2.16,3.18-.54,6.37-1,9.54-1.57,1.85-.32,2.69-1.88,1.69-3.52a13.05,13.05,0,0,0-2.73-2.79,2.79,2.79,0,0,0-3.67-.21,6,6,0,0,1-1.77.88c-3,.74-6,1.55-9,2.07a175.75,175.75,0,0,1-22.3,2.09,7.23,7.23,0,0,0-4.28,1.79,4.24,4.24,0,0,0-.86,1.29C113.76-92.91,113.92-91.85,114-90.78ZM58.4,193a2.39,2.39,0,0,0-2.66,2.79c.86,5-.05,9.95-.31,14.91-.1,1.89-.29,3.78-.47,5.67-.1,1.07-.28,2.13-.38,3.2-.16,1.65-.25,3.32-.41,5-.29,2.89-.73,5.78-.88,8.67-.13,2.55.05,5.11.08,7.67,0,5,0,10,.14,14.94a5.59,5.59,0,0,0,4.25,5.52c1.74.59,3.08-.15,3.21-2,.19-2.74.19-5.48-1.23-8a5.64,5.64,0,0,1-.64-2.61c-.09-8.9-.15-17.8.95-26.65.57-4.61,1.48-9.17,2.26-13.75.55-3.19,1.15-6.36,1.64-9C63.95,195.46,61.67,193.08,58.4,193ZM-90.77,77.49a32.15,32.15,0,0,1,3.24,0,4.39,4.39,0,0,0,3.2-1.1,1.56,1.56,0,0,0,.46-2.19c-1.1-2.39-3.41-3.79-5.91-3.1a59.18,59.18,0,0,1-9.81,1.62A153.89,153.89,0,0,1-115.73,74c-2.73,0-5.48.25-8.2.5-2.57.24-3.3,1.61-2.2,3.93.36.75.85,1.43,1.22,2.18a10,10,0,0,1,.81,2.08c.78,3.4,1.39,6.83,2.29,10.2.81,3,1.48,6.15,3.45,8.75A4.83,4.83,0,0,0-115,104c1.79.17,2.56-.43,2.48-2.2a9,9,0,0,0-.66-2.89,35.84,35.84,0,0,1-2.27-14.92,11.78,11.78,0,0,1,.6-2.66A1.86,1.86,0,0,1-113,79.87c4.29-.42,8.58-.9,12.87-1.36.82-.09,1.66-.13,2.47-.26,2.29-.35,4.57-.74,6.85-1.12ZM-317.39-63.63a7.67,7.67,0,0,1,.61-1.36c2.18-3.72,4.16-7.58,6.62-11.11,3.51-5,6.67-10.32,11.1-14.67,1.62-1.59,1.29-3.5-.51-5a3.27,3.27,0,0,0-4.95.54q-3.94,5.59-7.72,11.29c-2.51,3.81-4.89,7.71-7.39,11.52-.81,1.23-1.69,1.21-2.5,0a30.16,30.16,0,0,1-1.64-3.08c-2.17-4.19-4.26-8.43-6.53-12.56a9,9,0,0,0-6.85-4.85c-2-.27-2.94.88-2.09,2.67a7.9,7.9,0,0,0,2.13,2.67A15.3,15.3,0,0,1-333.2-83c.61,1.08,1.27,2.13,1.82,3.24,2.54,5.1,5.88,9.82,7.11,15.55.53,2.45,1.34,2.85,3.71,2.83S-318.13-61.51-317.39-63.63ZM213.83-264h3c1.08,0,2.17.07,3.25,0a2.32,2.32,0,0,0,2.39-1.78,3.22,3.22,0,0,0-3-4.23,13.82,13.82,0,0,0-3,.28c-1.23.19-2.43.62-3.66.69-4.07.24-8.15.25-12.21.56-3.14.24-6.27.69-9.38,1.22a20.39,20.39,0,0,0-4.26,1.37c-2.09.86-2.35,1.78-1.76,3.93a76.35,76.35,0,0,1,1.73,7.75q1.09,6.63,1.88,13.31c.32,2.73,2,4.27,4.22,5.46a1.9,1.9,0,0,0,2.9-1.59,9.64,9.64,0,0,0-.37-2.68c-.69-3.07-1.61-6.1-2.09-9.2-.42-2.7-.38-5.47-.53-8.21-.22-3.93.06-4.13,4.23-5.39a16.39,16.39,0,0,1,3-.41c.74-.08,1.5-.09,2.24-.17l11.38-1.26ZM-234.95-111.68c0-.5,0-1,0-1.5,0-3.33-1.72-5.27-5-5.69-1.83-.23-2.62.69-2.28,2.48a26.26,26.26,0,0,1,.64,4.9c0,3.57-.3,7.14-.34,10.71-.07,6.66,0,13.32,0,20,0,1.24.27,2.48.29,3.72a89.15,89.15,0,0,1-.1,10.22,4.17,4.17,0,0,0,2.2,4.53c2.33,1.45,4.36.71,4.82-2a16,16,0,0,0-.1-4.45c-.38-3.29-1.75-6.39-1.65-9.8.13-4.83,0-9.66,0-14.49a39.58,39.58,0,0,1,.19-4c.49-4.88,1-9.75,1.54-14.62ZM-253.4,75.5a6.75,6.75,0,0,1,0-1.24c.58-3.06-2.91-5.68-5.79-5.22-.84.13-1.53.41-1.64,1.24a55,55,0,0,0-.51,5.91c0,2.15.39,4.33.18,6.45a110.28,110.28,0,0,0-.34,16.88,22.61,22.61,0,0,0,.71,4.66,4.76,4.76,0,0,0,1.49,2.2,4.17,4.17,0,0,0,4.62.91c1.15-.52,1.49-2.58,1-4.56a40.08,40.08,0,0,1-1.17-4.81,36.08,36.08,0,0,1-.4-6.18c.11-3.06.48-6.12.75-9.18a17.27,17.27,0,0,1,.24-2c.35-1.68.74-3.36,1.11-5Zm539,167.25c0,1.66,0,3.32,0,5a9.17,9.17,0,0,0,3.34,7c1.88,1.65,3.87,1,4.52-1.43a8.37,8.37,0,0,0-1-6.45,6.88,6.88,0,0,1-.88-4.31c.64-5.26,1.16-10.55,2-15.79a7.06,7.06,0,0,0-1.79-5.95,5.43,5.43,0,0,0-5-1.75,1.22,1.22,0,0,0-1.22,1.31c0,.5,0,1,0,1.49.1,3.4.29,6.8.26,10.19,0,3.57-.28,7.13-.43,10.7Zm-561.63,9c.22,2.59,1.45,3.9,3.83,4.13,1.58.15,3-.28,2.68-2.5-.08-.49-.18-1-.3-1.46a21.65,21.65,0,0,1-.33-9.14,24,24,0,0,0,.53-4.19,32.05,32.05,0,0,1,.94-8.38c.32-1.2.4-2.46.64-3.68a5.06,5.06,0,0,0-1.18-4.18,4.84,4.84,0,0,0-4.47-1.6c-1.27.42-1.86,1.61-1.88,3.69,0,1.75,0,3.5-.12,5.23-.32,3.8-.75,7.59-1.09,11C-276.5,244.58-276.31,248.14-276,251.69ZM102.48,97.63a7.41,7.41,0,0,0,.67,2.38,3.44,3.44,0,0,0,4.2,1.76c1.53-.57,2-2,1.33-4a27.35,27.35,0,0,1-.8-3.36c-.79-4.18.18-8.26.68-12.37a52.78,52.78,0,0,0,.39-6.7,5.56,5.56,0,0,0-2.21-4.3,3.33,3.33,0,0,0-3.53-.38c-1.08.43-.85,1.56-.89,2.41a23.8,23.8,0,0,0,.36,2.7,28.28,28.28,0,0,1,.16,4.2c-.24,3.3-.62,6.59-.84,8.77C102.2,92.5,102.29,95.07,102.48,97.63ZM223.89-84.45c0-.42,0-.83,0-1.25a6.65,6.65,0,0,0-5.17-6.49c-1.55-.41-2.24,0-2.25,1.61a9.54,9.54,0,0,0,.59,3.12,16.39,16.39,0,0,1,1.37,6.26c-.14,3.3,0,6.61,0,9.91a11.81,11.81,0,0,1-.06,2.73A5.15,5.15,0,0,0,220-63.41c1.24,1.25,2.11,1.38,3.77.53,1.22-.63,1.15-1.73,1-2.81-.12-.82-.42-1.61-.56-2.42a29.6,29.6,0,0,1-.66-4.64c0-3.9.11-7.8.18-11.7ZM236.1-237.72a5.58,5.58,0,0,0,3.26,3.88,2.11,2.11,0,0,0,3-1.54,5.62,5.62,0,0,0-.42-2.15c-.59-1.81-1.67-3.56-1.79-5.39a85.5,85.5,0,0,1,.19-10.19c.1-2,.58-3.94.65-5.92a4.63,4.63,0,0,0-2.32-4.63c-1.2-.65-2.52-1.38-3.73-.55s-.51,2.15-.44,3.28c.13,2.15.4,4.29.42,6.43a33.33,33.33,0,0,1-.49,4.27C235-246.09,235.36-241.87,236.1-237.72ZM405.93,251.57a17.91,17.91,0,0,0,2.47-.13c1.49-.28,2.46-1.42,2-2.59-.75-1.88-1.44-3.93-3.54-4.84-.49-.21-1.22-.45-1.6-.24-1.22.67-2.65,1.33-3.36,2.41-.48.73,0,2.18.25,3.28.31,1.63.83,2,2.54,2.07.41,0,.83,0,1.24,0ZM-262.69,48.65a7.52,7.52,0,0,0,5,4.25,2.49,2.49,0,0,0,2.92-.88,2.58,2.58,0,0,0-.12-3.06,7.55,7.55,0,0,0-6.23-3.13C-263,45.69-263.48,47-262.69,48.65ZM286.23,204.4a3.62,3.62,0,0,0,4.34-.07c1.23-1.3,1.21-2.63-.26-4.14a9.36,9.36,0,0,0-2.57-1.91c-2.08-1-3.36-.09-3.32,2.42A4.35,4.35,0,0,0,286.23,204.4Zm-69.6-311.86a5.94,5.94,0,0,0,4.57,5.21,1.77,1.77,0,0,0,2.32-1.27c.66-2.62-1.95-6-4.6-6C217.46-109.46,216.55-108.65,216.63-107.45ZM103.6,51.29a3.62,3.62,0,0,0,4.69,2.82c1.51-.32,1.92-1.14,1.43-2.55a6.35,6.35,0,0,0-3.93-4.18c-1.52-.54-2.19-.16-2.31,1.43,0,.33,0,.66,0,.95A7.75,7.75,0,0,0,103.6,51.29Zm-371.66,151c-.77-1.84-2.39-2.43-4-3-1.37-.47-2.24.17-2.44,1.6a4.28,4.28,0,0,0,4.31,4.69C-268.18,205.59-267.28,204.12-268.06,202.25ZM239.51-277.7c-.72-2.11-2.71-2.51-4.44-3.16a2.32,2.32,0,0,0-2,.37,1.69,1.69,0,0,0-.09,2.26,8.92,8.92,0,0,0,4.18,3.7c1.47.62,2.64-.18,2.72-2Z" transform="translate(447.44 320.81)"/></svg>